<svg width="461" height="214" viewBox="0 0 461 214" fill="none" xmlns="http://www.w3.org/2000/svg">
<path d="M345.957 43.5002C345.673 44.0419 343.863 46.8926 342.502 49.2406C341.315 51.2884 339.735 54.6147 338.51 57.9667C337.39 61.03 337.255 66.3522 337.842 75.5317C338.63 87.8522 341.319 95.3746 341.9 96.9073C344.036 102.547 350.111 108.814 353.623 111.939C357.147 115.009 366.335 119.838 372.513 122.36C373.404 122.511 374.403 122.519 375.5 122.482" stroke="black" stroke-width="3" stroke-linecap="round"/>
<path d="M420.5 114.5C421.9 114.5 425.836 114.183 430.986 111.694C438.889 107.875 440.446 104.743 443.064 100.594C445.988 94.6588 446.617 92.9205 447.152 90.6962C447.277 90.0317 447.387 89.2774 447.5 88.5002" stroke="black" stroke-width="3" stroke-linecap="round"/>
<path d="M441.606 73.0099C441.529 72.9337 441.451 72.1776 441.539 70.906C441.708 68.4656 446.658 66.5266 449.543 65.6673C451.247 65.1599 452.862 65.9185 453.844 66.476C455.709 67.5359 456.9 70.0521 458.579 74.3787C460.959 80.5117 458.219 87.2426 456.074 90.3178C455.212 90.9289 453.364 91.6013 450.358 92.2621C448.775 92.4947 447.073 92.5188 445.24 92.491" stroke="black" stroke-width="3" stroke-linecap="round"/>
<path d="M355.5 28.1462C355.558 27.8618 359.083 23.4531 365.049 17.5727C367.955 14.7097 370.107 14.1844 371.798 13.3312C373.833 12.3047 375.488 11.9522 377.778 11.2058C379.405 10.6752 384.095 9.06308 390.254 7.35633C393.192 6.54202 397.351 6.48015 402.897 6.50422C404.972 6.51322 405.543 6.61998 408.054 7.39506C410.565 8.17014 414.999 9.63696 418.749 11.0945C422.498 12.5521 425.429 13.9559 427.887 15.2889C434.833 19.0544 435.941 20.4565 437.53 21.9637C439.706 24.0284 442.62 27.1354 445.096 30.3546C446.646 32.5725 447.404 33.8443 447.999 34.8965C448.385 35.5473 448.941 36.4352 449.5 37.5002" stroke="black" stroke-width="3" stroke-linecap="round"/>
<path d="M449.5 38.5002C449.83 38.7702 450.793 40.0109 451.974 41.896C454.536 45.9866 456.869 51.4308 457.487 54.2194C457.597 60.1552 457.011 62.547 455.622 65.5592C455.262 66.1667 455.007 66.331 454.743 66.5002" stroke="black" stroke-width="3" stroke-linecap="round"/>
<path d="M348.844 31.7494C348.785 31.4529 348.514 30.3148 345.51 25.4248C343.116 21.5285 340.524 19.021 338.586 17.2939C333.628 12.8749 331.531 12.0928 328.538 11.6034C326.169 11.216 325.008 11.9502 322.536 13.2894C320.293 14.505 318.051 15.7533 316.585 17.0277C315.971 17.562 315.764 18.452 315.571 19.4146C315.371 20.4135 315.602 21.2517 316.157 22.0351C317.163 23.4553 319.705 25.525 322.466 28.4339C324.814 30.9065 326.46 32.2825 328.911 34.4197C330.949 36.1966 334.734 39.2219 336.884 40.9325C339.428 42.9572 341.207 44.1635 344.633 46.5124C346.722 47.9442 349.7 49.5918 352.2 50.8474C354.699 52.103 356.675 52.8473 359.263 53.6945C361.851 54.5417 364.991 55.4692 371.632 56.6341C378.272 57.7989 388.316 59.1732 399.034 60.0793C409.751 60.9855 420.837 61.3819 427.452 61.4769C434.066 61.5719 435.873 61.3534 438.746 61.2409C441.618 61.1284 445.5 61.1284 449.5 61.1284" stroke="black" stroke-width="3" stroke-linecap="round"/>
<path d="M367.847 83.3253C367.247 83.3756 365.933 83.2777 365.768 83.0216C365.11 81.9995 365.799 79.6129 366.387 78.681C367.084 77.5759 368.385 77.5057 369.595 77.5003C370.445 77.4964 370.97 78.5061 371.321 79.2469C371.716 80.0813 371.42 81.2844 370.806 82.2946C370.199 83.2918 368.836 83.4679 367.693 83.5001C367.447 83.507 367.32 83.3128 367.212 83.1427C366.645 82.2541 366.765 80.1261 366.984 78.8951C367.061 78.4636 367.49 78.257 367.79 78.0975C368.096 77.9346 368.56 77.9825 369.024 78.0018C369.381 78.0166 369.729 78.288 370.085 78.6324C370.373 78.9101 370.487 79.2596 370.55 79.5835C370.608 79.8796 370.459 80.1913 370.227 80.4971C369.727 81.1552 368.833 81.3798 368.235 81.4016C368.124 81.4056 368.13 81.1741 368.186 81.0179C368.242 80.8617 368.372 80.7076 368.508 80.6185C368.758 80.4554 369.11 80.5033 369.424 80.6055C369.627 80.8589 369.722 81.2723 369.688 81.6916C369.635 81.8667 369.509 81.9654 369.163 82.0348" stroke="black" stroke-width="3" stroke-linecap="round"/>
<path d="M411.62 83.487C410.813 83.53 409.004 83.4703 408.751 83.2761C407.727 82.488 408.507 80.0503 408.938 79.3052C409.308 78.6666 410.255 78.5504 411.888 78.5011C412.561 78.4808 412.933 78.8378 413.149 79.0573C413.588 79.5041 413.557 80.3219 413.372 80.9385C413.12 81.7815 412.142 82.0637 411.2 82.3574C410.479 82.5821 409.878 82.3661 409.64 82.1992C409.063 81.7943 409.042 80.2124 409.185 79.2591C409.231 78.9526 409.756 78.8678 410.227 78.7944C410.779 78.7082 411.273 78.8413 411.589 79.0144C412.142 79.3182 412.21 80.1025 412.188 80.8458C412.167 81.5259 411.019 81.8859 409.83 82.3675C409.186 82.6279 408.533 82.6244 408.076 82.5521C407.666 82.4872 407.572 81.9626 407.514 81.564C407.455 81.1604 407.587 80.7434 407.799 80.3877C408.098 79.8853 408.697 79.6655 409.274 79.4611C410.105 79.1668 411.404 79.469 411.882 79.8433C412.126 80.034 412.177 80.355 412.228 80.6108C412.278 80.8611 412.154 81.1115 411.953 81.3285C411.516 81.7978 410.894 81.7809 410.582 81.7509C410.407 81.734 410.231 81.5709 410.13 81.3812C409.915 80.9778 410.111 80.43 410.343 79.9953C410.667 79.388 411.515 79.4753 411.915 79.5376C412.082 79.5637 412.105 79.7746 412.042 79.9337C411.471 80.4783 410.817 80.7202 410.232 80.8514C409.958 80.9006 409.731 80.9143 409.475 80.9124" stroke="black" stroke-width="3" stroke-linecap="round"/>
<path d="M378.5 100.5C378.495 100.633 378.707 101.326 379.49 102.296C380.206 103.184 381.394 104.24 383.696 105.451C384.787 106.026 385.85 106.241 387.34 106.391C389.765 106.635 391.592 106.407 392.264 106.309C393.688 106.099 395.659 104.579 396.879 103.524C397.025 103.366 397.144 103.227 397.242 103.096C397.34 102.965 397.412 102.847 397.5 102.591" stroke="black" stroke-width="3" stroke-linecap="round"/>
<path d="M347.5 99.5002C347.456 99.5443 347.212 99.9399 346.385 101.178C345.781 102.043 344.801 103.389 344.248 104.202C343.695 105.015 343.599 105.254 343.5 105.5" stroke="black" stroke-width="3" stroke-linecap="round"/>
<path d="M350.5 105.5C350.5 105.521 350.424 106.173 350.192 107.71C350.037 108.605 349.805 109.734 349.674 110.58C349.544 111.426 349.522 111.955 349.5 112.5" stroke="black" stroke-width="3" stroke-linecap="round"/>
<path d="M359.5 110.5C359.5 110.5 359.5 110.5 359.5 111.325C359.5 112.15 359.5 113.8 359.5 115.5" stroke="black" stroke-width="3" stroke-linecap="round"/>
<path d="M365.5 114.5C365.5 114.5 365.5 114.5 365.5 115.49C365.5 116.48 365.5 118.46 365.5 120.5" stroke="black" stroke-width="3" stroke-linecap="round"/>
<path d="M417.5 114.505C417.5 114.494 417.5 114.483 417.5 114.673C417.5 114.863 417.5 115.254 417.659 115.853C417.819 116.452 418.138 117.246 418.5 118.5" stroke="black" stroke-width="3" stroke-linecap="round"/>
<path d="M421.5 114.5C421.519 114.5 421.893 114.684 422.629 115.098C422.999 115.329 423.364 115.6 423.984 115.997C424.603 116.394 425.465 116.909 426.5 117.5" stroke="black" stroke-width="3" stroke-linecap="round"/>
<path d="M426.5 107.5C426.545 107.5 426.935 107.719 427.723 108.239C428.144 108.54 428.608 108.917 429.529 109.614C430.45 110.311 431.813 111.317 433.5 112.5" stroke="black" stroke-width="3" stroke-linecap="round"/>
<path d="M433.5 105.5C433.519 105.5 433.987 105.5 434.996 105.571C435.546 105.641 436.172 105.782 437.743 106.275C439.315 106.768 441.811 107.609 444.5 108.5" stroke="black" stroke-width="3" stroke-linecap="round"/>
<path d="M366.5 130.5C366.212 130.514 363.102 132.627 357.229 138.038C353.789 141.208 350.035 145.872 346.783 150.556C343.53 155.24 341.05 159.965 339.235 164.384C337.42 168.803 336.344 172.773 335.665 177.044C334.986 181.316 334.736 185.768 334.5 190.5" stroke="black" stroke-width="3" stroke-linecap="round"/>
<path d="M334.5 190.5V208.5" stroke="black" stroke-width="3" stroke-linecap="round"/>
<path d="M334.5 209.087C334.519 209.087 336.369 209.106 343.284 209.226C348.358 209.314 356.608 209.512 361.554 209.5C370.064 209.478 372.018 208.357 373.294 207.936C373.593 207.795 373.82 207.638 374.304 207.192C374.788 206.746 375.523 206.016 376.5 204.5" stroke="black" stroke-width="3" stroke-linecap="round"/>
<path d="M427.5 121.5C428.202 122.114 430.492 124.557 434.363 129.885C437.298 133.925 442.012 140.815 445.605 147.005C449.199 153.194 451.481 158.51 453.233 163.855C454.986 169.2 456.14 174.413 456.967 180.823C457.793 187.234 458.257 194.683 458.424 199.04C458.591 203.398 458.449 204.438 458.318 205.108C458.188 205.778 458.075 206.047 457.365 206.5" stroke="black" stroke-width="3" stroke-linecap="round"/>
<path d="M457.494 207.299C457.514 207.299 457.496 207.625 457.299 208.213C457.084 208.858 456.216 208.967 454.014 209.35C452.112 209.681 448.587 210.086 444.78 210.316C440.973 210.547 436.983 210.537 434.295 210.416C430.33 210.237 427.585 209.26 424.76 208.057C419.677 205.891 417.342 202.878 416.026 201.721C414.494 200.418 413.763 200.014 413.272 199.775C413.021 199.666 412.764 199.584 412.5 199.5" stroke="black" stroke-width="3" stroke-linecap="round"/>
<path d="M376.5 162.172C376.51 162.172 376.519 162.172 379.359 162.172C382.199 162.172 387.869 162.172 391.702 161.93C400.147 161.395 402.346 160.337 403.362 160.522C404.332 162.178 405.002 165.759 405.374 170.631C405.5 173.295 405.5 176.351 405.5 179.5" stroke="black" stroke-width="3" stroke-linecap="round"/>
<path d="M375.5 165.5C375.5 165.5 375.5 165.5 375.5 167.48C375.5 169.46 375.5 173.42 375.5 177.5" stroke="black" stroke-width="3" stroke-linecap="round"/>
<path d="M368.506 187.115C368.476 184.392 368.562 178.588 368.809 178.321C369.999 177.035 371.014 183.862 371.708 185.823C371.797 186.075 371.994 186.264 372.155 186.246C373.583 186.085 374.668 182.07 376.346 180.372C378.633 178.058 382.676 177.648 385.691 177.502C386.281 177.473 386.515 177.86 386.77 178.434C387.025 179.008 387.285 179.891 387.62 182.888C387.955 185.884 388.356 190.967 388.485 193.959C388.724 199.524 386.119 202.39 384.684 203.705C384.166 204.048 383.433 204.454 382.756 204.766C382.079 205.078 381.482 205.283 380.789 205.5" stroke="black" stroke-width="3" stroke-linecap="round"/>
<path d="M403.478 182.603C403.174 182.493 401.238 182.331 399.749 182.972C398.157 183.658 397.972 185.933 397.615 188.535C397.038 192.753 398.743 195.24 400.146 197.064C401.516 198.845 405.511 199.215 409.791 199.5C411.204 199.324 412.117 199.11 412.686 198.925C412.957 198.826 413.192 198.717 413.5 198.604" stroke="black" stroke-width="3" stroke-linecap="round"/>
<path d="M404.127 183.5C404.073 182.629 403.897 180.306 403.659 178.794C403.582 178.305 403.468 177.709 403.509 177.279C403.549 176.849 403.747 176.605 403.979 176.527C404.212 176.45 404.473 176.546 404.808 176.725C405.143 176.905 405.544 177.165 406.5 177.796" stroke="black" stroke-width="3" stroke-linecap="round"/>
<path d="M420.5 145.5C420.5 145.538 420.681 146.006 422.279 149.986C423.696 153.517 426.341 160.118 428.228 165.447C430.114 170.775 431.16 174.631 431.742 176.903C432.324 179.174 432.411 179.745 432.5 180.5" stroke="black" stroke-width="3" stroke-linecap="round"/>
<path d="M407.5 177.5C407.762 177.751 409.333 179.244 411.482 181.561C412.382 182.654 413.077 183.665 413.842 184.671C414.026 184.907 414.204 185.129 414.5 185.5" stroke="black" stroke-width="3" stroke-linecap="round"/>
<path d="M414.5 185.063C415.522 184.738 418.612 183.933 423.412 183.622C426.842 183.4 432.31 183.539 435.321 183.592C439.65 184.056 440.974 184.661 441.497 184.944C441.764 185.081 442.034 185.204 442.5 185.5" stroke="black" stroke-width="3" stroke-linecap="round"/>
<path d="M353.5 186.798C353.481 186.798 356.94 186.647 362.503 186.5C364.597 186.505 365.212 186.672 366.114 187.018C367.015 187.365 368.184 187.887 369.5 188.5" stroke="black" stroke-width="3" stroke-linecap="round"/>
<path d="M202.5 86.5002C202.5 86.553 202.5 86.6058 202.508 97.1983C202.515 107.791 202.53 128.922 202.621 140.475C202.712 152.028 202.878 153.363 202.993 154.763C203.224 157.584 203.308 159.446 203.579 160.145C203.835 160.806 205.706 161.084 218.442 161.89C229.817 162.609 251.191 163.553 262.649 164.196C276.414 164.968 278.022 165.607 280.291 165.485C280.788 165.458 280.964 164.993 281.131 164.554C281.297 164.116 281.42 163.578 281.475 155.64C281.531 147.702 281.515 132.38 281.2 121.088C280.886 109.795 280.275 102.996 279.187 95.8102" stroke="black" stroke-width="3" stroke-linecap="round"/>
<path d="M189.5 106.013C189.5 105.985 189.748 105.668 196.108 100.018C202.179 94.6238 214.185 84.2895 221.128 78.0375C228.07 71.7855 229.626 69.9774 230.85 68.4546C232.981 65.8015 234.157 64.4833 235.102 64.5004C235.677 64.5108 236.434 64.7417 239.597 66.1046C242.761 67.4675 248.305 70.0109 253.532 73.1117C258.758 76.2125 263.499 79.7935 269.24 85.1174C274.981 90.4414 281.579 97.3997 285.598 101.864C289.616 106.329 290.854 108.089 292.5 110.5" stroke="black" stroke-width="3" stroke-linecap="round"/>
<path d="M207.5 62.5002V82.5002" stroke="black" stroke-width="3" stroke-linecap="round"/>
<path d="M207.5 59.5002C207.543 59.5002 207.586 59.5002 209.297 59.5002C211.008 59.5002 214.386 59.5002 216.449 59.5002C218.511 59.5002 219.155 59.5002 220.5 59.5002" stroke="black" stroke-width="3" stroke-linecap="round"/>
<path d="M220.5 59.5002C220.5 59.5272 220.5 59.5541 220.5 63.6768C220.5 67.7995 220.5 76.017 219.5 84.5002" stroke="black" stroke-width="3" stroke-linecap="round"/>
<path d="M234.5 121.5C234.5 121.513 234.5 121.526 234.5 127.446C234.5 133.365 234.5 145.19 234.5 157.5" stroke="black" stroke-width="3" stroke-linecap="round"/>
<path d="M235.5 119.5C235.513 119.5 235.526 119.5 239.291 119.5C243.056 119.5 250.574 119.5 254.577 119.697C258.581 119.895 258.842 120.289 259.099 124.037C259.356 127.785 259.601 134.874 259.458 140.866C259.315 146.858 258.777 151.538 258.48 154.787C258.182 158.037 258.142 159.714 258.016 161.5" stroke="black" stroke-width="3" stroke-linecap="round"/>
<path d="M11.5 91.5002C11.6421 91.8069 12.3338 92.8161 18.5236 99.7215C20.2381 101.634 21.5994 102.887 23.7184 104.479C28.5719 108.128 32.1906 110.102 33.5756 110.692C35.5963 111.554 37.7505 112.063 40.1975 112.459C44.0181 112.821 47.8201 113.172 50.4902 113.436C51.6735 113.525 52.5079 113.525 53.5 113.411" stroke="black" stroke-width="3" stroke-linecap="round"/>
<path d="M13.9846 64.1448C12.9217 63.6071 10.2581 62.1908 7.29605 61.0694C5.758 60.4871 4.514 60.4586 3.74166 60.5259C3.07607 60.584 2.64852 61.3881 2.21216 62.5214C1.56271 64.2081 1.32797 69.1122 1.63089 76.3738C1.90769 83.0093 4.27908 86.37 4.85385 87.4365C5.71248 89.0297 6.7511 90.2682 7.45817 90.9147C9.1523 91.566 11.2082 91.6084 12.2316 91.3594C12.8481 91.1804 13.6617 90.8942 14.5 90.5994" stroke="black" stroke-width="3" stroke-linecap="round"/>
<path d="M5.5 58.5002C5.5 56.7494 5.62493 52.4569 5.77563 50.5559C5.92161 48.7144 6.49161 46.3711 7.48797 43.1595C8.97929 38.3524 10.6811 35.0677 11.2776 33.7641C11.9706 32.2497 13.645 28.9994 15.9828 25.0707C19.0741 21.1274 21.9806 18.0162 23.3353 16.6827C23.8764 16.1347 24.1204 15.8478 24.5 15.5002" stroke="black" stroke-width="3" stroke-linecap="round"/>
<path d="M24.5 15.5002C24.5 15.435 24.5834 14.9149 24.8227 14.0228C25.0311 13.2464 25.7387 12.746 27.162 11.7687C30.1485 9.71813 34.7247 7.51725 39.6447 5.67783C44.1519 3.99273 47.0094 3.74489 47.8525 3.65807C48.652 3.57575 53.0413 3.55038 59.9138 3.50024C64.4701 3.62612 66.9159 3.85282 68.1877 4.02855C68.7331 4.0883 69.0756 4.0883 69.5 4.02093" stroke="black" stroke-width="3" stroke-linecap="round"/>
<path d="M69.5 3.50024C69.5463 3.50024 71.1746 3.50024 73.9487 3.60569C75.8304 3.67721 79.8684 5.75677 85.7162 8.66545C92.1018 11.8417 93.9076 13.5604 97.9736 16.6329C101.39 19.2143 103.285 21.5407 105.399 23.2542C106.689 24.2996 107.916 26.2532 110.058 29.1298C112.209 32.1801 112.881 33.3669 113.372 35.2333C113.455 35.7111 113.477 36.0998 113.5 36.5002" stroke="black" stroke-width="3" stroke-linecap="round"/>
<path d="M114.5 33.5002C114.512 33.5002 117.424 33.5105 122.287 33.6191C124.245 33.6628 125.161 33.9036 126.412 34.2938C127.663 34.684 129.219 35.2728 130.871 36.003C134.223 37.5871 136.283 38.6766 136.872 39.104C137.153 39.3217 137.398 39.541 137.5 39.4938" stroke="black" stroke-width="3" stroke-linecap="round"/>
<path d="M137.5 39.5002C137.5 39.5322 137.5 39.5642 137.49 41.9519C137.479 44.3397 137.459 49.0824 137.182 53.026C136.906 56.9697 136.376 59.9707 135.807 62.5616C134.649 67.2426 133.969 69.6409 133.806 70.0718C133.716 70.2577 133.61 70.3772 133.5 70.5002" stroke="black" stroke-width="3" stroke-linecap="round"/>
<path d="M96.5 100.5C96.5945 100.669 97.4592 101.608 100.494 104.008C102.806 105.837 106.888 108.651 109.617 110.407C113.521 112.92 115.516 113.436 116.849 113.778C117.662 113.963 118.753 114.169 119.429 114.285C120.105 114.401 120.332 114.42 120.5 114.5" stroke="black" stroke-width="3" stroke-linecap="round"/>
<path d="M95.5 98.5002C95.5 97.7689 95.5555 95.8327 96.4344 92.7167C96.8818 91.1306 97.3242 89.8581 97.9572 88.7873C98.185 88.4018 98.9719 88.5061 99.7059 88.5348C100.017 88.547 100.197 88.6661 101.537 89.5815C102.878 90.4969 105.373 92.2336 106.866 93.1968C108.358 94.16 108.774 94.2971 109.5 94.5747" stroke="black" stroke-width="3" stroke-linecap="round"/>
<path d="M109.5 94.5002C109.5 94.1535 109.609 93.1639 110.148 91.9849C110.27 91.7194 110.322 91.561 111.274 89.3089C112.227 87.0569 114.077 82.7155 115.386 79.1137C116.694 75.5119 117.405 72.7812 117.928 70.1104C118.45 67.4396 118.764 64.9115 118.948 63.3438C119.177 61.2452 119.269 60.5255 119.513 59.372C119.712 58.3914 120.061 56.6083 120.5 54.5002" stroke="black" stroke-width="3" stroke-linecap="round"/>
<path d="M120.5 54.5002C118.306 54.4941 113.274 54.3497 112.101 54.0713C111.658 53.9661 111.573 53.767 111.528 53.3973C111.414 52.4569 111.65 50.8706 112.127 48.5005C112.408 47.1047 112.974 45.3626 113.487 43.5605C114 41.7585 114.495 39.9609 114.914 38.6682C115.332 37.3754 115.66 36.642 116.187 35.5002" stroke="black" stroke-width="3" stroke-linecap="round"/>
<path d="M132.5 74.5002C130.654 74.5114 125.883 74.8414 124.081 75.645C122.445 76.3744 121.914 79.0392 121.36 83.3286C120.679 88.5938 122.222 90.6865 123.389 92.7528C123.623 93.1669 123.738 93.4531 123.596 93.6211C122.8 94.5637 121.195 94.0147 119.574 94.8416C117.924 95.6835 117.575 96.741 117.5 97.0891C117.692 97.4315 118.663 98.0801 119.957 98.8685C120.448 99.1818 120.602 99.319 120.78 99.5002" stroke="black" stroke-width="3" stroke-linecap="round"/>
<path d="M137.5 87.5002C137.537 87.7317 138.137 89.4791 139.967 93.6369C140.68 95.2592 141.595 97.5842 142.394 100.484C143.193 103.384 143.827 106.8 144.166 110.091C144.504 113.382 144.528 116.445 144.483 118.571C144.437 120.696 144.321 121.791 144.239 122.451C144.157 123.111 144.111 123.303 143.786 123.5" stroke="black" stroke-width="3" stroke-linecap="round"/>
<path d="M29.5 115.5C29.5 115.593 29.3768 115.948 26.5127 121.54C23.7995 126.837 18.4168 137.074 14.5132 145.707C10.6096 154.341 8.31974 161.047 6.89282 166.387C5.46589 171.727 4.97129 175.498 4.71729 180.275C4.4633 185.052 4.4649 190.722 4.55589 194.122C4.64687 197.523 4.8272 198.481 4.97068 199.131C5.11415 199.781 5.21531 200.092 5.36073 200.5" stroke="black" stroke-width="3" stroke-linecap="round"/>
<path d="M5.5 200.518C5.93362 200.691 9.22578 202.579 13.647 205.174C15.5551 206.295 16.9091 206.773 22.4594 207.773C28.0098 208.772 37.7479 210.216 44.5805 210.953C51.4131 211.691 55.0451 211.678 60.4297 210.944C65.8142 210.211 72.8412 208.757 79.446 207.072C86.0508 205.387 92.0205 203.514 95.5855 202.319C100.13 200.662 101.75 199.786 102.853 199.029C103.345 198.674 103.699 198.376 104.5 197.5" stroke="black" stroke-width="3" stroke-linecap="round"/>
<path d="M49.5 144.5C49.4901 144.5 49.4803 144.5 47.7485 147.113C46.0168 149.726 42.5635 154.952 39.7534 160.396C36.9434 165.839 34.8813 171.341 33.7768 174.383C32.6723 177.425 32.5879 177.839 32.5443 178.421C32.5006 179.003 32.5003 179.74 32.5 180.5" stroke="black" stroke-width="3" stroke-linecap="round"/>
<path d="M23.5 182.5C23.5584 182.489 23.6168 182.478 26.9275 181.765C30.2383 181.053 36.7996 179.64 49.5811 178.974C62.3625 178.308 81.1653 178.433 93.2747 178.805C105.384 179.176 110.231 179.79 112.878 180.146C115.526 180.501 115.828 180.579 116.5 180.917" stroke="black" stroke-width="3" stroke-linecap="round"/>
<path d="M132.5 74.5002C132.631 74.6188 133.697 76.529 135.204 79.9503C135.881 81.7022 136.379 83.4862 136.717 84.8739C137.055 86.2615 137.218 87.1989 137.5 88.5002" stroke="black" stroke-width="3" stroke-linecap="round"/>
<path d="M56.434 64.4874C55.483 64.5246 53.3328 64.4948 52.8668 64.2105C52.3014 63.8656 52.4826 62.7276 52.7908 61.8708C53.084 61.0557 54.1842 60.8565 55.2562 60.5832C56.0238 60.3875 56.6558 60.5766 56.9467 60.7531C57.6606 61.1863 57.5214 62.4893 57.4067 63.1749C57.3113 63.7457 55.9655 63.9843 55.1048 64.1845C54.9419 64.2224 54.7741 64.2056 54.6336 64.1539C54.3522 64.0502 54.2276 63.7522 54.157 63.4612C54.0751 63.1232 54.0816 62.6466 54.1238 62.1562C54.1536 61.8107 54.4127 61.5979 54.6564 61.4253C55.3863 60.9083 56.6267 61.292 56.8144 61.4204C57.0074 61.5524 57.0266 61.9434 57.0237 62.3549C57.0215 62.6733 56.7929 62.9197 56.5558 63.1291C56.1504 63.4872 55.6633 63.4481 55.3877 63.4094C55.2586 63.3912 55.1819 63.2637 55.1294 63.156C54.8944 62.6745 55.0715 62.1496 55.1932 61.9641C55.3804 61.8054 55.6061 61.7066 55.8496 61.6682C55.9803 61.6545 56.1256 61.6526 56.2752 61.6506" stroke="black" stroke-width="3" stroke-linecap="round"/>
<path d="M92.6949 54.3532C92.0583 54.3532 90.4987 54.241 90.0218 53.8561C89.3769 53.3355 89.505 52.4831 89.5205 51.8963C89.5352 51.3393 90.8299 50.9599 92.1298 50.685C92.9907 50.5028 93.6605 50.7396 93.9106 50.9727C94.4096 51.4379 94.4709 52.3484 94.4996 53.0058C94.5122 53.2957 94.252 53.529 93.965 53.7077C93.248 54.1542 92.1098 54.2366 91.3104 54.2274C91.1283 54.2253 90.9973 54.0753 90.8927 53.9475C90.255 53.1687 90.6952 51.6977 91.2633 51.0393C91.5037 50.7607 91.8522 50.6497 92.2133 50.5549C92.6916 50.4295 93.1816 50.5402 93.5359 50.6829C93.9571 50.8526 94.1548 51.3294 94.3459 51.8081C94.5828 52.4015 94.4573 53.0051 94.2714 53.4308C93.96 54.1439 93.0736 54.335 92.1199 54.4887C91.9022 54.5237 91.7278 54.476 91.5863 54.3891C91.4449 54.3021 91.3378 54.1488 91.2736 53.8674C91.2094 53.5859 91.1915 53.1809 91.4826 52.5641" stroke="black" stroke-width="3" stroke-linecap="round"/>
<path d="M68.5 77.5002C68.5178 77.5002 68.5356 77.5002 69.823 77.4756C71.1104 77.451 73.667 77.4017 75.4145 77.2909C77.162 77.18 78.023 77.0091 78.929 76.7371C80.7836 76.1802 82.4248 75.2493 83.7373 74.3243C84.3378 73.868 84.805 73.4381 85.2373 72.9781C85.6697 72.5181 86.053 72.0409 86.5 71.5002" stroke="black" stroke-width="3" stroke-linecap="round"/>
<path d="M86.5 71.5002C86.5 71.5266 86.5 73.4844 86.3138 77.2407C86.2236 79.0606 85.7553 80.6741 85.3516 82.0908C84.6088 84.6973 84.0244 85.9806 83.8134 86.3882C83.0076 87.9439 82.5139 88.8342 81.8298 89.171C80.3911 89.8794 78.9762 89.3103 77.6691 88.7237C77.1001 88.4683 76.3337 87.9293 75.5149 87.3227C74.696 86.716 73.8723 86.0064 73.0502 85.0808C72.2281 84.1553 71.4324 83.0353 70.7863 82.0105C70.1403 80.9856 69.668 80.0897 69.3217 79.3615C68.9755 78.6334 68.7696 78.1001 68.5 77.433" stroke="black" stroke-width="3" stroke-linecap="round"/>
<path d="M82.5 46.5002C82.5933 46.3549 83.7938 45.4674 85.7288 44.3785C86.685 43.8404 87.678 43.4995 88.664 43.2166C89.6499 42.9337 90.6215 42.762 91.8131 42.6518C93.0048 42.5416 94.3873 42.4982 95.3192 42.5003C96.2512 42.5025 96.6909 42.5516 96.9739 42.5769C97.2569 42.6023 97.37 42.6024 97.5 42.564" stroke="black" stroke-width="3" stroke-linecap="round"/>
<path d="M42.5 58.5002C42.5 58.4766 42.508 58.3529 42.5882 58.114C42.6977 57.7882 43.6679 57.2229 45.0453 56.2638C45.7041 55.8051 46.2307 55.3249 47.082 54.7868C47.9333 54.2488 49.0803 53.6474 49.9978 53.227C50.9153 52.8066 51.5685 52.5855 52.4196 52.4058C54.2999 52.0946 55.67 51.9591 56.1471 51.9066C56.3146 51.8541 56.3305 51.7491 56.5 51.5002" stroke="black" stroke-width="3" stroke-linecap="round"/>
<path d="M13.5 29.0476C13.5 29.119 13.5 32.2258 13.7032 36.4415C13.7358 37.1181 15.8682 31.8483 17.678 25.6841C18.3249 23.481 18.5272 23.1892 18.7537 22.9881C18.9801 22.7869 19.2519 22.6937 19.509 22.7298C20.0349 22.8037 21.3319 24.8916 23.0267 27.4259C24.6593 29.8672 24.3018 18.5847 24.7045 18.43C27.3918 17.3973 28.5864 23.2229 28.9023 23.4184C30.5865 24.461 30.0742 18.1154 30.8543 17.3315C31.0293 17.1556 31.3116 17.2052 31.5663 17.2685C32.1155 17.4052 33.1296 18.4145 34.3688 19.4248C36.1766 20.8987 36.1764 13.7893 36.661 13.5369C37.2026 13.2548 38.091 14.2835 38.9107 14.9679C40.1469 16 39.9825 11.7883 40.391 11.5621C40.9565 11.2488 42.7904 13.1999 44.9348 15.1866C45.6309 15.8315 45.8374 15.3499 45.9337 14.8576C46.1431 13.787 46.28 12.9812 46.6084 12.6926C47.761 11.6796 50.7563 15.3554 52.6129 16.8916C53.2436 17.4135 53.561 14.035 53.6827 10.0402C53.7232 8.71075 54.0095 8.8149 54.7414 9.57203C55.4734 10.3292 56.7163 11.7405 57.4675 12.4152C58.2188 13.0898 58.4408 12.9851 58.5754 11.6632C58.9666 7.82164 58.9232 4.89029 59.2861 4.43782C59.4601 4.221 59.8479 4.29807 60.1441 4.36317C60.7095 4.48739 63.4729 6.63091 67.3303 9.36067C68.5922 10.2537 68.7508 9.64861 68.793 8.93035C68.8352 8.21209 68.8352 7.27151 68.9528 6.75094C69.0703 6.23037 69.3054 6.15832 69.707 6.36869C70.7616 6.92124 71.7983 8.11285 72.7406 8.80807C73.0835 9.06111 73.3455 8.76219 73.4742 8.44762C73.6029 8.13304 73.6398 7.72254 73.7654 7.46763C73.8909 7.21272 74.104 7.12583 74.3572 7.13254C74.9079 7.14712 75.4768 7.4796 76.0043 7.56242C77.6733 7.82444 77.2904 3.8635 77.6389 3.58459C77.8128 3.4454 78.0923 3.49701 78.3547 3.60577C78.9243 3.8418 80.6003 5.68295 82.8653 7.87638C83.6211 8.60825 83.8408 8.25737 83.9386 7.73902C84.0364 7.22068 84.0731 6.46658 84.1902 5.98622C84.3072 5.50587 84.5036 5.32211 84.8059 5.42604C85.6206 5.70612 87.6654 8.6129 90.4048 12.1697C91.608 13.6648 92.1852 14.2974 92.8372 14.9932C93.1227 15.278 93.3161 15.4239 93.5 15.5797" stroke="black" stroke-width="3" stroke-linecap="round"/>
<path d="M93.5 15.0768C93.3568 14.7411 92.2533 13.0224 88.9008 9.52422C87.5235 8.08704 86.4195 7.59827 85.8944 7.42153C85.6551 7.34096 85.4254 7.48158 85.33 8.23176C85.0574 10.3726 85.3724 12.1339 85.5686 12.8579C85.8385 13.8542 83.0222 11.2613 78.0056 6.15844C75.3385 3.44552 74.0583 2.75877 73.388 2.56377C73.0704 2.47136 72.7768 2.4783 72.5217 2.59423C70.9704 3.29911 71.0044 5.97226 70.561 6.36009C69.5921 7.20765 67.8641 6.58212 59.789 3.95153C57.0589 3.06217 55.8544 3.08775 55.3289 3.20947C54.0562 3.50423 53.7793 6.99978 53.0122 8.93188C52.899 9.21691 52.5385 9.3282 52.1507 9.40514C49.0258 10.0251 45.6866 6.01173 45.2896 6.04587C44.7267 6.09427 44.9968 8.71172 44.834 11.3509C44.7782 12.2548 44.3517 12.2227 43.839 11.9529C42.5631 11.2814 41.6325 10.5629 41.1275 10.6129C39.0671 10.8171 38.4516 16.0581 36.9738 16.9768C35.6134 17.8226 33.2869 15.0058 31.6269 13.7775C31.3354 13.5619 31.0285 13.4996 30.7881 13.6109C28.803 14.5307 28.8986 18.335 28.3582 18.9243C27.3965 19.9728 25.8335 19.4832 24.3997 19.0602C23.7044 18.8551 22.9056 18.8689 22.157 19.162C21.367 19.4712 21.3182 23.1312 20.8547 27.5489C20.6255 29.733 20.1906 30.5149 19.8154 30.9799C19.6445 31.1917 19.3946 31.2425 19.1637 31.2623C18.6991 31.3021 18.194 30.764 17.7992 30.3238C15.8913 28.1963 17.9025 37.8712 17.2959 38.9372C17.0134 39.4337 16.3251 39.7036 15.5273 39.9498C13.9538 40.4354 13.1358 39.56 12.7834 39.564C8.92338 39.6075 14.843 49.3121 14.6859 49.7905C14.5173 50.3037 12.961 48.433 11.6689 46.8723C9.90257 44.7388 10.8202 54.4907 10.5162 55.329C10.3899 55.6772 10.1501 55.7936 9.91802 55.8179C9.4234 55.8695 8.27426 54.559 6.85984 53.088C4.82188 50.9684 5.88273 61.3093 5.65513 62.1701C5.56226 62.5214 5.31863 62.6308 5.11146 62.5381C4.90429 62.4453 4.69067 62.1296 4.56645 62.1803C4.41389 62.6578 4.54073 64.0585 4.77715 65.6756C4.85753 66.3317 4.85753 66.6537 4.66677 67.5002" stroke="black" stroke-width="3" stroke-linecap="round"/>
<path d="M15.5 88.5002C15.5 88.5178 15.5 92.8661 15.5277 98.5064C15.5305 99.0806 15.8784 95.1128 16.3119 93.6635C16.4818 93.0954 16.7647 92.9427 17.0424 92.9665C17.6859 93.0217 19.5178 96.8384 21.9659 101.895C22.7898 103.597 23.0615 103.393 23.3669 102.76C24.9019 99.5796 25.3409 98.4355 25.7996 98.2209C29.723 96.385 30.975 108.208 31.3564 107.483C31.7913 106.656 32.003 105.923 32.4611 105.666C34.6846 104.418 36.5796 111.057 37.026 110.504C38.5771 108.582 38.1413 105.959 38.5373 105.261C38.708 104.96 39.0354 104.92 39.3947 105.031C41.0638 105.545 42.6857 108.682 44.9227 111.778C45.6413 112.773 45.9438 112.247 46.0873 111.723C46.6891 109.526 47.1656 107.857 48.0841 107.206C48.2981 107.055 48.6103 107.246 48.8327 107.387C49.2738 107.668 50.5341 110.635 52.3189 114.602C52.9066 115.908 53.1033 115.656 53.4287 114.699C55.1055 109.767 55.8981 108.157 56.8146 107.386C57.0455 107.192 57.3561 107.162 57.6358 107.243C58.8469 107.595 59.1677 109.49 59.6884 111.147C59.9066 111.841 59.986 112.253 60.1774 111.533C60.8517 108.998 61.1499 106.545 61.5654 105.753C61.7379 105.425 62.0309 105.369 62.239 105.468C63.4739 106.055 63.4237 108.623 63.8191 110.072C63.9572 110.578 64.3639 110.466 64.9468 109.862C67.8963 106.804 68.8861 105.661 69.6409 105.382C69.9765 105.258 70.245 105.256 70.5108 105.535C71.2074 106.267 71.5114 108.044 71.8901 109.5C72.3202 111.152 74.4673 105.189 75.6409 104.024C75.9074 103.759 76.2022 103.723 76.4259 103.819C76.9324 104.035 77.1404 105.072 77.5 105.903C78.0505 107.175 80.0571 104.43 81.3937 103.923C83.1548 103.256 84.6793 104.1 86.8071 103.632C88.9126 102.764 90.8363 102.031 92.3427 101.757C93.2247 101.648 94.3453 101.6 95.5 101.551" stroke="black" stroke-width="3" stroke-linecap="round"/>
<path d="M67.5 71.5002C67.4682 71.5002 67.2344 71.5002 66.8376 71.5087C66.6583 71.5172 66.5239 71.5342 65.831 71.8457C65.1381 72.1571 63.8909 72.7627 62.5 73.5002" stroke="black" stroke-width="3" stroke-linecap="round"/>
<path d="M66.5 72.5002C66.7734 72.2106 68.4022 71.0068 70.798 69.863C71.3533 69.5979 72.0958 69.6065 73.0037 69.6169C73.4863 69.6225 73.7591 70.0322 74.06 70.3563C74.17 70.4748 74.3194 70.3635 74.4442 70.1833C74.7453 69.7488 74.9839 69.2373 75.3121 68.8871C76.0124 68.1395 78.544 68.7589 79.9605 68.8471C80.9915 68.9113 81.6335 67.6245 82.9082 67.5553C84.89 67.4476 85.8844 67.1933 86.7115 66.7586C87.1555 66.6829 88.5556 66.6364 90.4023 66.588C91.0959 66.5616 91.2949 66.5314 91.5 66.5002" stroke="black" stroke-width="3" stroke-linecap="round"/>
<path d="M145.867 123.464C145.868 123.478 145.869 123.492 146.416 132.342C146.964 141.191 148.059 158.876 148.38 170.29C148.702 181.703 148.216 186.31 147.975 188.816C147.733 191.321 147.75 191.587 147.767 191.861" stroke="black" stroke-width="3" stroke-linecap="round"/>
<path d="M147.777 192.017C147.872 193.59 147.91 197.363 147.202 199.108C146.885 199.814 146.414 200.866 145.359 202.803C144.303 204.739 142.677 207.527 140.891 210.432" stroke="black" stroke-width="3" stroke-linecap="round"/>
<path d="M140.895 210.475C140.065 210.533 137.818 210.611 136.652 210.46C135.281 210.283 133.336 209.499 131.543 208.648C130.696 208.114 129.64 207.214 128.382 205.868C127.75 205.129 127.131 204.278 126.446 203.243" stroke="black" stroke-width="3" stroke-linecap="round"/>
<path d="M115.582 120.726C115.583 120.74 115.584 120.754 116.587 128.966C117.59 137.178 119.596 153.587 121.631 167.088C123.667 180.588 125.671 190.684 127.183 197.454C128.695 204.223 129.653 207.362 130.704 210.764" stroke="black" stroke-width="3" stroke-linecap="round"/>
<path d="M97.114 123.96C97.0971 123.948 97.0802 123.937 100.525 128.875C103.969 133.813 110.876 143.701 115.024 150.009C119.171 156.317 120.351 158.745 121.003 160.205C121.654 161.664 121.742 162.081 121.849 162.744" stroke="black" stroke-width="3" stroke-linecap="round"/>
<path d="M130.5 14.5002C130.5 14.4217 130.648 13.9759 131.797 12.2065C134.646 8.53199 137.866 5.02052 140.159 3.1223C141.136 2.35503 141.734 1.98571 142.5 1.50024" stroke="black" stroke-width="3" stroke-linecap="round"/>
<path d="M137.5 21.5002C137.673 21.2683 138.238 20.8791 139.376 20.312C140.876 19.6978 143.296 19.0928 146.323 18.6662C147.792 18.5182 149.126 18.5094 150.5 18.5002" stroke="black" stroke-width="3" stroke-linecap="round"/>
<path d="M133.5 29.5297C133.5 29.5156 134.889 29.5013 137.144 29.5002C138.307 29.5253 139.495 29.726 140.956 30.0476C141.536 30.1882 141.79 30.2829 142.5 30.5002" stroke="black" stroke-width="3" stroke-linecap="round"/>
<path d="M377.5 117.5V124.5" stroke="black" stroke-width="3" stroke-linecap="round"/>
<path d="M385.5 119.5C385.5 119.53 385.5 119.559 385.5 120.055C385.5 120.55 385.5 121.511 385.5 122.5" stroke="black" stroke-width="3" stroke-linecap="round"/>
<path d="M393.5 117.5C393.5 117.5 393.5 118.497 393.5 120.233C393.5 120.973 393.5 121.427 393.5 121.925C393.5 122.424 393.5 122.954 393.5 123.5" stroke="black" stroke-width="3" stroke-linecap="round"/>
<path d="M400.5 116.5C400.509 116.5 400.519 116.5 401.163 117.148C401.807 117.796 403.085 119.092 404.5 120.5" stroke="black" stroke-width="3" stroke-linecap="round"/>
<path d="M409.5 116.5C409.52 116.5 409.54 116.5 410.177 116.819C410.814 117.139 412.067 117.777 413.5 118.5" stroke="black" stroke-width="3" stroke-linecap="round"/>
<path d="M374.507 96.5002C374.476 96.5002 374.549 96.3639 374.768 96.1326C375.269 95.6053 376.349 95.8496 377.385 95.6438C379.334 94.9768 381.37 94.2177 382.796 93.7563C383.089 93.6507 383.245 93.58 383.5 93.5002" stroke="black" stroke-width="3" stroke-linecap="round"/>
<path d="M396.5 95.5002C396.527 95.5002 397.063 95.5002 398.128 95.5735C399.217 95.7932 400.326 96.2498 401.492 96.982C402.114 97.4084 402.797 97.9462 403.5 98.5002" stroke="black" stroke-width="3" stroke-linecap="round"/>
<path d="M138.5 80.5002C139.735 80.5002 142.806 80.6991 144.717 81.6754C145.972 82.3164 147.337 84.0443 149.76 86.913C153.527 91.3712 157.498 97.8291 161.096 104.369C162.751 107.378 163.648 109.971 164.933 114.241C166.218 118.511 167.759 124.434 169.616 133.787C171.473 143.14 173.599 155.743 175.09 163.321C177.022 173.144 179.689 177.963 182.487 182.595C185.7 187.913 188.186 188.796 190.534 189.885C193.734 191.369 198.868 189.886 202.033 188.427C206.065 186.568 209.899 181.615 215.782 173.777C218.781 169.782 219.446 166.861 220.014 164.979C220.16 164.475 220.311 163.951 220.409 163.051C220.506 162.151 220.546 160.889 220.425 159.384" stroke="black" stroke-width="3" stroke-linecap="round"/>
<path d="M337.5 128.5C335.852 128.518 332.058 128.882 330.356 130.327C329.591 131.196 328.082 133.906 326.296 137.5C325.663 138.83 325.583 139.16 325.5 139.5" stroke="black" stroke-width="3" stroke-linecap="round"/>
<path d="M326.5 118.513C325.699 118.448 323.359 118.606 321.615 119.608C319.773 120.667 318.021 123.068 316.43 125.134C315.627 126.28 314.561 129.262 313.204 133.57C312.709 135.24 312.606 135.86 312.5 136.5" stroke="black" stroke-width="3" stroke-linecap="round"/>
<path d="M319.5 103.505C319.052 103.458 317.006 103.746 313.77 105.419C311.252 106.722 308.463 110.467 304.893 115.933C302.918 118.957 301.272 122.888 300.077 125.851C298.882 128.813 298.358 130.791 298.035 132.91C297.713 135.03 297.608 137.232 297.5 139.5" stroke="black" stroke-width="3" stroke-linecap="round"/>
<path d="M271.5 32.5002C271.5 32.5347 271.5 32.5691 271.467 34.3388C271.434 36.1084 271.369 39.6122 271.203 44.1031C271.037 48.594 270.772 53.9657 270.5 59.5002" stroke="black" stroke-width="3" stroke-linecap="round"/>
<path d="M272.766 31.5468C272.766 31.5349 272.766 31.523 278.259 31.5109C283.753 31.4989 294.739 31.487 300.533 31.5357C306.327 31.5844 306.595 31.6941 306.944 32.0453C308.965 34.0798 309.926 38.7069 310.418 43.403C310.611 45.2523 310.459 48.2092 310.014 51.8238C309.047 59.6847 307.513 64.4879 307.019 65.4082C306.66 66.0762 305.93 66.3111 304.984 66.448C302.649 66.7858 298.588 65.4378 291.969 63.793C288.733 62.989 285.714 62.3792 283.2 61.9149C275.987 60.8163 274.09 60.5722 273.477 60.4752C273.167 60.4337 272.86 60.4076 272.5 60.3459" stroke="black" stroke-width="3" stroke-linecap="round"/>
<path d="M273.5 31.5002C273.84 31.9073 274.861 33.4811 275.739 34.8964C277.124 37.1277 279.253 40.3707 282.862 45.5185C285.022 48.6002 286.387 49.0889 286.955 49.4499C287.57 49.8412 290.743 47.9362 296.344 44.2812C305.908 36.8883 306.578 36.2626 306.969 35.7817C307.156 35.5299 307.32 35.2624 307.5 34.86" stroke="black" stroke-width="3" stroke-linecap="round"/>
</svg>
