<svg width="476" height="407" viewBox="0 0 476 407" fill="none" xmlns="http://www.w3.org/2000/svg">
<path d="M59.9879 256.297C57.8112 256.297 51.7438 256.069 49.0795 255.568C46.0247 254.994 43.9663 254.265 42.2479 253.609C40.6088 252.982 38.3924 251.95 36.4991 251.051C34.8829 250.284 32.9337 249.152 30.9839 247.679C29.0049 246.185 26.9319 243.829 24.3591 240.81C22.6232 238.773 21.6612 236.895 20.9506 235.422C19.8461 233.219 17.3201 228.169 14.2982 221.911C13.1338 219.385 12.7188 218.178 12.1301 216.733" stroke="black" stroke-width="3" stroke-linecap="round"/>
<path d="M12.1301 216.733C12.1301 214.616 12.0107 209.533 11.5801 207.164C11.0132 204.044 9.70796 200.186 9.04712 195.271C9.15106 185.239 10.4122 178.99 11.375 176.243C11.7613 175.179 11.94 174.786 12.3825 173.811" stroke="black" stroke-width="3" stroke-linecap="round"/>
<path d="M98.189 146.425C98.6696 146.425 101.26 147.098 104.298 148.79C106.208 149.853 107.895 151.37 110.515 153.766C113.382 156.388 116.504 161.537 119.797 167.764C121.569 171.821 122.688 174.571 123.422 176.545C124.031 178.098 125.118 180.772 126.139 184.4" stroke="black" stroke-width="3" stroke-linecap="round"/>
<path d="M126.139 184.4C126.151 186.812 126.738 195.18 127.233 199.247C127.717 203.231 127.131 209.277 126.09 213.005C124.744 217.83 122.86 224.228 120.53 228.951C116.905 236.3 113.07 238.489 111.551 240.016C110.952 240.693 110.419 241.391 109.898 242.098C109.609 242.464 109.273 242.844 108.697 243.436" stroke="black" stroke-width="3" stroke-linecap="round"/>
<path d="M108.697 243.436C108.46 243.784 107.356 245.076 105.796 246.522C104.505 247.718 102.679 248.78 100.76 249.841C98.6976 250.981 93.8002 252.506 87.551 254.179C82.1006 255.638 77.8471 256.233 73.8603 256.836C65.7316 257.146 61.3519 257.068 60.3318 256.774C59.806 256.61 59.2636 256.417 57.9536 255.947" stroke="black" stroke-width="3" stroke-linecap="round"/>
<path d="M106.561 251.414C107.045 251.35 108.958 251.662 110.858 252.746C112.81 253.859 116.927 257.767 121.946 262.397C125.649 265.813 128.174 268.671 132.807 273.093C139.421 279.406 144.208 284.114 145.563 285.225C146.34 285.827 147.297 286.505 148.153 287.095C149.01 287.684 149.736 288.164 150.77 288.858" stroke="black" stroke-width="3" stroke-linecap="round"/>
<path d="M150.77 288.858C153.812 288.858 162.581 288.452 167.245 287.5C170.727 286.79 174.775 284.371 177.198 283.21C179.215 282.244 184.115 279.234 189.946 275.716C193.79 273.396 196.865 272.483 198.81 271.723C199.615 271.385 201.169 270.767 203.191 269.962C204.023 269.61 204.461 269.373 205.521 268.312" stroke="black" stroke-width="3" stroke-linecap="round"/>
<path d="M208.445 268.505C208.445 268.475 208.445 261.976 208.67 252.145C208.747 248.791 209.345 248.78 209.799 248.823C211.547 249.294 213.202 250.515 215.827 253.984C216.694 255.397 217.751 257.372 218.841 259.406" stroke="black" stroke-width="3" stroke-linecap="round"/>
<path d="M219.819 259.695C219.819 258.756 220.242 256.068 221.341 254.647C223.434 251.941 228.577 247.999 232.459 245.774C235.664 243.936 240.218 244.167 243.006 244.657C245.607 245.114 246.932 248.651 248.066 251.779C248.781 253.749 248.841 257.497 248.853 261.64C248.859 263.881 247.187 267.155 244.646 271.909C239.749 278.271 235.752 281.794 233.466 283.375C232.557 283.94 232.16 284.024 231.752 284.111" stroke="black" stroke-width="3" stroke-linecap="round"/>
<path d="M164.918 321.432C166.514 321.432 172.405 320.581 179.968 317.636C182.094 316.808 184.139 315.697 188.673 312.993C193.206 310.289 200.127 305.931 205.73 302.436C215.389 296.41 220.124 293.58 221.208 292.991C222.373 292.364 223.442 291.695 224.281 291.041C224.666 290.724 224.968 290.438 225.878 289.501" stroke="black" stroke-width="3" stroke-linecap="round"/>
<path d="M46.5177 264.138C46.1139 264.355 44.8872 265.084 40.3575 269.437C36.2308 273.402 28.7805 281.327 23.9967 286.613C17.1546 294.173 14.9147 298.07 13.3555 300.756C9.248 308.621 6.90107 314.306 6.14005 317.26C5.83213 318.612 5.68311 319.666 5.41553 321.513" stroke="black" stroke-width="3" stroke-linecap="round"/>
<path d="M5.50537 321.512C5.50537 321.572 5.50537 326.657 5.71084 335.086C5.79323 338.466 6.32726 340.003 7.899 343.596C9.47073 347.19 12.1908 352.789 15.3053 357.634C18.4199 362.479 21.8464 366.401 24.3291 369.005C30.0426 374.202 31.6127 375.396 33.3079 376.735C34.0768 377.325 34.6604 377.735 35.7679 378.347" stroke="black" stroke-width="3" stroke-linecap="round"/>
<path d="M35.7678 378.347C35.7678 378.406 35.7678 379.803 35.8679 382.08C35.9654 384.297 40.3633 386.508 46.2546 388.859C50.4432 390.531 56.4494 389.013 58.0249 388.298C59.5254 387.617 60.2091 385.785 60.8354 383.226C59.6439 377.765 56.3188 373.144 53.897 370.834C53.06 370.143 52.0589 369.403 50.5334 368.216" stroke="black" stroke-width="3" stroke-linecap="round"/>
<path d="M50.2521 368.716C50.5502 368.36 52.1844 367.038 54.4124 364.429C54.9352 363.817 55.1717 363.297 55.1449 362.868C52.941 361.369 49.077 360.595 45.2902 360.649C44.2051 360.752 43.1926 360.959 41.5046 361.175" stroke="black" stroke-width="3" stroke-linecap="round"/>
<path d="M80.0845 299.728C79.6817 299.984 78.4991 301.122 74.7213 305.265C71.5002 308.798 65.5921 315.198 60.7794 320.602C55.9667 326.006 52.4182 330.211 49.3764 334.142C43.9071 341.604 40.7793 346.283 39.712 348.156C39.2715 348.989 39.0362 349.582 38.5793 351.059" stroke="black" stroke-width="3" stroke-linecap="round"/>
<path d="M79.3684 298.299C79.3684 298.268 82.1979 298.255 89.7745 298.918C94.5489 299.335 101.101 300.89 106.841 302.217C112.581 303.544 117.283 304.844 120.478 305.828C125.264 307.302 128.688 309.119 132.375 311.321C135.875 313.765 139.124 316.461 141.586 318.741C142.538 319.637 142.886 320.003 143.398 320.73" stroke="black" stroke-width="3" stroke-linecap="round"/>
<path d="M145.833 324.271C145.253 324.434 143.982 325.098 139.493 330.065C135.334 334.668 127.507 343.634 121.648 350.809C115.788 357.985 112.172 363.134 108.118 369.606C104.065 376.078 99.6826 383.718 97.1044 388.433C92.6778 397.722 91.3316 401.5 90.8789 403.169C90.665 403.923 90.4834 404.488 90.2339 405.277" stroke="black" stroke-width="3" stroke-linecap="round"/>
<path d="M90.2337 405.277C90.2036 405.277 83.355 405.258 72.169 405.158C66.1462 405.104 60.5501 404.258 54.3597 403.435C48.2953 402.401 41.5947 400.496 35.766 398.326C33.4281 397.413 30.1275 396.066 25.6777 394.297" stroke="black" stroke-width="3" stroke-linecap="round"/>
<path d="M29.47 374.251C29.3807 374.369 27.9558 377.226 25.7435 381.868C24.6636 384.517 24.3099 386.137 24.1586 387.531C24.1072 388.134 24.1072 388.524 24.1072 388.927" stroke="black" stroke-width="3" stroke-linecap="round"/>
<path d="M104.362 260.483C104.362 261.375 104.172 263.836 102.38 266.38C101.557 267.55 97.5576 269.855 92.0172 273.189C86.6491 275.75 82.3285 276.412 80.0171 276.153C79.5705 275.996 79.0702 275.759 77.9116 275.317" stroke="black" stroke-width="3" stroke-linecap="round"/>
<path d="M37.445 319.144C37.4289 319.144 37.4129 319.144 37.3966 322.479C37.3803 325.814 37.3642 332.485 37.3477 339.357" stroke="black" stroke-width="3" stroke-linecap="round"/>
<path d="M108.851 188.718C108.307 188.718 107.024 188.542 106.564 188.134C105.367 187.073 106.118 184.944 106.424 184.386C106.574 184.112 106.803 183.911 107.293 183.801C108.521 183.524 109.615 183.869 110.189 184.344C110.897 184.929 111.198 185.787 111.365 186.55C111.58 187.536 111.177 188.421 110.703 188.946C110.26 189.438 109.599 189.736 108.824 189.986C107.908 190.283 107.067 189.956 106.538 189.541C105.917 189.054 105.696 188.28 105.613 187.61C105.525 186.898 105.761 186.249 106.161 185.745C106.958 184.739 108.38 184.66 109.528 184.726C110.012 184.753 110.259 185.064 110.451 185.335C110.824 185.863 110.903 186.742 110.827 187.659C110.771 188.331 109.974 188.631 109.233 188.866C108.835 188.993 108.35 188.979 108.018 188.851C107.686 188.722 107.512 188.44 107.422 188.061C107.332 187.683 107.332 187.216 107.446 186.869C107.559 186.522 107.787 186.309 108.08 186.164C108.689 185.862 109.4 185.874 109.882 186.098C110.051 186.323 110.068 186.776 109.956 187.131C109.844 187.486 109.603 187.731 108.824 188.032" stroke="black" stroke-width="3" stroke-linecap="round"/>
<path d="M67.1165 197.475C65.8028 197.575 62.5717 197.537 60.9564 196.87C60.565 196.709 60.4886 196.22 60.4131 195.831C60.0242 193.823 62.5475 191.806 63.7304 191.187C64.3406 190.868 65.4779 190.948 66.7654 191.079C67.7726 191.182 68.2537 192.084 68.5816 192.699C68.8896 193.276 68.9114 194.177 68.8505 195.175C68.8018 195.973 68.2069 196.517 67.6445 196.969C66.5806 197.823 65.1618 197.794 63.9717 197.721C63.4787 197.691 63.2505 197.384 63.1122 196.854C62.7692 195.541 63.0806 194.341 63.4579 193.762C63.7952 193.245 64.5214 193.1 65.2315 193.035C65.5679 193.005 65.8606 193.063 66.0619 193.228C66.4862 193.575 66.4786 194.408 66.4189 195.194C66.391 195.562 66.2098 195.846 66.0163 196.08C65.8229 196.313 65.5823 196.482 65.3115 196.536C65.0406 196.589 64.747 196.523 64.5906 196.233C64.202 195.511 64.6085 194.562 65.0265 193.966C66.0181 193.282 66.8976 193.036 67.375 193.132C67.5176 193.26 67.4578 193.553 67.3962 193.854" stroke="black" stroke-width="3" stroke-linecap="round"/>
<path d="M80.7375 194.499C80.8033 194.499 83.0353 194.499 86.6026 194.445C88.4451 194.283 89.2202 194.101 89.7687 193.89C90.03 193.75 90.2564 193.543 91.0241 192.78" stroke="black" stroke-width="3" stroke-linecap="round"/>
<path d="M92.7858 186.311C92.7858 186.822 92.5212 189.224 92.329 191.255C92.1831 192.798 92.1076 195.514 92.4027 197.566C92.6274 199.128 94.0071 200.135 94.9157 200.959C95.9678 201.913 97.5033 202.446 100.874 202.971C107.659 204.029 109.083 202.865 111.302 202.546C113.034 202.297 114.626 201.901 117.132 201.096C118.847 200.546 119.756 199.295 120.415 198.021C121.468 195.981 120.181 191.652 118.81 188.117C118.512 187.43 118.356 187.098 118.153 186.705C117.949 186.313 117.701 185.87 117.446 185.414" stroke="black" stroke-width="3" stroke-linecap="round"/>
<path d="M46.1641 198.275C46.1641 199.196 46.3001 201.718 47.0844 204.476C48.2857 208.7 49.6746 209.452 50.8616 210.283C52.3931 211.354 55.5151 211.039 60.7772 209.813C64.8894 208.855 69.4578 207.956 71.5153 207.291C72.8381 206.864 73.6692 205.542 74.3337 204.398C75.0562 203.154 75.3952 201.207 75.7607 197.553C75.8077 194.728 75.6601 192.65 75.3948 191.814C75.2771 191.435 75.1938 191.149 75.0717 190.82" stroke="black" stroke-width="3" stroke-linecap="round"/>
<path d="M119.803 188.848C120.493 188.848 122.71 188.597 125.15 187.479C127.068 186.237 128.178 185.303 128.633 183.755C128.672 183.371 128.672 183.065 128.672 182.751" stroke="black" stroke-width="3" stroke-linecap="round"/>
<path d="M42.4876 202.062C41.125 202.051 36.1046 201.525 30.7402 200.869C27.8325 200.332 25.7434 199.995 24.4775 199.982C23.7759 199.969 22.9539 199.946 22.1069 199.922" stroke="black" stroke-width="3" stroke-linecap="round"/>
<path d="M25.6839 199.963C25.6839 199.941 25.6839 199.131 25.5779 197.81C25.5354 197.28 25.2602 197.067 24.9126 196.877C24.1295 196.447 22.919 196.329 21.7769 196.345C20.465 196.364 19.838 198.195 18.6772 200.627C18.236 201.551 18.1711 202.413 18.0496 204.949C17.7681 210.823 17.9632 215.123 18.5156 216.405C19.4946 218.678 20.5945 220.282 21.0792 220.855C22.0578 222.012 25.9568 221.863 28.4933 221.261C28.8133 221.011 29.0532 220.698 29.2808 220.307C29.5084 219.915 29.7165 219.454 29.9751 218.805" stroke="black" stroke-width="3" stroke-linecap="round"/>
<path d="M79.8464 216.525C82.0584 216.525 88.0742 216.364 90.0598 215.982C91.7157 215.663 93.0506 214.631 94.141 213.638C94.8051 213.033 95.2196 212.259 95.5253 211.984C95.8582 211.684 95.7898 216.567 95.7569 222.457C95.7367 226.067 94.0112 228.58 93.0266 229.72C92.6147 230.197 91.5434 230.139 90.4325 230.106C88.9766 230.063 86.8547 227.662 85.1578 225.597C83.2658 222.139 81.9259 219.193 81.6843 218.421C81.5758 218.045 81.4959 217.701 81.3195 217.025" stroke="black" stroke-width="3" stroke-linecap="round"/>
<path d="M93.8774 150.659C93.8774 150.19 94.0355 149.115 94.3979 148.645C94.7541 148.183 96.3195 147.721 99.261 147.11C103.103 146.312 106.459 147.135 109.103 148.228C113.048 149.858 116.395 152.339 118.839 154.323C123.71 159.578 126.676 163.862 126.842 164.42C126.905 164.708 126.924 165.008 126.901 165.536" stroke="black" stroke-width="3" stroke-linecap="round"/>
<path d="M90.4341 151.531C90.4341 151.486 90.4341 150.55 90.5628 148.923C90.8141 145.746 96.1519 144.292 98.1685 143.378C99.1575 142.931 101.963 142.699 106.314 142.584C110.278 142.479 113.544 143.199 116.26 144.041C119.058 144.909 121.505 146.342 123.63 147.76C125.568 149.287 127.769 151.648 129.942 154.434C130.856 155.669 131.388 156.54 132.108 157.809" stroke="black" stroke-width="3" stroke-linecap="round"/>
<path d="M86.6297 149.911C86.583 148.406 86.6454 144.634 87.0535 143.309C87.6422 141.397 90.9859 139.207 93.348 138.028C94.6958 137.356 96.1965 137.517 97.0801 137.589C98.7646 137.728 99.6978 140.054 102.247 145.892C104.494 151.25 108.674 161.471 110.953 167.152C113.231 172.833 113.48 173.665 113.752 174.649" stroke="black" stroke-width="3" stroke-linecap="round"/>
<path d="M85.2982 147.626C85.3831 145 84.6973 137.021 82.9861 133.638C80.3838 128.493 75.5867 126.904 72.5285 125.647C70.8303 125.345 69.4211 125.165 68.6707 125.092C68.3082 125.038 67.9828 124.95 67.6475 124.858" stroke="black" stroke-width="3" stroke-linecap="round"/>
<path d="M84.7323 148.387C84.7054 147.6 82.589 141.354 79.5172 136.063C78.8944 134.99 76.4041 133.54 72.3068 131.266C68.4493 129.474 64.4729 128.193 60.1858 127.404C57.966 127.107 55.6565 127.019 52.532 126.723" stroke="black" stroke-width="3" stroke-linecap="round"/>
<path d="M78.5071 148.483C78.5523 146.639 78.3523 141.087 77.5971 137.565C77.2194 135.804 76.3554 134.649 74.7758 133.24C68.5876 127.722 65.7691 127.083 64.0265 126.63C63.1305 126.396 61.3083 126.421 58.6028 126.576C55.7884 126.736 52.6485 128.384 49.166 130.416C47.3999 131.447 45.7512 132.667 43.5367 134.644C41.3223 136.621 38.6216 139.365 36.7429 141.392C34.8642 143.42 33.8894 144.646 32.4821 146.705C31.0747 148.764 29.2644 151.618 27.5098 155.303C25.7552 158.987 24.1111 163.416 23.2112 166.055C22.3112 168.694 22.2051 169.41 22.1489 169.99C22.0927 170.569 22.0897 170.991 22.0867 171.426" stroke="black" stroke-width="3" stroke-linecap="round"/>
<path d="M74.5554 148.677C74.5409 147.435 74.0465 143.438 70.2384 136.995C66.7296 131.058 63.1047 129.652 60.6778 128.574C58.1202 128.226 55.8584 128.339 52.626 130.239C50.6515 131.659 47.1441 134.291 42.8918 137.485" stroke="black" stroke-width="3" stroke-linecap="round"/>
<path d="M69.9132 149.577C69.9132 149.554 69.7241 149.192 69.285 148.585C68.8811 148.027 67.5906 147.806 62.4724 147.467C58.1865 147.183 50.4414 147.317 46.0056 147.394C40.6646 147.488 37.4847 148.661 32.9397 150.609C30.5964 151.613 28.4062 153.145 26.473 154.638C22.8191 157.46 19.8893 161.361 17.4129 164.929C15.1808 168.907 14.1123 172.012 13.7969 173.757C13.6828 174.522 13.6623 175.043 13.6411 175.579" stroke="black" stroke-width="3" stroke-linecap="round"/>
<path d="M63.4412 148.462C63.3179 148.076 60.5089 144.308 55.9204 138.948C51.0443 133.252 48.2407 132.868 44.1648 132.316C37.5486 131.42 34.4428 133.263 31.5777 134.822C29.3221 136.05 27.2983 138.421 24.2298 143.2C21.9475 146.755 18.9077 153.037 16.8857 157.284C14.1344 163.666 13.2092 166.896 12.9316 168.795C12.8277 169.662 12.7989 170.335 12.7693 171.029" stroke="black" stroke-width="3" stroke-linecap="round"/>
<path d="M61.299 153.168C60.3876 152.14 57.4512 149.121 55.1995 147.588C53.9752 146.755 52.3356 146.454 48.5301 146.233C45.547 146.06 40.4102 146.216 36.9072 146.526C29.1085 147.216 26.8509 149.857 24.3785 152.137C23.5651 152.888 22.7559 154.089 21.5797 156.193C20.4035 158.296 18.9649 161.345 17.5631 165.424C16.1612 169.503 14.8397 174.52 13.478 179.689" stroke="black" stroke-width="3" stroke-linecap="round"/>
<path d="M69.3844 147.995C69.3926 147.645 69.0488 146.432 66.1746 142.787C64.2235 140.312 60.1777 138.406 56.3272 136.994C55.5114 136.695 54.628 136.628 50.9333 136.552C47.2386 136.476 40.7305 136.489 36.8541 136.629C31.9168 136.808 29.7401 137.789 27.4898 138.854C25.1327 139.969 22.0307 142.569 18.5314 145.701C16.0007 147.967 13.9185 151.323 11.6196 155.091C10.6247 156.722 10.1487 157.882 9.43614 160.29C8.72359 162.698 7.83245 166.344 7.23531 171.847C6.63818 177.35 6.36205 184.599 6.37917 189.262C6.39628 193.926 6.715 195.786 7.01221 197.158C7.30941 198.531 7.57545 199.36 7.84955 200.215" stroke="black" stroke-width="3" stroke-linecap="round"/>
<path d="M41.8751 162.17C41.4137 162.17 40.9522 162.17 37.2344 162.184C33.5165 162.197 26.5562 162.225 22.4956 162.347C15.6952 162.552 12.8935 164.535 10.6082 166.284C9.53198 167.107 8.62518 169.038 7.439 171.66C6.42694 174.573 5.66541 178.195 5.20404 183.42C5.03263 186.589 4.98854 190.81 4.94312 195.159" stroke="black" stroke-width="3" stroke-linecap="round"/>
<path d="M26.6564 183.42C22.5571 183.441 14.5316 183.657 13.2954 184.361C11.9081 185.152 10.9203 189.017 9.84862 197.94C9.68344 202.546 9.60946 210.179 9.59021 214.255C9.57097 218.331 9.60871 218.618 9.86951 219.527" stroke="black" stroke-width="3" stroke-linecap="round"/>
<path d="M30.1641 179.047C27.5036 179.007 21.3764 179.088 17.5203 181.272C15.7835 182.255 13.3321 186.13 9.82582 191.593C7.49767 196.162 6.20289 199.971 5.50536 204.042C5.22258 206.405 5.08433 209.371 4.94189 212.427" stroke="black" stroke-width="3" stroke-linecap="round"/>
<path d="M42.3869 160.145C42.3869 160.168 37.8183 160.192 30.4559 160.256C26.7787 160.288 24.3458 161.179 21.2151 162.807C17.779 164.593 14.6295 167.845 11.4093 171.337C8.2206 174.795 6.06369 178.926 4.23245 182.858C2.48817 186.604 1.95939 190.482 1.59929 194.818C1.47945 197.384 1.4873 200.691 1.52366 202.568C1.56002 204.445 1.62466 204.791 1.69126 205.148" stroke="black" stroke-width="3" stroke-linecap="round"/>
<path d="M14.3872 217.502V225.53" stroke="black" stroke-width="3" stroke-linecap="round"/>
<path d="M18.1123 224.563V232.072" stroke="black" stroke-width="3" stroke-linecap="round"/>
<path d="M21.1536 232.023V239.31" stroke="black" stroke-width="3" stroke-linecap="round"/>
<path d="M25.3589 236.386V243.161" stroke="black" stroke-width="3" stroke-linecap="round"/>
<path d="M29.5437 243.983C29.5549 243.983 29.5661 243.983 29.5775 244.994C29.5889 246.004 29.6001 248.025 29.6116 250.108" stroke="black" stroke-width="3" stroke-linecap="round"/>
<path d="M34.1506 247.6V254.007" stroke="black" stroke-width="3" stroke-linecap="round"/>
<path d="M40.6873 250.237V255.897" stroke="black" stroke-width="3" stroke-linecap="round"/>
<path d="M48.4375 254.4V259.284" stroke="black" stroke-width="3" stroke-linecap="round"/>
<path d="M55.8472 253.262V258.113" stroke="black" stroke-width="3" stroke-linecap="round"/>
<path d="M61.4133 254.629V256.169" stroke="black" stroke-width="3" stroke-linecap="round"/>
<path d="M66.9229 254.062V257.873" stroke="black" stroke-width="3" stroke-linecap="round"/>
<path d="M76.4553 253.122C76.4553 253.143 76.5233 253.448 76.7728 254.051C76.9543 254.362 77.2473 254.681 77.5019 254.966C77.7565 255.251 77.9638 255.492 78.4787 255.96" stroke="black" stroke-width="3" stroke-linecap="round"/>
<path d="M86.0052 251.858C85.9983 251.855 85.9913 251.851 85.9886 252.206C85.9859 252.561 85.9877 253.275 86.0278 254.127C86.0679 254.98 86.1463 255.95 86.2271 256.949" stroke="black" stroke-width="3" stroke-linecap="round"/>
<path d="M92.0715 251.38C92.0715 251.386 92.1214 251.542 92.554 252.405C92.9367 253.114 93.6507 254.376 94.0471 255.099C94.4435 255.821 94.5007 255.966 94.561 256.155" stroke="black" stroke-width="3" stroke-linecap="round"/>
<path d="M97.7773 246.001C97.7773 245.963 97.8008 246.074 98.3397 247.31C98.8271 248.429 99.8617 250.494 100.423 251.697C100.984 252.9 101.069 253.167 101.122 253.375C101.176 253.583 101.196 253.725 101.217 253.871" stroke="black" stroke-width="3" stroke-linecap="round"/>
<path d="M104.41 245.241C104.41 245.237 104.41 245.233 104.777 245.643C105.144 246.052 105.877 246.875 106.319 247.425C106.762 247.974 106.892 248.226 107.022 248.51" stroke="black" stroke-width="3" stroke-linecap="round"/>
<path d="M106.947 240.967C106.939 240.967 106.931 240.967 107.563 241.703C108.194 242.439 109.464 243.91 110.846 245.546" stroke="black" stroke-width="3" stroke-linecap="round"/>
<path d="M112.105 236.336C112.105 236.343 112.164 236.43 112.454 236.749C112.685 236.985 113.084 237.372 113.346 237.647C113.608 237.923 113.721 238.075 113.838 238.232" stroke="black" stroke-width="3" stroke-linecap="round"/>
<path d="M115.742 224.241C115.738 224.241 115.735 224.241 116.714 224.785C117.693 225.328 119.656 226.415 121.091 227.154C122.526 227.893 123.374 228.251 124.248 228.621" stroke="black" stroke-width="3" stroke-linecap="round"/>
<path d="M121.073 218.411C121.08 218.404 121.407 218.546 122.251 218.881C123.484 219.299 124.473 219.587 124.927 219.67C125.123 219.702 125.253 219.71 125.387 219.718" stroke="black" stroke-width="3" stroke-linecap="round"/>
<path d="M123.991 208.293H129.102" stroke="black" stroke-width="3" stroke-linecap="round"/>
<path d="M69.1767 215.905C69.0779 216.367 68.7725 218.249 68.4552 219.81C68.3303 220.425 68.3344 220.688 70.2114 219.073C72.0884 217.458 75.8524 213.96 77.8271 212.287C79.8018 210.614 79.8732 210.873 79.905 211.346C79.9823 212.494 79.8768 213.678 80.0416 214.092C81.0153 216.54 83.6544 210.521 84.5931 210.104C84.8767 209.978 85.3215 209.958 85.6426 210C86.9057 210.165 87.5471 212.18 88.5967 212.957C90.1624 214.116 92.8078 213.509 93.9958 212.932C95.9865 211.965 96.6987 211.484 97.7203 211.209C99.3009 211.014 102.392 211.416 103.792 211.575C104.003 211.506 104.216 211.357 104.435 211.204" stroke="black" stroke-width="3" stroke-linecap="round"/>
<path d="M24.2937 228.884C24.2937 230.067 24.361 232.433 24.6351 233.377C24.7652 233.655 24.969 234.017 25.1498 234.298C25.3305 234.579 25.482 234.769 25.6381 234.964" stroke="black" stroke-width="3" stroke-linecap="round"/>
<path d="M27.4871 226.377C27.5016 226.377 27.5328 228.06 27.6801 231.286C27.7507 232.832 28.0263 234.181 28.671 236.153C30.3755 240.674 31.7084 243.704 32.1384 244.387C32.3275 244.666 32.4577 244.807 32.6249 245.011" stroke="black" stroke-width="3" stroke-linecap="round"/>
<path d="M36.1272 236.214C36.1272 236.274 36.1604 236.786 36.3464 237.965C36.4992 238.662 36.7708 239.56 37.4437 240.946C38.1166 242.331 39.1825 244.176 40.3072 246.177" stroke="black" stroke-width="3" stroke-linecap="round"/>
<path d="M44.405 238.985C44.5094 239.232 44.698 240.112 45.2417 241.105C46.8228 243.024 49.1972 245.435 49.9997 245.964C50.2152 246.107 50.4577 246.285 50.9188 246.75" stroke="black" stroke-width="3" stroke-linecap="round"/>
<path d="M54.5232 240.985C54.9559 241.184 55.9623 241.872 58.0928 243.331C59.8689 244.507 63.0561 246.565 64.7912 247.723C66.5263 248.88 66.7126 249.075 67.0257 249.557" stroke="black" stroke-width="3" stroke-linecap="round"/>
<path d="M69.1665 243.18C69.1665 243.165 69.2047 243.688 69.2958 244.683C69.415 245.528 70.1497 247.796 71.2037 250.837C71.5914 252.002 71.6802 252.4 71.7849 252.938" stroke="black" stroke-width="3" stroke-linecap="round"/>
<path d="M83.2173 242.167C83.2393 242.405 83.5914 243.801 84.6491 246.019C84.9187 246.496 85.1334 246.806 85.3122 247.046C85.4911 247.286 85.6276 247.446 85.7682 247.611" stroke="black" stroke-width="3" stroke-linecap="round"/>
<path d="M91.3828 238.726C91.4346 238.708 91.7513 238.848 92.8431 239.512C93.6451 240.027 94.9501 240.904 96.1315 241.603C97.3128 242.303 98.3308 242.801 99.5792 243.473" stroke="black" stroke-width="3" stroke-linecap="round"/>
<path d="M100.779 231.062C100.942 231.062 101.53 231.323 102.813 232.118C104.628 233.446 106.141 234.504 106.91 234.887C107.232 235.032 107.417 235.078 107.786 235.147" stroke="black" stroke-width="3" stroke-linecap="round"/>
<path d="M108.425 220.078C109.823 220.185 114.244 221.983 116.875 223.129C117.237 223.239 117.648 223.344 117.649 223.404C117.651 223.464 117.232 223.476 116.801 223.489" stroke="black" stroke-width="3" stroke-linecap="round"/>
<path d="M67.2717 181.219C67.1851 181.219 65.8022 181.263 61.7977 181.861C59.1315 182.416 55.178 183.481 52.687 184.047C50.196 184.613 49.2873 184.647 48.2644 184.792" stroke="black" stroke-width="3" stroke-linecap="round"/>
<path d="M334.466 157.909C334.071 158.019 332.333 159.134 323.995 166.853C320.5 170.088 316.468 175.226 313.901 178.341C310.457 182.52 309.014 185.429 307.697 188.415C306.675 190.731 305.922 194.269 304.797 199.301C303.61 204.616 303.296 208.573 303.21 211.955C303.17 214.244 303.135 217.697 303.232 220.099C303.328 222.5 303.556 223.746 304.003 225.604" stroke="black" stroke-width="3" stroke-linecap="round"/>
<path d="M304.082 225.604C304.082 226.323 304.259 228.358 306.793 236.299C307.483 238.464 309.297 241.234 312.068 245.333C315.187 249.949 317.752 251.818 319.708 253.781C321.362 255.341 322.749 256.549 323.47 257.04C323.81 257.263 324.097 257.435 324.522 257.713" stroke="black" stroke-width="3" stroke-linecap="round"/>
<path d="M369.499 263.494C369.499 263.07 369.168 261.526 368.525 260.026C367.56 257.776 365.509 254.847 363.05 252.348C361.174 250.442 358.56 249.52 357.23 249.511C355.638 249.5 355.449 252.93 355.523 258.875C355.924 261.458 356.39 263.098 356.758 264.109C356.93 264.562 357.072 264.893 357.367 265.383" stroke="black" stroke-width="3" stroke-linecap="round"/>
<path d="M357.275 265.77C356.974 265.77 355.571 265.605 353.099 264.73C349.071 263.304 344.473 261.698 340.921 260.568C336.307 259.1 333.816 258.288 328.834 258.009C327.81 257.952 327.493 258.227 327.26 258.477C327.026 258.727 326.884 259.04 326.907 259.349C327.006 260.715 329.435 261.764 335.758 266.435C338.587 268.525 341.175 269.879 342.879 271.079C343.549 271.418 344.563 271.943 345.709 272.581C346.197 272.846 346.494 272.992 346.934 273.231" stroke="black" stroke-width="3" stroke-linecap="round"/>
<path d="M344.634 273.315C344.609 273.315 344.274 273.315 343.678 273.439C341.735 273.841 341.319 278.045 340.744 282.088C340.014 287.222 341.47 289.769 343.247 292.907C344.776 295.609 349.259 297.862 351.838 299.063C352.491 299.271 353.334 299.486 354.116 299.598C354.898 299.71 355.593 299.713 356.784 299.548" stroke="black" stroke-width="3" stroke-linecap="round"/>
<path d="M372.818 273.409C372.818 275.49 373.049 280.818 373.95 283.353C375.33 287.239 376.849 290.28 379.208 293.647C381.181 296.462 384.912 301.393 389.137 306.306C393.362 311.219 398.015 315.931 400.768 318.809C403.52 321.686 404.232 322.587 405.012 323.721C405.792 324.855 406.618 326.195 407.947 328.065" stroke="black" stroke-width="3" stroke-linecap="round"/>
<path d="M358.347 303.378C358.347 304.78 358.977 309.395 362.204 315.934C363.343 318.241 365.245 320.877 367.051 323.445C370.555 328.428 373.677 332.016 376.823 335.273C378.786 337.304 381.631 339.965 383.94 342.047C387.888 345.608 391.047 347.814 395.274 350.186C398.14 351.795 402.699 353.802 407.651 355.575C412.604 357.349 417.87 358.719 421.382 359.462C424.894 360.206 426.491 360.28 427.505 360.176C428.518 360.071 428.9 359.785 429.292 359.491" stroke="black" stroke-width="3" stroke-linecap="round"/>
<path d="M408.138 267.236C408.395 267.856 409.351 269.486 411.503 273.451C413.272 276.712 416.212 282.62 418.551 287.623C420.891 292.626 422.489 296.574 424.318 303.043C426.147 309.511 428.16 318.38 429.198 325.588C430.237 332.795 430.241 338.071 429.791 342.709C427.412 355.456 427.023 356.367 426.515 356.814C426.199 356.989 425.764 357.061 425.013 357.237" stroke="black" stroke-width="3" stroke-linecap="round"/>
<path d="M315.71 275.89C315.27 275.904 313.466 276.247 308.913 279.328C306.79 280.764 304.124 283.65 300.807 287.653C297.49 291.657 293.776 296.919 291.026 301.386C288.276 305.853 286.603 309.366 285.472 311.978C284.342 314.59 283.804 316.196 283.239 319.109C282.673 322.023 282.097 326.196 281.798 329.137C281.5 332.078 281.498 333.659 281.565 335.621" stroke="black" stroke-width="3" stroke-linecap="round"/>
<path d="M281.742 336.963C282.43 337.931 285.985 342.235 290.318 346.293C291.943 347.814 294.155 349.348 297.579 351.527C299.589 352.807 302.433 353.973 305.449 355.122C311.567 357.452 315.469 358.443 318.173 359.329C320.318 360.032 324.037 361.229 327.437 362.061C330.838 362.894 333.808 363.32 337.808 363.561C341.808 363.803 346.748 363.847 355.458 362.148C364.168 360.449 376.498 357.006 383.033 355.158C389.937 353.16 390.865 352.64 391.77 351.91C392.127 351.547 392.274 351.197 392.426 350.836" stroke="black" stroke-width="3" stroke-linecap="round"/>
<path d="M303.999 327.617C304.023 327.617 308.004 327.631 315.596 327.883C319.226 328.004 322.381 328.581 324.239 328.88C326.097 329.18 326.556 329.304 331.908 330.585C337.26 331.867 347.492 334.3 354.493 336.146C361.495 337.991 364.957 339.173 369.183 340.608" stroke="black" stroke-width="3" stroke-linecap="round"/>
<path d="M331.822 297.915C331.139 298.328 327.63 300.629 325.226 302.85C323.82 304.15 321.308 307.389 318.252 311.964C315.985 315.767 314.783 318.328 314.283 320.354C314.034 321.559 313.797 323.124 313.553 324.736" stroke="black" stroke-width="3" stroke-linecap="round"/>
<path d="M371.987 264.734C373.27 264.734 376.79 264.491 378.465 264.013C381.027 263.281 383.687 262.275 387.33 261.368C392.029 260.198 393.81 258.551 395.789 256.731C396.363 256.151 397.037 255.443 397.538 254.844C398.04 254.245 398.348 253.777 398.958 252.473" stroke="black" stroke-width="3" stroke-linecap="round"/>
<path d="M394.111 214.431C394.368 214.16 395.469 213.359 396.778 212.515C398.622 211.326 399.884 210.616 402.147 210.597C404.039 210.582 405.642 213.32 406.856 215.958C407.909 218.247 407.891 221.638 407.743 224.779C406.034 229.674 403.12 233.989 400.446 236.39C399.85 236.876 399.44 237.175 398.502 237.746" stroke="black" stroke-width="3" stroke-linecap="round"/>
<path d="M323.823 203.309C323.633 203.397 321.754 203.442 320.586 203.163C319.847 202.986 319.923 201.771 319.906 200.585C319.894 199.74 320.986 198.869 321.808 198.363C322.827 197.735 324.277 198.242 324.61 198.519C325.362 199.146 325.133 200.596 324.976 201.574C324.839 202.422 323.674 202.894 322.727 203.308C322.212 203.533 321.678 203.521 321.276 203.451C321.087 203.417 320.969 203.239 320.897 202.965C320.723 202.304 320.943 201.575 321.232 201.051C321.462 200.633 321.818 200.413 322.168 200.234C322.567 200.031 323.003 200.027 323.304 200.112C323.597 200.195 323.587 200.785 323.576 201.287C323.568 201.679 323.201 201.977 322.805 202.241C322.613 202.356 322.44 202.434 322.341 202.388C322.242 202.341 322.222 202.169 322.43 201.781" stroke="black" stroke-width="3" stroke-linecap="round"/>
<path d="M360.383 207.323C360.371 207.323 360.051 207.323 359.505 207.29C358.559 207.231 357.647 205.747 357.162 204.825C356.968 204.457 356.976 203.755 357.025 202.949C357.055 202.442 357.473 202.204 357.845 201.978C359.029 201.26 360.684 201.651 361.385 201.994C362.226 202.406 362.509 203.938 362.606 206.427C362.631 207.065 362.27 207.338 361.986 207.582C361.44 208.049 360.574 208.005 359.888 207.802C359.129 207.577 358.993 206.54 358.858 205.712C358.728 204.918 358.923 204.238 359.137 203.926C359.353 203.61 359.96 203.618 360.524 203.664C360.769 203.684 360.915 203.812 361.022 203.937C361.46 204.443 361.345 205.172 361.249 205.569C361.201 205.766 360.957 205.875 360.739 205.948C360.52 206.02 360.283 206.032 360.098 205.977C359.913 205.921 359.787 205.797 359.699 205.629C359.611 205.462 359.566 205.255 359.583 205.06C359.601 204.866 359.683 204.69 359.879 204.595C360.076 204.499 360.383 204.49 360.576 204.574C360.768 204.659 360.835 204.839 360.858 205.042C360.86 205.464 360.694 205.894 360.423 206.26C360.295 206.423 360.187 206.54 360.074 206.702" stroke="black" stroke-width="3" stroke-linecap="round"/>
<path d="M329.12 220.92C329.12 221.373 329.29 222.582 329.921 223.469C330.385 224.12 331.468 224.844 332.985 225.634C334.444 226.394 335.475 226.141 339.421 226.115C342.113 226.097 343.328 225.196 344.453 224.686C344.665 224.59 344.828 224.546 344.919 224.628C345.86 225.473 342.825 229.422 341.226 231.571C340.186 232.969 339.034 233.054 336.536 233.196C335.521 233.253 334.844 232.705 333.954 232.147C332.378 231.159 331.217 229.59 330.339 228.392C329.695 226.657 329.159 224.29 329.106 223.319C329.098 222.915 329.089 222.294 329.081 221.653" stroke="black" stroke-width="3" stroke-linecap="round"/>
<path d="M331.567 180.213C331.089 179.869 329.255 178.754 327.598 178.447C323.298 178.422 322.368 178.674 320.217 180.036C319.604 180.483 319.038 180.953 318.179 181.721" stroke="black" stroke-width="3" stroke-linecap="round"/>
<path d="M355.461 192.944C355.838 192.816 356.907 192.474 358.918 192.409C360.663 192.352 363.88 192.392 365.699 192.425C368.719 192.837 370.115 193.577 370.743 194.256C370.873 194.442 370.954 194.618 371.061 194.91" stroke="black" stroke-width="3" stroke-linecap="round"/>
<path d="M320.863 175.782C320.903 174.271 321.201 169.27 323.156 163.45C323.646 161.992 324.282 160.933 325.544 159.035C326.806 157.136 328.775 154.466 331.011 152.19C333.247 149.915 335.69 148.114 339.548 145.993C343.406 143.872 348.605 141.484 353.961 139.024" stroke="black" stroke-width="3" stroke-linecap="round"/>
<path d="M336.744 167.912C336.723 167.933 336.844 167.261 338.199 164.322C339.274 161.99 341.733 158.255 343.659 155.542C346.791 151.131 349.143 149.317 350.458 148.342C352.099 147.317 353.629 146.597 354.961 146.289C355.69 146.164 356.523 146.102 357.381 146.038" stroke="black" stroke-width="3" stroke-linecap="round"/>
<path d="M362.197 148.805C361.867 148.805 360.449 148.959 356.005 151.405C354.627 152.164 353.046 153.761 350.387 156.686C349.001 158.368 347.541 160.451 345.732 163.666C343.923 166.881 341.809 171.164 339.593 175.869" stroke="black" stroke-width="3" stroke-linecap="round"/>
<path d="M362.192 149.582C362.182 149.572 362.171 149.561 362.16 153.068C362.149 156.576 362.139 163.601 362.128 170.839" stroke="black" stroke-width="3" stroke-linecap="round"/>
<path d="M362.969 149.818C362.969 149.797 363.245 150.087 364.611 152.464C365.779 154.498 367.598 158.384 368.954 161.695C370.31 165.006 371.069 167.668 371.469 169.221C371.869 170.774 371.889 171.137 371.908 171.51" stroke="black" stroke-width="3" stroke-linecap="round"/>
<path d="M367.119 146.004C367.352 145.971 370.678 147.856 375.931 151.492C378.455 153.239 380.47 155.095 383.086 157.852C385.702 160.609 388.801 164.291 391.069 167.435C394.985 172.865 396.163 175.942 396.347 176.865C396.427 177.49 396.481 178.433 396.436 179.065C396.392 179.697 396.247 179.991 396.098 180.293" stroke="black" stroke-width="3" stroke-linecap="round"/>
<path d="M368.992 143.065C369.052 143.065 371.96 143.089 376.777 143.287C379.666 143.406 381.673 144.703 383.849 145.923C384.932 146.53 385.905 147.231 391.784 153.481C397.664 159.731 408.403 171.54 415.513 180.215C422.624 188.89 425.78 194.073 427.884 197.831C429.989 201.589 430.946 203.765 431.65 205.693C433.418 212.668 433.818 216.556 433.738 217.166C433.673 217.484 433.558 217.823 433.44 218.171" stroke="black" stroke-width="3" stroke-linecap="round"/>
<path d="M368.814 141.896C368.914 141.896 373.701 141.896 381.617 142.002C386.29 142.064 389.184 143.085 391.956 144.334C394.844 145.635 397.409 147.752 399.949 149.894C402.566 152.101 404.758 154.821 407.66 159.554C409.514 162.955 412.141 168.384 413.974 172.908C415.807 177.433 416.767 180.887 417.756 184.447" stroke="black" stroke-width="3" stroke-linecap="round"/>
<path d="M392.246 154.682C392.482 154.791 393.28 155.261 395.381 157.973C397.267 160.408 400.663 165.111 406.691 176.964C412.72 188.818 421.24 207.71 425.98 218.693C430.72 229.675 431.424 232.176 431.897 235.448C432.371 238.72 432.595 242.687 432.69 247.178" stroke="black" stroke-width="3" stroke-linecap="round"/>
<path d="M416.455 177.971C416.434 177.95 417.004 177.929 418.086 178.001C419.025 178.063 420.283 179.331 422.716 182.831C424.45 185.325 426.482 189.741 428.275 193.991C430.069 198.241 431.379 202.31 432.307 206.227C433.235 210.143 433.742 213.785 434.026 219.021C434.311 224.257 434.357 230.977 434.326 234.888C434.287 239.701 433.374 242.812 432.036 246.653C429.883 250.949 428.763 252.314 428.064 252.952C427.735 253.228 427.458 253.407 427.173 253.591" stroke="black" stroke-width="3" stroke-linecap="round"/>
<path d="M415.541 168.321C415.561 168.321 415.933 168.54 417.777 170.854C419.376 172.861 421.855 176.913 425.02 182.956C428.185 189 431.843 197.004 434.274 203.157C436.706 209.31 437.8 213.369 438.544 221.475C439.287 229.581 439.646 241.611 439.672 248.293C439.703 255.95 438.516 257.979 437.363 260C436.234 261.981 434.572 263.685 432.817 265.411C430.985 267.211 428.75 268.664 426.057 270.241C422.403 272.113 419.368 273.363 417.585 273.724C416.715 273.868 415.916 273.935 415.094 274.004" stroke="black" stroke-width="3" stroke-linecap="round"/>
<path d="M423.139 217.781C423.139 217.79 423.139 217.8 423.126 224.571C423.112 231.343 423.084 244.875 422.841 253.242C422.598 261.609 422.141 264.399 421.728 266.341C421.094 269.324 420.005 271.522 418.763 273.868C416.415 278.301 413.59 280.646 411.604 282.031C410.494 282.591 408.744 283.174 406.596 283.653C405.601 283.824 404.8 283.848 403.975 283.873" stroke="black" stroke-width="3" stroke-linecap="round"/>
<path d="M400.558 188.123C400.578 188.123 400.885 188.572 402.769 193.399C404.462 197.738 407.231 206.072 409.376 215.261C411.522 224.45 412.853 234.283 413.575 244.13C414.296 253.976 414.368 263.538 414.342 269.081C414.311 275.858 413.757 278.169 413.151 280.087C412.286 282.824 409.91 285.049 407.807 286.683C407.374 286.922 406.953 287.1 406.539 287.234C406.126 287.368 405.732 287.451 405.326 287.538" stroke="black" stroke-width="3" stroke-linecap="round"/>
<path d="M417.814 156.896C417.885 156.896 418.294 157.205 420.957 160.942C423.35 164.3 427.445 170.909 431.453 179.079C435.46 187.248 439.151 196.85 441.917 205.627C444.683 214.404 446.412 222.066 447.371 226.967C448.33 231.868 448.466 233.775 448.493 235.658C448.546 239.344 448.008 241.837 447.259 243.093C445.285 245.432 443.357 246.999 441.436 248.034C440.234 248.6 438.568 249.25 436.852 249.918" stroke="black" stroke-width="3" stroke-linecap="round"/>
<path d="M406.477 234.917C406.497 234.938 406.443 239.065 406.113 246.391C405.968 249.608 405.382 251.778 404.744 253.923C403.482 258.168 401.991 261.086 400.947 262.774C398.518 266.704 394.381 268.997 392.803 269.63C392.459 269.738 392.184 269.803 391.882 269.836C391.581 269.87 391.261 269.87 390.931 269.87" stroke="black" stroke-width="3" stroke-linecap="round"/>
<path d="M412.642 252.287C412.639 253.56 412.274 257.899 410.774 262.456C409.568 266.12 406.691 269.564 404.282 272.37C400.801 275.308 397.427 276.858 394.493 277.382C393.467 277.427 391.953 277.423 390.365 277.26" stroke="black" stroke-width="3" stroke-linecap="round"/>
<path d="M331.837 146.865C331.058 146.865 329.047 147.089 327.792 147.943C326.716 148.675 323.442 152.432 318.894 157.503C317.144 159.455 316.475 160.103 315.112 162.01C313.749 163.918 311.699 167.055 310.361 169.359C308.46 173.038 307.527 175.982 306.982 178.59C306.79 179.672 306.769 180.264 306.748 180.875" stroke="black" stroke-width="3" stroke-linecap="round"/>
<path d="M110.028 52.1618C110.028 52.188 110.028 52.2143 110.028 54.6177C110.028 57.0211 110.028 61.8009 109.913 65.1817C109.735 70.4077 109.28 73.8972 109.247 76.4913C109.234 77.4801 109.355 77.8035 109.507 78.0131C109.659 78.2226 109.871 78.3084 111.846 78.4218C113.822 78.5352 117.555 78.6735 120.994 78.9524C124.433 79.2314 127.464 79.6469 131.431 79.9984C135.398 80.3499 140.21 80.6247 142.837 79.5705C145.463 78.5163 145.76 76.1248 145.933 72.8904C146.106 69.6559 146.147 65.6511 146.046 62.7591C145.887 58.199 145.067 54.7922 144.384 51.6261C143.822 49.0265 143.46 47.6462 142.766 47.206C141.6 46.4674 140.157 46.1131 137.65 45.8118C135.734 45.5815 132.48 45.5199 128.475 45.7056C124.47 45.8913 119.805 46.4094 117.01 46.7369C113.428 47.1566 112.369 47.4163 111.902 47.6661C111.242 48.4933 110.843 49.621 110.637 50.5301C110.567 50.9624 110.567 51.3357 110.567 51.7204" stroke="black" stroke-width="3" stroke-linecap="round"/>
<path d="M165.076 49.65C165.076 49.676 165.076 49.7019 163.067 53.2356C161.057 56.7694 157.037 63.8101 154.838 67.6628C151.998 72.6378 151.779 73.3832 151.657 73.9332C151.537 74.4682 153.676 75.3934 158.812 76.6332C161.81 77.3566 165.71 77.7713 169.532 78.1088C173.353 78.4464 177.007 78.5664 178.979 78.543C180.951 78.5196 181.131 78.3492 181.223 78.1061C181.316 77.8631 181.316 77.5525 180.523 75.2414C179.729 72.9302 178.143 68.6278 176.08 64.1367C174.016 59.6456 171.523 55.0961 169.966 52.3209C168.409 49.5458 167.864 48.683 167.419 47.9494C166.974 47.2157 166.646 46.6375 166.242 45.9121" stroke="black" stroke-width="3" stroke-linecap="round"/>
<path d="M202.106 43.8892C200.821 43.8747 197.589 43.8643 195.628 44.6578C193.746 45.4197 192.382 47.0089 191.193 48.4184C188.264 51.8904 187.975 54.5021 187.439 57.8724C186.542 63.5217 186.922 67.3626 186.98 67.8641C187.286 70.5043 190.421 74.5558 191.944 76.239C193.469 77.9244 196.528 78.6627 200.062 78.8683C201.093 78.9282 202.759 78.2779 205.507 77.095C208.52 75.7981 210.647 74.0444 212.043 72.8536C214.662 70.6206 215.45 67.5213 215.973 64.2822C216.273 62.4198 215.809 60.7129 215.097 58.8565C214.014 56.0373 211.682 52.5403 209.581 49.3847C208.088 47.1432 206.937 46.5786 205.535 46.0199C204.352 45.7085 203.239 45.493 202.082 45.3215C201.732 45.3028 201.285 45.3028 200.453 45.2358" stroke="black" stroke-width="3" stroke-linecap="round"/>
<path d="M222.459 52.529C222.459 50.6527 222.57 46.4016 223.424 45.0069C224.52 43.2172 226.604 42.5348 228.809 42.0101C232.669 41.0919 233.911 42.2975 234.794 42.9188C235.794 43.6216 236.099 45.7094 236.258 48.8255C236.336 50.3487 235.284 51.75 233.983 53.0681C230.55 56.5458 228.956 58.1364 228.491 60.0727C228.438 61.4904 228.515 62.5241 228.853 63.0947C229.114 63.4463 229.557 63.9237 230.047 64.4764" stroke="black" stroke-width="3" stroke-linecap="round"/>
<path d="M232.594 79.152C232.558 79.152 232.306 79.152 231.944 78.8865C231.291 78.408 231.923 77.2926 232.237 76.8413C232.529 76.4224 233.055 76.276 233.639 76.1609C234.435 76.0042 235.123 76.2126 235.464 76.537C235.635 76.7005 235.669 76.9791 235.649 77.2427C235.607 77.7904 235.23 78.2181 234.857 78.5197C234.055 79.1671 233.061 79.0533 232.628 78.931C232.422 78.8269 232.244 78.6376 232.12 78.4116C231.996 78.1857 231.932 77.9288 231.862 77.4238" stroke="black" stroke-width="3" stroke-linecap="round"/>
<path d="M142.626 112.453C142.626 112.479 142.626 112.505 142.626 115.73C142.626 118.954 142.626 125.377 142.604 128.821C142.582 132.264 142.538 132.533 142.516 132.832C142.493 133.13 142.493 133.45 143.016 132.643C143.538 131.837 144.583 129.894 145.992 127.783C147.401 125.671 149.143 123.45 150.406 121.957C151.669 120.464 152.402 119.766 154.507 118.276C156.613 116.785 160.069 114.522 162.141 113.216C164.213 111.909 164.796 111.627 165.887 111.217" stroke="black" stroke-width="3" stroke-linecap="round"/>
<path d="M140.669 112.32C140.622 112.32 135.816 112.32 127.615 112.178C124.195 112.119 122.291 111.754 118.883 110.653C115.475 109.552 110.623 107.641 106.914 105.891C103.205 104.141 100.785 102.609 99.0062 101.363C97.2269 100.117 96.1614 99.2028 94.512 97.4399C92.8626 95.6771 90.6615 93.0929 88.4297 89.9467C86.1978 86.8004 84.0018 83.1705 82.633 80.7695C80.6901 77.3612 79.7436 74.1208 78.8212 68.8028C77.5322 61.3711 78.1843 56.364 78.6601 54.4728C79.0183 53.049 79.8849 50.7583 81.1629 48.0071C82.441 45.2559 84.1738 42.133 86.2962 39.0784C88.4186 36.0239 90.8782 33.1324 95.0404 29.2235C99.2027 25.3146 104.993 20.4759 109.197 17.2378C113.401 13.9998 115.844 12.5089 117.609 11.5064C119.373 10.5038 120.386 10.0347 123.95 9.23692C127.513 8.43911 133.596 7.32678 143.279 6.90548C152.962 6.48418 166.06 6.78761 179.772 8.78155C193.483 10.7755 207.409 14.4507 217.395 17.4558C227.382 20.4608 233.006 22.6843 237.013 24.4084C243.317 27.1203 246.774 29.2548 248.941 30.6684C251.76 32.5067 253.02 34.9843 255.321 41.5911C256.159 43.9954 256.486 47.1127 256.772 50.6573C257.058 54.202 257.075 58.145 256.488 62.6897C255.9 67.2344 254.708 72.2611 253.59 76.0158C252.472 79.7705 251.464 82.1008 250.243 84.4514C247.782 89.1901 244.661 93.443 241.972 96.8592C238.937 100.715 236.339 102.28 231.397 104.748C229.687 105.602 227.362 106.211 225.254 106.769C223.147 107.326 221.26 107.664 211.751 108.229C202.242 108.794 185.167 109.576 176.205 110.004C166.908 110.485 166.167 110.566 165.41 110.528C165.049 110.464 164.739 110.308 164.418 110.147" stroke="black" stroke-width="3" stroke-linecap="round"/>
<path d="M353.336 95.9155C353.322 95.9427 353.366 96.1615 355.704 100.546C357.946 104.75 362.512 112.873 364.879 117.167C367.247 121.46 367.325 121.652 367.449 121.647C367.572 121.641 367.738 121.431 369 118.878C370.262 116.324 372.614 111.432 374.546 107.792C376.478 104.152 377.918 101.912 378.952 100.475C379.986 99.0388 380.571 98.4729 380.981 98.0939C381.392 97.7148 381.612 97.5397 381.995 97.3084" stroke="black" stroke-width="3" stroke-linecap="round"/>
<path d="M326.27 51.8661C326.313 50.6434 326.552 47.4 327.835 44.1302C328.7 41.9254 329.855 40.4085 330.455 39.6089C330.695 39.2887 330.82 39.1544 331.299 39.8825C331.779 40.6107 332.612 42.2085 333.609 44.3456C335.815 49.0767 336.962 52.0016 337.112 52.3472C337.265 52.6984 338.507 52.6665 343.507 52.7866C347.469 52.8818 349.93 53.709 350.37 53.8767C350.558 53.9484 350.588 54.159 348.972 55.1346C347.355 56.1102 344.069 57.887 341.823 59.2021C339.578 60.5172 338.472 61.3166 337.953 61.844C337.347 62.461 339.029 64.883 341.4 68.5354C343.1 71.154 343.974 73.8482 344.828 76.3963C345.785 79.2522 345.838 80.0492 345.744 80.2674C345.552 80.7162 343.074 78.7358 339.035 75.5348C336.77 73.7403 334.337 71.2747 332.968 70.0101C331.598 68.7455 331.435 68.6733 331.232 68.6897C331.029 68.706 330.791 68.8129 328.546 70.6314C326.302 72.4499 322.056 75.9768 319.692 77.9078C317.002 80.1046 316.271 80.5259 315.773 80.7427C315.622 80.8083 315.625 80.4926 317.05 77.8831C318.475 75.2737 321.31 70.3057 322.992 67.4554C325.045 63.9781 325.783 63.1918 325.97 62.8037C326.123 62.4849 324.194 62.436 321.6 62.1766C320.248 62.0414 318.855 61.6471 317.129 61.0905C313.357 59.8741 310.841 58.7045 309.961 58.1871C308.632 57.4065 308.206 56.6194 308.137 56.2345C308.052 55.7674 309.182 55.2186 310.632 54.5858C312.076 53.9558 315.057 53.531 319.083 53.1565C322.356 53.0414 324.392 53.1474 325.419 53.2949C325.885 53.3457 326.241 53.348 326.754 53.4544" stroke="black" stroke-width="3" stroke-linecap="round"/>
<path d="M358.787 46.3639C358.78 46.3565 358.773 46.3491 360.892 46.3487C363.012 46.3482 367.259 46.3549 372.159 46.8442C377.06 47.3336 382.485 48.3054 385.347 48.8825C388.209 49.4596 388.343 49.6126 388.412 49.8306C388.563 50.3083 388.021 52.9526 386.341 58.4626C385.351 61.7126 383.156 65.5661 381.883 67.9533C380.194 71.1207 379.198 72.1691 377.99 73.2497C377.16 73.9928 375.804 75.0355 375.008 75.5947C374.213 76.1539 373.998 76.1735 373.304 75.6658C372.611 75.1581 371.447 74.1224 370.179 72.7959C368.91 71.4694 367.573 69.8833 365.775 67.1037C363.976 64.324 361.757 60.3988 360.357 57.4835C358.957 54.5681 358.442 52.7816 358.115 51.4692C357.787 50.1568 357.662 49.3725 357.597 48.5121C357.532 47.6516 357.53 46.7388 357.529 45.7983" stroke="black" stroke-width="3" stroke-linecap="round"/>
<path d="M397.772 46.4978C397.779 46.4978 397.786 46.4978 397.808 49.2906C397.83 52.0833 397.866 57.6687 398.004 61.3815C398.142 65.0943 398.38 66.7651 398.537 68.1402C398.997 72.1918 399.196 73.9885 399.543 74.7308C399.769 75.213 400.83 74.9123 405.392 75.0013C409.526 75.0818 417.356 75.0266 422.098 75.0301C426.841 75.0336 428.259 75.0444 429.071 74.7193C429.882 74.3941 430.044 73.7327 430.162 71.9477C430.279 70.1627 430.347 67.2743 430.25 64.7228C430.071 60.0337 429.452 57.324 429.112 56.3063C428.799 55.369 427.735 53.5897 426.191 51.2192C424.148 48.0835 421.118 46.6787 419.276 45.95C418.963 45.8265 418.719 45.8127 416.776 45.7636C414.834 45.7145 411.189 45.665 407.962 45.7375C404.734 45.81 402.034 46.0061 399.253 46.2081" stroke="black" stroke-width="3" stroke-linecap="round"/>
<path d="M441.404 45.8221C441.404 44.4559 441.535 41.6577 441.845 41.3657C442.905 40.3665 448.045 40.3424 450.43 40.4023C451.652 40.4329 452.979 41.6609 454.3 43.1541C455.725 44.7656 455.736 46.5032 455.803 47.5134C455.836 48.0134 455.355 48.7538 454.138 50.3195C451.938 53.1497 450.022 55.094 449.52 55.8899C448.376 57.7044 448.176 59.6904 448.25 60.9511C448.333 61.2494 448.492 61.4623 448.66 61.6516C448.828 61.8408 449.001 62 449.395 62.3533" stroke="black" stroke-width="3" stroke-linecap="round"/>
<path d="M450.244 76.3116C450.244 76.3259 449.954 76.3404 449.413 76.2637C449.15 76.2266 448.955 76.0051 448.814 75.7995C448.539 75.3993 448.529 74.8353 448.637 74.3645C448.729 73.9663 449.804 74.0597 450.871 74.1392C451.614 74.1945 451.991 74.6474 452.188 75.0087C452.394 75.3862 452.176 75.9031 451.966 76.3471C451.836 76.5551 451.657 76.7281 451.483 76.8539C451.309 76.9797 451.145 77.0529 450.975 77.1284" stroke="black" stroke-width="3" stroke-linecap="round"/>
<path d="M351.92 96.6355C351.937 96.6525 351.954 96.6695 346.503 96.6867C341.053 96.7039 330.135 96.7209 323.967 96.6473C316.707 96.5607 314.694 95.9896 312.744 95.3812C310.468 94.6709 306.243 92.251 300.593 88.4779C295.515 85.0866 292.414 80.6825 290.113 77.3077C288.4 74.7943 287.747 72.5499 287.173 68.2212C285.973 59.1827 286.36 52.7058 286.687 51.0482C287.273 48.0789 289.673 42.774 293.528 35.6372C297.614 28.072 301.895 23.4859 307.189 19.8444C311.132 17.1322 318.19 13.5339 323.651 10.8359C329.112 8.13785 332.907 6.67124 338.304 5.291C343.702 3.91077 350.588 2.66135 357.876 1.99791C365.164 1.33447 372.647 1.29488 382.872 2.11724C393.098 2.93959 405.841 4.62509 416.299 6.86695C426.757 9.10881 434.544 11.8559 439.78 13.9462C445.016 16.0364 447.464 17.3865 450.497 19.3306C457.176 23.6127 461.928 27.5092 464.691 30.5851C468.488 34.8129 470.883 39.8959 472.373 44.2259C473.92 48.7218 473.947 54.7907 473.675 61.4346C473.431 67.3707 470.692 73.3205 468.35 78.7982C466.06 84.1556 463.476 87.3514 460.754 90.562C456.395 95.7031 448.457 98.019 442.602 99.6105C438.821 100.638 433.201 101.317 425.326 101.745C417.451 102.174 407.442 102.128 400.585 101.738C385.863 99.5456 382.999 98.5835 380.927 97.3433C380.41 96.9128 379.931 96.3845 379.437 95.8402" stroke="black" stroke-width="3" stroke-linecap="round"/>
</svg>
