<svg width="428" height="274" viewBox="0 0 428 274" fill="none" xmlns="http://www.w3.org/2000/svg">
<path d="M131.014 121.405C131.353 121.113 132.58 120.212 133.693 119.348C134.845 118.454 135.958 116.936 137.26 115.417C137.714 114.895 138.393 114.136 138.766 113.574C139.138 113.013 139.183 112.671 139.229 112.32" stroke="black" stroke-width="3" stroke-linecap="round"/>
<path d="M147.208 99.3428C147.268 98.8955 147.735 97.13 148.44 95.2496C149.011 93.7305 149.699 91.5857 151.093 85.7549C151.682 83.2902 151.838 79.6627 151.86 70.6359C151.874 64.9524 150.361 61.4883 149.751 58.4247C149.311 56.2174 149.001 54.7118 148.475 52.9282C147.884 50.9271 146.82 49.3611 146.246 47.8063C146.134 47.4589 146.042 47.1406 145.935 46.8191C145.828 46.4976 145.709 46.1826 145.587 45.7458" stroke="black" stroke-width="3" stroke-linecap="round"/>
<path d="M145.859 45.9898C145.829 45.7437 145.323 44.3688 144.808 43.1841C144.448 42.3571 143.616 41.4867 143 40.6698C142.253 39.6789 141.495 38.0891 140.147 36.1859C138.944 34.4883 137.732 33.0394 136.769 31.7829C136.187 31.0233 135.134 29.7097 134.169 28.5472C132.899 27.0174 131.381 25.1847 127.568 21.7953C125.264 20.0236 124.36 19.5122 123.712 19.1876C123.425 19.0405 123.222 18.9294 123.014 18.8149" stroke="black" stroke-width="3" stroke-linecap="round"/>
<path d="M123.014 18.8149C122.791 18.7977 121.897 18.4922 119.286 16.7176C118.117 15.923 116.04 14.6262 112.962 13.0468C108.559 10.7868 106.52 10.2168 104.056 9.47347C100.724 9.0485 97.0268 8.61878 95.7982 8.45181C95.5678 8.42122 95.3214 8.37886 94.99 8.33521" stroke="black" stroke-width="3" stroke-linecap="round"/>
<path d="M94.9901 8.33521C94.9601 8.33521 92.0283 8.34079 86.896 8.4719C83.2354 8.56542 81.4817 9.17643 80.3874 9.4864C76.7157 10.5264 74.0919 11.7639 71.5499 13.2229C68.8438 14.7761 67.9245 15.3692 66.4591 16.1785C65.9948 16.4708 65.6365 16.7121 65.1875 17.0155C64.9277 17.1916 64.6033 17.4126 63.8108 17.9116" stroke="black" stroke-width="3" stroke-linecap="round"/>
<path d="M64.4141 16.8533C64.1815 16.8606 63.2664 17.1643 60.7491 19.0337C58.646 20.5955 57.5449 21.6008 55.6423 22.9838C54.4852 23.8249 52.6851 25.287 51.6022 26.0697C50.5915 26.8002 49.2091 27.7942 48.3121 28.5343C47.4836 29.2179 46.7394 29.9031 43.2667 34.0373C42.3704 35.2051 41.795 36.1161 41.4344 36.6597C41.0739 37.2034 40.9455 37.352 40.8132 37.5052" stroke="black" stroke-width="3" stroke-linecap="round"/>
<path d="M41.2753 37.6565C41.0931 37.7724 40.3617 38.4127 39.7249 39.1503C39.1372 39.8309 37.9108 41.5647 36.8214 43.2791C36.109 44.4001 35.7435 45.1526 35.0717 46.752C34.6565 47.7404 34.3576 48.6086 33.9326 50.0002C33.234 52.2877 32.656 54.4779 32.1912 56.3222C31.3039 59.6199 30.9189 61.2653 30.6814 62.5807C30.5782 63.2339 30.5099 63.8583 30.4104 64.9951" stroke="black" stroke-width="3" stroke-linecap="round"/>
<path d="M29.7825 65.2473C29.7825 66.4143 29.9925 69.9367 30.7748 73.1334C31.0327 74.1874 31.3932 75.4945 32.0879 77.6213C32.7825 79.748 33.8175 82.6505 34.6685 84.8753C36.0877 88.5858 36.916 90.2749 37.4293 91.1913C38.5027 93.1075 39.7925 95.0043 41.4692 96.9846C44.3795 100.134 46.3776 102.201 46.8217 102.586C47.0806 102.823 47.4076 103.143 48.1327 103.77" stroke="black" stroke-width="3" stroke-linecap="round"/>
<path d="M30.0183 65.0735C30.0183 65.9637 29.929 68.1199 29.8108 70.4253C29.7664 71.2905 29.6993 71.8342 29.688 73.5332C29.6782 75.0059 29.6541 77.7181 30.1424 81.7054C30.6306 85.6928 31.6304 90.8732 32.4855 94.6C33.3407 98.3268 34.0208 100.443 34.926 103.022" stroke="black" stroke-width="3" stroke-linecap="round"/>
<path d="M34.926 102.976C34.926 103.503 35.0285 104.762 36.9803 109.968C37.9242 112.485 38.9938 114.431 41.266 118.135C42.9964 120.956 46.0581 125.589 48.0305 128.465C50.7152 132.38 52.7031 134.304 54.3066 135.939C54.8975 136.549 55.0357 136.713 55.4387 137.101C55.8416 137.488 56.505 138.093 57.2492 138.754" stroke="black" stroke-width="3" stroke-linecap="round"/>
<path d="M96.8527 21.189C95.8326 21.189 93.8209 21.3554 88.721 23.585C87.053 24.3142 85.4252 25.2189 82.9195 26.6873C80.4137 28.1557 77.1028 30.2116 74.4731 31.9852C71.8435 33.7588 69.9953 35.1879 68.7998 36.169C67.0724 37.5867 65.5099 39.7219 63.7787 42.2081C63.0215 43.2955 62.3671 44.3567 61.4142 45.8341C60.7762 46.8232 60.2012 48.1302 58.6565 51.4865C57.5183 53.9595 55.6746 58.0016 54.6077 60.3432C53.3047 63.2028 52.659 64.9742 51.9117 67.3743C50.6652 71.3776 50.5607 73.4495 50.3528 74.5423C50.0153 76.1508 49.5536 80.8374 49.4257 83.4854C49.3987 83.81 49.3639 84.0109 49.1682 84.2417" stroke="black" stroke-width="3" stroke-linecap="round"/>
<path d="M49.1682 84.2417C49.1682 84.2491 49.1682 84.2564 49.1682 84.8956C49.1682 85.5347 49.1682 86.8055 49.1855 87.5608C49.2027 88.3161 49.2372 88.5176 49.325 89.304" stroke="black" stroke-width="3" stroke-linecap="round"/>
<path d="M52.0979 91.0513C52.0979 91.066 52.0979 91.0807 52.0711 92.205C52.0444 93.3293 51.9908 95.5628 51.9463 96.82C51.9017 98.0771 51.8677 98.2902 51.7673 99.0002" stroke="black" stroke-width="3" stroke-linecap="round"/>
<path d="M51.7674 99.0002C51.7369 99.0002 51.5282 99.0621 51.1695 99.2489C50.4027 99.6481 49.5443 102.668 48.7077 105.497C47.764 108.689 48.3899 111.03 48.8761 111.88C49.3986 112.793 50.7712 112.765 53.0555 112.76C54.4332 112.758 55.8864 111.225 56.9738 109.983C57.8951 108.93 57.8759 106.67 57.6456 105.5C57.3335 103.915 55.4407 102.078 53.9503 100.717C53.4974 100.431 52.919 100.202 52.2639 99.9408C51.9879 99.8063 51.8263 99.6683 51.5744 99.1163" stroke="black" stroke-width="3" stroke-linecap="round"/>
<path d="M96.9802 21.5126C97.4721 21.5126 98.8786 21.4304 106.184 21.3795C109.735 21.3548 111.697 22.0508 113.832 22.7954C115.712 23.4508 118.529 24.7541 121.629 26.0715C123.934 27.0508 125.964 28.8513 127.871 30.5665C129.102 31.6738 130.065 32.7289 132.877 36.2495C133.907 37.672 134.491 38.5845 134.856 39.227C135.024 39.525 135.157 39.766 135.465 40.3364" stroke="black" stroke-width="3" stroke-linecap="round"/>
<path d="M135.072 39.4988C135.102 39.6398 135.477 40.3867 137.5 43.4688C138.419 44.8704 139.178 46.381 140.973 49.5797C142.339 52.0124 143.08 53.2725 143.625 54.265C144.384 55.6502 145.089 57.5056 146.239 60.123C147.088 62.3876 147.839 64.8776 147.894 66.0984C147.924 67.1096 147.959 68.9163 147.938 70.8724" stroke="black" stroke-width="3" stroke-linecap="round"/>
<path d="M147.938 70.8723C147.938 70.8832 147.938 72.0864 147.724 75.0398C147.596 76.8039 147.083 79.0731 146.761 80.6375C146.275 82.9935 145.917 84.4529 145.747 85.5627C145.415 87.717 144.971 90.4755 144.93 90.804C144.898 90.9636 144.845 91.1087 144.609 91.4221" stroke="black" stroke-width="3" stroke-linecap="round"/>
<path d="M144.573 91.458C144.573 91.4689 144.573 91.7092 144.541 92.1493C144.509 92.3547 144.446 92.5236 144.335 92.7357C144.224 92.9477 144.068 93.1978 143.811 93.5512" stroke="black" stroke-width="3" stroke-linecap="round"/>
<path d="M141.854 95.4098C141.854 95.4038 141.854 95.3978 141.854 96.5908C141.854 97.7838 141.854 100.176 141.873 102.678" stroke="black" stroke-width="3" stroke-linecap="round"/>
<path d="M142.237 103.036C142.107 103.249 141.657 104.241 141.377 106.502C141.046 109.169 141.326 111.074 141.547 111.684C142.493 114.306 144.923 116.109 145.989 116.745C146.651 117.141 147.654 117.074 148.507 117.042C149.079 117.02 149.528 116.619 150.014 116.023C151.29 114.456 151.58 111.878 151.647 109.736C151.667 109.093 151.326 108.572 150.913 107.931C150.418 107.162 148.848 105.856 146.981 104.346C145.687 103.5 145.007 103.27 144.628 103.232C144.436 103.219 144.247 103.219 144.001 103.186" stroke="black" stroke-width="3" stroke-linecap="round"/>
<path d="M141.771 97.1536C141.771 97.4349 141.49 98.6686 140.315 100.726C139.509 102.138 137.749 103.933 135.769 106.216C135.064 107.029 134.13 107.884 132.994 108.885C131.934 109.82 129.875 111.383 127.405 113.33C125.172 115.09 124.053 115.838 123.14 116.475C122.045 117.195 120.517 118.205 119.466 118.872C119.018 119.127 118.329 119.5 117.284 120.222" stroke="black" stroke-width="3" stroke-linecap="round"/>
<path d="M117.284 120.223C116.922 120.223 115.817 120.37 114.643 120.831C112.599 121.635 111.356 122.31 109.834 123.047C108.154 123.859 106.86 124.311 106.228 124.558C105.135 124.986 103.321 125.75 101.168 126.535C98.1343 127.641 96.652 128.303 93.6213 129.697C92.5013 130.212 91.0513 130.746 89.4685 131.302C87.8856 131.857 86.2006 132.389 83.9077 133.015C81.6148 133.642 78.7651 134.348 76.6168 134.805C73.1278 135.545 71.0932 135.69 69.8196 135.847C67.219 136.308 65.2729 136.564 62.6018 136.777C60.779 136.849 58.0075 136.849 54.8467 136.695" stroke="black" stroke-width="3" stroke-linecap="round"/>
<path d="M56.7927 114.122C56.9608 114.369 57.6877 115.348 62.8778 120.319C65.6878 123.01 68.455 124.324 70.0423 125.252C70.6494 125.595 70.8537 125.677 71.0469 125.74C71.2402 125.803 71.4161 125.844 71.5974 125.886" stroke="black" stroke-width="3" stroke-linecap="round"/>
<path d="M58.9336 115.267C59.0748 115.282 59.7118 115.499 60.2722 115.87C61.5731 116.73 63.0115 117.887 63.7686 118.29C64.1497 118.493 64.802 118.829 65.8499 119.287C66.8979 119.745 68.3242 120.313 69.2491 120.655C70.174 120.998 70.5543 121.1 71.007 121.166C71.4596 121.232 71.9732 121.259 72.5023 121.288" stroke="black" stroke-width="3" stroke-linecap="round"/>
<path d="M123.543 125.281C123.434 125.507 122.853 126.357 120.135 129.282C119.299 130.181 118.381 130.932 116.793 132.116C115.204 133.3 112.936 134.858 110.721 136.191C108.505 137.524 106.41 138.584 103.439 139.722C100.468 140.86 96.6851 142.044 94.5222 142.696C92.3592 143.347 91.9313 143.431 90.9836 143.516" stroke="black" stroke-width="3" stroke-linecap="round"/>
<path d="M48.8236 133.677C48.7766 133.677 48.1118 133.677 47.1129 133.809C46.5453 133.883 46.6392 135.358 46.5347 136.655C46.5005 137.079 46.2211 136.981 46.0009 136.881C45.5521 136.678 44.8287 136.523 43.9929 136.561C42.9804 136.607 42.7409 138.145 42.0435 138.75C41.1007 139.569 39.4654 139.194 37.9148 139.985C34.4068 141.773 32.6844 144.085 31.0506 146.314C30.6174 147.573 30.4245 148.592 30.296 149.019C30.197 149.237 30.0292 149.455 29.7227 149.946" stroke="black" stroke-width="3" stroke-linecap="round"/>
<path d="M28.7551 151.473C28.9634 151.482 29.9228 151.725 31.5063 152.219C32.3813 152.492 33.8949 152.983 36.3391 153.442C38.7833 153.9 42.1121 154.312 44.9002 154.523C47.6884 154.735 49.8349 154.735 52.0465 154.735" stroke="black" stroke-width="3" stroke-linecap="round"/>
<path d="M34.0788 155.445C33.9013 155.649 32.6186 156.878 28.3273 161.859C24.8524 165.894 19.1701 173.343 15.2024 178.719C11.2347 184.094 9.26292 187.261 7.66761 190.191C6.0723 193.12 4.91322 195.715 4.10385 197.723C2.86991 201.072 2.18524 203.546 1.78933 205.355C1.64067 206.072 1.59808 206.382 1.50024 207.063" stroke="black" stroke-width="3" stroke-linecap="round"/>
<path d="M1.50024 207.063C1.50024 207.717 2.20379 210.93 4.04913 215.37C4.47577 216.396 5.37413 218.649 7.01835 222.387C7.78978 224.141 8.6027 225.527 9.8514 227.368C11.1001 229.209 12.8032 231.444 15.1114 234.142C17.4197 236.84 20.2813 239.935 21.8974 241.653C23.7708 243.645 24.6527 244.413 26.53 245.922C27.8042 246.946 29.8914 248.288 31.7761 249.532C35.3018 251.861 37.9789 253.566 40.1847 254.932C42.9826 256.421 46.0535 257.599 48.4209 258.194C49.3037 258.405 49.5398 258.431 49.9834 258.507" stroke="black" stroke-width="3" stroke-linecap="round"/>
<path d="M50.8953 259.107C50.8793 259.107 50.863 259.381 51.0736 260.061C51.4133 261.158 53.2654 262.531 55.7066 264.462C58.4663 266.644 61.1383 267.375 63.68 267.695C65.4891 267.923 68.3959 267.819 70.3786 267.725C73.3539 267.584 75.6906 266.745 78.1688 265.778C81.8516 264.341 83.6768 262.397 84.65 261.276C84.8538 261.042 84.9749 260.71 85.0457 260.434C85.6426 258.104 81.8768 254.687 80.1465 252.97C78.1896 251.029 77.5068 250.568 75.1385 249.174C73.8976 248.3 72.9148 247.566 72.1605 247.058C71.9816 246.927 71.8334 246.789 71.6808 246.432" stroke="black" stroke-width="3" stroke-linecap="round"/>
<path d="M71.6809 246.432C71.6809 246.401 71.7607 246.121 73.2887 243.389C74.6855 240.892 77.5515 236.258 79.1089 233.608C80.6662 230.958 80.8812 230.462 80.8875 230.159C80.8937 229.856 80.6846 229.761 80.1926 229.7C78.9389 229.543 77.6741 229.756 76.7641 230.116C75.886 230.464 73.808 232.098 71.0394 234.359C69.9556 235.27 69.5238 235.7 68.613 236.771C67.7023 237.841 66.3256 239.539 64.5796 241.63" stroke="black" stroke-width="3" stroke-linecap="round"/>
<path d="M64.5795 241.63C64.219 241.307 62.8368 240.009 61.8483 239.101C61.2961 238.594 60.7981 237.844 59.5816 235.78C58.6012 234.116 56.966 231.155 54.6757 227.676C52.3853 224.196 49.5105 220.278 47.8183 218.044C46.126 215.81 45.7035 215.38 44.2644 214.143C42.8252 212.907 40.3821 210.876 38.5816 209.499C36.781 208.121 35.6971 207.457 35.0383 207.091C34.3795 206.725 34.1787 206.677 33.6895 206.408" stroke="black" stroke-width="3" stroke-linecap="round"/>
<path d="M61.1836 166.826C61.1836 166.856 60.8648 167.347 57.2306 173.854C53.9152 179.885 47.6127 191.458 44.3113 197.593C41.01 203.727 40.9008 204.072 40.7883 204.428" stroke="black" stroke-width="3" stroke-linecap="round"/>
<path d="M131.105 124.812C131.725 124.812 133.927 125.225 136.082 126.641C136.989 127.237 137.645 128.056 139.748 130.062C141.495 131.671 144.619 134.483 148.057 138.452C151.496 142.421 155.152 147.462 159.068 152.983" stroke="black" stroke-width="3" stroke-linecap="round"/>
<path d="M123.696 163.766C124.171 163.775 125.703 163.949 130.157 166.305C132.51 167.55 135.883 170.179 138.084 171.805C141.098 174.17 142.568 175.588 143.838 176.875C144.474 177.506 145.095 178.094 145.994 178.974" stroke="black" stroke-width="3" stroke-linecap="round"/>
<path d="M161.489 160.15C161.742 160.192 162.573 160.52 163.575 161.197C164.75 161.991 166.21 162.935 167.434 163.882C168.39 164.673 170.197 166.052 173.312 168.556C175.037 170.043 177.056 171.971 178.937 173.904" stroke="black" stroke-width="3" stroke-linecap="round"/>
<path d="M144.725 179.9C145.486 179.9 147.834 179.751 151.446 179.072C154.484 178.5 155.36 178.17 157.894 177.966C158.512 177.907 158.896 177.847 162.146 177.388C165.396 176.93 171.499 176.077 178.104 174.736" stroke="black" stroke-width="3" stroke-linecap="round"/>
<path d="M121.476 163.143C122.324 163.109 124.53 162.998 126.179 162.634C127.238 162.4 130.078 161.37 134.081 160.077C136.761 159.211 138.973 159.015 141.996 158.81C143.902 158.681 146.574 158.71 148.725 158.831C152.429 159.217 154.98 159.736 156.993 160.205C158.055 160.428 159.199 160.622 160.777 160.777" stroke="black" stroke-width="3" stroke-linecap="round"/>
<path d="M179.706 176.822C179.706 177.276 179.607 178.488 178.124 181.325C176.74 183.821 174.075 188.463 171.073 194.1C168.071 199.738 164.813 206.23 161.054 213.099" stroke="black" stroke-width="3" stroke-linecap="round"/>
<path d="M141.788 182.826C141.788 182.842 141.702 183.136 140.443 185.392C139.334 187.38 137.017 191.004 135.669 193.233C133.327 197.202 132.399 198.507 131.609 199.677C131.267 200.17 131.041 200.46 130.788 200.826" stroke="black" stroke-width="3" stroke-linecap="round"/>
<path d="M144.341 250.536C144.325 250.536 143.65 251.182 142.263 252.59C141.544 253.353 140.792 254.214 140.263 254.883C139.733 255.551 139.449 256.001 139.03 256.875" stroke="black" stroke-width="3" stroke-linecap="round"/>
<path d="M114.086 238.037C114.033 238.299 112.465 241.401 109.963 246.291C107.951 250.224 107.621 251.867 106.704 254.304C106.489 254.873 106.391 255.193 106.323 255.46C106.255 255.727 106.221 255.932 106.187 256.143" stroke="black" stroke-width="3" stroke-linecap="round"/>
<path d="M104.896 262.81C105.246 262.731 108.453 261.826 113.899 260.468C116.868 259.728 120.37 259.389 124.758 259.138C129.145 258.887 134.342 258.862 137.169 258.829C139.996 258.796 140.295 258.756 140.791 258.689" stroke="black" stroke-width="3" stroke-linecap="round"/>
<path d="M120.431 164.973C120.331 165.196 119.639 166.627 115.849 172.262C112.598 176.92 106.649 185.232 103.32 190.017C99.9916 194.802 99.4639 195.808 98.7832 197.204" stroke="black" stroke-width="3" stroke-linecap="round"/>
<path d="M90.5823 213.263C90.5823 213.308 90.5035 213.605 89.7765 215.338C89.1281 216.796 87.9125 219.431 87.1911 220.939C86.4696 222.446 86.2792 222.745 86.0344 223.166" stroke="black" stroke-width="3" stroke-linecap="round"/>
<path d="M78.5217 247.484C78.5217 247.468 78.7318 247.451 79.174 247.47C79.6539 247.561 81.7349 248.552 87.2099 252.039C90.8592 254.601 96.2767 258.772 102.054 263.283" stroke="black" stroke-width="3" stroke-linecap="round"/>
<path d="M125.926 172.881C125.918 172.881 125.91 172.881 123.918 175.233C121.926 177.585 117.951 182.289 114.865 186.312C111.778 190.335 109.701 193.535 107.546 196.921" stroke="black" stroke-width="3" stroke-linecap="round"/>
<path d="M131.717 178.236C131.717 178.228 131.717 178.221 131.687 178.382C131.657 178.544 131.597 178.875 129.633 182.032C127.67 185.189 123.804 191.162 119.792 197.512" stroke="black" stroke-width="3" stroke-linecap="round"/>
<path d="M95.7942 226.731C95.7785 226.754 95.7627 226.778 93.5096 230.045C91.2566 233.312 86.7666 239.822 82.0225 246.748" stroke="black" stroke-width="3" stroke-linecap="round"/>
<path d="M100.134 234.895C100.126 234.91 100.118 234.926 98.3726 237.821C96.6268 240.715 93.1431 246.489 89.4436 252.765" stroke="black" stroke-width="3" stroke-linecap="round"/>
<path d="M110.334 236.096C109.943 236.128 108.548 235.898 107.464 235.265C106.556 234.735 105.801 234.151 102.617 231.682C101.119 230.52 99.5792 228.982 97.4886 226.956C95.1132 224.654 93.6365 222.637 92.8245 221.346C91.8631 219.818 91.0645 217.654 90.377 215.673C89.3326 212.664 90.2847 208.122 90.7353 207.246C91.131 206.478 91.8224 205.952 93.905 204.56C94.813 203.953 95.5609 203.804 96.1552 203.64C96.8887 203.437 99.8336 203.354 104.39 203.464C107.925 203.549 110.897 204.642 113.561 205.556C115.611 206.326 116.735 206.81 117.216 207.069C117.46 207.199 117.703 207.325 118.168 207.707" stroke="black" stroke-width="3" stroke-linecap="round"/>
<path d="M118.3 208.106C118.282 207.692 118.109 206.52 116.73 200.318C115.994 197.009 115.245 194.576 115.275 193.08C115.286 192.56 115.633 192.56 115.865 192.591C116.787 192.714 117.558 193.773 119.462 195.917C121.361 198.509 123.997 202.677 124.66 203.984C125.068 204.805 125.621 205.949 126.482 207.448" stroke="black" stroke-width="3" stroke-linecap="round"/>
<path d="M110.441 236.349C111.006 236.349 112.499 236.293 115.544 235.329C116.306 235.054 116.757 234.846 117.082 234.694C117.406 234.542 117.59 234.452 117.805 234.334" stroke="black" stroke-width="3" stroke-linecap="round"/>
<path d="M117.804 234.334C118.09 234.39 118.846 234.592 121.156 235.668C123.25 236.644 127.191 238.548 134.926 241.107C142.66 243.667 154.062 246.839 160.166 248.498C167.558 250.259 168.692 250.158 169.453 249.932C169.799 249.808 170.064 249.665 170.802 249.157" stroke="black" stroke-width="3" stroke-linecap="round"/>
<path d="M127.997 210.198C128.013 210.214 129.276 210.245 133.984 211.108C137.478 211.749 143.046 213.603 148.253 215.64C153.459 217.677 158.091 220.046 161.125 221.731C164.159 223.416 165.454 224.344 166.788 225.301" stroke="black" stroke-width="3" stroke-linecap="round"/>
<path d="M176.464 252.759C176.511 252.759 177.019 252.751 177.874 252.661C178.524 252.593 179.278 251.509 180.671 248.941C181.624 247.183 182.652 244.29 183.448 241.597C184.245 238.905 184.671 236.445 184.824 232.552C184.977 228.658 184.844 223.406 184.576 219.517C184.307 215.629 183.907 213.264 183.542 211.599C182.327 207.712 181.517 206.38 180.77 205.626C180.573 205.471 180.359 205.332 179.633 204.866" stroke="black" stroke-width="3" stroke-linecap="round"/>
<path d="M56.1846 66.1316C56.1792 66.1262 56.1738 66.1207 56.2699 66.1195C56.366 66.1182 56.5638 66.1213 58.4625 66.7444C60.3612 67.3676 63.9547 68.6108 67.8439 69.9652" stroke="black" stroke-width="3" stroke-linecap="round"/>
<path d="M68.0931 64.0876C68.0931 64.1073 68.0931 65.8783 67.9559 69.47C67.8859 71.3048 67.5446 73.1489 67.4014 74.3277C67.2038 75.9549 67.2777 76.5576 67.3442 76.8165C67.4831 77.3575 68.2876 77.7794 69.501 78.293C70.1691 78.5758 71.3869 78.9578 72.6277 79.2994C73.8685 79.641 75.1105 79.8918 77.55 80.0926C79.9894 80.2935 83.5887 80.4368 85.6226 80.5319C87.6564 80.6269 88.0157 80.6694 89.1606 80.714C90.3055 80.7586 92.225 80.8041 93.5751 80.789C96.7322 80.7534 97.7323 80.4743 98.32 80.3421C99.0426 80.1797 99.5358 79.6421 100.105 79.0554C100.756 78.3834 101.243 76.5148 101.467 74.8793C101.54 74.3512 101.607 73.5877 101.662 71.9011C101.716 70.2145 101.735 67.6254 101.7 66.2256C101.665 64.8259 101.576 64.6939 101.485 64.558" stroke="black" stroke-width="3" stroke-linecap="round"/>
<path d="M102.553 70.5545C102.574 70.5545 102.595 70.5545 103.817 70.5545C105.039 70.5545 107.463 70.5545 109.916 70.3718" stroke="black" stroke-width="3" stroke-linecap="round"/>
<path d="M111.175 66.002C111.175 66.0073 111.175 66.0125 111.179 67.8732C111.183 69.7339 111.19 73.4499 111.264 75.6753C111.358 78.5292 111.697 79.3072 111.882 79.5817C112.277 80.1676 113.425 80.4899 115.397 81.0801C116.169 81.3109 117.368 81.6233 118.986 81.9523C120.282 82.2159 121.491 82.2096 122.621 82.1686C123.142 82.1497 123.552 82.0456 125.639 81.9407C127.726 81.8358 131.477 81.7105 133.48 81.6355C136.14 81.5359 137.566 80.8531 138.543 80.2835C138.733 80.1725 138.848 80.0313 139.022 77.9333C139.196 75.8354 139.411 71.7638 139.514 69.5956C139.598 67.286 139.462 66.8696 139.161 66.2594C138.978 65.9199 138.733 65.5199 138.48 65.1077" stroke="black" stroke-width="3" stroke-linecap="round"/>
<path d="M140.337 73.7161C141.704 73.7074 144.735 73.5598 145.448 73.1809C145.622 73.0691 145.787 72.9485 145.907 72.8136C146.027 72.6786 146.098 72.5329 146.172 72.3828" stroke="black" stroke-width="3" stroke-linecap="round"/>
<path d="M92.823 89.5356C92.8612 89.7064 94.2803 91.689 95.7141 93.5189C96.189 94.125 97.0187 94.6666 99.1968 95.7002C99.9645 96.0645 101.019 96.292 102.236 96.4765C104.812 96.8671 106.881 96.6001 108.223 96.0909C111.136 94.2978 112.532 93.0517 112.76 92.7127C112.874 92.54 112.986 92.3657 113.134 91.8512" stroke="black" stroke-width="3" stroke-linecap="round"/>
<path d="M75.6917 66.3438C75.6917 66.3699 75.7071 66.5207 75.776 66.7771C75.8434 67.0276 77.4538 68.6024 79.7686 70.997C81.3083 72.5898 82.3841 72.9429 85.4501 73.4491C86.8785 73.6849 87.7121 73.4863 88.1424 73.2592C89.431 72.579 90.7176 71.0458 91.5043 70.1503C91.6934 69.8946 91.8449 69.5888 91.9815 69.2409C92.0509 69.0795 92.1207 68.9491 92.2389 68.5075" stroke="black" stroke-width="3" stroke-linecap="round"/>
<path d="M118.566 68.614C118.599 68.7874 119.367 69.7876 122.765 72.4728C123.787 73.2809 124.928 73.4999 126.35 73.7815C128.874 74.281 130.004 73.3768 131.484 72.5187C132.47 71.9472 132.693 71.2741 132.892 70.6275C132.936 70.4052 132.982 70.1092 133.006 69.8603C133.03 69.6113 133.03 69.4184 133.004 69.1111" stroke="black" stroke-width="3" stroke-linecap="round"/>
<path d="M88.3491 55.241C88.3149 55.241 88.2807 55.241 86.3404 55.2567C84.4 55.2725 80.5546 55.304 78.2902 55.3801C76.0259 55.4563 75.4592 55.5761 74.4425 55.9341C73.4258 56.2921 71.9763 56.8846 71.0565 57.2949C70.1367 57.7051 69.7904 57.9151 69.3672 58.196" stroke="black" stroke-width="3" stroke-linecap="round"/>
<path d="M120.969 57.057C120.965 57.057 120.961 57.057 122.225 57.0384C123.489 57.0198 126.021 56.9826 127.504 56.996C128.987 57.0094 129.343 57.0744 130.021 57.3195C130.699 57.5646 131.688 57.9877 132.687 58.5121C133.686 59.0365 134.664 59.6493 135.672 60.2808" stroke="black" stroke-width="3" stroke-linecap="round"/>
<path d="M186.924 6.67781C186.968 6.67781 194.934 6.71418 210.284 7.14742C217.698 7.35667 224.318 8.30055 243.333 8.70302C262.347 9.10549 293.549 9.13126 319.672 7.86123C345.795 6.59121 365.894 4.02463 379.694 2.71002C393.494 1.39542 400.385 1.41057 404.496 1.58093C408.607 1.75128 409.728 2.07636 410.8 2.45373C411.872 2.83111 412.86 3.25091 414.932 3.70641" stroke="black" stroke-width="3" stroke-linecap="round"/>
<path d="M425.86 4.44336C425.86 4.5108 425.86 4.57824 425.547 46.4778C425.233 88.3774 424.607 172.107 424.644 217.413C424.681 262.718 425.401 267.063 426.218 272.441" stroke="black" stroke-width="3" stroke-linecap="round"/>
<path d="M186.97 115.272C186.946 115.247 186.921 115.223 214.253 115.071C241.584 114.918 296.271 114.639 331.91 113.099C367.549 111.56 382.482 108.769 391.391 106.972C400.299 105.174 402.73 104.455 405.715 103.375" stroke="black" stroke-width="3" stroke-linecap="round"/>
<path d="M194.378 191.107C194.469 191.107 194.56 191.107 222.095 191.194C249.631 191.281 304.608 191.455 336.892 191.843C369.176 192.23 377.1 192.826 381.542 193.028C386.707 193.02 388.374 192.416 390.343 191.83C391.389 191.63 392.53 191.63 393.705 191.63" stroke="black" stroke-width="3" stroke-linecap="round"/>
<path d="M393.131 32.6558V107.967" stroke="black" stroke-width="3" stroke-linecap="round"/>
<path d="M393.576 32.0654C393.559 32.0654 393.542 32.0654 397.442 32.0654C401.342 32.0654 409.16 32.0654 418.312 31.9246" stroke="black" stroke-width="3" stroke-linecap="round"/>
<path d="M418.312 31.9246C418.312 31.9569 418.312 31.9892 418.294 39.8724C418.277 47.7557 418.241 63.4889 417.952 76.3354C417.662 89.182 417.119 98.6653 416.685 104.319C416.25 109.973 415.94 111.51 415.674 112.532C415.407 113.555 415.194 114.016 414.975 114.491" stroke="black" stroke-width="3" stroke-linecap="round"/>
<path d="M376.239 37.7191C376.201 37.6998 376.162 37.6805 378.006 37.661C379.851 37.6414 383.579 37.6221 387.419 37.6023" stroke="black" stroke-width="3" stroke-linecap="round"/>
<path d="M352.836 22.2764H372.122" stroke="black" stroke-width="3" stroke-linecap="round"/>
<path d="M372.454 25.2371V100.536" stroke="black" stroke-width="3" stroke-linecap="round"/>
<path d="M349.474 27.3101V121.239" stroke="black" stroke-width="3" stroke-linecap="round"/>
<path d="M331.786 33.8567H349.328" stroke="black" stroke-width="3" stroke-linecap="round"/>
<path d="M331.786 33.8567V92.672" stroke="black" stroke-width="3" stroke-linecap="round"/>
<path d="M330.524 52.5796C330.472 52.5796 330.42 52.5796 327.292 52.5796C324.164 52.5796 317.963 52.5796 310.615 52.8269" stroke="black" stroke-width="3" stroke-linecap="round"/>
<path d="M310.505 52.8269C310.505 52.8428 310.505 52.8586 310.515 61.2588C310.524 69.6589 310.544 86.4429 310.592 95.4388C310.64 104.435 310.715 105.134 310.782 106.859C310.848 108.584 310.903 111.313 310.96 114.126" stroke="black" stroke-width="3" stroke-linecap="round"/>
<path d="M289.901 21.3164C289.824 21.3164 295.032 21.3164 303.242 21.3394C306.205 21.3623 306.725 21.4082 307.377 21.5463C308.028 21.6845 308.796 21.9134 310.283 22.2799" stroke="black" stroke-width="3" stroke-linecap="round"/>
<path d="M310.123 24.1448V47.9186" stroke="black" stroke-width="3" stroke-linecap="round"/>
<path d="M292.93 24.04C292.912 24.04 292.894 24.04 292.876 38.2354C292.857 52.4308 292.839 80.8215 292.768 95.8429C292.697 110.864 292.573 111.656 292.489 112.405C292.404 113.155 292.362 113.838 292.319 114.541" stroke="black" stroke-width="3" stroke-linecap="round"/>
<path d="M275.357 30.9585C275.33 30.9585 275.69 31.03 277.778 32.1637C282.536 35.2768 286.841 38.3927 288.791 40.2004C289.571 41.0051 289.928 41.5813 290.606 42.6224" stroke="black" stroke-width="3" stroke-linecap="round"/>
<path d="M290.607 42.6223C290.546 43.1307 290.082 44.3691 284.534 54.9258C279.273 64.9351 269.263 84.5015 263.694 95.1972C258.125 105.893 257.357 107.153 256.808 108.126C255.953 109.746 255.516 110.82 255.157 111.836C254.919 112.444 254.57 113.24 253.885 114.546" stroke="black" stroke-width="3" stroke-linecap="round"/>
<path d="M275.811 32.3308C275.759 32.6925 274.171 35.2551 271.139 39.7543C269.39 42.3489 267.694 45.8835 264.083 53.5292C260.472 61.1749 255.119 72.9033 252.04 79.5489C248.386 87.4346 246.891 90.3396 245.63 93.0783C245.132 94.1236 244.921 94.4695 244.706 94.7844C244.491 95.0994 244.28 95.3729 244.061 95.6547" stroke="black" stroke-width="3" stroke-linecap="round"/>
<path d="M244.061 95.6548C244.186 96.224 245.506 99.2177 246.985 101.423C247.965 102.5 249.175 103.602 250.418 104.473C251.035 104.851 251.623 105.099 252.781 105.355" stroke="black" stroke-width="3" stroke-linecap="round"/>
<path d="M194.979 95.5989V109.135" stroke="black" stroke-width="3" stroke-linecap="round"/>
<path d="M197.142 95.4628C197.155 95.4628 197.167 95.4628 200.63 95.4628C204.092 95.4628 211.004 95.4628 215.973 95.3782C227.044 95.0086 228.21 95.2167 229.623 95.4062C230.655 95.5058 232.328 95.6124 234.051 95.7222" stroke="black" stroke-width="3" stroke-linecap="round"/>
<path d="M234.133 95.7222V110.884" stroke="black" stroke-width="3" stroke-linecap="round"/>
<path d="M330.774 118.171V186.031" stroke="black" stroke-width="3" stroke-linecap="round"/>
<path d="M331.874 125.998H347.427" stroke="black" stroke-width="3" stroke-linecap="round"/>
<path d="M347.427 125.998C347.427 126.023 347.427 126.048 347.427 136.937C347.427 147.826 347.427 169.578 347.102 192.21" stroke="black" stroke-width="3" stroke-linecap="round"/>
<path d="M314.339 137.24C314.352 137.253 314.366 137.266 314.379 145.863C314.393 154.459 314.406 171.638 314.42 189.338" stroke="black" stroke-width="3" stroke-linecap="round"/>
<path d="M313.936 138.593H323.45" stroke="black" stroke-width="3" stroke-linecap="round"/>
<path d="M295.619 126.318H308.214" stroke="black" stroke-width="3" stroke-linecap="round"/>
<path d="M297.912 126.553V200.081" stroke="black" stroke-width="3" stroke-linecap="round"/>
<path d="M309.781 125.99V137.843" stroke="black" stroke-width="3" stroke-linecap="round"/>
<path d="M281.329 138.013C281.302 138.013 281.78 138.048 282.704 138.148C283.495 138.31 285.84 139.385 289.309 141.287C290.802 142.213 291.75 143.058 292.775 144.095" stroke="black" stroke-width="3" stroke-linecap="round"/>
<path d="M292.776 144.177C292.759 144.575 291.72 148.061 289 154.468C287.423 158.185 284.896 162.603 282.921 165.988C279.46 171.528 277.372 175.052 276.405 177.213C275.994 178.07 275.744 178.443 274.564 179.174" stroke="black" stroke-width="3" stroke-linecap="round"/>
<path d="M281.115 140.374H281.075" stroke="black" stroke-width="3" stroke-linecap="round"/>
<path d="M281.075 140.374C280.955 140.868 280.052 143.088 277.674 147.639C276.032 150.782 273.193 155.45 270.642 160.114C268.092 164.777 265.835 169.251 264.484 171.917C263.133 174.584 262.755 175.307 262.149 176.421" stroke="black" stroke-width="3" stroke-linecap="round"/>
<path d="M259.667 181.366C260.191 181.817 262.165 183.35 264.352 184.79C264.914 185.131 265.487 185.429 266.091 185.938C266.695 186.447 267.314 187.157 267.951 187.888" stroke="black" stroke-width="3" stroke-linecap="round"/>
<path d="M246.899 131.805C246.853 131.789 246.807 131.774 248.558 131.758C250.309 131.743 253.858 131.727 257.515 131.711" stroke="black" stroke-width="3" stroke-linecap="round"/>
<path d="M257.515 131.711C257.515 131.76 257.515 131.809 257.515 141.146C257.515 150.482 257.515 169.105 257.479 179.012C257.442 188.919 257.37 189.545 257.327 190.263C257.284 190.982 257.274 191.773 256.957 192.723" stroke="black" stroke-width="3" stroke-linecap="round"/>
<path d="M247.29 131.693C247.261 131.679 247.231 131.664 247.202 140.416C247.172 149.169 247.143 166.688 247.111 176.652C247.078 186.616 247.042 188.493 247.006 190.427" stroke="black" stroke-width="3" stroke-linecap="round"/>
<path d="M247.006 190.427H259.248" stroke="black" stroke-width="3" stroke-linecap="round"/>
<path d="M233.453 126.37C238.023 126.37 247.677 126.527 248.023 126.968C247.887 127.655 247.441 128.84 246.991 130.431C246.789 131.254 246.642 132.106 246.49 133.378" stroke="black" stroke-width="3" stroke-linecap="round"/>
<path d="M235.392 127.483V199.744" stroke="black" stroke-width="3" stroke-linecap="round"/>
<path d="M234.06 141.121C234.031 141.106 234.002 141.092 232.289 141.077C230.575 141.062 227.178 141.048 223.678 141.033" stroke="black" stroke-width="3" stroke-linecap="round"/>
<path d="M221.272 140.575C221.272 140.599 221.272 140.622 221.272 148.701C221.272 156.781 221.272 172.916 221.497 189.801" stroke="black" stroke-width="3" stroke-linecap="round"/>
</svg>
