<svg width="450" height="281" viewBox="0 0 450 281" fill="none" xmlns="http://www.w3.org/2000/svg">
<path d="M61.5 137.5C60.7332 137.378 58.2128 136.637 55.4744 134.923C51.4405 132.397 45.1697 126.852 40.2087 121.489C36.7144 117.712 34.6528 113.473 33.1258 109.79C32.501 108.283 31.9795 105.275 31.185 98.9672C29.9443 89.1172 30.6255 82.1607 31.3744 79.7418C33.8948 72.9297 35.53 69.9616 36.9936 67.7356C37.6903 66.6948 38.2935 65.8342 39.4086 64.5" stroke="black" stroke-width="3" stroke-linecap="round"/>
<path d="M153.5 92.5C153.5 96.6797 153.347 105.414 152.683 108.386C151.771 112.472 148.694 117.764 146.152 122.261C145.659 123.142 145.301 123.817 144.757 124.6C144.213 125.384 143.494 126.256 142.5 127.5" stroke="black" stroke-width="3" stroke-linecap="round"/>
<path d="M67.5 147.5C66.7215 147.649 64.1564 148.84 60.4302 152.341C56.7635 155.786 53.7497 160.07 51.0335 163.439C48.2371 166.906 44.3668 172.143 40.3945 177.634C38.3963 180.396 36.591 183.315 33.3749 188.328C29.3211 194.647 26.3492 199.17 24.9991 201.647C21.7261 209.49 20.0075 216.164 19.0832 219.602C18.8596 220.365 18.705 220.943 18.5 222.5" stroke="black" stroke-width="3" stroke-linecap="round"/>
<path d="M18.1583 220.5C18.1307 221.499 16.8703 227.205 12.7224 241.782C10.4558 249.747 11.8445 256.478 12.8739 257.277C15.357 259.205 18.0777 259.394 24.8072 259.499C29.0318 259.565 35.8969 257.049 40.7937 255.625C43.5406 254.826 46.3937 253.111 50.2553 251.05C55.9659 248.003 59.0407 247.134 63.1039 245.365C67.3929 243.501 71.6089 242.052 73.0438 241.785C73.8155 241.674 74.6755 241.614 75.5 241.192" stroke="black" stroke-width="3" stroke-linecap="round"/>
<path d="M75.5 241.333C76.6879 241.913 80.3543 243.895 85.3209 246.39C89.0101 248.244 91.851 249.218 93.0964 249.446C95.4062 249.869 98.2813 247.724 100.453 245.903C102.573 244.125 104.081 240.347 105.229 235.923C105.878 233.424 105.239 231.447 104.587 230.339C102.965 227.58 98.5134 226.791 94.9182 225.765C93.6774 225.411 93.8786 224.675 94.2725 224.176C96.4736 221.389 100.646 219.954 103.82 217.07C104.534 216.421 104.726 215.805 104.862 215.077C104.998 214.35 104.998 213.455 104.692 212.905C101.676 211.993 96.4059 212.785 93.5214 213.666C92.8979 213.851 92.2071 214.074 90.3896 214.64" stroke="black" stroke-width="3" stroke-linecap="round"/>
<path d="M90.5 214.5C87.1482 214.524 77.7064 215.269 74.2995 216.216C69.7125 217.492 64.5587 219.133 61.7059 220.203C56.4736 222.165 54.4675 223.848 50.1473 226.343C48.7006 227.258 47.7191 227.955 46.5055 228.75C45.769 229.198 44.7878 229.735 43.5 230.5" stroke="black" stroke-width="3" stroke-linecap="round"/>
<path d="M75.5 172.5C74.8405 172.654 72.6968 173.703 65.5228 182.36C61.8917 186.742 57.2049 194.293 53.7975 199.765C46.0744 214.574 44.1197 220.155 43.8177 221.446C43.6849 222.111 43.5938 222.795 43.5 223.5" stroke="black" stroke-width="3" stroke-linecap="round"/>
<path d="M119.315 188.5C118.688 188.5 116.443 187.971 114.427 186.76C111.14 184.786 108.712 181.357 107.572 179.415C106.33 177.299 105.568 173.384 104.82 168.646C103.533 160.489 106.368 156.308 109.041 151.841C111.222 148.196 116.593 141.876 119.023 139.75C121.201 137.845 125.19 136.887 127.675 136.22C129.506 135.728 131.324 135.606 138.92 135.501C142.167 135.456 147.178 137.425 153.237 140.533C155.633 141.763 157.153 143.43 160.541 146.885C162.587 148.972 163.788 152.876 164.5 157.155C164.469 163.045 164.191 164.495 163.941 165.547C163.828 166.044 163.746 166.467 163.506 167.189" stroke="black" stroke-width="3" stroke-linecap="round"/>
<path d="M163.5 167.5C163.5 168.348 162.738 171.24 160.358 174.905C158.9 177.15 156.357 179.944 153.918 182.198C149.724 186.075 146.747 187.965 143.158 189.956C140.389 191.493 137.202 191.934 134.615 192.336C132.04 192.519 124.955 192.67 120.325 192.087C119.716 191.896 119.262 191.737 118.5 191.407" stroke="black" stroke-width="3" stroke-linecap="round"/>
<path d="M103.349 189.888C102.639 189.429 100.498 187.796 99.0351 186.386C97.4755 184.882 96.2513 183.321 95.0433 181.21C93.0255 177.684 92.627 175.448 92.0534 172.978C90.8651 167.86 91.7364 160.289 93.2846 155.096C94.9289 149.581 100.044 141.959 103.436 138.015C105.561 135.543 107.028 134.218 108.56 132.868C110.053 131.553 111.998 131.018 113.731 130.375C115.711 129.64 117.507 129.348 119.473 128.947C120.674 128.702 126.833 128.6 135.352 128.502C140.416 128.444 144.824 129.475 150.029 131.149C153.383 132.229 156.356 133.931 160.416 136.572C162.287 137.789 163.825 139.214 165.635 140.891C167.841 142.936 168.803 144.609 170.15 147.207C172.162 151.09 172.044 155.841 172.347 159.667C172.823 165.664 172.149 171.873 170.88 176.445C168.611 184.624 166.214 187.12 161.865 191.95C157.198 197.134 150.42 198.628 145.647 200.461C142.412 201.704 139.436 201.391 135.905 201.5C127.172 201.499 125.031 201.151 123.74 200.922C122.971 200.833 121.974 200.796 120.688 200.529" stroke="black" stroke-width="3" stroke-linecap="round"/>
<path d="M120.5 200.5C120.5 201.202 120.239 203.335 119.393 205.451C117.738 209.592 115.368 214.435 113.709 217.675C111.769 222.279 110.834 225.214 110.201 227.474C110.084 227.898 109.938 228.335 109.5 229.5" stroke="black" stroke-width="3" stroke-linecap="round"/>
<path d="M106.5 191.5C106.5 191.562 106.5 192.94 105.656 196.953C104.812 199.62 103.124 203.565 102.138 205.82C101.152 208.076 100.92 208.523 100.5 209.5" stroke="black" stroke-width="3" stroke-linecap="round"/>
<path d="M84.5 246.5C84.2427 247.121 82.8706 249.202 76.5429 259.967C71.3889 268.734 70.5984 274.013 70.5039 274.797C70.4589 275.17 70.8146 275.489 71.1658 275.737C74.4325 277.035 79.5356 278.726 81.4159 279.046C81.9469 279.128 82.5749 279.237 83.8656 279.5" stroke="black" stroke-width="3" stroke-linecap="round"/>
<path d="M95.5 257.5C95.4861 258.804 92.4371 267.953 89.2511 274.131C88.4646 275.362 87.8086 276.378 87.2124 277.369C86.9384 277.817 86.7225 278.153 86.5 278.5" stroke="black" stroke-width="3" stroke-linecap="round"/>
<path d="M109.5 34.5C109.5 36.4805 110.143 43.0834 111.737 47.3175C112.554 49.4861 114.327 53.274 116.664 57.7372C119 62.2005 121.953 67.1818 124.17 70.4463C127.478 75.3173 132.306 78.7578 137.792 82.4999C140.181 84.0302 141.768 84.8121 143.097 85.3604C144.426 85.9088 145.447 86.2 146.5 86.5" stroke="black" stroke-width="3" stroke-linecap="round"/>
<path d="M127.5 38.5C127.5 41.1797 127.582 47.0355 129.08 51.9357C130.402 56.2559 133.246 64.1676 135.104 69.1425C137.849 75.8822 139.292 78.5064 140.291 79.885C140.76 80.4576 141.15 80.7724 142.5 81.5" stroke="black" stroke-width="3" stroke-linecap="round"/>
<path d="M130.5 38.5C130.745 39.6615 133.35 46.4463 137.162 55.3893C138.949 59.5813 140.102 63.2004 140.924 66.3544C141.746 69.5084 142.116 72.121 142.308 75.2303C142.499 78.3396 142.499 81.8663 142.5 85.5" stroke="black" stroke-width="3" stroke-linecap="round"/>
<path d="M124.5 22.5C125.043 22.5564 129.396 24.2653 134.331 27.3025C135.646 28.1116 139.964 32.306 146.773 39.0118C149.709 41.9038 151.174 44.1772 152.95 47.0077C154.727 49.8382 156.663 53.2639 158.3 57.0624C159.936 60.8608 161.215 64.928 162.561 72.5198C163.907 80.1115 165.283 91.1045 165.962 98.9814C166.642 106.858 166.585 111.286 166.295 114.83C166.005 118.373 165.485 120.898 164.948 123.5" stroke="black" stroke-width="3" stroke-linecap="round"/>
<path d="M153.5 99.5C153.5 99.5622 153.5 107.095 153.384 118.824C153.268 123.052 153.036 123.779 152.737 124.493C152.438 125.207 152.079 125.885 151.5 127.5" stroke="black" stroke-width="3" stroke-linecap="round"/>
<path d="M137.5 40.5C137.5 40.5941 137.664 41.1038 140.494 48.1638C143.143 54.7698 148.327 67.4848 151.378 75.6747C154.429 83.8646 155.208 87.1365 155.854 90.8152C156.5 94.4939 156.989 98.4802 157.5 103.5" stroke="black" stroke-width="3" stroke-linecap="round"/>
<path d="M109.5 22.9647C109.347 22.3218 108.627 20.5276 105.385 16.3887C100.367 9.98412 93.8638 5.95153 90.3151 4.19235C86.8146 2.45709 80.5657 4.30021 74.8454 6.24303C71.3168 7.44144 69.0725 8.9217 65.1989 11.5779C61.6641 14.0017 54.9434 18.6096 48.5339 23.6692C42.1244 28.7288 36.2296 34.1005 31.3168 39.4247C26.404 44.749 22.6518 49.8631 19.5113 55.1435C16.3708 60.4239 13.9558 65.7157 11.1612 75.1844C8.3666 84.6532 5.26562 98.1387 3.57399 106.813C1.88235 115.487 1.69403 118.941 1.5 122.5" stroke="black" stroke-width="3" stroke-linecap="round"/>
<path d="M99.4984 20.5C99.5141 20.5 99.5299 20.5 93.6471 20.5139C87.7643 20.5278 75.9825 20.5557 69.588 20.6307C62.541 20.7134 59.9997 21.694 55.547 23.914C52.8865 25.2405 49.7402 27.5842 46.2816 30.449C42.8231 33.3139 39.2314 36.7852 36.5124 39.6938C33.7934 42.6025 32.0559 44.8433 30.2383 47.6629C28.4206 50.4826 26.5753 53.8131 24.6855 58.9123C22.7956 64.0116 20.9172 70.7788 19.54 78.8435C18.1629 86.9082 17.3438 96.0653 16.5 105.5" stroke="black" stroke-width="3" stroke-linecap="round"/>
<path d="M86.5 32.5C86.2323 32.5 82.859 32.5928 76.9092 33.0856C71.9902 33.493 67.1172 36.3651 60.6714 40.3562C56.9081 42.6864 52.7109 46.4881 49.2114 49.8941C45.7119 53.3001 43.1819 56.4132 40.1858 61.1213C37.1897 65.8295 33.8043 72.0385 30.2549 80.2377C26.7055 88.437 23.0948 98.4384 21.1029 104.304C19.1111 110.169 18.8475 111.595 18.6993 112.566C18.551 113.538 18.5259 114.012 18.5 114.5" stroke="black" stroke-width="3" stroke-linecap="round"/>
<path d="M50.5 74.6245C50.481 74.0936 50.0848 71.9837 48.8054 69.8956C48.3027 69.075 47.1488 68.8522 45.8024 68.6057C44.0946 68.2931 42.7262 68.7117 42.0503 69.364C39.9949 71.3477 38.943 76.6199 37.931 85.9024C36.9788 94.6365 37.8467 100.514 38.2259 101.913C38.7305 103.773 39.468 105.159 40.1112 105.901C41.5675 107.58 43.1643 107.536 43.9973 107.482C46.3295 105.752 48.8753 102.814 49.3446 101.775C49.5956 101.117 49.8726 100.193 50.1579 99.2412" stroke="black" stroke-width="3" stroke-linecap="round"/>
<path d="M88.5 43.5C88.5 43.5302 88.0949 44.1653 84.2385 49.0242C80.8395 53.3067 74.3016 61.104 69.1777 68.1094C64.0537 75.1149 60.4878 81.0477 57.5354 86.5701C54.583 92.0924 52.3522 97.0244 50.1878 103.591C48.0233 110.158 45.9927 118.211 44.7156 126.318C43.4384 134.425 42.9762 142.343 42.5 150.5" stroke="black" stroke-width="3" stroke-linecap="round"/>
<path d="M79.5 44.5C79.4067 44.5302 78.9598 44.8512 74.654 49.8774C70.6676 54.5308 63.3436 63.7254 58.6643 70.0193C52.2543 79.4973 50.2984 83.2239 49.9717 84.1857C49.8177 84.7013 49.6875 85.273 49.5 86.5" stroke="black" stroke-width="3" stroke-linecap="round"/>
<path d="M73.5 41.5C72.8806 41.7809 69.4388 45.4653 64.469 51.897C62.072 55.2146 59.9288 58.6416 58.4583 61.286C56.9879 63.9305 56.255 65.6886 55.5 67.5" stroke="black" stroke-width="3" stroke-linecap="round"/>
<path d="M39.5 84.5C39.5 84.5637 39.5 84.6274 37.8932 88.6872C36.2863 92.7471 33.0726 100.801 31.1841 105.915C29.2956 111.028 28.8297 112.957 28.4495 116.682C28.0693 120.408 27.7889 125.871 27.5 131.5" stroke="black" stroke-width="3" stroke-linecap="round"/>
<path d="M17.566 67.5C17.5289 67.5 17.4918 67.5 17.5016 74.5405C17.5114 81.5809 17.5692 95.6618 18.9037 108.671C20.2383 121.68 22.8478 133.191 24.9185 140.57C30.4373 154.478 32.0078 156.354 33.078 157.37C33.5899 157.825 34.0381 158.158 34.5 158.5" stroke="black" stroke-width="3" stroke-linecap="round"/>
<path d="M174.5 172.5C176.328 172.5 181.04 172.684 183.792 173.576C184.802 173.904 186.079 174.56 189.71 175.664C193.341 176.767 199.263 178.37 204.76 180.103C215.229 183.405 220.963 185.948 222.507 186.945C224.183 188.026 225.033 189.362 225.35 190.222C226.269 192.712 222.782 198.277 219.763 203.736C216.345 210.416 215.128 212.847 214.216 214.639C214.016 215.062 213.858 215.445 213.129 216.5" stroke="black" stroke-width="3" stroke-linecap="round"/>
<path d="M160.5 197.5C160.036 198.028 158.615 199.697 154.944 206.067C151.755 211.6 146.237 222.021 142.983 228.349C139.73 234.678 139.002 236.653 138.182 239.729C136.279 246.873 135.407 252.165 135.116 253.954C134.846 255.298 134.324 257.555 133.729 260.36C133.522 261.48 133.511 261.982 133.5 262.5" stroke="black" stroke-width="3" stroke-linecap="round"/>
<path d="M133.5 262.5C135.784 262.524 144.38 263.499 152.233 265.238C156.032 266.079 159.475 266.722 163.6 267.88C172.518 270.383 178.027 272.65 180.05 273.53C181.325 274.092 183.107 274.888 184.207 275.422C185.306 275.956 185.67 276.205 185.429 276.5" stroke="black" stroke-width="3" stroke-linecap="round"/>
<path d="M198.5 246.5C198.457 247.076 197.231 251.397 195.508 255.447C192.221 263.176 190.692 265.291 188.922 268.507C188.317 269.711 187.8 270.763 186.998 272.163C186.496 272.985 185.801 274.033 184.5 275.5" stroke="black" stroke-width="3" stroke-linecap="round"/>
<path d="M196.918 244.5C196.502 244.242 195.18 243.162 192.867 240.275C185.721 231.358 185.376 226.811 185.523 226.02C185.595 225.636 185.973 225.378 186.35 225.172C188.497 223.997 191.92 224.992 193.718 225.496C197.527 226.565 201.73 227.431 203.227 226.996C206.361 226.086 204.898 220.737 206.062 218.929C206.907 218.552 208.651 218.414 210.892 218.553C211.886 218.692 212.589 218.972 213.5 219.26" stroke="black" stroke-width="3" stroke-linecap="round"/>
<path d="M216.5 223.5C216.478 226.788 216.005 235.999 214.428 241.617C212.768 247.532 210.383 251.595 209.303 253.173C205.284 257.179 201.503 259.36 198.877 260.174C197.497 260.458 196.021 260.479 194.5 260.5" stroke="black" stroke-width="3" stroke-linecap="round"/>
<path d="M131.5 208.5C131.519 210.237 131.888 215.008 134.308 220.982C135.614 223.643 137.737 227.611 139.091 229.953C140.445 232.294 140.965 232.888 141.5 233.5" stroke="black" stroke-width="3" stroke-linecap="round"/>
<path d="M128.945 93.5C128.928 93.5 128.189 93.5 126.981 93.3969C126.247 93.3343 125.961 92.6379 125.734 92.1374C125.185 90.9252 125.708 89.3075 126.22 88.3808C126.459 87.9488 126.931 87.7202 127.624 87.5754C128.663 87.3585 129.571 87.639 130.132 88.04C131.647 89.1223 131.524 90.6841 131.476 91.4127C131.441 91.9482 130.943 92.2048 130.48 92.4471C129.863 92.7701 129.082 92.8692 128.386 92.7837C128.069 92.7447 127.86 92.5115 127.711 92.3171C127.436 91.9604 127.39 91.325 127.466 90.6881C127.572 89.8008 128.844 90.1576 129.313 90.2386C129.537 90.2772 129.69 90.4816 129.793 90.6959C129.895 90.9101 129.933 91.1717 129.908 91.4312C129.883 91.6907 129.795 91.9401 129.649 92.1085C129.503 92.2769 129.301 92.3568 129.077 92.3694C128.854 92.382 128.615 92.3248 128.465 92.1747C128.158 91.8688 128.201 91.2461 128.283 90.7478C128.367 90.538 128.537 90.4156 128.877 90.3465C129.217 90.2774 129.723 90.2652 130.472 90.7856" stroke="black" stroke-width="3" stroke-linecap="round"/>
<path d="M78.5 86.5C78.759 86.5664 79.6416 86.8764 80.6056 87.209C81.7081 87.5895 82.9475 87.7817 84.0031 87.9309C85.0274 88.0757 85.9495 88.1119 88.1037 88.3306C89.9321 88.5163 91.1397 88.521 94.5363 89.2222C95.53 89.3831 96.0108 89.4243 96.5156 89.4641C96.8009 89.4807 97.1452 89.4902 97.5 89.5" stroke="black" stroke-width="3" stroke-linecap="round"/>
<path d="M106.5 81.8117C106.403 82.0525 105.847 82.8106 104.604 83.8749C104.138 84.274 103.686 84.4371 103.204 84.488C102.179 84.5964 101.308 83.9524 100.252 83.1831C98.6789 82.0361 98.0276 81.0304 96.1715 78.9543C94.6827 77.289 92.5282 71.8523 91.5352 69.4608C91.0104 68.1968 90.3911 66.6884 89.8987 65.2613C89.7551 64.5649 89.6685 63.9612 89.6218 63.5141C89.5984 63.2917 89.5756 63.0784 89.5 62.5" stroke="black" stroke-width="3" stroke-linecap="round"/>
<path d="M98.5 121.92C98.5615 121.666 99.0302 120.661 100.916 118.144C102.031 116.657 103.568 115.478 104.38 115.026C105.187 114.577 107.383 114.378 109.224 114.577C110.481 114.712 111.783 115.855 116.036 120.026C117.167 121.267 118.02 122.37 118.524 123.04C119.027 123.711 119.156 123.916 119.5 124.5" stroke="black" stroke-width="3" stroke-linecap="round"/>
<path d="M200.203 121.73C197.628 121.829 191.836 121.325 190.874 120.182C190.008 119.155 189.843 117.536 189.57 115.82C189.284 114.014 189.897 112.466 190.98 111.265C192.352 109.744 194.035 109.001 195.517 108.653C197.562 108.173 199.383 108.893 200.403 109.809C201.492 110.785 201.978 112.401 202.412 114.183C202.638 116.456 202.442 118.473 201.653 120.261C201.121 121.323 200.321 122.702 199.232 124.5" stroke="black" stroke-width="3" stroke-linecap="round"/>
<path d="M229.99 104.389C229.939 104.496 227.963 104.604 224.912 104.309C223.265 104.15 223.413 99.3784 223.632 94.367C223.754 91.5571 225.447 90.3158 226.753 89.3773C227.831 88.6029 230.075 88.4317 232.805 88.5218C234.612 88.5813 235.502 90.1883 236.161 91.4479C236.814 94.2819 236.463 96.5814 235.62 98.2527C235.138 99.0771 234.547 99.8531 233.102 101.6" stroke="black" stroke-width="3" stroke-linecap="round"/>
<path d="M268.212 86.3276C265.027 86.4248 257.933 86.1461 256.679 85.0115C253.252 81.912 254.508 75.0637 256.112 70.2063C256.638 68.6145 259.109 68.2621 261.829 67.7504C265.538 67.0527 268.595 67.9213 270.022 69.0232C273.121 71.4149 273.382 77.7719 273.5 81.8038C273.015 83.2574 272.197 84.6067 271.239 85.8299C270.766 86.3984 270.322 86.8608 269.774 87.5" stroke="black" stroke-width="3" stroke-linecap="round"/>
<path d="M365.613 85.4648C361.358 85.4648 351.092 85.2567 347.916 84.2812C344.603 83.264 343.001 78.7616 341.883 73.7686C340.463 67.4273 341.773 62.1574 343.007 60.5018C344.17 58.9418 346.579 59.1027 348.334 59.2053C349.139 59.2524 349.739 59.5805 350.171 60.1421C351.128 61.3882 351.002 63.5561 350.58 65.4281C350.396 66.2449 349.643 66.5835 348.977 66.3554C343.467 64.4697 347.003 52.2583 349.229 48.4028C351.471 44.5206 356.412 43.7137 363.493 43.2013C365.976 43.0216 367.516 43.8872 368.837 44.9801C372.761 48.2252 374.034 54.8645 374.856 61.3706C375.716 68.1778 371.715 74.2468 368.236 78.4336C364.798 82.5713 359.809 83.5763 356.829 84.2555C355.581 84.5399 354.013 83.8664 352.591 82.7682C351.453 81.89 351.769 79.8167 351.912 77.654C352.359 70.9382 361.835 63.6528 367.778 60.0061C372.879 56.8756 382.734 56.5676 388.412 56.9197C392.081 57.1473 391.613 62.0953 392.172 63.1423C394.114 66.7777 398.256 58.5403 401.234 57.1687C402.47 56.599 404.122 56.5661 405.734 56.899C406.48 57.0531 406.716 58.1154 406.51 58.9368C405.443 63.1778 398.246 65.1432 391.262 66.7399C383.537 68.5058 377.338 66.6637 375.366 65.5535C371.343 63.2887 369.51 58.6524 368.272 54.4637C367.713 52.5722 368.004 50.8318 368.301 49.5069C368.581 48.2543 369.945 47.5126 371.257 46.9331C372.535 46.3685 374.382 46.3675 376.335 46.4099C377.206 46.4288 377.819 46.6842 378.389 47.4102C379.78 49.1809 379.98 53.0924 379.851 57.2155C379.689 62.3562 374.762 66.1878 371.51 68.2884C369.935 69.3059 368.018 69.424 366.308 69.5376C364.567 69.6532 363.05 68.7165 361.862 67.5124C358.673 64.2809 359.159 58.3231 359.642 54.2326C359.902 52.0233 361.816 50.2353 363.583 48.6965C366.958 45.7576 373.328 46.1548 377.096 46.9785C379.388 47.4793 379.606 51.9786 379.881 55.6353C380.366 62.0847 374.4 69.7625 368.615 75.1617C361.697 81.6182 350.073 81.098 344.084 80.4858C343.245 80.4 342.659 79.5739 342.247 78.824C341.379 77.2457 341.725 75.4949 342.262 74.2815C343.592 71.2772 353.081 71.6435 359.887 72.3591C364.671 72.8621 367.268 77.7142 368.891 82.2168C370.322 86.1844 369.382 90.1948 368.977 92.4757C368.262 96.5 363.032 99.0428 358.188 100.825C354.713 102.104 350.925 101.286 348.492 100.649C346.878 100.226 346.173 98.641 345.424 97.2621C344.666 95.8652 344.571 93.3299 344.605 90.5014C344.627 88.6098 345.971 87.431 347.338 86.4542C351.947 83.1625 360.898 85.3856 363.463 86.9916C364.781 87.8166 365.507 89.4881 366.267 90.8883C366.912 92.076 366.8 93.8857 366.363 95.8223C365.962 97.6052 362.913 97.9212 360.115 98.0562C357.668 98.1742 355.35 97.2226 352.998 95.6247C347.499 91.8895 345.647 85.3091 343.577 77.2774C342.408 72.7394 342.669 68.5975 343.164 65.4807C343.629 62.5494 346.283 60.4231 349.113 58.6188C352.13 56.6959 359.031 56.3039 367.659 56.0166C374.003 55.8054 379.021 56.9724 383.884 58.8449C394.777 63.0386 400.646 73.1414 403.295 78.1204C404.328 80.062 403.773 81.8912 403.59 82.7602C403.052 85.3065 409.923 83.7148 412.365 84.9433C412.813 85.1687 412.118 86.0405 410.665 86.6995C406.887 88.4131 397.074 89.1357 384.969 89.693C377.32 90.0451 372.694 89.1696 368.145 87.7865C361.834 85.868 357.421 82.8266 355.32 80.9452C353.183 79.0317 352.149 75.5127 351.769 71.7412C351.459 68.6717 353.628 66.6085 355.236 65.1893C358.625 62.1981 364.189 61.4143 375.261 61.2504C382.517 61.143 387.034 67.4529 391.795 73.7004C393.84 76.3832 394.258 79.3631 394.06 81.546C393.976 82.4793 392.709 82.7404 391.804 82.8382C388.025 83.2466 383.691 79.0631 377.758 72.1149C373.679 67.3388 374.106 59.623 375.49 54.9587C376.647 51.0565 382.564 51.1038 389.767 51.1136C391.279 51.1157 391.717 52.3659 391.83 53.131C391.944 53.8961 391.668 54.5405 391.147 55.1231C390.032 56.3716 388.395 56.8365 387.064 56.8632C386.423 56.8761 385.877 56.4887 386.013 56.0072C386.923 52.7902 391.383 53.0837 395.609 53.2179C400.559 53.3751 382.303 54.9044 376.277 53.1081C369.329 51.0371 365.083 42.1952 363.894 37.4777C363.662 36.5585 362.726 36.3997 361.204 36.5492C352.536 37.4003 342.879 43.5386 337.118 47.504C333.359 50.0912 332.011 53.6796 331.031 56.6282C329.693 60.658 330.9 66.4918 334.454 76.083C335.95 80.1211 337.637 82.0087 338.676 82.8347C339.186 83.2393 339.869 83.3078 340.658 83.1388C342.373 82.4827 347.914 78.5913 355.889 72.9955C359.278 70.7893 361.33 69.8692 365.106 69.3739" stroke="black" stroke-width="3" stroke-linecap="round"/>
<path d="M293.162 58.5C292.175 58.5 289.136 57.9881 287.17 56.171C284.459 53.666 284.398 44.5242 284.545 40.0068C284.63 37.3957 287.513 35.0947 289.176 33.7337C290.882 32.3384 293.992 31.7392 300.64 31.5C301.983 31.6158 302.447 31.9177 302.868 32.3476C303.29 32.7774 303.655 33.326 304.5 34.0098" stroke="black" stroke-width="3" stroke-linecap="round"/>
<path d="M304.5 34.5C304.537 30.5499 305.457 20.3766 306.81 17.8235C308.275 15.0596 312.495 13.0987 316.648 12.4047C321.627 11.5726 324.385 12.9996 328.712 15.187C332.993 17.3517 335.037 21.173 336.148 22.3132C338.642 24.8737 338.486 13.431 340.529 9.23905C342.234 5.73952 345.437 4.12634 347.774 2.73768C350.059 1.38002 360.069 1.39234 365.735 1.60763C368.51 1.71308 371.208 4.43573 374.699 8.69758C375.762 9.99576 376.403 11.7236 377.134 12.4298C379.676 14.8861 388.133 7.46034 393.12 5.56945C400.208 2.88193 407.712 4.5441 410.824 5.87804C412.283 6.50334 413.25 8.0351 414.177 9.57968C414.806 11.3005 415.215 13.7991 415.467 17.0738C415.552 18.7761 415.552 20.5605 414.452 22.4886" stroke="black" stroke-width="3" stroke-linecap="round"/>
<path d="M414.5 22.5C418.515 22.5 429.117 22.9716 433.872 25.4101C438.69 27.8812 439.253 31.1461 441.172 36.4505C442.659 40.5623 442.098 44.5282 441.941 46.8409C441.701 50.3673 437.033 53.4406 435.363 55.142C432.874 57.6775 442.796 59.5538 445.66 62.7947C448.078 65.5311 448.34 70.7982 448.498 78.8339C448.564 82.1561 446.578 85.0906 444.705 86.9928C444.184 87.3761 443.628 87.6905 443.095 87.9319C442.562 88.1734 442.069 88.3325 441.127 88.5" stroke="black" stroke-width="3" stroke-linecap="round"/>
<path d="M441.025 88.8616C441.524 89.3455 443.306 91.8574 444.182 94.2489C444.703 95.6723 444.501 98.4785 444.168 101.72C443.721 106.07 437.781 107.383 429.12 109.379C421.75 111.077 416.641 109.77 416.24 110.116C412.054 113.726 419.518 122.609 418.454 126.645C417.699 129.509 410.124 131.632 405.852 133.036C403.361 133.855 399.973 133.879 397.045 133.777C394.1 133.675 390.506 128.903 388.063 126.567C387.108 125.654 388.158 129.807 387.375 131.492C386.343 133.716 383.096 134.67 379.734 136.074C375.042 138.033 367.106 138.86 359.133 139.441C353.017 139.886 347.868 137.766 343.283 135.253C341.181 134.102 339.982 132.644 338.572 132.497C332.66 131.882 327.444 136.304 321.325 136.541C317.876 136.675 314.706 134.083 307.221 127.384C301.128 121.93 300.85 117.992 300.391 115.575C300.258 114.873 300.319 113.969 299.801 113.577C298.559 112.639 296.409 113.471 294.806 113.262C291.678 112.855 290.487 109.587 288.261 104.742C286.247 100.36 286.363 89.7771 287.876 83.3458C288.08 82.4829 288.768 82.2088 288.768 81.8777C288.767 80.0498 286.08 78.7225 285.085 74.5118C283.841 69.2509 284.887 64.7633 285.421 63.0246C287.06 60.3487 288.941 58.5501 290.994 57.622C291.596 57.5038 292.275 57.5019 292.974 57.5" stroke="black" stroke-width="3" stroke-linecap="round"/>
</svg>
