<svg width="488" height="253" viewBox="0 0 488 253" fill="none" xmlns="http://www.w3.org/2000/svg">
<path d="M326.419 115.223C324.498 115.223 319.108 114.951 316.35 114.217C312.602 113.219 309.561 110.932 305.723 108.617C300.841 105.672 296.072 101.152 292.2 97.5616C287.609 93.3051 284.191 86.3818 281.288 79.8015C279.621 76.0226 279.507 63.4833 279.706 55.7218C279.879 48.9583 285.331 42.0868 287.244 38.9822C289.774 34.8754 292.31 32.3937 294.272 29.9635C296.663 27.001 298.555 24.145 300.111 22.1552C301.736 20.0763 304.08 18.5747 306.296 16.7878C307.427 15.8031 308.448 14.9094 309.316 14.0547C309.734 13.5814 310.109 13.0275 310.495 12.4569" stroke="black" stroke-width="3" stroke-linecap="round"/>
<path d="M310.638 12.4569C311.322 12.4569 314.067 11.6023 317.117 10.0006C320.005 8.48454 324.244 5.56674 327.31 4.11121C331.465 2.13843 341.665 1.72872 347.034 2.21755C351.811 2.65246 355.42 3.96682 359.229 5.30058C365.567 7.51943 372.607 12.4356 378.924 16.6379C385.331 20.9007 389.461 24.563 392.24 27.4494C394.813 30.1216 397.285 34.0697 400.997 41.0922C402.749 44.4049 402.805 47.1085 403.037 51.9363C403.566 62.9292 403.141 71.7724 402.442 75.2799C400.685 84.1033 397.088 91.8104 394.567 97.6035C391.489 104.677 388.527 107.346 385.978 109.597C381.512 112.377 377.818 114.38 376.54 115.015C375.821 115.396 374.962 115.897 372.47 116.507" stroke="black" stroke-width="3" stroke-linecap="round"/>
<path d="M378.149 56.1415C378.102 56.1415 378.129 55.5078 378.438 54.323C378.75 53.1298 380.316 52.3463 381.649 51.4696C382.802 50.7113 384.848 50.7092 387.109 50.8591C388.673 50.9628 389.824 52.2894 391.065 53.7927C393.784 57.0892 394.11 65.7369 393.612 70.9216C393.463 72.4737 392.233 73.5482 391.399 74.393C389.677 76.1382 386.577 76.2383 382.498 76.2192C381.608 76.0885 381.076 75.8248 380.6 75.4527C380.125 75.0806 379.722 74.6081 378.932 72.5526" stroke="black" stroke-width="3" stroke-linecap="round"/>
<path d="M384.974 77.7679C384.974 80.3623 384.73 88.978 384.321 92.7249C383.998 95.6883 381.573 97.3864 379.939 99.2039C378.257 101.074 378.439 103.794 378.681 105.262C378.88 106.473 380.672 106.596 381.956 106.677C382.603 106.718 383.244 106.648 383.804 106.4C384.935 105.902 385.492 104.694 385.836 103.551C386.197 102.349 386.211 99.7706 386.006 96.6843C385.926 95.4849 385.372 95.0938 384.757 94.8816C382.067 93.9531 379.67 96.1081 377.031 97.7515C376.389 98.1516 375.934 98.5795 375.828 99.0441C375.722 99.5087 375.997 100.025 376.719 100.292C377.44 100.56 378.599 100.563 379.402 100.35C380.205 100.137 380.617 99.7083 381.126 99.109" stroke="black" stroke-width="3" stroke-linecap="round"/>
<path d="M283.769 86.0181C283.769 86.0618 283.769 90.6146 283.432 97.5664C283.298 100.349 281.211 100.613 280.331 101.327C279.404 102.079 279.583 104.546 279.796 107.106C279.883 108.156 280.433 108.623 281.044 108.946C281.654 109.269 282.437 109.414 283.077 109.294C283.716 109.175 284.189 108.788 284.484 108.271C286.276 105.126 284.832 100.521 284.757 99.9842C284.432 97.6727 288.934 104.957 291.399 106.186C291.785 106.379 292.024 105.412 291.875 104.754C290.1 102.266 288.44 101.125 287.174 100.714C286.454 100.557 285.577 100.505 284.673 100.452" stroke="black" stroke-width="3" stroke-linecap="round"/>
<path d="M372.369 118.395C372.863 118.62 375.071 119.69 377.133 121.017C379.268 122.392 381.363 123.947 384.136 125.948C387.384 128.293 390.409 132.033 392.671 134.932C394.492 137.267 396.989 140.771 398.953 143.506C402.979 149.111 407.27 157.53 408.609 160.25C410.638 164.214 412.253 167.931 413.433 170.333C413.709 170.921 413.929 171.497 414.633 173.581" stroke="black" stroke-width="3" stroke-linecap="round"/>
<path d="M421.342 175.029C421.342 173 421.746 167.914 422.923 164.876C425.267 158.828 426.704 155.407 429.939 148.384C433.192 141.321 435.095 138.796 437.373 135.5C440.431 131.285 442.392 129.473 446.201 125.911C447.07 125.054 447.552 124.519 448.049 123.969" stroke="black" stroke-width="3" stroke-linecap="round"/>
<path d="M448.193 123.823C448.193 121.401 448.41 115.095 448.695 112.445C449.137 108.339 450.005 102.672 450.308 99.8678C450.38 99.1996 450.527 98.5938 450.915 98.3081C451.303 98.0223 451.946 98.0773 452.492 98.3336C454.456 100.258 455.954 102.407 456.608 103.68C456.88 104.311 457.032 104.915 457.19 106.733" stroke="black" stroke-width="3" stroke-linecap="round"/>
<path d="M457.19 106.733C457.928 106.569 460.664 105.53 463.95 103.928C469.45 101.245 473.142 100.898 476.362 100.486C478.961 100.154 481.095 100.642 482.166 101.224C484.751 102.63 485.315 106.599 485.535 113.165C485.653 116.686 482.433 120.866 478.776 125.401C477.722 126.438 476.469 127.538 475.503 128.323C474.536 129.108 473.892 129.545 472.663 130.356" stroke="black" stroke-width="3" stroke-linecap="round"/>
<path d="M467.468 130.356H472.662" stroke="black" stroke-width="3" stroke-linecap="round"/>
<path d="M467.468 130.356C467.468 133.768 467.179 141.803 465.803 145.987C463.813 152.042 459.998 159.721 456.928 166.203C455.324 169.591 452.301 175.14 447.38 183.919C443.058 191.63 437.803 197.536 433.73 201.813C428.991 206.79 423.117 211.783 420.997 213.612C417.55 215.753 415.227 216.716 410.473 216.695C409.316 216.473 408.542 216.018 406.728 214.494" stroke="black" stroke-width="3" stroke-linecap="round"/>
<path d="M384.442 173.335C384.491 174.151 385.441 178.031 386.442 182.023C387.525 184.534 389.124 186.815 390.944 188.874C391.731 189.753 392.244 190.297 393.327 191.23" stroke="black" stroke-width="3" stroke-linecap="round"/>
<path d="M319.952 122.459C319.139 122.459 313.489 125.502 306.851 131.275C302.516 135.045 297.809 140.701 292.427 146.732C283.255 157.794 279.099 163.616 276.978 166.675C276.564 167.285 276.197 167.839 275.323 169.311" stroke="black" stroke-width="3" stroke-linecap="round"/>
<path d="M274.702 170.194C274.025 170.009 270.282 167.696 264.96 163.307C262.385 161.183 259.783 158.378 255.55 155.115C250.068 150.89 246.425 149.114 243.614 147.64C238.299 144.769 235.952 143.392 231.668 141.494C230.61 141.101 229.892 140.917 228.654 140.637" stroke="black" stroke-width="3" stroke-linecap="round"/>
<path d="M228.053 140.234C228.053 138.713 227.735 134.634 226.317 132.238C225.445 131.244 224.467 130.431 223.388 129.812C222.835 129.547 222.269 129.383 220.39 128.928" stroke="black" stroke-width="3" stroke-linecap="round"/>
<path d="M221.009 127.815C220.363 127.326 217.912 125.174 211.615 117.894C208.811 114.652 206.562 113.452 205.326 113.389C204.72 113.357 204.18 113.796 203.728 114.196C202.849 114.973 202.585 116.562 202.667 118.459C204.063 122.582 206.703 127.158 207.9 128.74C208.449 129.433 208.879 129.902 209.837 131.344" stroke="black" stroke-width="3" stroke-linecap="round"/>
<path d="M209.986 131.644C209.898 131.644 209.282 131.834 208.333 132.417C204.572 134.726 205.425 148.054 206.064 152.838C206.237 154.138 207.789 154.708 208.909 155.172C209.525 155.363 210.241 155.465 211.961 155.517C213.682 155.57 216.386 155.57 219.172 155.57" stroke="black" stroke-width="3" stroke-linecap="round"/>
<path d="M219.303 155.982C219.303 156.677 220.172 160.135 230.519 175.756C236.986 185.518 242.494 190.179 245.071 192.161C246.802 193.483 249.391 195.447 252.608 197.368C255.825 199.289 259.592 201.108 264.693 203.564" stroke="black" stroke-width="3" stroke-linecap="round"/>
<path d="M265.385 204.109C267.913 204.201 274.46 203.857 277.315 202.581C279.897 201.426 282.355 200.073 286.204 198.032C287.258 197.343 288.244 196.501 288.988 195.854C289.731 195.207 290.203 194.782 290.835 194.268" stroke="black" stroke-width="3" stroke-linecap="round"/>
<path d="M306.043 164.024C305.996 164.024 305.598 165.092 303.231 175.805C301.107 185.424 297.64 203.645 295.685 217.018C293.73 230.391 293.528 238.393 293.497 242.888C293.467 247.384 293.614 248.13 293.772 248.789C293.93 249.448 294.094 249.996 294.391 250.927" stroke="black" stroke-width="3" stroke-linecap="round"/>
<path d="M303.689 60.9275C303.689 60.9452 303.231 60.9631 302.444 60.8605C301.328 60.715 301.12 58.707 300.865 57.3791C300.743 56.7456 301.02 56.1772 301.407 55.7755C301.813 55.3533 302.373 55.1323 302.991 54.9849C303.77 54.7992 304.465 54.9842 304.888 55.2249C305.796 55.7424 305.953 57.0888 306.167 58.5769C306.296 59.4745 306.105 60.2457 305.854 60.7877C305.57 61.3995 304.935 61.7648 304.294 62.0579C303.532 62.4059 302.483 62.4688 301.518 62.4139C301.117 62.3911 300.919 62.1769 300.789 61.9674C300.53 61.548 300.555 60.7942 300.618 59.9542C300.672 59.2446 301.162 58.7669 301.623 58.4002C302.699 57.5425 303.942 57.7802 304.492 57.8566C304.992 57.9262 305.253 58.5627 305.447 59.2256C305.553 59.5893 305.532 60.0426 305.437 60.3257C305.343 60.6089 305.137 60.7169 304.766 60.7795C303.875 60.9301 303.082 60.7579 302.597 60.4639C302.038 60.1247 301.684 59.5262 301.4 59.0257C300.778 57.9292 301.227 56.4953 301.489 56.0749C301.744 55.6657 302.501 55.6662 303.22 55.7492C303.843 55.8211 304.138 56.4896 304.342 57.0506C304.557 57.641 304.599 58.3697 304.53 59.0796C304.473 59.6696 303.879 59.99 303.329 60.2471C302.69 60.5459 301.937 60.5821 301.334 60.4912C301.07 60.4514 300.943 60.2185 300.848 59.993C300.331 58.7619 300.8 57.3288 301.127 56.9949C301.454 56.6615 302.059 56.7516 302.36 56.8266C302.404 56.9021 302.227 57.0537 302.002 57.1535C301.777 57.2532 301.509 57.2965 300.963 57.4854" stroke="black" stroke-width="3" stroke-linecap="round"/>
<path d="M345.781 57.4094C345.097 57.4094 343.244 57.2458 342.32 56.6427C341.888 56.3599 341.761 55.7998 341.637 55.1019C341.437 53.9733 341.719 53.0659 342.115 52.7504C342.504 52.4399 343.307 52.5113 344.159 52.5907C344.84 52.6542 345.311 53.3004 345.718 53.8781C346.393 54.8369 346.337 56.7293 346.067 58.0467C345.88 58.9622 344.587 59.3117 343.287 59.5914C342.295 59.8051 341.454 59.5235 340.981 59.2333C340.387 58.8688 340.076 58.2636 339.898 57.6771C339.639 56.8255 339.998 55.9522 340.45 55.3528C340.94 54.7036 341.625 54.3976 342.397 54.2233C343.655 53.9393 344.734 54.271 345.188 54.5793C345.606 54.8639 345.754 55.504 345.909 56.2131C346.081 57.0074 345.875 57.7262 345.573 58.2195C345.254 58.7414 344.646 58.8976 344.017 58.9962C343.03 59.151 342.116 58.9332 341.573 58.6443C341.109 58.3968 340.714 57.8187 340.306 57.157C340.005 56.6684 339.924 56.0639 340.044 55.4112C340.165 54.76 341.179 54.5757 342.065 54.3655C343.161 54.1053 344.054 54.4087 344.469 54.7504C344.673 54.9184 344.786 55.1588 344.818 55.4108C344.85 55.6628 344.778 55.9403 344.609 56.1717C343.858 57.2024 342.431 57.2664 341.391 57.1462C340.921 57.0919 340.551 56.5585 340.156 56.1003C339.532 55.3759 340.085 53.6622 340.602 52.5043C341.408 51.993 342.234 51.9123 342.852 51.9527C343.133 51.9946 343.348 52.0798 343.826 52.4595" stroke="black" stroke-width="3" stroke-linecap="round"/>
<path d="M313.029 75.0743C313.117 75.3065 313.78 76.4191 314.867 78.0752C315.585 79.1704 316.976 79.5921 319.487 79.9005C325.433 80.6307 327.081 79.5815 328.659 79.2C330.43 78.7721 331.374 78.1018 332.848 77.0052C333.331 76.5228 333.837 75.7208 334.41 74.7231C334.645 74.3206 334.767 74.1291 335.082 73.5406" stroke="black" stroke-width="3" stroke-linecap="round"/>
<path d="M335.082 73.4292C335.082 74.489 334.88 77.6303 334.323 79.8202C333.768 82.0042 333.033 84.6149 332.605 85.93C332.234 87.0704 330.626 89.2536 328.858 91.2582C327.162 93.1811 325.516 93.2623 322.156 93.4023C320.582 93.4678 319.619 92.5961 318.708 92.0631C317.87 91.5726 316.573 90.3864 315.359 88.9412C313.902 87.2062 313.801 85.9631 313.459 84.8104C313.034 83.3798 312.989 82.4186 312.832 81.0722C312.738 79.8162 312.647 78.8407 312.571 78.0457C312.539 77.4696 312.517 76.5429 312.516 75.5648" stroke="black" stroke-width="3" stroke-linecap="round"/>
<path d="M338.115 39.0572C338.115 39.0241 338.157 38.7774 338.328 38.3369C339.382 37.5044 340.984 36.8204 344.374 36.303C345.56 36.2127 346.959 36.2033 348.401 36.1936" stroke="black" stroke-width="3" stroke-linecap="round"/>
<path d="M297.904 29.5134C296.713 29.5134 293.786 29.3192 293.094 28.7759C292.343 28.1864 292.453 26.3208 292.529 24.3487C292.641 21.4465 295.868 19.9391 298.329 18.9373C298.983 18.671 299.786 18.7563 300.345 18.9438C302.814 19.7709 302.483 25.6942 301.698 28.4068C301.409 29.4042 299.937 29.6116 298.818 29.8259C298.295 29.9258 297.835 29.772 297.536 29.4638C296.886 28.7946 296.997 26.8316 297.211 24.5714C297.491 21.622 299.732 20.5003 301.34 19.4505C302.872 18.4508 306.073 18.4549 308.548 19.3531C309.537 19.7123 309.708 21.0456 309.685 22.0014C309.674 22.4616 309.208 22.8032 308.72 23.0092C308.233 23.2153 307.621 23.2581 307.166 23.1293C306.711 23.0004 306.43 22.6987 306.239 22.2126C305.805 21.1125 305.898 19.5567 306.055 18.1047C306.269 16.1298 308.332 14.8726 310.179 13.7884C312.262 12.5663 315.818 12.9551 318.114 14.0551C319.149 14.5512 319.142 15.9781 319.164 17.003C319.175 17.5373 318.961 18.0936 318.681 18.4538C318.401 18.8141 318.004 18.9596 317.562 19.0517C317.12 19.1438 316.645 19.178 316.319 18.8936C315.554 18.227 315.808 16.278 316.293 14.2819C317.006 11.3514 319.513 10.9084 321.358 10.3737C322.735 9.97469 324.318 10.3431 325.602 10.9663C326.874 11.5833 327.215 12.935 327.504 13.8241C327.863 14.9265 327.825 16.2276 327.56 17.3927C327.295 18.5548 325.831 18.9547 324.695 19.1598C323.66 19.3464 322.58 19.0016 321.581 18.3521C318.863 16.5852 320.357 11.5473 321.116 9.56975C321.969 7.34916 324.443 6.32019 326.733 5.51441C329.085 4.68659 331.198 5.40012 331.985 5.85151C332.909 6.38119 332.989 7.75916 332.815 8.7742C332.73 9.27078 332.183 9.58967 331.715 9.81172C331.247 10.0338 330.756 10.1135 330.392 9.95819C330.028 9.8029 329.805 9.41019 329.806 8.87644C329.81 7.65719 330.921 6.48156 332.118 5.59711C333.856 4.3129 338.146 4.27028 341.151 4.59728C342.977 4.79601 343.639 7.03551 344.093 8.83218C344.404 10.0622 343.835 11.4105 343.007 12.4111C342.305 13.2609 340.813 13.2816 339.418 13.2312C338.804 13.209 338.409 12.9073 338.176 12.4763C337.944 12.0453 337.892 11.421 338.003 10.8834C338.214 9.86165 339.306 9.13542 340.614 8.5429C341.927 7.94843 343.759 7.93228 345.586 8.16422C346.391 8.26641 346.837 8.86002 347.129 9.31808C347.654 10.1414 347.589 11.1222 347.368 11.9372C347.153 12.7324 345.884 12.8706 344.811 12.919C344.289 12.9426 343.813 12.7711 343.457 12.3787C342.652 11.4912 342.622 9.83582 342.689 8.26787C342.751 6.81586 343.6 5.85154 344.69 5.07367C347.991 2.71749 353.846 2.37349 357.403 2.36829C358.566 2.36659 359.367 3.5048 359.804 4.56487C360.044 5.14521 359.993 5.9208 359.79 6.47412C359.588 7.02745 359.153 7.36291 358.72 7.58896C357.913 8.01107 356.294 8.07826 354.681 7.90696C354.173 7.85296 354.479 7.20331 354.816 6.89206C356.19 5.62354 362.017 6.11707 366.234 6.66895C368.096 6.91266 368.928 8.65063 369.365 9.45734C370.406 11.3784 370.436 15.0736 370.031 17.9428C369.714 20.193 367.154 21.1623 365.104 21.8296C364.367 22.0696 363.235 21.9985 362.542 21.801C361.849 21.6034 361.597 21.1449 361.529 20.6321C361.462 20.1192 361.586 19.566 361.918 19.1497C363.452 17.228 368.655 17.5696 371.931 18.8763C373.291 19.4187 373.238 21.3195 373.338 22.4386C373.387 22.9863 373.264 23.5015 372.87 23.9579C371.966 25.0049 370.441 25.2034 369.334 25.1345C367.312 25.0086 365.948 22.2826 365.256 20.3497C365.06 19.8006 365.093 19.0984 365.273 18.5437C365.453 17.989 365.869 17.5787 366.306 17.3162C368.722 15.8631 372.853 17.0314 374.312 17.969C376.005 19.0567 376.426 21.9053 376.425 23.6071C376.425 23.9529 375.804 23.9972 375.38 23.9354C374.957 23.8736 374.546 23.6409 374.246 23.2813C373.947 22.9217 373.771 22.4423 373.995 22.0731C374.54 21.1749 376.584 21.2284 378.616 21.4384C380.398 21.6226 381.509 22.9824 382.198 24.1583C383.227 25.9138 383.267 29.3458 382.449 32.4835C382.283 33.1187 381.576 33.3832 380.97 33.5813C380.364 33.7794 379.663 33.8024 379.2 33.6045C378.737 33.4066 378.532 32.9871 378.435 32.5621C378.338 32.1371 378.354 31.7192 378.594 31.3226C379.642 29.596 383.992 29.6596 387.055 29.9007C388.359 30.0034 389.413 31.3167 390.313 32.284C391.045 33.0702 391.153 34.0843 391.077 34.9544C391.036 35.4151 390.543 35.8181 390.003 36.0675C389.463 36.3169 388.777 36.3757 388.236 36.2041C387.695 36.0324 387.32 35.6285 387.117 35.1729C386.914 34.7174 386.894 34.2225 387.062 33.8062C387.229 33.3899 387.585 33.0673 388.135 32.8883C389.371 32.4858 390.638 32.7951 391.454 33.2434C392.311 33.7148 392.337 35.6051 392.24 37.4569C392.2 38.245 391.67 38.6586 391.168 38.8882C390.666 39.1178 390.078 39.1339 389.497 38.8736C388.23 38.3055 387.498 36.7452 387.069 35.0104C386.837 34.0711 386.947 32.939 387.21 32.1827C387.658 30.8971 388.921 30.569 390.036 30.3521C391.693 30.0301 393.196 30.128 394.11 30.2731C395.786 30.5389 396.709 32.3476 397.424 33.9877C397.797 34.8438 397.826 36.614 397.781 38.8434C397.722 41.7541 395.519 42.6178 395.08 42.9012C394.65 43.1795 396.743 42.7946 397.767 43.0155C398.203 43.1097 398.271 43.6869 398.187 44.1782C398.007 45.2408 396.967 46.0405 395.799 46.5519C395.207 46.8111 394.522 46.8204 393.914 46.6642C393.306 46.508 392.771 46.1222 392.421 45.5773C391.7 44.455 391.76 42.9452 391.928 41.7198C392.074 40.6544 393.509 40.1955 394.758 39.9091C395.336 39.7768 395.833 39.8502 396.277 40.1024C398.474 41.3475 398.55 47.4868 397.963 50.4861C397.881 50.9024 397.296 51.0171 397.332 50.9838C397.769 50.5801 398.931 50.3359 400.177 50.4173C400.801 50.458 401.384 50.726 401.874 51.1546C403.801 52.8415 403.526 57.792 403.199 61.8071C403.004 64.2066 401.905 65.863 401.786 66.2575C401.632 66.7636 403.03 65.6263 403.782 65.845C405.499 66.3445 404.684 70.2779 403.969 72.5909C403.712 72.9997 403.424 73.3432 403.06 73.6662C402.696 73.9892 402.265 74.2813 401.821 74.5823" stroke="black" stroke-width="3" stroke-linecap="round"/>
<path d="M398.338 38.1517C397.016 37.9959 391.861 35.7511 387.937 32.043C385.876 30.0947 385.819 27.0034 385.927 24.9254C385.972 24.0472 386.454 23.5799 386.943 23.2725C387.932 22.6508 389.449 22.7212 390.896 22.8004C392.024 22.8621 392.83 23.5783 393.42 24.3435C393.699 24.7049 393.758 25.1338 393.486 25.4731C391.48 27.9768 386.334 26.4694 383.993 25.3766C381.498 24.2114 380.116 21.4724 378.806 18.7782C378.155 17.4376 378.23 15.7362 378.395 14.2609C378.467 13.6229 379.028 13.3216 379.695 13.154C380.362 12.9863 381.249 12.9901 381.983 13.2159C383.371 13.6434 384.14 14.9823 384.658 16.2112C385.123 17.312 385.169 18.4603 384.955 19.3929C384.363 21.9727 378.959 19.9599 377.036 18.963C374.628 17.7137 372.986 14.2358 372.301 11.8343C372.16 11.3431 372.232 10.9082 372.462 10.6831C372.691 10.4579 373.153 10.4397 373.532 10.697C373.911 10.9544 374.191 11.4878 374.068 12.0055C373.945 12.5232 373.41 13.009 372.896 13.3106C370.575 14.6742 366.689 13.8561 363.5 12.6552C359.43 11.1224 355.932 5.5049 354.422 2.84279C354.169 2.39721 354.183 1.90049 354.465 1.67101C354.747 1.44153 355.391 1.45223 355.891 1.64795C357.803 2.39717 357.968 4.66127 357.974 5.6949C357.977 6.17392 357.634 6.53164 357.272 6.8095C356.526 7.38207 352.37 8.05371 345.276 8.99431C338.574 9.8828 334.49 9.11917 333.303 8.39342C332.301 7.78026 332.056 6.68381 331.956 5.78227C331.903 5.30827 332.005 4.78978 332.283 4.43205C332.562 4.07433 333.055 3.89028 333.563 3.80323C334.07 3.71617 334.578 3.73169 334.946 3.98927C335.314 4.24685 335.526 4.74604 335.631 5.27712C335.84 6.33984 335.254 7.49999 334.345 8.50339C332.92 10.0749 330.382 10.1546 326.537 10.3155C325.105 10.3754 323.7 9.78234 322.088 8.80717C320.411 7.79292 319.755 6.15529 319.396 5.0825C319.22 4.5538 319.198 4.01399 319.391 3.55708C319.584 3.10017 320.029 2.73154 320.674 2.53334C321.319 2.33515 322.151 2.31856 322.77 2.44832C323.39 2.57808 323.772 2.85469 324.083 3.2433C324.73 4.04985 324.888 5.10746 324.78 5.99586C324.576 7.68607 321.832 7.96081 315.963 8.78264C312.421 9.27855 310.153 8.78682 309.437 8.28338C309.071 8.02578 308.948 7.47819 309.022 7.03491C309.096 6.59164 309.433 6.19626 309.817 5.99257C310.201 5.78889 310.62 5.78889 311.063 6.01092C311.506 6.23296 311.959 6.67704 312.231 7.20542C312.771 8.25494 312.47 9.53842 311.989 10.5706C311.117 12.4408 306.348 13.362 298.874 14.6359C297.371 14.8921 296.611 14.7952 296.439 14.8064C295.11 14.8933 299.869 16.7217 301.165 18.8354C301.471 19.336 301.449 19.9461 301.218 20.4843C300.133 23.0129 296.43 22.4341 294.963 22.2179C294.372 22.1309 294.259 21.5004 294.376 21.1255C294.493 20.7506 294.886 20.4997 295.471 20.3546C296.057 20.2096 296.824 20.178 297.415 20.3635C298.006 20.5489 298.399 20.9523 298.652 21.4119C299.148 22.3108 299.046 23.4864 298.655 24.6339C297.742 27.3142 293.721 27.3938 290.49 27.433C289.922 27.4399 289.899 26.7707 290.129 26.5217C290.359 26.2727 290.883 26.2438 291.165 26.4507C291.448 26.6576 291.474 27.1011 291.238 27.4484C290.504 28.0332 288.833 28.5321 286.9 29.0268C286.124 29.2674 285.765 29.4868 285.369 29.8214" stroke="black" stroke-width="3" stroke-linecap="round"/>
<path d="M290.948 36.4217C290.982 36.4549 290.254 36.4886 288.93 36.2654C288.311 36.1612 287.957 35.5292 287.711 34.9597C287.218 33.8189 287.288 32.0159 287.512 30.2847C287.598 29.6204 288.185 29.5246 288.62 29.4916C289.054 29.4586 289.461 29.5255 289.825 29.7066C290.496 30.1808 291.115 31.035 291.736 32.2989C292.057 33.0105 292.39 33.865 292.732 34.7453" stroke="black" stroke-width="3" stroke-linecap="round"/>
<path d="M3.51196 10.6371C7.15148 10.7506 18.0033 11.8304 25.5462 13.3963C29.5813 14.2339 34.2198 14.1144 49.5454 14.5942C64.871 15.0739 90.7897 15.8895 116.747 15.4608C142.705 15.0322 167.915 13.3345 183.508 11.945C199.102 10.5555 204.313 9.52555 207.381 8.99236C215.587 7.56577 226.198 8.86033 230.652 10.2481C232.621 11.3196 234.415 12.4793 235.877 13.4098C236.559 13.8084 237.121 14.0579 237.824 14.3307" stroke="black" stroke-width="3" stroke-linecap="round"/>
<path d="M237.824 14.3307C237.824 14.3523 237.824 14.374 237.901 30.0232C237.979 45.6724 238.133 76.9485 238.357 93.7027C238.582 110.457 238.871 111.742 239.098 112.726C239.326 113.71 239.484 114.356 239.535 115.566" stroke="black" stroke-width="3" stroke-linecap="round"/>
<path d="M1.5 26.55C1.5 26.5934 1.5 26.6367 1.64004 38.833C1.78008 51.0294 2.06015 75.3775 4.20568 101.975C6.35121 128.573 10.3537 156.683 12.4231 171.556C14.4924 186.428 14.5074 187.211 14.5228 188.017" stroke="black" stroke-width="3" stroke-linecap="round"/>
<path d="M12.4653 193.809C12.5087 193.809 12.552 193.809 39.9804 193.482C67.4089 193.155 122.221 192.5 155.814 191.356C189.408 190.212 200.121 188.598 206.543 187.635C214.772 186.407 218.64 185.721 222.091 185.095C223.534 184.883 224.353 184.883 224.917 184.742" stroke="black" stroke-width="3" stroke-linecap="round"/>
<path d="M124.965 192.849C124.721 192.849 124.477 192.849 124.229 202.394C123.981 211.94 123.738 231.032 124.345 250.849" stroke="black" stroke-width="3" stroke-linecap="round"/>
<path d="M73.9646 195.849C73.9646 195.895 73.9646 195.941 67.7593 203.596C61.5541 211.251 49.1435 226.512 35.9646 242.849" stroke="black" stroke-width="3" stroke-linecap="round"/>
<path d="M170.965 191.849C171.129 192.045 171.294 192.241 178.627 200.877C185.959 209.513 200.455 226.583 208.495 235.949C216.535 245.315 217.68 246.46 218.965 247.849" stroke="black" stroke-width="3" stroke-linecap="round"/>
<path d="M36.4219 63.1989C36.4219 62.0078 36.9596 58.9375 39.2542 55.3865C40.1306 54.0302 41.6205 53.4944 43.3972 53.1033C45.6228 52.6133 47.5825 53.2229 49.1618 54.1735C55.5201 58.0004 59.2368 63.3761 60.3731 63.4906C64.9813 63.9549 68.1185 52.3173 70.9315 49.8094C71.9685 48.8849 74.2881 48.9601 76.8968 49.0989C83.5477 49.4526 90.2428 57.9951 92.9677 58.7155C95.9192 59.4957 100.349 53.4326 103.588 50.3606C104.52 49.4768 106.46 49.4595 108.666 49.5244C115.187 53.4716 124.033 60.444 126.409 61.7366C127.399 62.233 127.952 62.4055 128.523 62.5833" stroke="black" stroke-width="3" stroke-linecap="round"/>
<path d="M39.8281 87.2912C39.8281 87.2046 39.8714 86.5625 40.1634 85.4114C40.4728 84.1916 44.9981 83.8153 50.8964 83.871C56.264 83.9217 59.5274 88.9288 60.841 90.208C66.2036 95.43 77.2659 74.9217 79.6348 73.7024C83.0243 71.9577 88.1072 73.6908 92.3886 75.6259C96.1257 77.315 98.8603 78.969 100.326 78.9548C104.922 78.9103 109.821 73.0007 113.079 72.484C117.937 72.9309 122.904 76.3592 127.876 80.7266C129.903 82.5755 130.921 83.6787 132.182 85.1819" stroke="black" stroke-width="3" stroke-linecap="round"/>
<path d="M71.8359 104.543C69.7087 104.556 64.5516 104.959 60.6278 107.043C59.22 107.791 58.3617 108.784 57.2293 110.219C55.5399 112.361 54.1749 115.055 52.8658 118.344C52.0621 120.363 51.326 123.223 50.8362 125.289C50.0654 128.54 50.0967 131.937 50.3057 135.783C50.4729 138.859 51.5801 140.925 52.3795 142.6C53.3042 144.536 55.3734 147.209 59.4226 151.448C61.9658 154.111 66.0366 157.273 69.1141 159.538C72.1917 161.803 74.2897 162.937 76.8265 163.935C79.3633 164.932 82.2753 165.758 84.5272 166.267C86.7791 166.775 88.2826 166.942 91.0306 166.984C93.7787 167.026 97.7256 166.94 100.479 166.775C103.233 166.609 104.673 166.367 107.059 165.557C109.444 164.746 112.731 163.375 114.788 162.42C117.638 161.097 119.873 159.139 122.621 156.659C124.794 154.699 126.215 152.198 127.53 149.764C128.542 147.89 129.149 144.381 129.763 139.509C130.051 137.226 129.952 135.289 129.689 133.343C129.427 131.398 128.917 129.493 127.92 126.879C126.922 124.265 125.453 120.999 123.51 117.751C121.568 114.503 119.198 111.371 117.185 108.988C115.172 106.606 113.589 105.068 111.984 103.798C108.936 101.387 106.195 100.19 104.264 99.4846C103.319 99.1395 102.392 98.9792 99.587 98.8377C96.7824 98.6963 92.1144 98.6189 88.4342 98.9352C84.7539 99.2514 82.2029 99.9636 80.1862 100.675C78.1695 101.386 76.7644 102.075 75.2487 102.983C73.7331 103.891 72.1495 104.997 70.1224 106.238" stroke="black" stroke-width="3" stroke-linecap="round"/>
<path d="M86.7493 101.356C86.7493 101.347 86.7493 101.338 86.7563 105.574C86.7633 109.81 86.7774 118.291 86.8128 122.958C87.0977 129.544 87.4429 131.537 87.7129 132.876C87.7962 133.29 87.8855 133.79 88.0488 134.523" stroke="black" stroke-width="3" stroke-linecap="round"/>
<path d="M88.0488 134.523C88.3792 134.12 90.7107 132.008 94.5402 128.464C96.7467 126.422 99.336 123.726 101.786 121.568C106.26 117.629 108.958 115.985 110.222 115.083C114.995 111.888 115.895 111.188 116.491 110.726C116.762 110.522 116.969 110.38 117.624 109.897" stroke="black" stroke-width="3" stroke-linecap="round"/>
</svg>
