<svg width="561" height="389" viewBox="0 0 561 389" fill="none" xmlns="http://www.w3.org/2000/svg">
<path d="M198.406 45.8231C198.406 46.2533 198.019 48.7237 197.623 50.443C197.308 51.8105 196.69 53.7191 196.308 55.4988C196.065 56.6253 195.778 58.5528 195.237 61.1325C194.171 66.219 193.92 69.5048 193.612 72.8057C193.443 74.6214 193.245 79.1554 193.228 85.032C193.219 88.1613 193.137 89.899 193.056 93.0663C192.902 99.0952 192.807 103.254 192.737 103.923C192.689 104.271 192.615 104.633 192.576 106.355C192.536 108.076 192.534 111.146 192.531 114.309" stroke="black" stroke-width="3" stroke-linecap="round"/>
<path d="M192.855 114.73C193.097 114.73 194.072 114.898 194.966 115.162C195.995 115.466 197.08 115.805 198.639 116.281C200.244 116.772 201.191 117.117 202.097 117.4C203.08 117.707 204.589 118.021 206.996 118.816C207.475 118.974 207.711 119.053 209.788 119.807C211.865 120.561 215.773 121.994 218.232 122.841C221.558 123.985 223.857 124.403 226.393 124.916C228.545 125.351 232.193 126.3 236.328 127.491C238.072 127.993 240.944 128.861 245.345 130.11C249.058 131.164 249.924 131.368 251.266 131.665C252.339 131.902 253.229 131.878 254.363 132.012C256.278 132.239 257.671 132.791 259.461 133.348C260.516 133.676 261.385 133.966 262.576 134.275C263.477 134.416 264.343 134.502 265.363 134.613C265.724 134.639 266.227 134.656 266.745 134.673" stroke="black" stroke-width="3" stroke-linecap="round"/>
<path d="M198.732 45.9157C199.607 45.9157 201.895 46.022 202.89 46.1574C203.963 46.3035 204.746 46.6598 205.981 46.949C208.142 47.4554 211.085 48.101 213.588 48.6907C215.519 49.1457 216.549 49.1714 218.738 49.4297C220.516 49.6395 221.605 49.9013 223.815 50.2156C226.388 50.5815 228.894 50.8869 231.454 51.2802C235.514 51.904 238.551 52.9167 239.658 53.1976C240.347 53.3724 241.709 53.5782 243.87 53.9818C245.898 54.3606 248.721 54.9238 252.242 55.5814C257.678 56.5965 259.503 56.7258 260.627 56.8816C262.376 57.1239 263.939 57.2427 267.374 57.9522C270.524 58.5708 271.808 58.8654 272.865 59.1287C273.063 59.172 273.249 59.2064 273.787 59.2419" stroke="black" stroke-width="3" stroke-linecap="round"/>
<path d="M273.683 59.3604C273.683 60.0802 273.623 61.9103 273.314 63.3451C272.986 64.8648 272.472 67.7385 272.138 69.5004C271.627 72.1952 271.678 75.8328 271.349 78.982C271.097 81.3878 270.684 85.4342 270.375 88.38C270.067 91.3259 269.877 93.0488 269.712 94.5849C269.149 99.8143 268.774 102.339 268.687 103.215C268.497 105.122 268.213 108.351 267.908 109.896C267.671 111.093 267.52 111.951 267.391 112.897C267.229 114.077 267.029 116.619 266.854 118.859C266.709 120.718 266.746 122.176 266.718 123.077C266.665 124.745 266.676 127.111 266.71 129.509C266.808 132.462 266.936 133.264 267.055 134.066C267.086 134.266 267.117 134.465 267.15 134.811" stroke="black" stroke-width="3" stroke-linecap="round"/>
<path d="M192.584 34.4142C194.292 34.4142 198.337 34.5367 200.007 34.8871C202.444 35.3985 204.7 36.1455 208.139 37.1068C211.128 37.9424 214.419 38.8216 216.188 39.2103C218.854 39.7962 221.672 40.5512 223.891 40.9004C226.255 41.2724 229.381 41.313 231.777 41.59C233.909 41.8365 236.524 42.0468 238.295 42.2594C239.89 42.4506 241.443 42.6164 243.433 42.7617C246.148 42.9599 247.788 43.2811 249.48 43.5266C252.481 43.9622 256.224 44.7372 257.816 44.9663C259.37 45.1901 261.197 45.6167 264.798 46.4455C267.632 47.0979 268.993 47.6589 270.662 48.1255C272.546 48.6524 274.395 49.1753 275.945 49.441C277.733 49.7475 279.193 49.826 280.653 50.0828C281.363 50.2137 282.085 50.3387 282.91 50.4239C283.372 50.4529 283.922 50.4529 284.559 50.4859" stroke="black" stroke-width="3" stroke-linecap="round"/>
<path d="M284.654 50.6701C284.654 51.253 284.319 53.7128 283.899 55.7878C283.352 58.4903 282.596 61.1706 281.891 63.8599C281.427 65.629 281.233 67.3575 280.477 71.648C280.049 74.0781 280.161 81.0905 280.223 86.5915C280.291 92.7036 280.342 99.125 280.095 101.445C279.852 103.725 278.941 106.413 278.716 108.125C278.507 109.716 278.251 111.208 278.164 117.195C278.062 124.228 277.464 127.069 276.888 129.783C276.332 132.402 275.941 133.867 275.847 143.653C275.81 147.562 275.522 149.415 275.095 150.862C274.97 151.211 274.845 151.539 274.75 151.88C274.655 152.221 274.594 152.564 274.441 153.433" stroke="black" stroke-width="3" stroke-linecap="round"/>
<path d="M193.423 33.2144C193.423 34.3886 193.122 37.9237 192.527 40.4408C191.602 44.3463 191.451 48.4311 191.044 51.2888C190.376 55.9756 189.581 60.193 189.057 63.9483C188.58 67.3683 188.276 70.7072 188.054 75.3461C187.87 79.1645 187.586 83.5317 187.426 87.2207C187.22 91.9403 187.025 95.186 186.729 98.9531C186.015 108.012 186.315 110.879 186.057 116.081C186.005 118.569 185.958 122.477 185.867 124.756C185.775 127.036 185.639 127.569 185.5 129.095" stroke="black" stroke-width="3" stroke-linecap="round"/>
<path d="M185.921 129.124C186.219 129.134 187.566 129.578 189.511 130.521C190.956 131.222 191.933 131.836 193.248 132.341C194.776 132.929 196.213 133.307 197.356 133.767C199.016 134.434 201.18 134.838 202.327 135.213C203.556 135.616 205.153 136.104 206.491 136.541C207.965 137.023 209.418 137.427 211.119 137.886C214.885 138.901 216.105 139.095 217.789 139.634C219.229 140.094 220.403 140.432 221.9 140.843C223.308 141.23 224.97 141.685 227.206 142.444C228.895 143.017 230.47 143.369 231.831 143.72C233.898 144.252 235.881 144.604 237.248 144.995C238.845 145.453 241.167 146.123 242.974 146.717C244.489 147.215 245.593 147.409 247.696 147.796C250.057 148.231 251.312 148.679 252.418 149.073C253.659 149.516 255.017 150.024 256.287 150.571C258.694 151.608 260.613 152.528 262.165 153.005C263.313 153.357 264.57 153.597 265.807 153.791C266.996 153.977 270.407 154.122 272.735 154.272C273.354 154.33 273.947 154.255 274.348 153.97C274.484 153.784 274.48 153.513 274.477 153.234" stroke="black" stroke-width="3" stroke-linecap="round"/>
<path d="M285.413 50.0739C285.736 50.0739 286.781 49.8798 288.056 49.2051C289.009 48.7007 290.012 48.3378 290.915 48.1133C291.881 47.8732 293.098 48.893 294.418 49.5125C295.462 50.0023 296.34 50.3436 297.241 50.692C297.463 50.7821 297.667 50.8746 297.881 50.9315C298.096 50.9884 298.313 51.0068 298.538 51.0258" stroke="black" stroke-width="3" stroke-linecap="round"/>
<path d="M193.369 33.758C193.774 33.7315 195.089 33.5782 201.746 33.498C204.103 33.4696 205.231 34.0247 206.552 34.3429C208.538 34.8209 209.805 35.2549 211.19 35.508C214.402 36.0949 219.807 35.7607 221.043 35.9519C222.584 36.1902 224.052 36.7251 225.25 37.1764C226.663 37.7087 227.988 37.8155 229.978 37.9133C231.321 37.9793 233.596 38.2275 235.387 38.3861C236.631 38.4962 237.919 38.7394 241.529 39.3749C244.031 39.8153 245.504 40.0942 247.819 40.5207C249.232 40.7811 250.587 40.8565 251.844 41.0211C253.073 41.1821 254.586 41.2571 256.354 41.3625C257.965 41.4585 259.692 41.8471 261.33 42.054C262.727 42.2307 265.79 42.8631 268.195 43.3496C270.894 43.8954 272.438 44.1484 273.723 44.268C274.941 44.3815 276.324 44.7116 277.879 45.006C279.296 45.2742 280.569 45.5088 282.074 45.8376C283.309 46.107 284.579 46.3004 285.916 46.6287C287.158 46.9335 289.452 47.497 291.287 48.0084C292.581 48.3692 293.747 48.7727 295.092 49.2288C296.012 49.5247 296.857 49.7681 297.515 49.964C297.85 50.0775 298.187 50.2195 299.028 50.5398" stroke="black" stroke-width="2" stroke-linecap="round"/>
<path d="M299.12 50.7017C299.12 51.209 298.782 53.8552 298.443 55.822C298.178 57.3589 298.122 58.6419 297.942 59.8515C297.765 61.0427 297.671 62.4087 297.367 64.5534C297.108 66.3886 296.938 67.8477 296.758 69.534C296.622 70.8037 296.384 72.2494 296.215 73.6866C296.023 75.3202 295.979 76.5633 295.793 77.991C295.559 79.7866 295.534 81.4993 295.383 82.9615C295.212 84.6121 294.988 86.2454 294.918 87.6636C294.809 89.8962 294.468 92.9948 294.319 95.1038C294.209 96.6606 293.985 98.0118 293.852 99.4434C293.653 101.569 293.677 103.893 293.455 105.616C293.239 107.287 292.543 109.472 292.297 110.776C291.994 112.388 291.999 113.905 291.805 115.167C291.616 116.396 291.423 117.667 291.183 118.887C290.409 122.814 290.73 130.543 290.345 132.029C290.058 133.136 289.832 134.823 289.548 136.303C289.314 137.521 289.381 139.102 289.188 140.477C289.019 141.689 288.559 143.773 288.381 145.421C288.289 146.007 288.223 146.681 288.185 148.146C288.162 149.239 288.133 151.045 288.103 152.905" stroke="black" stroke-width="3" stroke-linecap="round"/>
<path d="M273.58 154.395C275.182 154.395 279.193 154.283 280.504 154.137C281.962 153.974 283.853 153.626 284.898 153.468C285.317 153.401 286.145 153.258 287.214 153.084C287.668 153.015 287.943 152.986 288.558 152.917" stroke="black" stroke-width="3" stroke-linecap="round"/>
<path d="M222.712 141.736C222.712 141.72 222.712 142.15 222.588 142.83C222.421 143.75 221.008 143.756 220.359 144.394C219.551 145.189 218.312 146.117 216.828 148.078C216.056 149.099 216.04 151.261 216.346 153.099C216.746 155.505 217.891 156.258 219.073 157.519C220.602 159.15 222.292 159.715 223.219 160.158C224.108 160.582 225.684 161.18 229.189 162.049C231.547 162.634 233.552 162.886 235.299 163.18C237.083 163.479 239.816 163.823 241.802 164.102C242.951 164.223 244.35 164.324 246.746 164.399C248.217 164.41 250.938 164.41 253.921 164.441" stroke="black" stroke-width="3" stroke-linecap="round"/>
<path d="M253.921 164.441C254.423 164.441 256.49 164.404 259.775 164.312C261.248 164.27 263.738 163.555 266.319 162.801C268.206 162.25 269.967 161 270.881 160.481C271.807 159.954 272.79 159.499 273.757 158.909C274.64 158.37 275.105 157.56 275.66 156.815C275.959 156.391 276.308 155.952 276.715 155.509C276.931 155.28 277.164 155.042 277.586 154.485" stroke="black" stroke-width="3" stroke-linecap="round"/>
<path d="M298.497 62.2443C298.747 62.2443 299.581 62.3317 300.124 62.4666C300.628 62.5921 301.293 62.7085 301.882 62.8615C302.692 63.0722 304.176 63.6267 305.197 63.9327C307.247 64.5474 308.777 64.6369 309.682 64.8549C310.282 64.9994 310.814 65.7293 311.247 66.2885C311.641 66.7966 311.94 67.3663 312.494 68.4269C312.845 69.0986 313.113 70.1884 313.286 71.0448C313.34 72.5017 313.426 73.581 313.559 74.259C313.621 74.5216 313.723 74.9173 313.857 75.4688" stroke="black" stroke-width="3" stroke-linecap="round"/>
<path d="M313.857 75.4688C313.857 75.7869 313.917 76.7149 314.195 77.8267C314.402 78.6547 314.608 79.377 315.262 82.1723C315.596 83.5976 315.725 84.416 315.755 85.7845C315.782 86.9957 315.766 89.2572 315.753 91.7179C315.74 94.1786 315.714 96.7702 315.749 98.6265C315.804 101.528 316.064 103.09 316.191 104.066C316.234 104.551 316.236 105.015 316.248 105.329C316.261 105.643 316.283 105.792 316.306 106.246" stroke="black" stroke-width="3" stroke-linecap="round"/>
<path d="M316.216 106.805C316.19 106.909 315.702 107.64 315.03 108.427C314.077 109.541 313.497 109.871 312.871 110.431C312.369 110.881 311.741 111.342 311.299 111.772C310.823 112.236 310.092 112.924 309.378 113.52C309.047 113.797 308 114.964 306.407 116.824C305.687 117.665 305.21 118.349 304.307 119.597C303.404 120.846 302.106 122.653 301.368 123.692C300.63 124.73 300.493 124.945 299.932 125.8C299.37 126.656 298.389 128.144 297.808 129.01C297.228 129.876 297.077 130.074 296.566 130.926C295.164 133.263 294.163 135.021 293.93 135.377C293.759 135.639 293.499 135.986 292.733 137.195C291.085 139.792 290.148 141.739 289.891 142.157C288.96 143.972 288.39 145.401 288.215 145.96C288.142 146.2 288.104 146.353 288.057 146.672" stroke="black" stroke-width="3" stroke-linecap="round"/>
<path d="M304.871 120.039C304.871 120.077 304.871 122.659 304.879 126.657C304.884 128.77 305.073 129.598 305.351 130.996C305.669 132.601 305.985 133.776 306.218 134.611C306.328 135.006 306.364 135.39 306.393 135.764C306.453 136.533 305.563 136.972 304.515 137.654C304.035 137.967 303.063 138.586 301.615 139.61C298.5 141.811 295.76 143.318 294.887 144C293.968 144.718 292.24 145.617 290.135 146.679C289.714 146.894 289.366 147.072 289.106 147.198C288.845 147.324 288.683 147.393 288.075 147.684" stroke="black" stroke-width="3" stroke-linecap="round"/>
<path opacity="0.41" d="M122.843 263.236H122.777" stroke="black" stroke-width="3" stroke-linecap="round"/>
<path d="M132.645 164.585C132.917 164.662 133.879 165.085 134.88 165.887C135.808 166.63 136.591 167.66 137.646 168.751C139.385 170.549 140.615 171.544 141.686 172.632C142.605 173.566 143.679 174.586 144.55 175.325C145.388 176.036 146.036 177.012 147.111 178.344C148.506 180.071 150.106 182.884 151.366 184.956C152.222 186.365 153.774 188.816 155.142 191.458C157.649 196.3 158.417 199.81 159.08 201.498C159.532 202.832 159.898 204.363 160.049 205.635C160.075 206.049 160.098 206.616 160.121 207.2" stroke="black" stroke-width="3" stroke-linecap="round"/>
<path d="M160.121 207.2C160.121 208.116 160.259 210.799 160.341 213.029C160.408 214.831 160.534 217.892 160.145 220.665C159.955 222.026 159.391 224.517 158.797 226.45C158.209 228.362 157.585 229.794 157.026 232.095C156.604 233.831 155.988 235.433 155.407 236.94C154.786 238.553 152.106 243.9 150.46 246.745C149.397 248.582 148.007 250.393 147.065 251.661C146.209 252.811 145.119 254.042 144.237 254.999C143.064 256.288 142.358 256.978 141.859 257.411C141.606 257.613 141.353 257.778 140.62 258.363" stroke="black" stroke-width="3" stroke-linecap="round"/>
<path d="M47.9975 208.874C47.9975 209.917 47.9002 212.488 47.9937 220.005C48.0423 223.907 48.7874 225.91 48.9393 226.425C49.0921 226.944 49.891 228.985 51.3492 232.726C52.9261 236.772 54.1607 239.091 54.4891 239.664C55.9171 242.153 57.5677 245.967 58.4434 247.386C60.0219 249.945 61.7434 251.793 63.6868 254.355C64.9948 256.079 66.0607 257.174 67.1686 258.287C69.0205 260.147 72.5754 263.964 76.0786 267.045C78.7626 269.406 80.7765 270.836 83.9263 272.621C85.3238 273.209 86.4484 273.548 87.2938 273.702C87.6668 273.759 87.9262 273.771 88.1525 273.846" stroke="black" stroke-width="3" stroke-linecap="round"/>
<path d="M60.285 246.796C59.4955 246.796 57.3293 246.653 56.0208 246.547C54.7345 246.443 53.542 246.123 52.4412 245.7C50.7234 245.042 49.0832 243.172 47.7116 241.53C46.8181 240.46 46.0348 238.437 45.4679 236.903C44.9203 235.422 44.3696 232.662 44.1005 225.371C43.9992 222.624 45.6018 220.536 46.5381 219.659C47.5069 218.751 49.2381 218.747 51.9235 218.736C53.7406 218.73 55.6379 219.755 56.6965 220.313C58.2227 221.508 60.3317 223.564 61.3057 225.157C61.5426 225.622 61.7871 226.156 62.1716 227.085" stroke="black" stroke-width="3" stroke-linecap="round"/>
<path d="M35.9406 208.747C35.9406 207.806 35.8632 205.512 35.7995 203.936C35.7097 201.714 35.6572 198.961 35.7983 196.954C35.8824 195.758 36.8327 192.944 37.4721 191.085C37.9671 189.646 39.1155 187.747 40.4308 185.089C41.0489 183.84 41.7866 182.415 43.659 179.162C44.358 177.947 44.9727 177.361 45.8352 176.513C46.7324 175.632 47.798 174.509 49.418 173.22C51.2305 171.779 51.9338 170.816 52.8703 169.854C53.8064 168.891 55.4935 167.418 57.3223 165.839C58.368 164.937 59.098 164.205 59.7663 163.617C60.0978 163.364 60.519 163.077 60.9725 162.781C61.1792 162.646 61.3381 162.545 61.7453 162.359" stroke="black" stroke-width="3" stroke-linecap="round"/>
<path d="M61.7949 162.258C61.9267 162.016 62.4592 161.301 63.2417 160.509C64.1376 159.602 65.8384 158.642 66.9519 157.977C67.8206 157.459 69.8234 156.296 71.2408 155.566C72.1131 155.116 73.2532 154.367 76.5224 152.842C78.113 152.1 79.5434 151.63 81.1705 151.029C82.3478 150.595 83.6407 150.176 84.5344 149.865C85.4172 149.558 86.8113 149.089 90.182 148.316C93.0601 147.657 94.4425 147.386 95.8641 147.282C97.9022 147.132 101.076 147.272 103.997 147.321C105.331 147.343 107.752 147.273 111.228 147.252C113.953 147.235 117.247 147.738 119.261 148.212C120.49 148.501 121.835 149.016 123.187 149.419C124.807 149.903 126.273 150.061 129.645 150.903C131.646 151.403 132.376 151.843 133.396 152.473C134.566 153.194 135.264 154.356 136.224 155.621C136.901 156.512 137.314 157.215 137.727 158.041C137.818 158.252 137.896 158.453 137.969 158.663C138.042 158.873 138.108 159.087 138.195 159.445" stroke="black" stroke-width="3" stroke-linecap="round"/>
<path d="M142.694 157.701C142.392 157.701 141.338 157.933 140.509 158.312C139.716 158.676 138.868 158.859 137.678 159.157C135.989 159.579 134.006 160.28 131.249 161.317C129.388 162.016 127.385 162.76 124.914 163.757C122.593 164.693 120.889 165.325 119.648 165.808C118.011 166.446 117.129 166.784 116.299 167.055C115.515 167.312 114.554 167.455 113.634 167.766C112.165 168.263 110.609 168.8 109.62 169.14C108.429 169.548 107.665 169.844 106.366 170.286C104.408 170.953 102.884 171.551 101.384 172.105C99.3632 172.851 98.1508 173.434 94.0735 175.281C92.5049 175.992 91.3827 176.498 89.9991 177.086C88.8356 177.581 87.2621 178.342 85.2551 179.306C84.4051 179.714 82.1392 181.011 79.1112 182.735C77.1151 183.919 76.1486 184.586 75.6759 184.924C75.4595 185.088 75.291 185.236 75.0261 185.543" stroke="black" stroke-width="3" stroke-linecap="round"/>
<path d="M75.2441 185.617C75.0232 185.686 74.2413 186.078 73.3357 186.587C72.4563 187.081 71.8244 187.576 71.1423 188.047C70.2569 188.659 69.5958 189.186 68.8394 189.772C67.5074 190.804 66.7376 191.474 65.9666 192.02C65.0072 192.7 64.1706 193.337 63.3609 193.934C62.5442 194.536 61.3486 195.239 60.3271 195.938C59.2573 196.67 58.1263 197.668 57.0432 198.658C56.1604 199.466 55.4891 200.082 54.3305 201.132C53.6006 201.794 52.8773 202.324 51.7868 203.156C50.7595 203.939 49.7944 204.555 48.3233 205.477C46.2679 206.767 45.4411 207.5 44.6176 208.184C43.9688 208.723 43.2954 209.221 41.1399 210.778C39.8029 211.744 37.4689 213.05 35.5223 214.265C31.9001 216.524 30.9686 217.45 30.0992 218.102C29.363 218.654 28.6449 219.109 26.9763 220.253C24.6097 221.875 23.1119 223.022 22.0442 223.686C20.7687 224.479 19.3841 225.205 16.4307 226.591C14.0896 227.689 12.3141 228.132 10.6298 228.708C8.61791 229.397 6.74281 229.988 5.69921 230.245C4.32172 230.585 2.37372 230.158 1.77232 229.581C1.45782 229.279 1.48274 228.568 1.52411 227.822C1.60055 226.445 2.84536 225.453 4.38403 223.324C5.7802 221.392 7.50253 218.999 9.31475 216.916C11.3244 214.606 12.3119 214.253 14.1929 212.867C17.796 210.212 18.7826 209.568 19.7307 208.889C20.7203 208.181 22.8454 207.01 24.6812 206.042C25.1843 205.838 26.0988 205.716 27.7355 205.616C28.6477 205.576 29.7258 205.559 30.8366 205.541" stroke="black" stroke-width="3" stroke-linecap="round"/>
<path d="M93.7393 203.432C93.3493 203.432 91.3127 203.722 89.8149 203.932C89.4238 203.987 88.8424 203.945 88.4851 203.848C88.1278 203.752 88.0083 203.558 87.9431 203.126C87.7788 202.038 88.0023 201.033 88.3001 200.449C88.9213 199.229 90.7759 198.404 92.3987 198.034C92.775 197.948 93.1409 197.994 93.4262 198.086C93.9603 198.26 94.2216 198.836 94.3937 199.367C94.5443 199.831 94.5415 200.609 94.4677 201.53C94.4168 202.164 93.8881 202.494 93.474 202.771C92.4782 203.436 90.3369 203.522 89.1636 203.168C88.28 202.901 88.4766 201.463 88.539 200.243C88.5652 199.731 89.06 199.437 89.4396 199.19C90.1786 198.709 92.0235 198.799 93.3783 199.088C93.8473 199.188 94.0159 199.822 94.1829 200.342C94.3652 200.909 94.2609 201.478 94.1609 201.918C93.9573 202.815 92.8754 203.348 91.9399 203.782C91.69 203.898 91.3782 203.931 91.0593 203.883C90.7405 203.835 90.4109 203.671 90.1897 203.45C89.7725 203.035 89.7428 201.746 89.7604 200.213C89.7701 199.367 90.1507 198.92 90.5294 198.522C91.2306 197.786 93.0732 197.775 94.34 198.048C95.4022 198.276 95.4636 200.115 95.432 201.631C95.4189 202.258 94.9089 202.682 94.4523 203.03C93.5321 203.732 92.3291 203.754 91.4369 203.602C90.9755 203.523 90.7846 202.818 90.591 202.238C90.4203 201.728 90.4438 200.8 90.6169 199.682C90.6917 199.199 91.0946 198.978 91.4841 198.846C92.2953 198.573 93.0732 198.794 93.6298 199.166C94.3716 199.661 94.525 200.559 94.6127 201.096C94.7096 201.691 94.5167 202.292 94.1927 202.758C93.8734 203.218 93.1667 203.224 92.6798 203.165C92.4599 203.138 92.3742 202.845 92.3193 202.588C92.2643 202.331 92.263 202.049 92.3232 201.813C92.3835 201.577 92.5053 201.394 92.6903 201.265C92.8753 201.136 93.1198 201.066 93.2729 201.16C93.4261 201.254 93.4805 201.516 93.4177 201.71C93.3549 201.904 93.1734 202.022 92.9124 202.093C92.6515 202.163 92.3166 202.183 92.0561 202.09C91.7956 201.997 91.6197 201.79 91.512 201.581C91.4043 201.373 91.3701 201.168 91.494 200.998C91.7911 200.589 92.3113 200.392 92.5841 200.19C92.7097 200.096 92.9223 200.281 92.8655 200.398C92.6794 200.781 91.9653 200.731 91.5773 200.628C91.3956 200.579 91.3276 200.344 91.3076 200.128C91.2876 199.912 91.3388 199.671 91.4943 199.514C91.6499 199.357 91.9082 199.29 92.1025 199.342" stroke="black" stroke-width="3" stroke-linecap="round"/>
<path d="M133.609 187.087C133.609 187.991 133.422 190.228 132.928 191.019C132.621 191.51 132.122 191.766 131.646 191.869C131.385 191.926 131.066 191.904 130.802 191.817C130.294 191.651 130.039 191.183 129.886 190.77C129.726 190.337 129.734 189.427 129.868 188.263C129.973 187.35 130.688 186.923 131.113 186.667C131.513 186.426 132.087 186.452 132.607 186.566C133.806 186.828 132.93 189.314 132.17 190.981C131.841 191.702 131.362 192.115 130.939 192.315C130.741 192.41 130.498 192.234 130.371 191.861C129.749 190.027 130.908 188.635 131.821 187.437C132.161 186.992 132.659 186.852 133.126 186.802C133.355 186.778 133.568 186.809 133.756 186.926C134.682 187.506 134.565 190.001 134.277 191.54C134.082 192.588 132.978 193.032 132.047 193.366C131.814 193.45 131.564 193.415 131.327 193.34C130.835 193.183 130.521 192.703 130.336 192.224C129.935 191.181 130.31 189.706 130.956 188.554C131.235 188.055 131.677 187.807 132.07 187.586C132.521 187.333 133.337 187.326 134.172 187.413C134.508 187.448 134.628 187.672 134.715 187.898C135.106 188.916 134.675 190.095 134.131 190.993C133.892 191.387 133.461 191.623 132.985 191.816C132.731 191.92 132.408 191.908 132.181 191.82C131.357 191.501 131.541 189.526 131.793 188.035C131.889 187.471 132.384 187.094 132.789 186.795C133.166 186.515 133.682 186.591 134.063 186.723C134.923 187.021 134.49 188.967 133.965 190.282C133.762 190.791 133.216 190.959 132.746 191.097C132.495 191.171 132.194 191.168 131.973 191.072C130.703 190.523 131.435 188.039 131.612 187.597C131.818 187.08 132.385 186.839 132.878 186.685C133.153 186.598 133.506 186.604 133.764 186.676C134.022 186.749 134.182 186.915 134.284 187.127C134.496 187.563 134.459 188.163 134.379 188.749C134.307 189.276 133.894 189.644 133.534 189.972C133.144 190.328 132.597 190.475 132.073 190.479C131.795 190.48 131.525 190.216 131.36 190.004C130.468 188.858 131.156 186.507 131.691 185.658C131.943 185.258 132.679 185.296 133.331 185.39C133.625 185.432 133.789 185.687 133.887 186.03C134.115 186.83 133.903 187.644 133.663 188.198C133.442 188.708 133.061 189.067 132.707 189.314C132.535 189.434 132.297 189.392 132.177 189.184C132.057 188.976 132.04 188.565 132.112 188.242C132.241 187.664 132.678 187.343 133.05 187.155C133.242 187.059 133.495 187.1 133.637 187.233C133.779 187.366 133.817 187.625 133.801 187.866C133.784 188.108 133.711 188.323 133.557 188.493C133.232 188.849 132.624 188.915 132.108 188.852C131.883 188.825 131.782 188.596 131.746 188.404C131.585 187.549 132.624 186.939 132.657 186.51C132.672 186.306 132.505 186.139 132.309 186.052C132.113 185.965 131.847 185.965 131.622 186.04C130.719 186.343 130.378 187.518 130.143 188.942C130.107 190.293 130.19 191.385 130.393 191.881C130.509 192.1 130.65 192.255 131.048 192.675" stroke="black" stroke-width="3" stroke-linecap="round"/>
<path d="M111.866 233.069C111.909 232.801 112.26 231.912 112.718 230.923C113.375 229.504 113.938 228.334 114.422 227.458C114.852 226.682 115.321 225.884 115.866 225.149C116.628 224.119 117.523 222.762 118.417 221.387C119.538 219.664 120.484 219.198 121.522 218.758C122.791 218.22 124.768 218.75 126.416 219.618C128.589 221.237 130.466 223.245 132.087 224.976C132.439 225.354 132.735 225.704 133.082 226.086" stroke="black" stroke-width="3" stroke-linecap="round"/>
<path d="M116.491 281.503C116.097 281.091 114.966 279.954 113.874 279.099C112.307 277.873 111.123 277.287 110.18 276.564C109.06 275.707 108.132 274.644 107.149 273.572C105.967 272.283 104.688 270.313 103.575 268.826C102.682 267.634 101.68 266.249 100.986 265.257C100.106 263.999 99.1894 262.06 99.1011 260.213C99.0464 259.067 101.16 259.246 104.216 259.203C106.235 259.174 107.728 260.108 108.849 260.461C110.106 260.857 111.365 261.54 112.436 262.172C112.694 262.324 112.88 262.575 113.065 262.476C114.946 261.473 116.829 256.37 119.718 252.861C121.061 251.23 122.081 250.071 122.911 249.251C123.81 248.364 125.609 246.941 126.823 245.938C127.908 245.04 129.692 244.145 131.056 243.63C132.155 243.216 133.48 243.276 134.533 243.451C135.267 243.572 135.08 244.929 135.027 245.829C134.906 247.871 132.929 250.179 130.256 253.863C127.094 258.222 125.117 260.363 124.386 261.562C124.234 261.812 124.052 262.046 124.104 262.186C124.432 263.057 128.685 262.127 131.364 262.388C132.532 262.501 133.644 263.645 134.603 264.542C135.652 265.524 136.579 267.323 137.116 268.855C137.542 270.069 137.61 271.429 137.715 272.646C137.903 274.826 137.666 278.152 137.153 279.653C136.548 281.428 134.525 282.813 131.509 284.81C129.653 285.644 127.992 286.095 127.408 286.186C127.104 286.225 126.784 286.249 126.109 286.344" stroke="black" stroke-width="3" stroke-linecap="round"/>
<path d="M79.5025 278.514C78.8972 279.659 77.0905 283.019 76.2283 285.077C74.9055 288.233 73.4448 292.661 72.884 296.08C71.9224 301.944 71.6629 306.473 71.5756 308.808C71.5108 310.541 71.3277 313.383 71.1129 315.744C70.8982 318.106 70.6378 319.9 70.4397 323.148C70.2416 326.396 70.1136 331.044 70.0613 334.023C70.1224 339.646 70.4718 340.959 70.7851 342.327C70.8808 342.763 71.0213 343.36 71.2713 344.469" stroke="black" stroke-width="3" stroke-linecap="round"/>
<path d="M71.2712 344.47C71.5806 344.553 72.6376 344.949 73.8224 345.624C74.928 346.253 77.8504 346.4 80.1127 345.965C81.4356 345.71 83.0532 344.204 84.3629 343.24C85.4581 342.433 87.0057 341.332 88.4871 340.208C91.1149 338.213 94.0788 334.227 96.1454 331.422C97.5661 329.493 98.7806 328.043 99.4974 327.004C100.378 325.727 101.998 323.311 103.331 321.184C105.036 318.465 106.904 315.706 109.592 312.105C111.463 309.599 113.374 306.585 114.367 305.21C115.136 304.142 115.842 302.799 116.901 301.006C117.869 299.368 118.471 298.406 119.265 297.075C119.981 295.876 120.608 294.802 121.749 292C122.432 290.076 122.94 288.278 123.124 287.692C123.212 287.394 123.291 287.095 123.649 286.182" stroke="black" stroke-width="3" stroke-linecap="round"/>
<path d="M91.1134 278.575C91.1134 278.645 91.1134 282.151 91.0918 287.919C91.0722 293.161 90.2906 296.195 89.7062 297.96C89.0448 299.958 88.3979 301.669 87.4589 304.51C86.9761 305.97 86.6713 306.94 86.5446 307.435C86.4998 307.61 86.858 307.631 87.1261 307.547C88.3035 307.179 89.2638 306.236 90.8551 305.01C94.5726 302.146 95.6778 300.575 96.9408 299.289C98.5315 297.67 100.789 294.603 102.339 292.728C104.008 290.71 104.979 289.73 106.083 288.596C107.949 286.678 111.042 284.032 112.048 283.218C112.33 283.005 112.637 282.802 112.929 282.637C113.222 282.471 113.49 282.351 114.368 282.011" stroke="black" stroke-width="3" stroke-linecap="round"/>
<path d="M143.23 266.349C144.791 266.349 148.692 266.519 152.07 267.573C156.765 269.038 160.503 271.6 162.605 272.916C165.602 274.792 167.937 275.98 169.735 277.229C172.223 278.956 176.599 282.697 178.682 284.909C180.069 286.382 182.571 290.149 184.343 293.075C184.939 294.055 185.331 294.831 185.547 295.495C185.649 295.836 185.738 296.184 185.913 297.48" stroke="black" stroke-width="3" stroke-linecap="round"/>
<path d="M186.29 298.224C186.198 298.634 185.487 300.336 184.079 302.816C183.278 304.226 182.365 305.043 180.828 306.491C179.582 307.665 177.682 309.147 175.038 310.94C173.203 312.184 170.195 313.818 164.169 316.758C160.753 318.424 156.68 320.547 154.899 321.379C152.859 322.333 150.803 323.33 147.624 324.87C144.926 326.177 141.756 327.637 139.369 328.76C137.273 329.746 135.68 330.509 132.979 331.62C131.49 332.231 130.144 332.504 128.875 332.858C126.948 333.397 124.136 334.043 121.866 334.4C120.747 334.611 118.718 334.785 116.267 334.81C115.307 334.774 114.923 334.637 114.128 334.321" stroke="black" stroke-width="3" stroke-linecap="round"/>
<path d="M142.406 290.114C143.666 290.069 146.814 290.133 148.781 290.796C153.002 292.618 154.959 293.82 155.91 294.696C156.53 295.323 157.429 296.319 158.794 297.947" stroke="black" stroke-width="3" stroke-linecap="round"/>
<path d="M114.125 321.059C114.547 320.99 116.013 320.356 120.831 317.175C124.857 314.515 132.02 309.623 137.284 306.341C142.547 303.059 145.676 301.508 148.953 300.186C159.289 296.695 160.183 296.559 160.769 296.451C161.065 296.383 161.359 296.291 161.885 296.181" stroke="black" stroke-width="3" stroke-linecap="round"/>
<path d="M422.206 262.506C421.812 262.372 420.526 261.474 419.373 260.406C417.717 258.873 415.62 256.577 414.29 255.333C412.859 253.993 411.597 252.508 410.474 251.153C409.289 249.517 407.358 246.056 405.786 242.827C405.522 242.266 405.395 241.971 405.19 241.574" stroke="black" stroke-width="3" stroke-linecap="round"/>
<path d="M405.594 242.426C405.472 242.052 404.87 240.756 403.769 239.03C402.571 237.149 401.981 235.11 401.46 233.405C400.495 230.244 400.231 228.131 399.763 226.061C398.532 220.605 398.097 216.476 397.488 212.044C396.837 207.313 398.239 199.692 398.747 198.307C399.445 196.404 400.543 193.402 401.109 191.894C401.622 190.528 402.907 188.269 403.812 186.294C404.547 184.691 405.821 182.692 407.014 181.283C408.125 179.97 410.241 178.637 412.365 176.838C414.833 174.749 416.913 173.438 418.136 172.75C419.323 172.082 420.697 171.55 422.029 170.851C423.678 169.987 425.304 169.12 426.561 168.388C427.914 167.599 430.007 167.078 431.512 166.675C432.957 166.288 434.225 165.695 435.521 165.273C437.158 164.739 438.639 164.559 440.261 164.371C442.27 164.354 444.666 164.427 445.424 164.42C445.787 164.415 446.105 164.407 446.432 164.399" stroke="black" stroke-width="3" stroke-linecap="round"/>
<path d="M446.593 164.674C447.643 164.747 450.266 164.812 451.893 164.747C452.72 164.713 454.374 164.626 458.01 164.768C463.891 164.997 468.664 165.59 470.752 166.089C473.452 166.734 477.886 168.799 482.61 171.236C484.934 172.435 486.028 173.445 488.522 175.13C490.804 176.671 493.113 178.404 494.436 179.539C495.854 180.756 499.065 186.312 501.877 191.008C504.281 194.998 506.215 199.021 508.321 203.51C508.664 204.296 508.858 204.822 508.985 205.849" stroke="black" stroke-width="3" stroke-linecap="round"/>
<path d="M508.985 205.849C509.033 206.189 509.463 207.493 510.172 208.934C511.171 210.965 511.678 213.639 512.475 218.696C512.88 221.267 512.643 224.393 512.547 227.584C512.408 232.208 511.812 233.554 510.924 236.037C510.293 237.802 508.638 240.733 505.475 245.548C504.278 247.371 503.209 248.199 500.901 250.29C498.455 252.093 496.424 253.126 494.558 253.938C493.813 254.242 493.48 254.329 492.748 254.748" stroke="black" stroke-width="3" stroke-linecap="round"/>
<path d="M492.748 254.748C492.12 254.704 490.103 255.042 487.301 256.186C485.593 256.884 483.069 257.831 480.169 258.617C477.733 259.277 476.222 258.998 474.084 259.054C471.486 259.122 469.232 258.924 467.124 259.182C466.656 259.27 466.301 259.354 465.963 259.44C465.624 259.526 465.315 259.612 464.695 260.018" stroke="black" stroke-width="3" stroke-linecap="round"/>
<path d="M441.83 164.185C441.701 163.509 441.406 162.897 440.772 162.388C436.35 158.835 426.609 161.122 425.82 161.608C424.392 162.488 423.686 164.761 423.35 168.272C423.246 169.352 423.793 170.086 424.236 170.779C424.629 171.396 425.386 171.711 426.248 171.922C428.052 172.366 429.368 171.17 429.93 170.672C430.199 170.434 430.247 170.049 430.127 169.698C429.858 168.907 428.815 168.255 427.644 167.561C424.193 165.518 419.51 166.712 415.967 167.884C413.97 168.544 412.6 169.641 411.673 170.514C410.798 171.337 410.475 172.451 410.283 173.472C410.088 174.514 410.261 175.396 410.591 176.048C411.318 177.479 413.257 177.94 415.688 178.259C416.521 178.369 417.119 177.919 417.682 177.494C418.967 176.525 419.269 175.135 419.276 174.212C419.28 173.799 419.026 173.515 418.575 173.233C415.065 171.037 408.283 172.17 405.517 172.89C402.824 173.591 401.025 175.843 399.092 177.89C397.131 179.966 396.646 182.264 396.204 187.511C395.992 190.019 397.418 192.089 398.382 193.225C398.6 193.484 399.036 193.416 399.355 193.288C400.886 192.678 400.982 190.573 400.95 189.727C400.918 188.881 400.044 188.347 399.239 187.983C398.399 187.604 397.183 187.515 395.886 187.549C393.849 187.602 391.872 192.107 389.951 196.876C387.959 201.822 388.992 207.222 390.06 209.519C391.373 211.225 392.959 212.429 395.764 213.142C396.808 213.27 398.232 213.381 399.699 213.495" stroke="black" stroke-width="3" stroke-linecap="round"/>
<path d="M465.433 160.722C467.37 160.874 471.674 161.367 472.228 161.887C472.934 162.548 472.856 164.486 472.593 166.66C472.409 168.183 471.465 169.078 470.622 169.765C469.072 171.032 467.324 170.911 466.864 170.725C465.148 170.032 471.698 167.102 474.102 166.283C477.8 165.023 482.857 166.689 486.309 168.5C487.913 169.34 488.605 170.797 489.077 172.036C490.275 175.187 489.15 179.303 488.195 181.827C486.157 187.212 483.017 188.858 481.915 189.521C480.521 190.36 485.412 187.387 488.26 187.122C494.574 186.534 496.629 188.394 498.53 189.929C500.898 191.841 501.263 194.076 501.822 196.9C503.075 203.235 501.414 207.296 499.789 210.569C498.26 213.645 495.798 214.632 495.244 214.759C495.006 214.814 494.852 214.418 494.936 214.069C495.137 213.241 496.072 212.639 496.839 212.169C497.517 211.753 498.608 211.739 499.79 211.827C500.31 211.866 500.64 212.12 500.923 212.539C502.673 215.127 501.779 219.059 501.064 221.383C499.59 226.173 496.043 228.417 493.106 230.491C492.575 230.867 492.337 230.491 492.406 230.191C492.779 228.573 494.961 227.945 496.598 227.64C497.042 227.558 497.536 227.655 497.924 227.827C499.533 228.539 499.851 233.203 499.753 240.798C499.706 244.492 497.324 247.937 495.289 250.072C494.885 250.495 494.269 250.749 493.884 250.748C493.498 250.747 493.288 250.397 493.248 250.052C493.084 248.654 494.721 247.457 496.009 246.389C496.655 245.853 497.651 245.66 498.897 245.497C500.493 245.287 501.759 245.821 502.33 246.521C502.968 247.303 502.676 251.955 502.367 258.37C502.041 261.704 501.571 263.603 501.035 265.318C500.798 266.028 500.633 266.414 500.463 266.81" stroke="black" stroke-width="3" stroke-linecap="round"/>
<path d="M478.249 162.82C478.251 162.797 478.281 162.358 478.483 161.53C478.587 161.105 478.97 160.765 479.53 160.486C484.337 158.097 492.432 160.973 493.986 162.433C496.963 165.23 497.056 169.081 497.524 173.801C498.032 178.917 496.235 181.32 495.111 183.044C493.991 184.763 500.474 178.619 505.109 176.773C507.447 175.842 512.329 176.303 517.864 176.741C521.548 177.033 523.374 178.721 524.972 180.101C526.548 181.463 526.962 184.389 527.03 186.981C527.053 187.845 526.789 188.487 526.431 189.098C525.604 190.512 522.272 192.308 517.359 194.391C515.856 195.028 514.664 194.943 513.799 194.789C512.361 194.532 513.251 191.658 513.799 190.247C514.456 188.559 516.549 187.544 518.354 186.658C520.512 185.599 526.879 186.074 532.04 187.566C534.359 188.236 535.536 191.15 536.243 193.13C537.336 196.193 535.889 201.191 534.842 203.502C533.598 206.25 528.635 209.404 526.649 210.634C525.471 211.364 530.46 208.937 533.77 208.514C539.002 207.846 540.373 209.54 541.681 210.659C542.873 211.68 543.371 213.297 543.645 216.281C543.954 219.654 539.756 224.912 536.796 227.683C534.742 229.605 532.033 230.238 531.609 230.192C531.12 230.14 532.028 229.13 532.533 228.728C533.054 228.314 534.028 227.928 535.434 227.609C536.935 227.269 538.256 227.813 539.042 228.309C540.207 229.044 540.151 231.209 539.872 235.671C539.747 237.663 537.843 240.435 534.638 244.769C532.832 247.21 530.203 249.786 527.557 252.171C522.409 256.812 517.997 259.461 515.209 260.843C512.734 262.071 511.034 262.196 510.553 261.984C509.862 261.68 510.49 260.388 510.887 259.698C511.274 259.025 512.073 258.549 512.971 258.164C513.413 257.974 513.907 258.018 514.273 258.248C516.753 259.807 514.746 265.426 514.093 267.134C513.563 268.52 512.375 269.515 510.888 270.421C510.504 270.575 510.174 270.627 509.787 270.639C509.4 270.651 508.966 270.621 508.079 270.129" stroke="black" stroke-width="3" stroke-linecap="round"/>
<path d="M499.054 179.999C499.791 180.137 502.852 181.079 505.463 182.784C510.31 185.95 512.479 190.838 513.509 193.249C514.845 196.379 514.407 202.166 514.083 204.884C513.866 206.702 511.511 208.313 509.058 209.768C507.626 210.618 506.279 210.712 505.742 210.622C505.554 210.591 505.776 210.152 506.116 209.915C507.84 208.708 511.075 209.443 513.39 210.019C515.654 210.583 517.134 212.803 519.275 216.04C520.733 218.244 520.157 221.763 519.371 223.869C518.62 225.882 516.17 226.68 513.856 227.628C513.22 227.888 512.505 227.983 512.24 227.857C511.976 227.73 512.161 227.318 512.618 226.987C514.828 225.383 517.742 226.115 519.798 226.863C521.391 227.443 521.278 230.791 521.098 236.133C521.019 238.486 520.075 240.302 519 242.364C517.47 245.297 514.639 248.58 511.832 251.486C510.01 253.371 508.575 253.938 507.823 254.125C507.521 254.2 507.347 253.817 507.43 253.41C507.829 251.466 509.61 250.861 510.96 250.24C511.58 249.955 512.492 249.997 513.554 250.142C515.499 250.408 516.221 252.548 516.922 254.612C517.382 255.968 517.202 259.483 516.738 264.234C516.043 271.339 509.736 274.332 507.317 275.712C504.135 277.528 500.613 277.596 499.699 277.435C499.304 277.366 499.142 276.995 499.056 276.663C498.97 276.33 498.989 275.964 499.168 275.569C499.348 275.174 499.688 274.761 500.022 274.507C500.605 274.062 501.766 274.097 503.249 274.254C505.872 274.534 506.809 276.698 507.494 277.946C507.829 278.557 507.827 279.398 507.642 280.293C507.08 281.124 506.161 281.766 505.182 282.166C504.735 282.333 504.388 282.424 503.496 282.562" stroke="black" stroke-width="3" stroke-linecap="round"/>
<path d="M421.242 203.662C421.219 203.661 420.805 203.632 420.095 203.419C418.289 202.879 418.453 199.013 418.506 197.138C418.516 196.774 418.798 196.544 419.065 196.39C419.622 196.069 420.449 196.155 421.22 196.285C421.871 196.395 422.303 197.069 422.739 197.902C423.306 198.984 423.35 200.542 423.187 201.919C423.121 202.474 422.86 202.698 422.593 202.878C422.044 203.248 421.226 203.29 420.43 203.154C419.735 203.035 419.446 202.255 419.217 201.564C418.921 200.67 418.999 199.441 419.183 198.363C419.299 197.679 420.369 197.579 421.331 197.474C422.182 197.382 422.894 197.668 423.407 198.088C424.494 198.979 424.043 200.552 423.858 201.354C423.563 202.634 421.516 202.175 420.646 201.972C420.247 201.879 420.043 201.487 419.93 201.045C419.817 200.603 419.829 200.043 419.988 199.695C420.147 199.348 420.452 199.23 420.832 199.187C421.212 199.145 421.657 199.182 421.964 199.362C422.271 199.542 422.426 199.864 422.494 200.243C422.561 200.623 422.536 201.05 422.382 201.343C422.229 201.636 421.946 201.781 421.681 201.766C421.417 201.751 421.178 201.573 421.054 201.262C420.931 200.951 420.93 200.514 421.087 200.292C421.244 200.069 421.56 200.073 422.243 200.736" stroke="black" stroke-width="3" stroke-linecap="round"/>
<path d="M463.357 205.428C463.334 205.426 463.074 205.149 462.686 204.558C462.313 203.989 462.556 202.617 462.72 201.042C462.828 200.014 463.375 199.495 463.922 199.179C464.559 198.811 465.383 198.95 466.029 199.095C466.349 199.167 466.59 199.433 466.764 199.745C467.133 200.407 467.063 201.541 466.899 202.721C466.777 203.597 466.039 204.128 465.278 204.54C463.492 205.505 461.429 204.636 460.872 204.216C460.243 203.741 460.182 202.634 460.306 201.618C460.399 200.86 461.183 200.452 461.888 200.119C462.541 199.81 463.414 199.884 464.252 200.059C464.628 200.138 464.83 200.449 464.995 200.751C465.332 201.368 465.334 202.566 465.144 203.916C465.064 204.477 464.707 204.718 464.397 204.849C464.087 204.98 463.755 204.977 463.463 204.849C462.863 204.584 462.606 203.847 462.506 203.079C462.393 202.216 462.778 201.361 463.361 200.801C463.647 200.525 464.178 200.633 464.524 200.761C464.87 200.889 465.083 201.126 465.22 201.419C465.356 201.711 465.411 202.052 465.382 202.37C465.353 202.688 465.239 202.973 464.981 203.161C464.406 203.582 463.53 203.512 462.814 203.411C462.47 203.363 462.203 203.146 461.994 202.886C461.559 202.345 461.535 201.509 461.728 200.807C461.816 200.489 462.216 200.395 462.546 200.338C462.876 200.282 463.209 200.302 463.496 200.447C463.783 200.592 464.014 200.861 464.393 201.186" stroke="black" stroke-width="3" stroke-linecap="round"/>
<path d="M427.384 223.931C427.782 223.958 429.145 224.217 431.653 224.701C437.867 225.9 441.235 224.418 443.519 223.963C444.187 223.831 444.833 223.803 445.283 223.936C447.209 224.507 442.982 229.171 441.949 230.541C440.944 231.873 439.686 232.847 438.004 233.896C436.541 234.809 434.737 235.01 431.984 234.855C430.089 234.747 429.343 232.475 428.722 230.673C428.135 228.965 427.697 227.338 427.482 225.81C427.454 225.471 427.437 225.149 427.418 224.819C427.399 224.489 427.378 224.16 427.16 223.177" stroke="black" stroke-width="3" stroke-linecap="round"/>
<path d="M420.314 263.776C419.717 263.986 417.536 265.141 405.081 275.429C399.587 279.968 394.092 284.861 390.531 287.418C387.916 289.3 386.832 290.345 386.158 291.154C385.806 291.517 385.437 291.786 384.202 292.163" stroke="black" stroke-width="3" stroke-linecap="round"/>
<path d="M322.059 150.021C322.042 150.56 322.52 152.637 323.371 154.54C324.266 156.54 324.216 158.914 324.174 162.392C324.07 171.073 322.7 175.012 322.295 178.184C321.668 183.09 323.104 185.564 324.256 187.612C325.435 189.705 328.509 190.384 330.918 191.211C331.864 191.536 333.775 191.687 336.106 191.68C339.078 191.671 340.499 186.586 341.46 184.351C342.349 182.285 342.475 177.949 342.083 174.758C341.78 172.296 340.021 170.558 338.068 168.083C336.24 165.765 333.831 164.71 330.877 163.399C328.435 162.315 326.635 161.544 325.105 160.253C324.47 159.426 324.007 158.418 323.764 157.344C323.686 156.826 323.7 156.362 323.675 155.52" stroke="black" stroke-width="3" stroke-linecap="round"/>
<path d="M328.603 191.055C328.684 191.623 329.579 193.676 331.502 196.972C332.772 199.15 334.347 202.077 335.681 205.595C337.382 210.154 340.129 218.309 342.687 226.392C343.611 229.293 343.778 229.757 344.146 230.697" stroke="black" stroke-width="3" stroke-linecap="round"/>
<path d="M341.8 186.362C341.802 186.325 341.648 188.747 341.898 194.903C342.252 203.634 344.696 210.144 345.682 213.973C347.751 222.774 348.134 225.513 348.577 228.335C348.754 229.45 348.836 229.92 349.054 230.566" stroke="black" stroke-width="3" stroke-linecap="round"/>
<path d="M345.071 244.177C345.195 242.405 344.937 234.321 344.415 229.627C344.341 228.96 344.314 228.48 344.514 228.098C344.713 227.716 345.147 227.447 345.783 227.335C347.224 227.079 348.494 227.651 349.211 228.362C350.326 230.403 352.118 235.612 353.215 239.458C353.381 240.05 353.534 240.529 353.784 241.537" stroke="black" stroke-width="3" stroke-linecap="round"/>
<path d="M352.459 228.018C353.478 228.016 358.694 229.319 364.908 232.782C368.178 234.605 368.771 237.432 369.313 239.952C368.923 244.6 368.055 245.967 367.432 246.811C367.131 247.224 366.858 247.608 366.562 248.22" stroke="black" stroke-width="3" stroke-linecap="round"/>
<path d="M342.991 233.673C342.984 233.775 342.764 234.245 342.327 235.36C341.887 237.023 341.308 238.879 340.988 240.253C341.023 240.766 341.457 240.903 342.636 241.095" stroke="black" stroke-width="3" stroke-linecap="round"/>
<path d="M365.538 249.291C365.411 250.071 365.02 252.648 364.427 259.56C364.385 261.323 364.52 262.458 364.642 263.285C364.764 264.111 364.869 264.595 364.978 265.093" stroke="black" stroke-width="3" stroke-linecap="round"/>
<path d="M345.108 243.077C345.045 243.983 345.133 246.552 346.615 250.027C348.839 255.242 351.118 260.465 352.968 264.659C354.354 267.801 356.936 273.678 359.452 280.891C360.831 285.179 361.898 288.386 362.699 290.766C363.17 292.264 363.773 294.351 364.484 296.933" stroke="black" stroke-width="3" stroke-linecap="round"/>
<path d="M362.442 255.135C362.404 255.683 363.422 259.295 364.769 262.482C365.22 263.548 366.241 265.544 367.991 268.862C373.704 277.562 378.657 283.851 380.33 285.27C381.337 286.087 382.665 287.103 384.369 288.47" stroke="black" stroke-width="3" stroke-linecap="round"/>
<path d="M364.827 297.295C364.806 297.898 365.908 301.271 370.081 309.136C373.263 315.134 375.189 317.075 377.381 319.297C378.177 320.104 379.748 320.391 381.63 320.47C383.884 320.565 387.952 316.979 393.738 312.487C395.962 310.42 397.394 309.042 398.199 308.346C398.6 308.006 398.988 307.694 400.303 306.461" stroke="black" stroke-width="3" stroke-linecap="round"/>
<path d="M416.326 287.933C415.65 288.196 412.718 290.657 409.594 294.869C408.714 296.056 408 297.638 406.468 301.605C404.936 305.573 402.721 311.955 400.557 320.421C398.393 328.887 396.347 339.244 395.191 346.025C394.035 352.806 393.832 355.699 393.817 357.405C393.802 359.111 393.982 359.542 394.168 359.987" stroke="black" stroke-width="3" stroke-linecap="round"/>
<path d="M471.421 264.719C471.994 265.154 475.407 267.524 480.349 271.698C484.968 275.6 489.816 282.606 493.235 286.524C499.91 294.176 503.209 296.509 507.518 300.777C516.58 309.754 517.838 312.362 519.215 314.261C520.382 315.87 520.028 320.162 517.814 324.319C516.795 326.231 513.417 328.794 509.899 332.48C506.382 336.166 502.271 340.615 498.369 345.229C486.446 360.421 484.701 363.229 484.321 364.173C484.12 364.635 483.905 365.064 483.597 365.815" stroke="black" stroke-width="3" stroke-linecap="round"/>
<path d="M480.636 357.588C480.401 360.955 479.625 369.645 477.716 377.343C476.978 380.319 475.936 382.368 474.92 383.777C474.513 384.342 473.947 384.278 473.521 384.138C471.771 383.563 471.183 381.115 470.685 378.561C470.565 377.079 470.828 372.571 471.441 366.204C471.75 363.554 472.056 362.085 472.404 360.138" stroke="black" stroke-width="3" stroke-linecap="round"/>
<path d="M467.773 302.557C468.403 303.184 470.908 306.055 472.547 307.981C474.206 309.93 478.092 315.457 480.217 318.92C480.758 319.854 481.529 321.194 482.659 323.14C483.305 324.213 484.097 325.46 485.232 327.223" stroke="black" stroke-width="3" stroke-linecap="round"/>
<path d="M486.734 321.927C486.615 323.38 485.8 327.673 480.802 339.822C476.579 350.086 474.72 357.253 474.24 359.027C473.883 360.224 473.594 361.206 473.257 362.337C473.059 362.945 472.806 363.623 472.45 364.692" stroke="black" stroke-width="3" stroke-linecap="round"/>
<path d="M474.059 313.021C473.953 314.53 473.913 319.363 474.247 327.997C474.146 332.024 473.762 338.212 473.295 342.432C472.827 346.652 472.287 348.717 471.668 351.57" stroke="black" stroke-width="3" stroke-linecap="round"/>
<path d="M462.691 84.4355C462.681 84.6754 461.973 86.7047 461.274 88.3178C461.079 88.7663 460.253 90.3765 459.035 93.0242C458.038 95.1913 457.388 97.7613 456.662 100.12C456.097 101.957 455.947 103.613 456.227 104.619C456.527 105.698 457.212 106.959 457.619 108.24C457.925 109.2 458.418 110.453 459.188 111.969C459.551 112.684 460.032 113.088 460.369 113.341C461.447 114.149 464.477 113.329 465.948 112.94C467.178 112.614 468.15 112.01 468.868 111.488C469.579 110.971 470.326 110.457 471.467 108.826C472.718 107.037 473.497 105.105 474.584 102.814C476.094 99.6333 477.416 95.9356 478.449 93.3767C479.505 90.7753 479.876 90.0581 480.161 89.5794C480.3 89.3539 480.428 89.1639 480.569 88.9094" stroke="black" stroke-width="3" stroke-linecap="round"/>
<path d="M480.908 88.7065C480.908 88.2436 481.119 86.7694 481.607 85.7604C482.178 84.5806 482.888 83.7084 483.544 82.9143C484.043 82.3101 484.402 81.7485 484.768 81.5133C485.946 80.7547 488.133 80.8308 489.473 80.533C490.686 80.2634 491.758 79.5569 493.05 78.8136C495.554 77.3728 497.396 74.9173 499.842 71.408C501.207 69.4487 501.568 67.7327 502.505 63.5393C503.449 59.3189 503.49 58.3067 503.517 55.1066C503.529 53.6277 502.859 52.3228 502.235 50.6722C501.685 49.2173 500.435 48.03 498.425 46.3206C497.308 45.37 495.693 44.4145 493.595 43.2238C489.122 40.685 486.083 40.1356 484.14 39.7333C483.523 39.6055 481.047 39.5027 476.83 39.5266C471.348 39.5576 470.426 40.744 467.586 41.6816C465.992 42.2077 464.997 42.973 463.706 43.8542C462.426 44.7284 461.834 45.4598 460.998 46.3036C460.024 47.2873 459.107 48.5904 458.267 50.0678C457.703 51.0591 457.102 52.035 456.415 53.5704C455.312 56.0355 454.931 57.3378 454.595 58.8931C454.129 61.0468 455.471 65.989 456.711 68.6922C457.271 69.9151 457.683 71.5857 458.042 72.8632C458.413 74.1823 459.253 75.8172 459.956 77.0408C460.521 78.025 461.721 79.1367 462.538 79.9605C463.17 80.5983 463.711 81.3724 463.88 82.3025C463.968 82.7884 463.541 83.6478 463.314 84.5892C463.234 84.9208 463.497 84.9931 463.755 85.0255C464.923 85.1721 465.935 85.264 468.213 85.7266C470.647 86.2208 473.778 87.0518 475.786 87.5459C476.394 87.7335 476.922 87.8976 477.539 88.0792C477.934 88.1951 478.498 88.3594 479.608 88.7903" stroke="black" stroke-width="3" stroke-linecap="round"/>
<path d="M463.417 87.8472C463.628 87.9299 464.574 88.4272 466.324 89.9559C466.883 90.444 468.761 92.5858 471.657 95.6974C472.765 96.9194 473.138 97.4166 473.388 97.7608C473.637 98.105 473.751 98.2812 473.919 98.8243" stroke="black" stroke-width="3" stroke-linecap="round"/>
<path d="M460.346 91.2784C460.503 91.422 461.313 92.2753 464.247 94.9216C465.759 96.3509 468.181 98.7186 469.514 100.026C470.848 101.333 471.02 101.509 471.425 101.899" stroke="black" stroke-width="3" stroke-linecap="round"/>
<path d="M458.918 96.5706C458.95 96.6019 459.113 96.7655 460.366 98.1993C463.573 101.87 465.776 104.618 466.099 105.133C466.577 105.797 467.117 106.505 467.669 107.168C467.966 107.503 468.296 107.833 468.667 108.23" stroke="black" stroke-width="3" stroke-linecap="round"/>
<path d="M455.273 103.632C456.052 103.612 457.991 103.716 460.447 104.745C462.546 105.682 466.375 107.459 468.453 108.41C470.53 109.36 470.74 109.43 471.344 109.851" stroke="black" stroke-width="3" stroke-linecap="round"/>
<path d="M466.177 84.1118C466.222 83.8546 466.722 82.724 467.395 81.4662C468.65 79.1169 469.048 77.6887 469.572 76.4927C470.228 74.9937 471.629 72.1127 472.015 70.719C472.441 69.1803 472.681 68.1742 473.015 66.2541C473.279 64.7377 473.512 61.4221 473.362 59.6881C473.323 59.2442 472.91 58.8716 472.547 58.511C472.226 58.1922 471.743 58.0518 471.184 57.9477C470.571 57.8335 470 58.0167 469.47 58.3869C468.023 59.3982 467.736 60.7581 467.414 62.5595C467.123 64.1872 467.479 65.4922 467.701 66.0341C468.112 67.0328 469.094 67.6716 470.506 68.3537C472.218 69.1808 475.023 69.3345 479.145 69.4706C481.558 69.5502 483.041 69.4085 483.587 69.156C484.055 68.9399 484.391 68.6421 484.669 68.2431C485.39 67.21 485.202 66.153 484.907 64.7756C484.676 63.6937 483.844 62.7223 483.163 62.0859C482.837 61.7812 482.033 61.7763 481.124 61.8245C479.975 61.8854 479.449 63.2062 478.7 64.9205C477.839 66.8897 477.345 68.6533 476.961 69.628C475.781 72.6244 475.037 75.784 474.48 77.6786C473.853 79.8364 473.055 82.5393 472.417 84.7028C472.184 85.5068 472.136 85.714 472.07 86.335" stroke="black" stroke-width="3" stroke-linecap="round"/>
<path d="M460.823 15.2144C460.823 15.2298 460.823 15.533 461.005 16.5365C461.552 18.3571 463.025 21.7749 464.749 25.321C465.376 26.5955 465.501 26.8038 465.765 27.1707" stroke="black" stroke-width="3" stroke-linecap="round"/>
<path d="M479.373 16.2628C479.373 16.2706 479.373 16.2783 479.373 17.875C479.373 19.4718 479.373 22.6573 479.392 24.453C479.411 26.2488 479.449 26.5581 479.55 27.103" stroke="black" stroke-width="3" stroke-linecap="round"/>
<path d="M499.858 22.0066C499.519 22.4217 498.521 23.6061 497.841 24.3206C497.539 24.6656 496.656 25.6831 495.503 27.0574C495.085 27.5872 495.005 27.7766 494.922 27.9718" stroke="black" stroke-width="3" stroke-linecap="round"/>
<path d="M523.5 39.2605C523.065 39.2605 521.617 39.4821 520.581 39.6927C519.318 39.9493 517.805 40.856 515.609 42.2224C515.161 42.493 514.943 42.6019 514.74 42.7198C514.536 42.8377 514.352 42.9613 513.993 43.1917" stroke="black" stroke-width="3" stroke-linecap="round"/>
<path d="M75.0812 63.4133C72.8387 63.4133 67.9303 62.8241 66.684 61.4645C62.6656 57.0812 66.0915 48.2607 67.4112 46.5897C68.8975 44.7075 73.1271 44.3383 77.6406 44.4229C79.5033 44.4578 80.4481 45.2079 81.2187 46.0438C85.2432 50.4087 84.1028 57.781 83.337 60.1345C82.5736 62.4804 79.4542 63.0248 77.0974 63.405C75.9192 63.5951 74.7478 63.5699 73.6356 63.1315C72.5234 62.693 71.4983 61.7885 70.7987 60.9254C66.9328 56.1558 69.3947 45.7804 71.5309 42.0279C73.4207 38.7083 78.375 37.7202 83.9291 36.7149C88.3031 35.9231 92.0736 36.8133 94.165 37.6259C96.1986 38.416 97.5952 40.2112 98.7952 41.8841C101.541 45.7113 100.461 53.24 98.3632 57.8729C96.2715 62.4919 90.4732 64.0656 85.6965 65.8699C83.3581 66.7531 79.7834 66.7383 75.926 66.605C73.2546 66.5127 71.71 64.5705 70.6498 62.9045C70.1473 62.1149 70.1099 61.2201 70.2912 60.4017C70.4725 59.5834 70.9742 58.8128 71.8627 58.4158C73.8573 57.5246 76.0756 58.2311 77.6624 58.8849C81.8463 60.6087 84.5549 66.74 86.9538 72.312C89.5775 78.406 88.5676 85.4319 86.5763 88.3023C84.0858 91.8923 73.8845 91.0315 67.7358 90.11C62.5457 89.3322 59.5701 83.746 56.9884 79.5034C55.3472 76.8063 55.3075 73.1341 55.5391 70.0353C55.6462 68.6018 56.5618 67.5732 57.4344 66.9463C59.095 65.753 61.2087 66.1269 62.705 66.8367C66.644 68.7054 64.5726 75.3431 63.3426 78.3556C61.9362 81.7998 56.8564 82.7105 52.7916 83.4548C50.8182 83.8162 48.2841 83.0742 45.7839 81.9743C42.1091 80.3577 41.6116 74.4969 40.8682 64.6287C40.7101 62.5295 41.0815 61.7086 41.5112 60.971C43.2731 57.9467 47.4565 57.4718 52.3336 57.3117C54.9612 57.2254 57.0187 59.0512 58.4257 60.9664C59.7692 62.7954 59.9377 65.0743 59.7502 66.8992C59.6637 67.7408 58.9219 68.2719 57.6378 68.6457C54.4652 69.5692 50.876 68.8359 48.3097 67.7129C44.4665 66.031 43.1146 61.4295 42.0105 57.3563C41.1449 54.1632 42.3419 51.1594 44.0246 49.505C46.0539 47.51 50.1051 47.8349 53.6038 48.0686C56.5263 48.2638 58.4432 50.2194 59.923 51.5208C60.6355 52.1475 61.0988 52.8882 60.9241 53.4323C60.7495 53.9765 59.879 54.3484 58.7722 54.3484C56.3188 54.3483 54.3753 52.9532 53.0195 51.3707C49.4888 47.2498 48.8194 42.5748 48.6002 33.5038C48.5534 31.5663 49.1366 30.8243 49.7099 30.1526C52.1157 27.3343 59.6487 27.2401 64.9396 27.8386C68.8909 28.2856 71.6025 34.663 72.3397 38.6743C72.496 39.525 71.6258 40.2238 70.6014 40.6399C68.2138 41.6096 65.589 41.0066 63.8929 40.2413C63.071 39.8704 62.612 39.0206 62.3346 38.0613C62.0571 37.1021 62.0479 35.9277 62.5376 35.1388C65.6311 30.1554 76.9823 33.8072 81.435 36.1754C85.2347 38.1963 86.7688 43.2152 86.9669 46.6479C87.0158 47.4944 85.9645 48.1337 85.1581 48.5702C83.5782 49.4252 81.7492 49.2598 80.4405 48.6766C79.7809 48.3827 79.7367 47.2137 80.0216 46.3782C81.2222 42.8588 86.6205 42.8863 93.8587 42.7635C96.3398 42.7214 98.2421 44.0926 99.9604 45.8341C102.387 48.2935 102.05 52.1468 101.849 55.4922C101.263 57.1387 99.7672 58.9569 97.3099 60.8787C95.956 61.8187 94.3849 62.6871 90.9213 63.9659" stroke="black" stroke-width="3" stroke-linecap="round"/>
<path d="M76.8887 117.443C77.5937 118.012 79.5589 121.08 81.8109 124.229C82.5016 125.195 83.4457 126.37 84.1895 127.294C84.9333 128.218 85.4762 128.835 85.8203 127.088C86.2931 121.213 86.6761 114.909 87.0966 111.299C87.2668 109.74 87.3492 108.733 87.6183 107.244" stroke="black" stroke-width="3" stroke-linecap="round"/>
<path d="M76.5672 116.709C76.5054 116.709 67.5686 116.656 51.3219 115.945C38.3413 115.377 29.3328 111.134 23.2645 108.163C15.4959 104.359 11.3431 96.7113 7.46878 85.1985C5.94396 80.6674 6.10131 67.5726 6.10041 50.4538C6.09988 40.5338 9.39457 35.3465 14.9672 28.2408C17.1983 25.3958 20.8276 23.3893 25.7004 20.8126C31.4407 17.7772 41.8713 15.8164 52.9018 13.8487C58.522 12.8461 68.6712 12.6606 82.4286 12.33C92.5846 12.086 101.371 16.0541 110.295 22.5333C115.155 26.0613 117.85 30.7052 120.353 34.6664C123.508 39.6579 125.738 49.4695 127.848 61.2834C130.437 75.773 125.642 82.9912 120.744 90.5672C116.822 96.6341 112.828 98.3372 108.456 100.636C102.47 102.653 99.1986 103.071 90.6556 106.213C88.8055 107.025 88.1071 107.486 86.7006 108.214" stroke="black" stroke-width="3" stroke-linecap="round"/>
<path d="M455.5 126.895C455.5 127.006 455.529 132.212 455.737 140.392C455.814 143.426 456.245 144.177 457.494 142.62C460.905 137.171 463.494 132.454 464.328 130.746C464.798 129.745 465.365 128.473 466.474 126.214" stroke="black" stroke-width="3" stroke-linecap="round"/>
<path d="M455.549 127.178C452.648 127.178 442.799 125.742 434.863 121.326C428.628 117.856 424.326 112.829 420.943 109.086C416.689 104.378 413.305 97.5438 410.504 90.6441C408.127 84.7858 407.666 72.2096 407.813 56.0657C407.904 46.0072 411.191 40.5111 414.899 35.0858C420.782 26.4779 431.873 18.6603 442.535 11.4296C451.507 5.34444 459.272 3.44804 470.141 2.17906C478.353 1.22018 492.199 1.37139 501.711 2.04639C516.171 3.07257 526.285 9.21428 535.369 14.8683C541.467 18.6646 545.152 23.5364 548.994 29.9539C553.841 38.0472 556.328 50.8382 558.166 64.139C560.289 79.4963 556.421 84.5816 552.612 90.6789C549.614 95.4805 544.518 99.6292 538.829 103.908C531.93 109.097 519.546 114.472 504.935 119.95C487.846 126.356 479.796 124.863 474.443 125.43C473.59 125.544 472.708 125.653 471.785 125.827C470.862 126.002 469.925 126.239 466.979 126.92" stroke="black" stroke-width="3" stroke-linecap="round"/>
</svg>
