<svg width="679" height="216" viewBox="0 0 679 216" fill="none" xmlns="http://www.w3.org/2000/svg">
<path d="M155.539 145.334C155.662 146.004 156.891 148.465 159.086 151.085C161.114 153.506 161.936 156.549 163.552 158.807C165.458 161.47 166.945 164.975 167.657 168.711C168.197 171.541 168.35 173.869 168.884 175.169C169.478 176.616 171.283 177.709 173.105 178.693C174.553 179.475 176.009 179.351 177.258 178.86C178.702 178.292 179.212 176.487 179.553 175.167C180.379 171.968 176.531 168.282 173.812 166.475C173.195 166.065 172.414 166.274 172.014 166.718C169.021 170.04 172.299 177.47 173.507 180.346C173.718 181.015 173.858 181.722 173.973 182.487C174.088 183.252 174.174 184.054 174.262 186.393" stroke="#E6BEF7" stroke-opacity="0.5" stroke-width="48" stroke-linecap="round"/>
<path d="M80.4082 181.543C79.5967 181.178 76.7951 178.719 75.3244 174.663C72.802 167.707 75.8709 162.065 77.6752 159.996C78.6361 158.894 80.2047 158.661 81.4298 158.766C82.7274 158.878 83.2423 160.821 83.9021 162.107C84.2209 162.729 84.7285 163.16 85.4674 162.294C90.1759 156.778 90.4936 153.025 91.5858 152.124C92.8496 152.08 94.0772 152.731 94.904 152.983C95.1945 152.787 95.223 151.935 95.2523 151.056" stroke="#7BEDCA" stroke-opacity="0.5" stroke-width="48" stroke-linecap="round"/>
<path d="M24 24C24 24.0323 24 24.0645 24.025 34.0649C24.0501 44.0652 24.1002 64.0327 24.2723 75.4062C24.4444 86.7797 24.7371 88.9543 24.9964 104.947C25.2557 120.939 25.4727 150.683 25.9121 182.981" stroke="#FFE8B4" stroke-opacity="0.5" stroke-width="48" stroke-linecap="round"/>
<path d="M114.624 125.668C114.624 123.688 115.225 118.451 128.738 98.2025C134.833 89.0691 138.174 84.7495 140.918 80.6736C152.377 63.6523 155.729 58.1682 158.539 52.4957C159.602 50.4696 161.127 47.8983 163.796 43.6628C165.362 41.2232 167.358 38.1944 169.748 34.7644" stroke="#D5D5D5" stroke-opacity="0.5" stroke-width="24" stroke-linecap="round"/>
<path d="M91.2849 29.322C91.2849 33.1851 91.6032 42.1627 93.5059 46.7702C98.2449 58.246 102.309 63.1255 108.137 69.0782C109.482 70.486 110.432 71.603 111.563 73.2447C112.694 74.8864 113.977 77.0191 115.97 79.9134" stroke="#D5D5D5" stroke-opacity="0.5" stroke-width="24" stroke-linecap="round"/>
<path d="M144.282 118.965L143.128 119.687" stroke="#D5D5D5" stroke-opacity="0.5" stroke-width="24" stroke-linecap="round"/>
<path d="M77.7415 158.193C77.2741 158.193 75.9015 158.367 74.6821 159.186C73.3685 160.068 72.5629 161.399 71.8763 162.456C71.3183 163.315 70.4773 165.041 69.962 166.417C69.583 167.429 69.2304 169.066 68.9157 170.811C68.3817 173.773 68.7563 176.785 69.2555 178.789C69.8235 181.069 70.4666 182.06 71.5132 183.833C73.8876 187.856 75.242 188.467 76.2882 189.096C77.063 189.561 78.4611 189.671 80.9065 189.779C82.9251 189.868 84.3576 189.732 85.1034 189.356C87.4989 188.147 88.6177 186.798 89.4731 185.876C90.0015 185.307 90.5419 184.627 90.9883 183.956C91.8213 182.704 92.4223 180.663 92.6493 179.754C93.0124 178.299 93.1204 176.096 93.5069 173.294C93.8167 171.048 93.5878 169.221 93.3087 168.066C92.6575 165.369 91.2808 162.777 90.2037 161.028C89.5826 160.019 88.8022 159.719 87.9965 159.272C87.2853 158.878 86.5394 158.768 85.7292 158.6C84.6988 158.388 83.6483 158.122 82.7161 158.009C81.5081 157.863 79.1219 157.764 77.619 157.823C77.4727 157.856 77.3293 157.899 77.1914 157.962C77.0535 158.026 76.9255 158.108 76.7908 158.281" stroke="#15245F" stroke-width="6" stroke-linecap="round"/>
<path d="M91.6553 137.805C91.6761 137.805 92.0667 137.21 93.7045 134.694C97.0684 129.526 100.153 125.089 101.866 122.767C102.725 121.604 103.473 120.369 106.713 114.845C109.952 109.321 115.638 99.5204 118.638 94.3125C121.808 88.8108 122.804 86.7785 124.558 83.48C128.092 76.8369 130.461 72.2231 131.66 70.0295C133.08 67.431 134.695 64.3184 135.928 61.9369C136.611 60.6188 138.89 56.9605 142.19 51.5443C144.657 47.4936 146.318 45.3393 149.921 39.3597C154.121 32.3909 155.317 29.0502 156.614 28.0441C157.655 27.2367 158.568 26.2369 159.047 24.838C159.805 22.6223 161.331 20.0056 162.169 18.6351C163.134 17.058 164.437 15.681 165.626 14.4167C166.115 13.8364 166.537 13.2647 166.966 12.6713C167.188 12.3767 167.418 12.0953 167.655 11.8054" stroke="#15245F" stroke-width="6" stroke-linecap="round"/>
<path d="M169.138 10.8054C169.561 10.953 170.902 11.8478 171.981 12.8669C172.911 13.7449 173.615 15.6082 174.749 18.4475C176.496 22.8186 176.892 25.1762 177.223 27.299C177.567 29.5102 177.604 32.2607 177.655 37.0038C177.687 39.9889 176.559 42.5072 176.202 44.4376C175.766 46.7987 174.958 49.7179 174.136 51.9044C173.442 53.7527 172.153 55.8583 171.139 57.7072C170.164 59.4838 168.501 62.2508 167.134 64.4557C165.09 67.7524 164.059 69.7364 161.728 73.1959C160.132 75.5642 159.246 76.8183 157.899 78.9235C154.158 84.7712 152.979 85.8765 151.915 87.2511C151.001 88.4334 149.967 89.6344 149.118 91.0154C148.9 91.4059 148.666 91.8406 148.43 92.2983C148.195 92.7559 147.966 93.2234 147.655 93.8054" stroke="#15245F" stroke-width="6" stroke-linecap="round"/>
<path d="M147.655 93.8054C147.466 94.1403 146.687 95.2897 145.409 97.1568C143.315 100.217 141.9 102.754 140.879 104.535C140.119 105.861 139.218 107.86 138.207 110.161C137.541 111.677 136.814 113.283 136.164 114.849C135.614 116.174 134.655 117.869 131.199 123.931C128.531 128.608 128.095 130.065 126.844 132.57C125.604 135.052 124.73 137.083 122.746 140.685C120.396 144.954 119.12 146.787 118.25 148.168C117.217 149.808 116.026 151.531 115.015 152.93C113.682 154.776 112.79 156.171 111.811 157.47C111.346 158.191 110.887 158.878 110.459 159.471C110.253 159.774 110.07 160.079 109.655 160.805" stroke="#15245F" stroke-width="6" stroke-linecap="round"/>
<path d="M108.655 161.531C108.611 163.969 108.297 170.916 107.908 174.075C107.388 178.302 105.713 184.592 105.136 186.474C104.304 189.185 102.239 193.253 100.522 196.296C99.1331 198.757 97.5201 200.431 95.697 202.331C94.5356 203.541 93.019 204.355 90.582 205.911C87.8337 207.665 86.0736 208.042 84.4014 208.66C82.3473 209.42 79.3168 209.795 74.6666 209.805C72.4577 209.81 70.8068 208.663 68.507 207.4C66.8187 206.472 65.8076 205.273 64.7467 204.272C63.5728 203.166 62.492 201.722 60.994 199.919C59.7993 198.481 58.5212 196.534 57.7581 195.062C56.8283 193.269 55.7762 190.434 54.8579 188.079C54.2169 186.436 53.6709 184.063 53.2302 181.624C52.887 179.724 52.888 177.703 52.7599 174.678C52.3819 165.753 53.092 163.243 53.8711 159.728C54.9233 154.979 55.9932 153.777 56.8733 151.939C58.0687 149.442 60.4769 147.144 64.2181 142.921C65.8903 141.033 67.6568 139.738 68.8056 139.125C70.0058 138.485 71.3159 137.704 72.504 137.068C73.6946 136.43 75.0629 136.07 78.5921 135.388C85.763 134.002 87.8136 135.426 89.4786 136.175C89.8989 136.376 90.2507 136.541 90.5798 136.669C90.9089 136.796 91.2047 136.882 91.5094 136.97" stroke="#15245F" stroke-width="6" stroke-linecap="round"/>
<path d="M97.6553 130.164C98.085 130.164 99.8528 129.795 101.22 129.323C102.4 128.916 105.563 128.715 107.78 128.844C109.071 128.919 110.22 129.46 111.575 129.858C113.841 130.525 114.948 131.304 116.25 132.35C117.777 133.577 119.117 135.035 120.31 136.009C120.813 136.423 121.359 136.975 121.903 137.656C122.157 137.997 122.365 138.328 122.655 138.805" stroke="#15245F" stroke-width="6" stroke-linecap="round"/>
<path d="M176.894 157.809C177.75 157.781 179.987 157.902 180.813 158.217C181.401 158.441 181.908 158.843 183.491 159.741C184.307 160.204 184.854 160.797 185.309 161.385C186.122 162.437 186.877 163.25 187.625 164.453C188.844 166.411 188.85 167.951 189.027 168.769C189.194 169.54 189.414 170.214 189.56 171.187C189.848 173.121 189.447 176.282 188.861 178.405C188.388 180.122 187.847 181.275 187.47 182.146C186.853 183.571 185.488 185.434 184.239 187.32C183.396 188.594 182.08 189.486 180.83 190.209C179.959 190.712 178.152 190.768 176.174 190.804C173.576 190.853 170.983 188.999 170.246 188.502C169.572 188.047 168.852 187.383 167.843 186.56C167.014 185.884 166.373 185.096 165.88 184.486C165.084 183.501 164.256 181.629 163.78 179.741C163.614 179.079 163.652 177.071 163.679 174.234C163.703 171.716 164.224 170.03 165.198 167.694C165.794 166.265 166.95 164.591 168.693 162.343C170.145 160.469 171.538 159.627 172.283 159.25C173.563 158.602 174.754 158.551 175.624 158.441C175.844 158.415 176.095 158.396 176.302 158.375C176.509 158.355 176.664 158.334 176.988 158.285" stroke="#15245F" stroke-width="6" stroke-linecap="round"/>
<path d="M129.655 129.805C129.938 130.108 130.975 131.372 131.805 132.455C132.691 133.609 133.237 134.848 133.951 136.282C134.922 138.23 135.505 139.271 136.155 140.248C136.811 141.235 137.764 142.285 138.639 143.352C139.493 144.392 140.576 146.489 141.388 147.993C142.299 149.681 142.847 150.981 143.371 152.328C143.9 153.689 144.245 155.108 144.805 156.205C145.313 157.348 145.824 158.504 146.263 159.718C146.374 160.034 146.49 160.348 146.655 160.805" stroke="#15245F" stroke-width="6" stroke-linecap="round"/>
<path d="M146.655 160.805C146.735 161.185 146.956 162.493 147.098 163.907C147.217 165.101 147.167 168.511 147.229 172.767C147.285 176.561 148.228 180.278 148.572 182.041C148.98 184.134 149.345 185.287 149.735 186.637C150.157 188.102 150.689 189.31 151.389 190.821C152.158 192.483 152.919 193.932 153.721 195.278C154.738 196.984 156.093 198.822 157.005 199.888C158.646 201.805 159.547 202.352 161.083 203.426C163.241 204.937 165.606 205.906 166.819 206.423C168.706 207.226 171.724 207.861 174.212 208.559C176.898 209.311 180.254 208.179 182.499 207.349C183.842 206.852 184.932 206.308 186.308 205.711C188.285 204.854 190.564 202.592 191.689 201.464C192.749 200.401 193.657 199.1 195.27 196.688C196.517 194.822 197.554 193.365 198.99 190.902C199.791 189.53 200.427 188.26 201.21 187.142C202.407 185.432 203.625 182.851 204.146 181.413C205.191 178.526 204.328 173.372 204.185 171.666C204.061 170.175 203.718 168.789 203.55 167.573C203.394 166.393 203.199 165.194 202.899 163.802C202.817 163.472 202.741 163.196 202.431 162.285" stroke="#15245F" stroke-width="6" stroke-linecap="round"/>
<path d="M202.655 162.805C202.655 162.391 202.516 161.142 201.479 158.688C200.628 156.673 200.032 155.522 199.047 153.646C197.978 151.611 196.877 150.885 195.77 149.706C194.876 148.753 193.811 147.389 192.695 146.095C191.763 145.014 190.407 144.001 189.316 143.215C188.194 142.406 186.933 141.453 185.729 140.914C184.544 140.384 183.343 140.303 180.686 139.917C179.236 139.706 177.785 139.394 176.397 139.229C175.256 139.093 173.997 138.893 172.978 138.732C171.813 138.484 170.697 138.139 169.648 137.902C169.353 137.861 169.009 137.834 168.655 137.805" stroke="#15245F" stroke-width="6" stroke-linecap="round"/>
<path d="M168.655 137.805C168.373 137.688 167.452 136.991 166.606 136.233C165.71 135.43 164.39 133.918 163.215 132.45C161.677 130.528 160.551 129.112 159.875 127.922C159.234 126.793 158.722 125.822 158.082 124.649C157.421 123.44 156.813 122.389 155.859 120.279C154.608 117.514 152.126 114.573 151.025 113.028C150.319 112.038 149.845 110.95 148.373 108.053C147.588 106.509 146.824 105.177 146.224 104.211C145.897 103.748 145.539 103.271 145.193 102.765C145.033 102.503 144.902 102.229 144.655 101.805" stroke="#15245F" stroke-width="6" stroke-linecap="round"/>
<path d="M127.655 72.8054C127.49 72.4414 126.69 71.1188 125.104 68.5147C124.036 66.7599 122.976 64.6037 122.115 63.1928C120.973 61.3216 119.867 59.1227 117.036 54.9758C116.037 53.5125 113.944 49.7755 110.934 44.5012C109.181 41.4296 108.075 39.1411 106.664 36.6886C104.224 32.4456 102.836 30.0418 101.526 27.923C100.295 25.9312 99.6377 24.642 98.6742 23.0576C97.9114 21.8032 97.1627 20.6144 95.5575 17.5531C94.6995 15.9165 93.7318 14.4256 92.7522 12.9172C92.1009 11.8968 91.6269 11.1428 91.2966 10.6412C91.1405 10.3885 91.0078 10.1393 90.6553 9.80542" stroke="#15245F" stroke-width="6" stroke-linecap="round"/>
<path d="M89.9815 9.80542C89.7354 9.9413 88.935 10.5712 88.0321 11.3705C86.9896 12.2935 85.7171 13.3925 84.9535 14.3878C84.2226 15.3404 83.779 16.9736 82.9389 19.3307C82.2553 21.2487 81.0301 25.0156 80.4929 27.0527C80.0602 28.6932 79.8685 29.9106 79.7259 31.9406C79.4945 35.236 79.893 36.6745 80.0448 39.1247C80.2415 42.2976 80.6778 43.6534 80.95 44.949C81.1987 46.1322 81.8161 47.1601 82.3944 48.1845C83.0184 49.2898 83.4544 50.4987 84.132 51.8315C84.713 52.9741 85.5459 54.679 87.159 58.0799C87.9824 59.816 89.7811 63.8479 90.9762 66.4267C91.8091 67.5148 92.725 68.921 92.725 68.921C92.725 68.921 93.3393 70.6763 93.6553 70.8054" stroke="#15245F" stroke-width="6" stroke-linecap="round"/>
<path d="M92.6553 67.8054C92.6857 68.2073 93.7925 69.3041 94.3985 70.8717C95.3718 73.3892 96.4336 75.2923 97.1654 76.6855C98.3062 78.8573 98.989 79.9624 100.892 83.028C102.132 85.0245 103.493 87.2708 104.399 88.5726C105.252 89.7971 106.254 90.5611 107.997 92.1661C109.845 93.8685 110.871 94.9868 112 96.3203C112.312 96.7166 112.635 97.1539 112.878 97.5039C113.121 97.8538 113.273 98.1031 113.655 98.8054" stroke="#15245F" stroke-width="6" stroke-linecap="round"/>
<path d="M134.655 136.805C135.333 136.251 136.99 134.957 137.913 134.263C139.461 133.099 140.79 132.158 143.269 130.938C147.267 128.972 150.222 128.057 150.649 127.952C152.006 127.495 154.382 126.846 158.168 126.805C158.936 126.829 159.101 126.881 159.655 127.081" stroke="#15245F" stroke-width="6" stroke-linecap="round"/>
<path d="M43.6553 10.8054V205.805" stroke="#15245F" stroke-width="6" stroke-linecap="round"/>
<path d="M5.65527 208.805H43.6553" stroke="#15245F" stroke-width="6" stroke-linecap="round"/>
<path d="M5.65527 9.80542V205.805" stroke="#15245F" stroke-width="6" stroke-linecap="round"/>
<path d="M4.65527 9.80542H43.6553" stroke="#15245F" stroke-width="6" stroke-linecap="round"/>
<path d="M28.6553 26.8054H43.6553" stroke="#15245F" stroke-width="6" stroke-linecap="round"/>
<path d="M30.6553 47.8054H43.6553" stroke="#15245F" stroke-width="6" stroke-linecap="round"/>
<path d="M29.6553 72.8054C29.6651 72.8054 29.6749 72.8054 31.9531 72.8734C34.2313 72.9413 38.7777 73.0772 43.6553 74.8054" stroke="#15245F" stroke-width="6" stroke-linecap="round"/>
<path d="M30.6553 96.8054C30.696 96.8054 30.7368 96.8054 32.8263 96.8054C34.9158 96.8054 39.0528 96.8054 43.6553 96.8054" stroke="#15245F" stroke-width="6" stroke-linecap="round"/>
<path d="M28.6553 121.805C28.686 121.805 28.7168 121.805 30.8455 121.805C32.9743 121.805 37.2002 121.805 39.5219 121.805C41.8436 121.805 42.1331 121.805 42.6553 121.805" stroke="#15245F" stroke-width="6" stroke-linecap="round"/>
<path d="M28.6553 143.805C28.6796 143.805 28.7039 143.805 31.0166 143.805C33.3294 143.805 37.9298 143.805 42.6553 143.805" stroke="#15245F" stroke-width="6" stroke-linecap="round"/>
<path d="M29.6553 168.805C29.6751 168.805 29.6949 168.805 31.7672 168.805C33.8394 168.805 37.9635 168.805 42.6553 168.805" stroke="#15245F" stroke-width="6" stroke-linecap="round"/>
<path d="M29.6553 192.805C29.6655 192.805 29.6756 192.805 31.5687 192.805C33.4617 192.805 37.2373 192.805 39.3406 192.805C41.444 192.805 41.7607 192.805 42.6553 192.805" stroke="#15245F" stroke-width="6" stroke-linecap="round"/>
<path d="M250.542 48.26V94.8054H240.701V48.26H250.542ZM268.138 74.6236V94.8054H258.456V59.8963H267.684V66.0554H268.093C268.866 64.0251 270.161 62.4191 271.979 61.2372C273.797 60.0403 276.002 59.4418 278.593 59.4418C281.017 59.4418 283.131 59.9721 284.934 61.0327C286.737 62.0933 288.138 63.6084 289.138 65.5781C290.138 67.5327 290.638 69.866 290.638 72.5781V94.8054H280.956V74.3054C280.972 72.1691 280.426 70.5024 279.32 69.3054C278.214 68.0933 276.691 67.4872 274.752 67.4872C273.449 67.4872 272.297 67.7675 271.297 68.3281C270.312 68.8888 269.54 69.7069 268.979 70.7827C268.434 71.8433 268.153 73.1236 268.138 74.6236ZM316.837 59.8963V67.1691H295.814V59.8963H316.837ZM300.587 51.5327H310.269V84.0781C310.269 84.9721 310.405 85.6691 310.678 86.1691C310.951 86.6539 311.33 86.9948 311.814 87.1918C312.314 87.3888 312.89 87.4872 313.542 87.4872C313.996 87.4872 314.451 87.4494 314.905 87.3736C315.36 87.2827 315.708 87.2145 315.951 87.1691L317.473 94.3736C316.989 94.5251 316.307 94.6994 315.428 94.8963C314.549 95.1085 313.481 95.2372 312.223 95.2827C309.89 95.3736 307.845 95.063 306.087 94.3509C304.345 93.6388 302.989 92.5327 302.019 91.0327C301.049 89.5327 300.572 87.6388 300.587 85.3509V51.5327ZM338.678 95.4872C335.087 95.4872 331.996 94.76 329.405 93.3054C326.83 91.8357 324.845 89.76 323.451 87.0781C322.057 84.3812 321.36 81.1918 321.36 77.51C321.36 73.9191 322.057 70.7675 323.451 68.0554C324.845 65.3433 326.807 63.2297 329.337 61.7145C331.883 60.1994 334.867 59.4418 338.292 59.4418C340.595 59.4418 342.739 59.813 344.723 60.5554C346.723 61.2827 348.466 62.3812 349.951 63.8509C351.451 65.3206 352.617 67.1691 353.451 69.3963C354.284 71.6084 354.701 74.1994 354.701 77.1691V79.8281H325.223V73.8281H345.587C345.587 72.4342 345.284 71.1994 344.678 70.1236C344.072 69.0478 343.231 68.2069 342.155 67.6009C341.095 66.9797 339.86 66.6691 338.451 66.6691C336.981 66.6691 335.678 67.01 334.542 67.6918C333.42 68.3584 332.542 69.26 331.905 70.3963C331.269 71.5175 330.943 72.7675 330.928 74.1463V79.8509C330.928 81.5781 331.246 83.0706 331.883 84.3281C332.534 85.5857 333.451 86.5554 334.633 87.2372C335.814 87.9191 337.216 88.26 338.837 88.26C339.913 88.26 340.898 88.1084 341.792 87.8054C342.686 87.5024 343.451 87.0478 344.087 86.4418C344.723 85.8357 345.208 85.0933 345.542 84.2145L354.496 84.8054C354.042 86.9569 353.11 88.8357 351.701 90.4418C350.307 92.0327 348.504 93.2751 346.292 94.1691C344.095 95.0478 341.557 95.4872 338.678 95.4872ZM361.019 94.8054V59.8963H370.405V65.9872H370.769C371.405 63.8206 372.473 62.1842 373.973 61.0781C375.473 59.9569 377.201 59.3963 379.155 59.3963C379.64 59.3963 380.163 59.4266 380.723 59.4872C381.284 59.5478 381.776 59.6312 382.201 59.7372V68.3281C381.746 68.1918 381.117 68.0706 380.314 67.9645C379.511 67.8584 378.776 67.8054 378.11 67.8054C376.686 67.8054 375.413 68.116 374.292 68.7372C373.186 69.3433 372.307 70.1918 371.655 71.2827C371.019 72.3736 370.701 73.6312 370.701 75.0554V94.8054H361.019ZM416.252 69.8509L407.388 70.3963C407.237 69.6388 406.911 68.9569 406.411 68.3509C405.911 67.7297 405.252 67.2372 404.434 66.8736C403.631 66.4948 402.669 66.3054 401.547 66.3054C400.047 66.3054 398.782 66.6236 397.752 67.26C396.722 67.8812 396.206 68.7145 396.206 69.76C396.206 70.5933 396.54 71.2978 397.206 71.8736C397.873 72.4494 399.017 72.9115 400.638 73.26L406.956 74.5327C410.35 75.2297 412.881 76.3509 414.547 77.8963C416.214 79.4418 417.047 81.4721 417.047 83.9872C417.047 86.2751 416.373 88.2827 415.025 90.01C413.691 91.7372 411.858 93.0857 409.525 94.0554C407.206 95.01 404.532 95.4872 401.502 95.4872C396.881 95.4872 393.199 94.5251 390.456 92.6009C387.729 90.6615 386.131 88.0251 385.661 84.6918L395.184 84.1918C395.472 85.6009 396.169 86.6766 397.275 87.4191C398.381 88.1463 399.797 88.51 401.525 88.51C403.222 88.51 404.585 88.1842 405.616 87.5327C406.661 86.866 407.191 86.01 407.206 84.9645C407.191 84.0857 406.82 83.366 406.093 82.8054C405.366 82.2297 404.244 81.7903 402.729 81.4872L396.684 80.2827C393.275 79.6009 390.737 78.4191 389.07 76.7372C387.419 75.0554 386.593 72.9115 386.593 70.3054C386.593 68.063 387.199 66.1312 388.411 64.51C389.638 62.8888 391.358 61.6388 393.57 60.76C395.797 59.8812 398.403 59.4418 401.388 59.4418C405.797 59.4418 409.267 60.3736 411.797 62.2372C414.343 64.1009 415.828 66.6388 416.252 69.8509ZM439.053 95.4872C435.462 95.4872 432.371 94.76 429.78 93.3054C427.205 91.8357 425.22 89.76 423.826 87.0781C422.432 84.3812 421.735 81.1918 421.735 77.51C421.735 73.9191 422.432 70.7675 423.826 68.0554C425.22 65.3433 427.182 63.2297 429.712 61.7145C432.258 60.1994 435.242 59.4418 438.667 59.4418C440.97 59.4418 443.114 59.813 445.098 60.5554C447.098 61.2827 448.841 62.3812 450.326 63.8509C451.826 65.3206 452.992 67.1691 453.826 69.3963C454.659 71.6084 455.076 74.1994 455.076 77.1691V79.8281H425.598V73.8281H445.962C445.962 72.4342 445.659 71.1994 445.053 70.1236C444.447 69.0478 443.606 68.2069 442.53 67.6009C441.47 66.9797 440.235 66.6691 438.826 66.6691C437.356 66.6691 436.053 67.01 434.917 67.6918C433.795 68.3584 432.917 69.26 432.28 70.3963C431.644 71.5175 431.318 72.7675 431.303 74.1463V79.8509C431.303 81.5781 431.621 83.0706 432.258 84.3281C432.909 85.5857 433.826 86.5554 435.008 87.2372C436.189 87.9191 437.591 88.26 439.212 88.26C440.288 88.26 441.273 88.1084 442.167 87.8054C443.061 87.5024 443.826 87.0478 444.462 86.4418C445.098 85.8357 445.583 85.0933 445.917 84.2145L454.871 84.8054C454.417 86.9569 453.485 88.8357 452.076 90.4418C450.682 92.0327 448.879 93.2751 446.667 94.1691C444.47 95.0478 441.932 95.4872 439.053 95.4872ZM477.167 95.4872C473.591 95.4872 470.515 94.7297 467.939 93.2145C465.379 91.6842 463.409 89.563 462.03 86.8509C460.667 84.1388 459.985 81.0175 459.985 77.4872C459.985 73.9115 460.674 70.7751 462.053 68.0781C463.447 65.366 465.424 63.2524 467.985 61.7372C470.545 60.2069 473.591 59.4418 477.121 59.4418C480.167 59.4418 482.833 59.9948 485.121 61.1009C487.409 62.2069 489.22 63.76 490.553 65.76C491.886 67.76 492.621 70.1084 492.758 72.8054H483.621C483.364 71.063 482.682 69.6615 481.576 68.6009C480.485 67.5251 479.053 66.9872 477.28 66.9872C475.78 66.9872 474.47 67.3963 473.348 68.2145C472.242 69.0175 471.379 70.1918 470.758 71.7372C470.136 73.2827 469.826 75.1539 469.826 77.3509C469.826 79.5781 470.129 81.4721 470.735 83.0327C471.356 84.5933 472.227 85.7827 473.348 86.6009C474.47 87.4191 475.78 87.8281 477.28 87.8281C478.386 87.8281 479.379 87.6009 480.258 87.1463C481.151 86.6918 481.886 86.0327 482.462 85.1691C483.053 84.2903 483.439 83.2372 483.621 82.01H492.758C492.606 84.6766 491.879 87.0251 490.576 89.0554C489.288 91.0706 487.508 92.6463 485.235 93.7827C482.962 94.9191 480.273 95.4872 477.167 95.4872ZM517.525 59.8963V67.1691H496.502V59.8963H517.525ZM501.275 51.5327H510.956V84.0781C510.956 84.9721 511.093 85.6691 511.366 86.1691C511.638 86.6539 512.017 86.9948 512.502 87.1918C513.002 87.3888 513.578 87.4872 514.229 87.4872C514.684 87.4872 515.138 87.4494 515.593 87.3736C516.047 87.2827 516.396 87.2145 516.638 87.1691L518.161 94.3736C517.676 94.5251 516.994 94.6994 516.116 94.8963C515.237 95.1085 514.169 95.2372 512.911 95.2827C510.578 95.3736 508.532 95.063 506.775 94.3509C505.032 93.6388 503.676 92.5327 502.706 91.0327C501.737 89.5327 501.259 87.6388 501.275 85.3509V51.5327ZM523.831 94.8054V59.8963H533.513V94.8054H523.831ZM528.695 55.3963C527.256 55.3963 526.021 54.9191 524.991 53.9645C523.975 52.9948 523.468 51.8357 523.468 50.4872C523.468 49.1539 523.975 48.01 524.991 47.0554C526.021 46.0857 527.256 45.6009 528.695 45.6009C530.134 45.6009 531.362 46.0857 532.377 47.0554C533.407 48.01 533.922 49.1539 533.922 50.4872C533.922 51.8357 533.407 52.9948 532.377 53.9645C531.362 54.9191 530.134 55.3963 528.695 55.3963ZM557.042 95.4872C553.511 95.4872 550.458 94.7372 547.883 93.2372C545.322 91.7221 543.345 89.616 541.951 86.9191C540.557 84.2069 539.86 81.063 539.86 77.4872C539.86 73.8812 540.557 70.7297 541.951 68.0327C543.345 65.3206 545.322 63.2145 547.883 61.7145C550.458 60.1994 553.511 59.4418 557.042 59.4418C560.572 59.4418 563.617 60.1994 566.178 61.7145C568.754 63.2145 570.739 65.3206 572.133 68.0327C573.526 70.7297 574.223 73.8812 574.223 77.4872C574.223 81.063 573.526 84.2069 572.133 86.9191C570.739 89.616 568.754 91.7221 566.178 93.2372C563.617 94.7372 560.572 95.4872 557.042 95.4872ZM557.087 87.9872C558.693 87.9872 560.034 87.5327 561.11 86.6236C562.186 85.6994 562.996 84.4418 563.542 82.8509C564.102 81.26 564.383 79.4494 564.383 77.4191C564.383 75.3888 564.102 73.5781 563.542 71.9872C562.996 70.3963 562.186 69.1388 561.11 68.2145C560.034 67.2903 558.693 66.8281 557.087 66.8281C555.466 66.8281 554.102 67.2903 552.996 68.2145C551.905 69.1388 551.08 70.3963 550.519 71.9872C549.973 73.5781 549.701 75.3888 549.701 77.4191C549.701 79.4494 549.973 81.26 550.519 82.8509C551.08 84.4418 551.905 85.6994 552.996 86.6236C554.102 87.5327 555.466 87.9872 557.087 87.9872ZM590.201 74.6236V94.8054H580.519V59.8963H589.746V66.0554H590.155C590.928 64.0251 592.223 62.4191 594.042 61.2372C595.86 60.0403 598.064 59.4418 600.655 59.4418C603.08 59.4418 605.193 59.9721 606.996 61.0327C608.799 62.0933 610.201 63.6084 611.201 65.5781C612.201 67.5327 612.701 69.866 612.701 72.5781V94.8054H603.019V74.3054C603.034 72.1691 602.489 70.5024 601.383 69.3054C600.276 68.0933 598.754 67.4872 596.814 67.4872C595.511 67.4872 594.36 67.7675 593.36 68.3281C592.375 68.8888 591.602 69.7069 591.042 70.7827C590.496 71.8433 590.216 73.1236 590.201 74.6236ZM630.286 95.4645C628.059 95.4645 626.074 95.0781 624.331 94.3054C622.589 93.5175 621.21 92.3585 620.195 90.8281C619.195 89.2827 618.695 87.3585 618.695 85.0554C618.695 83.116 619.051 81.4872 619.763 80.1691C620.475 78.8509 621.445 77.7903 622.672 76.9872C623.9 76.1842 625.294 75.5781 626.854 75.1691C628.43 74.76 630.081 74.4721 631.809 74.3054C633.839 74.0933 635.475 73.8963 636.718 73.7145C637.96 73.5175 638.862 73.2297 639.422 72.8509C639.983 72.4721 640.263 71.9115 640.263 71.1691V71.0327C640.263 69.5933 639.809 68.4797 638.9 67.6918C638.006 66.9039 636.733 66.51 635.081 66.51C633.339 66.51 631.953 66.8963 630.922 67.6691C629.892 68.4266 629.21 69.3812 628.877 70.5327L619.922 69.8054C620.377 67.6842 621.271 65.8509 622.604 64.3054C623.937 62.7448 625.657 61.5478 627.763 60.7145C629.884 59.866 632.339 59.4418 635.127 59.4418C637.066 59.4418 638.922 59.6691 640.695 60.1236C642.483 60.5781 644.066 61.2827 645.445 62.2372C646.839 63.1918 647.937 64.4191 648.741 65.9191C649.544 67.4039 649.945 69.1842 649.945 71.26V94.8054H640.763V89.9645H640.491C639.93 91.0554 639.18 92.0175 638.241 92.8509C637.301 93.6691 636.172 94.313 634.854 94.7827C633.536 95.2372 632.013 95.4645 630.286 95.4645ZM633.059 88.7827C634.483 88.7827 635.741 88.5024 636.831 87.9418C637.922 87.366 638.778 86.5933 639.4 85.6236C640.021 84.6539 640.331 83.5554 640.331 82.3281V78.6236C640.028 78.8206 639.612 79.0024 639.081 79.1691C638.566 79.3206 637.983 79.4645 637.331 79.6009C636.68 79.7221 636.028 79.8357 635.377 79.9418C634.725 80.0327 634.134 80.116 633.604 80.1918C632.468 80.3584 631.475 80.6236 630.627 80.9872C629.778 81.3509 629.119 81.8433 628.65 82.4645C628.18 83.0706 627.945 83.8281 627.945 84.7372C627.945 86.0554 628.422 87.063 629.377 87.76C630.347 88.4418 631.574 88.7827 633.059 88.7827ZM667.138 48.26V94.8054H657.456V48.26H667.138ZM257.201 171.805H240.701V125.26H257.337C262.019 125.26 266.049 126.192 269.428 128.055C272.807 129.904 275.405 132.563 277.223 136.033C279.057 139.502 279.973 143.654 279.973 148.487C279.973 153.336 279.057 157.502 277.223 160.987C275.405 164.472 272.792 167.146 269.383 169.01C265.989 170.874 261.928 171.805 257.201 171.805ZM250.542 163.374H256.792C259.701 163.374 262.148 162.858 264.133 161.828C266.133 160.783 267.633 159.169 268.633 156.987C269.648 154.79 270.155 151.957 270.155 148.487C270.155 145.048 269.648 142.237 268.633 140.055C267.633 137.874 266.14 136.268 264.155 135.237C262.17 134.207 259.723 133.692 256.814 133.692H250.542V163.374ZM302.991 172.487C299.4 172.487 296.309 171.76 293.718 170.305C291.142 168.836 289.157 166.76 287.763 164.078C286.369 161.381 285.672 158.192 285.672 154.51C285.672 150.919 286.369 147.768 287.763 145.055C289.157 142.343 291.119 140.23 293.65 138.715C296.195 137.199 299.18 136.442 302.604 136.442C304.907 136.442 307.051 136.813 309.036 137.555C311.036 138.283 312.778 139.381 314.263 140.851C315.763 142.321 316.93 144.169 317.763 146.396C318.597 148.608 319.013 151.199 319.013 154.169V156.828H289.536V150.828H309.9C309.9 149.434 309.597 148.199 308.991 147.124C308.384 146.048 307.544 145.207 306.468 144.601C305.407 143.98 304.172 143.669 302.763 143.669C301.294 143.669 299.991 144.01 298.854 144.692C297.733 145.358 296.854 146.26 296.218 147.396C295.581 148.518 295.256 149.768 295.241 151.146V156.851C295.241 158.578 295.559 160.071 296.195 161.328C296.847 162.586 297.763 163.555 298.945 164.237C300.127 164.919 301.528 165.26 303.15 165.26C304.225 165.26 305.21 165.108 306.104 164.805C306.998 164.502 307.763 164.048 308.4 163.442C309.036 162.836 309.521 162.093 309.854 161.215L318.809 161.805C318.354 163.957 317.422 165.836 316.013 167.442C314.619 169.033 312.816 170.275 310.604 171.169C308.407 172.048 305.869 172.487 302.991 172.487ZM354.377 146.851L345.513 147.396C345.362 146.639 345.036 145.957 344.536 145.351C344.036 144.73 343.377 144.237 342.559 143.874C341.756 143.495 340.794 143.305 339.672 143.305C338.172 143.305 336.907 143.624 335.877 144.26C334.847 144.881 334.331 145.715 334.331 146.76C334.331 147.593 334.665 148.298 335.331 148.874C335.998 149.449 337.142 149.911 338.763 150.26L345.081 151.533C348.475 152.23 351.006 153.351 352.672 154.896C354.339 156.442 355.172 158.472 355.172 160.987C355.172 163.275 354.498 165.283 353.15 167.01C351.816 168.737 349.983 170.086 347.65 171.055C345.331 172.01 342.657 172.487 339.627 172.487C335.006 172.487 331.324 171.525 328.581 169.601C325.854 167.661 324.256 165.025 323.786 161.692L333.309 161.192C333.597 162.601 334.294 163.677 335.4 164.419C336.506 165.146 337.922 165.51 339.65 165.51C341.347 165.51 342.71 165.184 343.741 164.533C344.786 163.866 345.316 163.01 345.331 161.965C345.316 161.086 344.945 160.366 344.218 159.805C343.491 159.23 342.369 158.79 340.854 158.487L334.809 157.283C331.4 156.601 328.862 155.419 327.195 153.737C325.544 152.055 324.718 149.911 324.718 147.305C324.718 145.063 325.324 143.131 326.536 141.51C327.763 139.889 329.483 138.639 331.695 137.76C333.922 136.881 336.528 136.442 339.513 136.442C343.922 136.442 347.392 137.374 349.922 139.237C352.468 141.101 353.953 143.639 354.377 146.851ZM361.269 171.805V136.896H370.951V171.805H361.269ZM366.133 132.396C364.693 132.396 363.458 131.919 362.428 130.965C361.413 129.995 360.905 128.836 360.905 127.487C360.905 126.154 361.413 125.01 362.428 124.055C363.458 123.086 364.693 122.601 366.133 122.601C367.572 122.601 368.799 123.086 369.814 124.055C370.845 125.01 371.36 126.154 371.36 127.487C371.36 128.836 370.845 129.995 369.814 130.965C368.799 131.919 367.572 132.396 366.133 132.396ZM394.434 185.624C391.297 185.624 388.608 185.192 386.366 184.328C384.138 183.48 382.366 182.321 381.047 180.851C379.729 179.381 378.873 177.73 378.479 175.896L387.434 174.692C387.706 175.389 388.138 176.04 388.729 176.646C389.32 177.252 390.1 177.737 391.07 178.101C392.055 178.48 393.252 178.669 394.661 178.669C396.767 178.669 398.502 178.154 399.866 177.124C401.244 176.108 401.934 174.404 401.934 172.01V165.624H401.525C401.1 166.593 400.464 167.51 399.616 168.374C398.767 169.237 397.676 169.942 396.343 170.487C395.009 171.033 393.419 171.305 391.57 171.305C388.949 171.305 386.562 170.699 384.411 169.487C382.275 168.26 380.57 166.389 379.297 163.874C378.04 161.343 377.411 158.146 377.411 154.283C377.411 150.328 378.055 147.025 379.343 144.374C380.631 141.722 382.343 139.737 384.479 138.419C386.631 137.101 388.987 136.442 391.547 136.442C393.502 136.442 395.138 136.775 396.456 137.442C397.775 138.093 398.835 138.911 399.638 139.896C400.456 140.866 401.085 141.821 401.525 142.76H401.888V136.896H411.502V172.146C411.502 175.116 410.775 177.601 409.32 179.601C407.866 181.601 405.85 183.101 403.275 184.101C400.714 185.116 397.767 185.624 394.434 185.624ZM394.638 164.033C396.199 164.033 397.517 163.646 398.593 162.874C399.684 162.086 400.517 160.965 401.093 159.51C401.684 158.04 401.979 156.283 401.979 154.237C401.979 152.192 401.691 150.419 401.116 148.919C400.54 147.404 399.706 146.23 398.616 145.396C397.525 144.563 396.199 144.146 394.638 144.146C393.047 144.146 391.706 144.578 390.616 145.442C389.525 146.29 388.699 147.472 388.138 148.987C387.578 150.502 387.297 152.252 387.297 154.237C387.297 156.252 387.578 157.995 388.138 159.465C388.714 160.919 389.54 162.048 390.616 162.851C391.706 163.639 393.047 164.033 394.638 164.033ZM428.888 151.624V171.805H419.206V136.896H428.434V143.055H428.843C429.616 141.025 430.911 139.419 432.729 138.237C434.547 137.04 436.752 136.442 439.343 136.442C441.767 136.442 443.881 136.972 445.684 138.033C447.487 139.093 448.888 140.608 449.888 142.578C450.888 144.533 451.388 146.866 451.388 149.578V171.805H441.706V151.305C441.722 149.169 441.176 147.502 440.07 146.305C438.964 145.093 437.441 144.487 435.502 144.487C434.199 144.487 433.047 144.768 432.047 145.328C431.062 145.889 430.29 146.707 429.729 147.783C429.184 148.843 428.903 150.124 428.888 151.624ZM474.013 171.805V125.26H483.854V163.692H503.809V171.805H474.013ZM520.098 172.465C517.871 172.465 515.886 172.078 514.144 171.305C512.401 170.518 511.023 169.358 510.008 167.828C509.008 166.283 508.508 164.358 508.508 162.055C508.508 160.116 508.864 158.487 509.576 157.169C510.288 155.851 511.258 154.79 512.485 153.987C513.712 153.184 515.106 152.578 516.667 152.169C518.242 151.76 519.894 151.472 521.621 151.305C523.651 151.093 525.288 150.896 526.53 150.715C527.773 150.518 528.674 150.23 529.235 149.851C529.795 149.472 530.076 148.911 530.076 148.169V148.033C530.076 146.593 529.621 145.48 528.712 144.692C527.818 143.904 526.545 143.51 524.894 143.51C523.151 143.51 521.765 143.896 520.735 144.669C519.705 145.427 519.023 146.381 518.689 147.533L509.735 146.805C510.189 144.684 511.083 142.851 512.417 141.305C513.75 139.745 515.47 138.548 517.576 137.715C519.697 136.866 522.151 136.442 524.939 136.442C526.879 136.442 528.735 136.669 530.508 137.124C532.295 137.578 533.879 138.283 535.258 139.237C536.651 140.192 537.75 141.419 538.553 142.919C539.356 144.404 539.758 146.184 539.758 148.26V171.805H530.576V166.965H530.303C529.742 168.055 528.992 169.018 528.053 169.851C527.114 170.669 525.985 171.313 524.667 171.783C523.348 172.237 521.826 172.465 520.098 172.465ZM522.871 165.783C524.295 165.783 525.553 165.502 526.644 164.942C527.735 164.366 528.591 163.593 529.212 162.624C529.833 161.654 530.144 160.555 530.144 159.328V155.624C529.841 155.821 529.424 156.002 528.894 156.169C528.379 156.321 527.795 156.465 527.144 156.601C526.492 156.722 525.841 156.836 525.189 156.942C524.538 157.033 523.947 157.116 523.417 157.192C522.28 157.358 521.288 157.624 520.439 157.987C519.591 158.351 518.932 158.843 518.462 159.465C517.992 160.071 517.758 160.828 517.758 161.737C517.758 163.055 518.235 164.063 519.189 164.76C520.159 165.442 521.386 165.783 522.871 165.783ZM547.451 171.805V125.26H557.133V142.76H557.428C557.852 141.821 558.466 140.866 559.269 139.896C560.087 138.911 561.148 138.093 562.451 137.442C563.769 136.775 565.405 136.442 567.36 136.442C569.905 136.442 572.254 137.108 574.405 138.442C576.557 139.76 578.276 141.752 579.564 144.419C580.852 147.071 581.496 150.396 581.496 154.396C581.496 158.29 580.867 161.578 579.61 164.26C578.367 166.927 576.67 168.949 574.519 170.328C572.383 171.692 569.989 172.374 567.337 172.374C565.458 172.374 563.86 172.063 562.542 171.442C561.239 170.821 560.17 170.04 559.337 169.101C558.504 168.146 557.867 167.184 557.428 166.215H556.996V171.805H547.451ZM556.928 154.351C556.928 156.427 557.216 158.237 557.792 159.783C558.367 161.328 559.201 162.533 560.292 163.396C561.383 164.245 562.708 164.669 564.269 164.669C565.845 164.669 567.178 164.237 568.269 163.374C569.36 162.495 570.186 161.283 570.746 159.737C571.322 158.177 571.61 156.381 571.61 154.351C571.61 152.336 571.33 150.563 570.769 149.033C570.208 147.502 569.383 146.305 568.292 145.442C567.201 144.578 565.86 144.146 564.269 144.146C562.693 144.146 561.36 144.563 560.269 145.396C559.193 146.23 558.367 147.411 557.792 148.942C557.216 150.472 556.928 152.275 556.928 154.351Z" fill="#15245F"/>
</svg>
