<svg width="679" height="215" viewBox="0 0 679 215" fill="none" xmlns="http://www.w3.org/2000/svg">
<path d="M155.539 145.334C155.662 146.004 156.891 148.465 159.086 151.085C161.114 153.506 161.936 156.549 163.552 158.807C165.458 161.47 166.945 164.975 167.657 168.711C168.197 171.541 168.35 173.869 168.884 175.169C169.478 176.616 171.283 177.709 173.105 178.693C174.553 179.475 176.009 179.351 177.258 178.86C178.702 178.292 179.212 176.487 179.553 175.167C180.379 171.968 176.531 168.282 173.812 166.475C173.195 166.065 172.414 166.274 172.014 166.718C169.021 170.04 172.299 177.47 173.507 180.346C173.718 181.015 173.858 181.722 173.973 182.487C174.088 183.252 174.174 184.054 174.262 186.393" stroke="#E6BEF7" stroke-opacity="0.5" stroke-width="48" stroke-linecap="round"/>
<path d="M80.4082 181.543C79.5967 181.178 76.7951 178.719 75.3244 174.663C72.802 167.707 75.8709 162.065 77.6752 159.996C78.6361 158.894 80.2047 158.661 81.4298 158.766C82.7274 158.878 83.2423 160.821 83.9021 162.107C84.2209 162.729 84.7285 163.16 85.4674 162.294C90.1759 156.778 90.4936 153.025 91.5858 152.124C92.8496 152.08 94.0772 152.731 94.904 152.983C95.1945 152.787 95.223 151.935 95.2523 151.056" stroke="#7BEDCA" stroke-opacity="0.5" stroke-width="48" stroke-linecap="round"/>
<path d="M24 24C24 24.0323 24 24.0645 24.025 34.0649C24.0501 44.0652 24.1002 64.0327 24.2723 75.4062C24.4444 86.7797 24.7371 88.9543 24.9964 104.947C25.2557 120.939 25.4727 150.683 25.9121 182.981" stroke="#FFE8B4" stroke-opacity="0.5" stroke-width="48" stroke-linecap="round"/>
<path d="M114.624 125.668C114.624 123.688 115.225 118.451 128.738 98.2025C134.833 89.0691 138.174 84.7495 140.918 80.6736C152.377 63.6523 155.729 58.1682 158.539 52.4957C159.602 50.4696 161.127 47.8983 163.796 43.6628C165.362 41.2232 167.358 38.1944 169.748 34.7644" stroke="#D5D5D5" stroke-opacity="0.5" stroke-width="24" stroke-linecap="round"/>
<path d="M91.2849 29.322C91.2849 33.1851 91.6032 42.1627 93.5059 46.7702C98.2449 58.246 102.309 63.1255 108.137 69.0782C109.482 70.486 110.432 71.603 111.563 73.2447C112.694 74.8864 113.977 77.0191 115.97 79.9134" stroke="#D5D5D5" stroke-opacity="0.5" stroke-width="24" stroke-linecap="round"/>
<path d="M144.282 118.965L143.128 119.687" stroke="#D5D5D5" stroke-opacity="0.5" stroke-width="24" stroke-linecap="round"/>
<path d="M77.7415 158.193C77.2741 158.193 75.9015 158.367 74.6821 159.186C73.3685 160.068 72.5629 161.399 71.8763 162.456C71.3183 163.315 70.4773 165.041 69.962 166.417C69.583 167.429 69.2304 169.066 68.9157 170.811C68.3817 173.773 68.7563 176.785 69.2555 178.789C69.8235 181.069 70.4666 182.06 71.5132 183.833C73.8876 187.856 75.242 188.467 76.2882 189.096C77.063 189.561 78.4611 189.671 80.9065 189.779C82.9251 189.868 84.3576 189.732 85.1034 189.356C87.4989 188.147 88.6177 186.798 89.4731 185.876C90.0015 185.307 90.5419 184.627 90.9883 183.956C91.8213 182.704 92.4223 180.663 92.6493 179.754C93.0124 178.299 93.1204 176.096 93.5069 173.294C93.8167 171.048 93.5878 169.221 93.3087 168.066C92.6575 165.369 91.2808 162.777 90.2037 161.028C89.5826 160.019 88.8022 159.719 87.9965 159.272C87.2853 158.878 86.5394 158.768 85.7292 158.6C84.6988 158.388 83.6483 158.122 82.7161 158.009C81.5081 157.863 79.1219 157.764 77.619 157.823C77.4727 157.856 77.3293 157.899 77.1914 157.962C77.0535 158.026 76.9255 158.108 76.7908 158.281" stroke="#FCFCFC" stroke-width="6" stroke-linecap="round"/>
<path d="M91.6553 137.805C91.6761 137.805 92.0667 137.21 93.7045 134.694C97.0684 129.526 100.153 125.089 101.866 122.767C102.725 121.604 103.473 120.369 106.713 114.845C109.952 109.321 115.638 99.5204 118.638 94.3125C121.808 88.8108 122.804 86.7785 124.558 83.48C128.092 76.8369 130.461 72.2231 131.66 70.0295C133.08 67.431 134.695 64.3184 135.928 61.9369C136.611 60.6188 138.89 56.9605 142.19 51.5443C144.657 47.4936 146.318 45.3393 149.921 39.3597C154.121 32.3909 155.317 29.0502 156.614 28.0441C157.655 27.2367 158.568 26.2369 159.047 24.838C159.805 22.6223 161.331 20.0056 162.169 18.6351C163.134 17.058 164.437 15.681 165.626 14.4167C166.115 13.8364 166.537 13.2647 166.966 12.6713C167.188 12.3767 167.418 12.0953 167.655 11.8054" stroke="#FCFCFC" stroke-width="6" stroke-linecap="round"/>
<path d="M169.138 10.8054C169.561 10.953 170.902 11.8478 171.981 12.8669C172.911 13.7449 173.615 15.6082 174.749 18.4475C176.496 22.8186 176.892 25.1762 177.223 27.299C177.567 29.5102 177.604 32.2607 177.655 37.0038C177.687 39.9889 176.559 42.5072 176.202 44.4376C175.766 46.7987 174.958 49.7179 174.136 51.9044C173.442 53.7527 172.153 55.8583 171.139 57.7072C170.164 59.4838 168.501 62.2508 167.134 64.4557C165.09 67.7524 164.059 69.7364 161.728 73.1959C160.132 75.5642 159.246 76.8183 157.899 78.9235C154.158 84.7712 152.979 85.8765 151.915 87.2511C151.001 88.4334 149.967 89.6344 149.118 91.0154C148.9 91.4059 148.666 91.8406 148.43 92.2983C148.195 92.7559 147.966 93.2234 147.655 93.8054" stroke="#FCFCFC" stroke-width="6" stroke-linecap="round"/>
<path d="M147.655 93.8054C147.466 94.1403 146.687 95.2897 145.409 97.1568C143.315 100.217 141.9 102.754 140.879 104.535C140.119 105.861 139.218 107.86 138.207 110.161C137.541 111.677 136.814 113.283 136.164 114.849C135.614 116.174 134.655 117.869 131.199 123.931C128.531 128.608 128.095 130.065 126.844 132.57C125.604 135.052 124.73 137.083 122.746 140.685C120.396 144.954 119.12 146.787 118.25 148.168C117.217 149.808 116.026 151.531 115.015 152.93C113.682 154.776 112.79 156.171 111.811 157.47C111.346 158.191 110.887 158.878 110.459 159.471C110.253 159.774 110.07 160.079 109.655 160.805" stroke="#FCFCFC" stroke-width="6" stroke-linecap="round"/>
<path d="M108.655 161.531C108.611 163.969 108.297 170.916 107.908 174.075C107.388 178.302 105.713 184.592 105.136 186.474C104.304 189.185 102.239 193.253 100.522 196.296C99.1331 198.757 97.5201 200.431 95.697 202.331C94.5356 203.541 93.019 204.355 90.582 205.911C87.8337 207.665 86.0736 208.042 84.4014 208.66C82.3473 209.42 79.3168 209.795 74.6666 209.805C72.4577 209.81 70.8068 208.663 68.507 207.4C66.8187 206.472 65.8076 205.273 64.7467 204.272C63.5728 203.166 62.492 201.722 60.994 199.919C59.7993 198.481 58.5212 196.534 57.7581 195.062C56.8283 193.269 55.7762 190.434 54.8579 188.079C54.2169 186.436 53.6709 184.063 53.2302 181.624C52.887 179.724 52.888 177.703 52.7599 174.678C52.3819 165.753 53.092 163.243 53.8711 159.728C54.9233 154.979 55.9932 153.777 56.8733 151.939C58.0687 149.442 60.4769 147.144 64.2181 142.921C65.8903 141.033 67.6568 139.738 68.8056 139.125C70.0058 138.485 71.3159 137.704 72.504 137.068C73.6946 136.43 75.0629 136.07 78.5921 135.388C85.763 134.002 87.8136 135.426 89.4786 136.175C89.8989 136.376 90.2507 136.541 90.5798 136.669C90.9089 136.796 91.2047 136.882 91.5094 136.97" stroke="#FCFCFC" stroke-width="6" stroke-linecap="round"/>
<path d="M97.6553 130.164C98.085 130.164 99.8528 129.795 101.22 129.323C102.4 128.916 105.563 128.715 107.78 128.844C109.071 128.919 110.22 129.46 111.575 129.858C113.841 130.525 114.948 131.304 116.25 132.35C117.777 133.577 119.117 135.035 120.31 136.009C120.813 136.423 121.359 136.975 121.903 137.656C122.157 137.997 122.365 138.328 122.655 138.805" stroke="#FCFCFC" stroke-width="6" stroke-linecap="round"/>
<path d="M176.894 157.809C177.75 157.781 179.987 157.902 180.813 158.217C181.401 158.441 181.908 158.843 183.491 159.741C184.307 160.204 184.854 160.797 185.309 161.385C186.122 162.437 186.877 163.25 187.625 164.453C188.844 166.411 188.85 167.951 189.027 168.769C189.194 169.54 189.414 170.214 189.56 171.187C189.848 173.121 189.447 176.282 188.861 178.405C188.388 180.122 187.847 181.275 187.47 182.146C186.853 183.571 185.488 185.434 184.239 187.32C183.396 188.594 182.08 189.486 180.83 190.209C179.959 190.712 178.152 190.768 176.174 190.804C173.576 190.853 170.983 188.999 170.246 188.502C169.572 188.047 168.852 187.383 167.843 186.56C167.014 185.884 166.373 185.096 165.88 184.486C165.084 183.501 164.256 181.629 163.78 179.741C163.614 179.079 163.652 177.071 163.679 174.234C163.703 171.716 164.224 170.03 165.198 167.694C165.794 166.265 166.95 164.591 168.693 162.343C170.145 160.469 171.538 159.627 172.283 159.25C173.563 158.602 174.754 158.551 175.624 158.441C175.844 158.415 176.095 158.396 176.302 158.375C176.509 158.355 176.664 158.334 176.988 158.285" stroke="#FCFCFC" stroke-width="6" stroke-linecap="round"/>
<path d="M129.655 129.805C129.938 130.108 130.975 131.372 131.805 132.455C132.691 133.609 133.237 134.848 133.951 136.282C134.922 138.23 135.505 139.271 136.155 140.248C136.811 141.235 137.764 142.285 138.639 143.352C139.493 144.392 140.576 146.489 141.388 147.993C142.299 149.681 142.847 150.981 143.371 152.328C143.9 153.689 144.245 155.108 144.805 156.205C145.313 157.348 145.824 158.504 146.263 159.718C146.374 160.034 146.49 160.348 146.655 160.805" stroke="#FCFCFC" stroke-width="6" stroke-linecap="round"/>
<path d="M146.655 160.805C146.735 161.185 146.956 162.493 147.098 163.907C147.217 165.101 147.167 168.511 147.229 172.767C147.285 176.561 148.228 180.278 148.572 182.041C148.98 184.134 149.345 185.287 149.735 186.637C150.157 188.102 150.689 189.31 151.389 190.821C152.158 192.483 152.919 193.932 153.721 195.278C154.738 196.984 156.093 198.822 157.005 199.888C158.646 201.805 159.547 202.352 161.083 203.426C163.241 204.937 165.606 205.906 166.819 206.423C168.706 207.226 171.724 207.861 174.212 208.559C176.898 209.311 180.254 208.179 182.499 207.349C183.842 206.852 184.932 206.308 186.308 205.711C188.285 204.854 190.564 202.592 191.689 201.464C192.749 200.401 193.657 199.1 195.27 196.688C196.517 194.822 197.554 193.365 198.99 190.902C199.791 189.53 200.427 188.26 201.21 187.142C202.407 185.432 203.625 182.851 204.146 181.413C205.191 178.526 204.328 173.372 204.185 171.666C204.061 170.175 203.718 168.789 203.55 167.573C203.394 166.393 203.199 165.194 202.899 163.802C202.817 163.472 202.741 163.196 202.431 162.285" stroke="#FCFCFC" stroke-width="6" stroke-linecap="round"/>
<path d="M202.655 162.805C202.655 162.391 202.516 161.142 201.479 158.688C200.628 156.673 200.032 155.522 199.047 153.646C197.978 151.611 196.877 150.885 195.77 149.706C194.876 148.753 193.811 147.389 192.695 146.095C191.763 145.014 190.407 144.001 189.316 143.215C188.194 142.406 186.933 141.453 185.729 140.914C184.544 140.384 183.343 140.303 180.686 139.917C179.236 139.706 177.785 139.394 176.397 139.229C175.256 139.093 173.997 138.893 172.978 138.732C171.813 138.484 170.697 138.139 169.648 137.902C169.353 137.861 169.009 137.834 168.655 137.805" stroke="#FCFCFC" stroke-width="6" stroke-linecap="round"/>
<path d="M168.655 137.805C168.373 137.688 167.452 136.991 166.606 136.233C165.71 135.43 164.39 133.918 163.215 132.45C161.677 130.528 160.551 129.112 159.875 127.922C159.234 126.793 158.722 125.822 158.082 124.649C157.421 123.44 156.813 122.389 155.859 120.279C154.608 117.514 152.126 114.573 151.025 113.028C150.319 112.038 149.845 110.95 148.373 108.053C147.588 106.509 146.824 105.177 146.224 104.211C145.897 103.748 145.539 103.271 145.193 102.765C145.033 102.503 144.902 102.229 144.655 101.805" stroke="#FCFCFC" stroke-width="6" stroke-linecap="round"/>
<path d="M127.655 72.8054C127.49 72.4414 126.69 71.1188 125.104 68.5147C124.036 66.7599 122.976 64.6037 122.115 63.1928C120.973 61.3216 119.867 59.1227 117.036 54.9758C116.037 53.5125 113.944 49.7755 110.934 44.5012C109.181 41.4296 108.075 39.1411 106.664 36.6886C104.224 32.4456 102.836 30.0418 101.526 27.923C100.295 25.9312 99.6377 24.642 98.6742 23.0576C97.9114 21.8032 97.1627 20.6144 95.5575 17.5531C94.6995 15.9165 93.7318 14.4256 92.7522 12.9172C92.1009 11.8968 91.6269 11.1428 91.2966 10.6412C91.1405 10.3885 91.0078 10.1393 90.6553 9.80542" stroke="#FCFCFC" stroke-width="6" stroke-linecap="round"/>
<path d="M89.9815 9.80542C89.7354 9.9413 88.935 10.5712 88.0321 11.3705C86.9896 12.2935 85.7171 13.3925 84.9535 14.3878C84.2226 15.3404 83.779 16.9736 82.9389 19.3307C82.2553 21.2487 81.0301 25.0156 80.4929 27.0527C80.0602 28.6932 79.8685 29.9106 79.7259 31.9406C79.4945 35.236 79.893 36.6745 80.0448 39.1247C80.2415 42.2976 80.6778 43.6534 80.95 44.949C81.1987 46.1322 81.8161 47.1601 82.3944 48.1845C83.0184 49.2898 83.4544 50.4987 84.132 51.8315C84.713 52.9741 85.5459 54.679 87.159 58.0799C87.9824 59.816 89.7811 63.8479 90.9762 66.4267C91.8091 67.5148 92.725 68.921 92.725 68.921C92.725 68.921 93.3393 70.6763 93.6553 70.8054" stroke="#FCFCFC" stroke-width="6" stroke-linecap="round"/>
<path d="M92.6553 67.8054C92.6857 68.2073 93.7925 69.3041 94.3985 70.8717C95.3718 73.3892 96.4336 75.2923 97.1654 76.6855C98.3062 78.8573 98.989 79.9624 100.892 83.028C102.132 85.0245 103.493 87.2708 104.399 88.5726C105.252 89.7971 106.254 90.5611 107.997 92.1661C109.845 93.8685 110.871 94.9868 112 96.3203C112.312 96.7166 112.635 97.1539 112.878 97.5039C113.121 97.8538 113.273 98.1031 113.655 98.8054" stroke="#FCFCFC" stroke-width="6" stroke-linecap="round"/>
<path d="M134.655 136.805C135.333 136.251 136.99 134.957 137.913 134.263C139.461 133.099 140.79 132.158 143.269 130.938C147.267 128.972 150.222 128.057 150.649 127.952C152.006 127.495 154.382 126.846 158.168 126.805C158.936 126.829 159.101 126.881 159.655 127.081" stroke="#FCFCFC" stroke-width="6" stroke-linecap="round"/>
<path d="M43.6553 10.8054V205.805" stroke="#FCFCFC" stroke-width="6" stroke-linecap="round"/>
<path d="M5.65527 208.805H43.6553" stroke="#FCFCFC" stroke-width="6" stroke-linecap="round"/>
<path d="M5.65527 9.80542V205.805" stroke="#FCFCFC" stroke-width="6" stroke-linecap="round"/>
<path d="M4.65527 9.80542H43.6553" stroke="#FCFCFC" stroke-width="6" stroke-linecap="round"/>
<path d="M28.6553 26.8054H43.6553" stroke="#FCFCFC" stroke-width="6" stroke-linecap="round"/>
<path d="M30.6553 47.8054H43.6553" stroke="#FCFCFC" stroke-width="6" stroke-linecap="round"/>
<path d="M29.6553 72.8054C29.6651 72.8054 29.6749 72.8054 31.9531 72.8734C34.2313 72.9413 38.7777 73.0772 43.6553 74.8054" stroke="#FCFCFC" stroke-width="6" stroke-linecap="round"/>
<path d="M30.6553 96.8054C30.696 96.8054 30.7368 96.8054 32.8263 96.8054C34.9158 96.8054 39.0528 96.8054 43.6553 96.8054" stroke="#FCFCFC" stroke-width="6" stroke-linecap="round"/>
<path d="M28.6553 121.805C28.686 121.805 28.7168 121.805 30.8455 121.805C32.9743 121.805 37.2002 121.805 39.5219 121.805C41.8436 121.805 42.1331 121.805 42.6553 121.805" stroke="#FCFCFC" stroke-width="6" stroke-linecap="round"/>
<path d="M28.6553 143.805C28.6796 143.805 28.7039 143.805 31.0166 143.805C33.3294 143.805 37.9298 143.805 42.6553 143.805" stroke="#FCFCFC" stroke-width="6" stroke-linecap="round"/>
<path d="M29.6553 168.805C29.6751 168.805 29.6949 168.805 31.7672 168.805C33.8394 168.805 37.9635 168.805 42.6553 168.805" stroke="#FCFCFC" stroke-width="6" stroke-linecap="round"/>
<path d="M29.6553 192.805C29.6655 192.805 29.6756 192.805 31.5687 192.805C33.4617 192.805 37.2373 192.805 39.3406 192.805C41.444 192.805 41.7607 192.805 42.6553 192.805" stroke="#FCFCFC" stroke-width="6" stroke-linecap="round"/>
<path d="M250.542 20.76V67.3054H240.701V20.76H250.542ZM268.138 47.1236V67.3054H258.456V32.3963H267.684V38.5554H268.093C268.866 36.5251 270.161 34.9191 271.979 33.7372C273.797 32.5403 276.002 31.9418 278.593 31.9418C281.017 31.9418 283.131 32.4721 284.934 33.5327C286.737 34.5933 288.138 36.1084 289.138 38.0781C290.138 40.0327 290.638 42.366 290.638 45.0781V67.3054H280.956V46.8054C280.972 44.6691 280.426 43.0024 279.32 41.8054C278.214 40.5933 276.691 39.9872 274.752 39.9872C273.449 39.9872 272.297 40.2675 271.297 40.8281C270.312 41.3888 269.54 42.2069 268.979 43.2827C268.434 44.3433 268.153 45.6236 268.138 47.1236ZM316.837 32.3963V39.6691H295.814V32.3963H316.837ZM300.587 24.0327H310.269V56.5781C310.269 57.4721 310.405 58.1691 310.678 58.6691C310.951 59.1539 311.33 59.4948 311.814 59.6918C312.314 59.8888 312.89 59.9872 313.542 59.9872C313.996 59.9872 314.451 59.9494 314.905 59.8736C315.36 59.7827 315.708 59.7145 315.951 59.6691L317.473 66.8736C316.989 67.0251 316.307 67.1994 315.428 67.3963C314.549 67.6085 313.481 67.7372 312.223 67.7827C309.89 67.8736 307.845 67.563 306.087 66.8509C304.345 66.1388 302.989 65.0327 302.019 63.5327C301.049 62.0327 300.572 60.1388 300.587 57.8509V24.0327ZM338.678 67.9872C335.087 67.9872 331.996 67.26 329.405 65.8054C326.83 64.3357 324.845 62.26 323.451 59.5781C322.057 56.8812 321.36 53.6918 321.36 50.01C321.36 46.4191 322.057 43.2675 323.451 40.5554C324.845 37.8433 326.807 35.7297 329.337 34.2145C331.883 32.6994 334.867 31.9418 338.292 31.9418C340.595 31.9418 342.739 32.313 344.723 33.0554C346.723 33.7827 348.466 34.8812 349.951 36.3509C351.451 37.8206 352.617 39.6691 353.451 41.8963C354.284 44.1084 354.701 46.6994 354.701 49.6691V52.3281H325.223V46.3281H345.587C345.587 44.9342 345.284 43.6994 344.678 42.6236C344.072 41.5478 343.231 40.7069 342.155 40.1009C341.095 39.4797 339.86 39.1691 338.451 39.1691C336.981 39.1691 335.678 39.51 334.542 40.1918C333.42 40.8584 332.542 41.76 331.905 42.8963C331.269 44.0175 330.943 45.2675 330.928 46.6463V52.3509C330.928 54.0781 331.246 55.5706 331.883 56.8281C332.534 58.0857 333.451 59.0554 334.633 59.7372C335.814 60.4191 337.216 60.76 338.837 60.76C339.913 60.76 340.898 60.6084 341.792 60.3054C342.686 60.0024 343.451 59.5478 344.087 58.9418C344.723 58.3357 345.208 57.5933 345.542 56.7145L354.496 57.3054C354.042 59.4569 353.11 61.3357 351.701 62.9418C350.307 64.5327 348.504 65.7751 346.292 66.6691C344.095 67.5478 341.557 67.9872 338.678 67.9872ZM361.019 67.3054V32.3963H370.405V38.4872H370.769C371.405 36.3206 372.473 34.6842 373.973 33.5781C375.473 32.4569 377.201 31.8963 379.155 31.8963C379.64 31.8963 380.163 31.9266 380.723 31.9872C381.284 32.0478 381.776 32.1312 382.201 32.2372V40.8281C381.746 40.6918 381.117 40.5706 380.314 40.4645C379.511 40.3584 378.776 40.3054 378.11 40.3054C376.686 40.3054 375.413 40.616 374.292 41.2372C373.186 41.8433 372.307 42.6918 371.655 43.7827C371.019 44.8736 370.701 46.1312 370.701 47.5554V67.3054H361.019ZM416.252 42.3509L407.388 42.8963C407.237 42.1388 406.911 41.4569 406.411 40.8509C405.911 40.2297 405.252 39.7372 404.434 39.3736C403.631 38.9948 402.669 38.8054 401.547 38.8054C400.047 38.8054 398.782 39.1236 397.752 39.76C396.722 40.3812 396.206 41.2145 396.206 42.26C396.206 43.0933 396.54 43.7978 397.206 44.3736C397.873 44.9494 399.017 45.4115 400.638 45.76L406.956 47.0327C410.35 47.7297 412.881 48.8509 414.547 50.3963C416.214 51.9418 417.047 53.9721 417.047 56.4872C417.047 58.7751 416.373 60.7827 415.025 62.51C413.691 64.2372 411.858 65.5857 409.525 66.5554C407.206 67.51 404.532 67.9872 401.502 67.9872C396.881 67.9872 393.199 67.0251 390.456 65.1009C387.729 63.1615 386.131 60.5251 385.661 57.1918L395.184 56.6918C395.472 58.1009 396.169 59.1766 397.275 59.9191C398.381 60.6463 399.797 61.01 401.525 61.01C403.222 61.01 404.585 60.6842 405.616 60.0327C406.661 59.366 407.191 58.51 407.206 57.4645C407.191 56.5857 406.82 55.866 406.093 55.3054C405.366 54.7297 404.244 54.2903 402.729 53.9872L396.684 52.7827C393.275 52.1009 390.737 50.9191 389.07 49.2372C387.419 47.5554 386.593 45.4115 386.593 42.8054C386.593 40.563 387.199 38.6312 388.411 37.01C389.638 35.3888 391.358 34.1388 393.57 33.26C395.797 32.3812 398.403 31.9418 401.388 31.9418C405.797 31.9418 409.267 32.8736 411.797 34.7372C414.343 36.6009 415.828 39.1388 416.252 42.3509ZM439.053 67.9872C435.462 67.9872 432.371 67.26 429.78 65.8054C427.205 64.3357 425.22 62.26 423.826 59.5781C422.432 56.8812 421.735 53.6918 421.735 50.01C421.735 46.4191 422.432 43.2675 423.826 40.5554C425.22 37.8433 427.182 35.7297 429.712 34.2145C432.258 32.6994 435.242 31.9418 438.667 31.9418C440.97 31.9418 443.114 32.313 445.098 33.0554C447.098 33.7827 448.841 34.8812 450.326 36.3509C451.826 37.8206 452.992 39.6691 453.826 41.8963C454.659 44.1084 455.076 46.6994 455.076 49.6691V52.3281H425.598V46.3281H445.962C445.962 44.9342 445.659 43.6994 445.053 42.6236C444.447 41.5478 443.606 40.7069 442.53 40.1009C441.47 39.4797 440.235 39.1691 438.826 39.1691C437.356 39.1691 436.053 39.51 434.917 40.1918C433.795 40.8584 432.917 41.76 432.28 42.8963C431.644 44.0175 431.318 45.2675 431.303 46.6463V52.3509C431.303 54.0781 431.621 55.5706 432.258 56.8281C432.909 58.0857 433.826 59.0554 435.008 59.7372C436.189 60.4191 437.591 60.76 439.212 60.76C440.288 60.76 441.273 60.6084 442.167 60.3054C443.061 60.0024 443.826 59.5478 444.462 58.9418C445.098 58.3357 445.583 57.5933 445.917 56.7145L454.871 57.3054C454.417 59.4569 453.485 61.3357 452.076 62.9418C450.682 64.5327 448.879 65.7751 446.667 66.6691C444.47 67.5478 441.932 67.9872 439.053 67.9872ZM477.167 67.9872C473.591 67.9872 470.515 67.2297 467.939 65.7145C465.379 64.1842 463.409 62.063 462.03 59.3509C460.667 56.6388 459.985 53.5175 459.985 49.9872C459.985 46.4115 460.674 43.2751 462.053 40.5781C463.447 37.866 465.424 35.7524 467.985 34.2372C470.545 32.7069 473.591 31.9418 477.121 31.9418C480.167 31.9418 482.833 32.4948 485.121 33.6009C487.409 34.7069 489.22 36.26 490.553 38.26C491.886 40.26 492.621 42.6084 492.758 45.3054H483.621C483.364 43.563 482.682 42.1615 481.576 41.1009C480.485 40.0251 479.053 39.4872 477.28 39.4872C475.78 39.4872 474.47 39.8963 473.348 40.7145C472.242 41.5175 471.379 42.6918 470.758 44.2372C470.136 45.7827 469.826 47.6539 469.826 49.8509C469.826 52.0781 470.129 53.9721 470.735 55.5327C471.356 57.0933 472.227 58.2827 473.348 59.1009C474.47 59.9191 475.78 60.3281 477.28 60.3281C478.386 60.3281 479.379 60.1009 480.258 59.6463C481.151 59.1918 481.886 58.5327 482.462 57.6691C483.053 56.7903 483.439 55.7372 483.621 54.51H492.758C492.606 57.1766 491.879 59.5251 490.576 61.5554C489.288 63.5706 487.508 65.1463 485.235 66.2827C482.962 67.4191 480.273 67.9872 477.167 67.9872ZM517.525 32.3963V39.6691H496.502V32.3963H517.525ZM501.275 24.0327H510.956V56.5781C510.956 57.4721 511.093 58.1691 511.366 58.6691C511.638 59.1539 512.017 59.4948 512.502 59.6918C513.002 59.8888 513.578 59.9872 514.229 59.9872C514.684 59.9872 515.138 59.9494 515.593 59.8736C516.047 59.7827 516.396 59.7145 516.638 59.6691L518.161 66.8736C517.676 67.0251 516.994 67.1994 516.116 67.3963C515.237 67.6085 514.169 67.7372 512.911 67.7827C510.578 67.8736 508.532 67.563 506.775 66.8509C505.032 66.1388 503.676 65.0327 502.706 63.5327C501.737 62.0327 501.259 60.1388 501.275 57.8509V24.0327ZM523.831 67.3054V32.3963H533.513V67.3054H523.831ZM528.695 27.8963C527.256 27.8963 526.021 27.4191 524.991 26.4645C523.975 25.4948 523.468 24.3357 523.468 22.9872C523.468 21.6539 523.975 20.51 524.991 19.5554C526.021 18.5857 527.256 18.1009 528.695 18.1009C530.134 18.1009 531.362 18.5857 532.377 19.5554C533.407 20.51 533.922 21.6539 533.922 22.9872C533.922 24.3357 533.407 25.4948 532.377 26.4645C531.362 27.4191 530.134 27.8963 528.695 27.8963ZM557.042 67.9872C553.511 67.9872 550.458 67.2372 547.883 65.7372C545.322 64.2221 543.345 62.116 541.951 59.4191C540.557 56.7069 539.86 53.563 539.86 49.9872C539.86 46.3812 540.557 43.2297 541.951 40.5327C543.345 37.8206 545.322 35.7145 547.883 34.2145C550.458 32.6994 553.511 31.9418 557.042 31.9418C560.572 31.9418 563.617 32.6994 566.178 34.2145C568.754 35.7145 570.739 37.8206 572.133 40.5327C573.526 43.2297 574.223 46.3812 574.223 49.9872C574.223 53.563 573.526 56.7069 572.133 59.4191C570.739 62.116 568.754 64.2221 566.178 65.7372C563.617 67.2372 560.572 67.9872 557.042 67.9872ZM557.087 60.4872C558.693 60.4872 560.034 60.0327 561.11 59.1236C562.186 58.1994 562.996 56.9418 563.542 55.3509C564.102 53.76 564.383 51.9494 564.383 49.9191C564.383 47.8888 564.102 46.0781 563.542 44.4872C562.996 42.8963 562.186 41.6388 561.11 40.7145C560.034 39.7903 558.693 39.3281 557.087 39.3281C555.466 39.3281 554.102 39.7903 552.996 40.7145C551.905 41.6388 551.08 42.8963 550.519 44.4872C549.973 46.0781 549.701 47.8888 549.701 49.9191C549.701 51.9494 549.973 53.76 550.519 55.3509C551.08 56.9418 551.905 58.1994 552.996 59.1236C554.102 60.0327 555.466 60.4872 557.087 60.4872ZM590.201 47.1236V67.3054H580.519V32.3963H589.746V38.5554H590.155C590.928 36.5251 592.223 34.9191 594.042 33.7372C595.86 32.5403 598.064 31.9418 600.655 31.9418C603.08 31.9418 605.193 32.4721 606.996 33.5327C608.799 34.5933 610.201 36.1084 611.201 38.0781C612.201 40.0327 612.701 42.366 612.701 45.0781V67.3054H603.019V46.8054C603.034 44.6691 602.489 43.0024 601.383 41.8054C600.276 40.5933 598.754 39.9872 596.814 39.9872C595.511 39.9872 594.36 40.2675 593.36 40.8281C592.375 41.3888 591.602 42.2069 591.042 43.2827C590.496 44.3433 590.216 45.6236 590.201 47.1236ZM630.286 67.9645C628.059 67.9645 626.074 67.5781 624.331 66.8054C622.589 66.0175 621.21 64.8585 620.195 63.3281C619.195 61.7827 618.695 59.8585 618.695 57.5554C618.695 55.616 619.051 53.9872 619.763 52.6691C620.475 51.3509 621.445 50.2903 622.672 49.4872C623.9 48.6842 625.294 48.0781 626.854 47.6691C628.43 47.26 630.081 46.9721 631.809 46.8054C633.839 46.5933 635.475 46.3963 636.718 46.2145C637.96 46.0175 638.862 45.7297 639.422 45.3509C639.983 44.9721 640.263 44.4115 640.263 43.6691V43.5327C640.263 42.0933 639.809 40.9797 638.9 40.1918C638.006 39.4039 636.733 39.01 635.081 39.01C633.339 39.01 631.953 39.3963 630.922 40.1691C629.892 40.9266 629.21 41.8812 628.877 43.0327L619.922 42.3054C620.377 40.1842 621.271 38.3509 622.604 36.8054C623.937 35.2448 625.657 34.0478 627.763 33.2145C629.884 32.366 632.339 31.9418 635.127 31.9418C637.066 31.9418 638.922 32.1691 640.695 32.6236C642.483 33.0781 644.066 33.7827 645.445 34.7372C646.839 35.6918 647.937 36.9191 648.741 38.4191C649.544 39.9039 649.945 41.6842 649.945 43.76V67.3054H640.763V62.4645H640.491C639.93 63.5554 639.18 64.5175 638.241 65.3509C637.301 66.1691 636.172 66.813 634.854 67.2827C633.536 67.7372 632.013 67.9645 630.286 67.9645ZM633.059 61.2827C634.483 61.2827 635.741 61.0024 636.831 60.4418C637.922 59.866 638.778 59.0933 639.4 58.1236C640.021 57.1539 640.331 56.0554 640.331 54.8281V51.1236C640.028 51.3206 639.612 51.5024 639.081 51.6691C638.566 51.8206 637.983 51.9645 637.331 52.1009C636.68 52.2221 636.028 52.3357 635.377 52.4418C634.725 52.5327 634.134 52.616 633.604 52.6918C632.468 52.8584 631.475 53.1236 630.627 53.4872C629.778 53.8509 629.119 54.3433 628.65 54.9645C628.18 55.5706 627.945 56.3281 627.945 57.2372C627.945 58.5554 628.422 59.563 629.377 60.26C630.347 60.9418 631.574 61.2827 633.059 61.2827ZM667.138 20.76V67.3054H657.456V20.76H667.138ZM257.201 144.305H240.701V97.76H257.337C262.019 97.76 266.049 98.6918 269.428 100.555C272.807 102.404 275.405 105.063 277.223 108.533C279.057 112.002 279.973 116.154 279.973 120.987C279.973 125.836 279.057 130.002 277.223 133.487C275.405 136.972 272.792 139.646 269.383 141.51C265.989 143.374 261.928 144.305 257.201 144.305ZM250.542 135.874H256.792C259.701 135.874 262.148 135.358 264.133 134.328C266.133 133.283 267.633 131.669 268.633 129.487C269.648 127.29 270.155 124.457 270.155 120.987C270.155 117.548 269.648 114.737 268.633 112.555C267.633 110.374 266.14 108.768 264.155 107.737C262.17 106.707 259.723 106.192 256.814 106.192H250.542V135.874ZM302.991 144.987C299.4 144.987 296.309 144.26 293.718 142.805C291.142 141.336 289.157 139.26 287.763 136.578C286.369 133.881 285.672 130.692 285.672 127.01C285.672 123.419 286.369 120.268 287.763 117.555C289.157 114.843 291.119 112.73 293.65 111.215C296.195 109.699 299.18 108.942 302.604 108.942C304.907 108.942 307.051 109.313 309.036 110.055C311.036 110.783 312.778 111.881 314.263 113.351C315.763 114.821 316.93 116.669 317.763 118.896C318.597 121.108 319.013 123.699 319.013 126.669V129.328H289.536V123.328H309.9C309.9 121.934 309.597 120.699 308.991 119.624C308.384 118.548 307.544 117.707 306.468 117.101C305.407 116.48 304.172 116.169 302.763 116.169C301.294 116.169 299.991 116.51 298.854 117.192C297.733 117.858 296.854 118.76 296.218 119.896C295.581 121.018 295.256 122.268 295.241 123.646V129.351C295.241 131.078 295.559 132.571 296.195 133.828C296.847 135.086 297.763 136.055 298.945 136.737C300.127 137.419 301.528 137.76 303.15 137.76C304.225 137.76 305.21 137.608 306.104 137.305C306.998 137.002 307.763 136.548 308.4 135.942C309.036 135.336 309.521 134.593 309.854 133.715L318.809 134.305C318.354 136.457 317.422 138.336 316.013 139.942C314.619 141.533 312.816 142.775 310.604 143.669C308.407 144.548 305.869 144.987 302.991 144.987ZM354.377 119.351L345.513 119.896C345.362 119.139 345.036 118.457 344.536 117.851C344.036 117.23 343.377 116.737 342.559 116.374C341.756 115.995 340.794 115.805 339.672 115.805C338.172 115.805 336.907 116.124 335.877 116.76C334.847 117.381 334.331 118.215 334.331 119.26C334.331 120.093 334.665 120.798 335.331 121.374C335.998 121.949 337.142 122.411 338.763 122.76L345.081 124.033C348.475 124.73 351.006 125.851 352.672 127.396C354.339 128.942 355.172 130.972 355.172 133.487C355.172 135.775 354.498 137.783 353.15 139.51C351.816 141.237 349.983 142.586 347.65 143.555C345.331 144.51 342.657 144.987 339.627 144.987C335.006 144.987 331.324 144.025 328.581 142.101C325.854 140.161 324.256 137.525 323.786 134.192L333.309 133.692C333.597 135.101 334.294 136.177 335.4 136.919C336.506 137.646 337.922 138.01 339.65 138.01C341.347 138.01 342.71 137.684 343.741 137.033C344.786 136.366 345.316 135.51 345.331 134.465C345.316 133.586 344.945 132.866 344.218 132.305C343.491 131.73 342.369 131.29 340.854 130.987L334.809 129.783C331.4 129.101 328.862 127.919 327.195 126.237C325.544 124.555 324.718 122.411 324.718 119.805C324.718 117.563 325.324 115.631 326.536 114.01C327.763 112.389 329.483 111.139 331.695 110.26C333.922 109.381 336.528 108.942 339.513 108.942C343.922 108.942 347.392 109.874 349.922 111.737C352.468 113.601 353.953 116.139 354.377 119.351ZM361.269 144.305V109.396H370.951V144.305H361.269ZM366.133 104.896C364.693 104.896 363.458 104.419 362.428 103.465C361.413 102.495 360.905 101.336 360.905 99.9872C360.905 98.6539 361.413 97.51 362.428 96.5554C363.458 95.5857 364.693 95.1009 366.133 95.1009C367.572 95.1009 368.799 95.5857 369.814 96.5554C370.845 97.51 371.36 98.6539 371.36 99.9872C371.36 101.336 370.845 102.495 369.814 103.465C368.799 104.419 367.572 104.896 366.133 104.896ZM394.434 158.124C391.297 158.124 388.608 157.692 386.366 156.828C384.138 155.98 382.366 154.821 381.047 153.351C379.729 151.881 378.873 150.23 378.479 148.396L387.434 147.192C387.706 147.889 388.138 148.54 388.729 149.146C389.32 149.752 390.1 150.237 391.07 150.601C392.055 150.98 393.252 151.169 394.661 151.169C396.767 151.169 398.502 150.654 399.866 149.624C401.244 148.608 401.934 146.904 401.934 144.51V138.124H401.525C401.1 139.093 400.464 140.01 399.616 140.874C398.767 141.737 397.676 142.442 396.343 142.987C395.009 143.533 393.419 143.805 391.57 143.805C388.949 143.805 386.562 143.199 384.411 141.987C382.275 140.76 380.57 138.889 379.297 136.374C378.04 133.843 377.411 130.646 377.411 126.783C377.411 122.828 378.055 119.525 379.343 116.874C380.631 114.222 382.343 112.237 384.479 110.919C386.631 109.601 388.987 108.942 391.547 108.942C393.502 108.942 395.138 109.275 396.456 109.942C397.775 110.593 398.835 111.411 399.638 112.396C400.456 113.366 401.085 114.321 401.525 115.26H401.888V109.396H411.502V144.646C411.502 147.616 410.775 150.101 409.32 152.101C407.866 154.101 405.85 155.601 403.275 156.601C400.714 157.616 397.767 158.124 394.434 158.124ZM394.638 136.533C396.199 136.533 397.517 136.146 398.593 135.374C399.684 134.586 400.517 133.465 401.093 132.01C401.684 130.54 401.979 128.783 401.979 126.737C401.979 124.692 401.691 122.919 401.116 121.419C400.54 119.904 399.706 118.73 398.616 117.896C397.525 117.063 396.199 116.646 394.638 116.646C393.047 116.646 391.706 117.078 390.616 117.942C389.525 118.79 388.699 119.972 388.138 121.487C387.578 123.002 387.297 124.752 387.297 126.737C387.297 128.752 387.578 130.495 388.138 131.965C388.714 133.419 389.54 134.548 390.616 135.351C391.706 136.139 393.047 136.533 394.638 136.533ZM428.888 124.124V144.305H419.206V109.396H428.434V115.555H428.843C429.616 113.525 430.911 111.919 432.729 110.737C434.547 109.54 436.752 108.942 439.343 108.942C441.767 108.942 443.881 109.472 445.684 110.533C447.487 111.593 448.888 113.108 449.888 115.078C450.888 117.033 451.388 119.366 451.388 122.078V144.305H441.706V123.805C441.722 121.669 441.176 120.002 440.07 118.805C438.964 117.593 437.441 116.987 435.502 116.987C434.199 116.987 433.047 117.268 432.047 117.828C431.062 118.389 430.29 119.207 429.729 120.283C429.184 121.343 428.903 122.624 428.888 124.124ZM474.013 144.305V97.76H483.854V136.192H503.809V144.305H474.013ZM520.098 144.965C517.871 144.965 515.886 144.578 514.144 143.805C512.401 143.018 511.023 141.858 510.008 140.328C509.008 138.783 508.508 136.858 508.508 134.555C508.508 132.616 508.864 130.987 509.576 129.669C510.288 128.351 511.258 127.29 512.485 126.487C513.712 125.684 515.106 125.078 516.667 124.669C518.242 124.26 519.894 123.972 521.621 123.805C523.651 123.593 525.288 123.396 526.53 123.215C527.773 123.018 528.674 122.73 529.235 122.351C529.795 121.972 530.076 121.411 530.076 120.669V120.533C530.076 119.093 529.621 117.98 528.712 117.192C527.818 116.404 526.545 116.01 524.894 116.01C523.151 116.01 521.765 116.396 520.735 117.169C519.705 117.927 519.023 118.881 518.689 120.033L509.735 119.305C510.189 117.184 511.083 115.351 512.417 113.805C513.75 112.245 515.47 111.048 517.576 110.215C519.697 109.366 522.151 108.942 524.939 108.942C526.879 108.942 528.735 109.169 530.508 109.624C532.295 110.078 533.879 110.783 535.258 111.737C536.651 112.692 537.75 113.919 538.553 115.419C539.356 116.904 539.758 118.684 539.758 120.76V144.305H530.576V139.465H530.303C529.742 140.555 528.992 141.518 528.053 142.351C527.114 143.169 525.985 143.813 524.667 144.283C523.348 144.737 521.826 144.965 520.098 144.965ZM522.871 138.283C524.295 138.283 525.553 138.002 526.644 137.442C527.735 136.866 528.591 136.093 529.212 135.124C529.833 134.154 530.144 133.055 530.144 131.828V128.124C529.841 128.321 529.424 128.502 528.894 128.669C528.379 128.821 527.795 128.965 527.144 129.101C526.492 129.222 525.841 129.336 525.189 129.442C524.538 129.533 523.947 129.616 523.417 129.692C522.28 129.858 521.288 130.124 520.439 130.487C519.591 130.851 518.932 131.343 518.462 131.965C517.992 132.571 517.758 133.328 517.758 134.237C517.758 135.555 518.235 136.563 519.189 137.26C520.159 137.942 521.386 138.283 522.871 138.283ZM547.451 144.305V97.76H557.133V115.26H557.428C557.852 114.321 558.466 113.366 559.269 112.396C560.087 111.411 561.148 110.593 562.451 109.942C563.769 109.275 565.405 108.942 567.36 108.942C569.905 108.942 572.254 109.608 574.405 110.942C576.557 112.26 578.276 114.252 579.564 116.919C580.852 119.571 581.496 122.896 581.496 126.896C581.496 130.79 580.867 134.078 579.61 136.76C578.367 139.427 576.67 141.449 574.519 142.828C572.383 144.192 569.989 144.874 567.337 144.874C565.458 144.874 563.86 144.563 562.542 143.942C561.239 143.321 560.17 142.54 559.337 141.601C558.504 140.646 557.867 139.684 557.428 138.715H556.996V144.305H547.451ZM556.928 126.851C556.928 128.927 557.216 130.737 557.792 132.283C558.367 133.828 559.201 135.033 560.292 135.896C561.383 136.745 562.708 137.169 564.269 137.169C565.845 137.169 567.178 136.737 568.269 135.874C569.36 134.995 570.186 133.783 570.746 132.237C571.322 130.677 571.61 128.881 571.61 126.851C571.61 124.836 571.33 123.063 570.769 121.533C570.208 120.002 569.383 118.805 568.292 117.942C567.201 117.078 565.86 116.646 564.269 116.646C562.693 116.646 561.36 117.063 560.269 117.896C559.193 118.73 558.367 119.911 557.792 121.442C557.216 122.972 556.928 124.775 556.928 126.851ZM241.769 184.851C241.769 180.555 242.326 176.607 243.439 173.004C244.564 169.391 246.167 166.067 248.246 163.033H251.792C250.973 164.158 250.206 165.544 249.491 167.192C248.786 168.828 248.167 170.629 247.633 172.595C247.098 174.55 246.678 176.572 246.371 178.663C246.076 180.754 245.928 182.817 245.928 184.851C245.928 187.555 246.189 190.3 246.712 193.084C247.235 195.868 247.939 198.453 248.826 200.84C249.712 203.226 250.701 205.169 251.792 206.669H248.246C246.167 203.635 244.564 200.317 243.439 196.715C242.326 193.101 241.769 189.146 241.769 184.851ZM258.273 202.305V167.396H270.478C272.91 167.396 274.915 167.817 276.495 168.658C278.074 169.487 279.25 170.607 280.023 172.016C280.796 173.413 281.182 174.965 281.182 176.669C281.182 178.169 280.915 179.408 280.381 180.385C279.858 181.362 279.165 182.135 278.302 182.703C277.449 183.271 276.523 183.692 275.523 183.965V184.305C276.591 184.374 277.665 184.749 278.745 185.43C279.824 186.112 280.728 187.09 281.455 188.362C282.182 189.635 282.546 191.192 282.546 193.033C282.546 194.783 282.148 196.357 281.353 197.754C280.557 199.152 279.302 200.26 277.586 201.078C275.87 201.896 273.637 202.305 270.887 202.305H258.273ZM262.5 198.555H270.887C273.648 198.555 275.608 198.021 276.767 196.953C277.938 195.874 278.523 194.567 278.523 193.033C278.523 191.851 278.222 190.76 277.62 189.76C277.017 188.749 276.16 187.942 275.046 187.34C273.932 186.726 272.614 186.419 271.091 186.419H262.5V198.555ZM262.5 182.737H270.341C271.614 182.737 272.762 182.487 273.785 181.987C274.819 181.487 275.637 180.783 276.239 179.874C276.853 178.965 277.16 177.896 277.16 176.669C277.16 175.135 276.625 173.834 275.557 172.766C274.489 171.686 272.796 171.146 270.478 171.146H262.5V182.737ZM299.924 202.851C297.401 202.851 295.225 202.294 293.395 201.18C291.577 200.055 290.174 198.487 289.185 196.476C288.208 194.453 287.719 192.101 287.719 189.419C287.719 186.737 288.208 184.374 289.185 182.328C290.174 180.271 291.549 178.669 293.31 177.521C295.083 176.362 297.151 175.783 299.515 175.783C300.878 175.783 302.225 176.01 303.554 176.465C304.884 176.919 306.094 177.658 307.185 178.68C308.276 179.692 309.145 181.033 309.793 182.703C310.441 184.374 310.765 186.43 310.765 188.874V190.578H290.583V187.101H306.674C306.674 185.624 306.378 184.305 305.787 183.146C305.208 181.987 304.378 181.072 303.299 180.402C302.231 179.732 300.969 179.396 299.515 179.396C297.912 179.396 296.526 179.794 295.356 180.59C294.196 181.374 293.304 182.396 292.679 183.658C292.054 184.919 291.742 186.271 291.742 187.715V190.033C291.742 192.01 292.083 193.686 292.765 195.061C293.458 196.425 294.418 197.465 295.645 198.18C296.873 198.885 298.299 199.237 299.924 199.237C300.981 199.237 301.935 199.09 302.787 198.794C303.651 198.487 304.395 198.033 305.02 197.43C305.645 196.817 306.128 196.055 306.469 195.146L310.356 196.237C309.946 197.555 309.259 198.715 308.293 199.715C307.327 200.703 306.134 201.476 304.714 202.033C303.293 202.578 301.696 202.851 299.924 202.851ZM328.27 176.124V179.533H314.702V176.124H328.27ZM318.657 169.851H322.679V194.805C322.679 195.942 322.844 196.794 323.174 197.362C323.515 197.919 323.946 198.294 324.469 198.487C325.003 198.669 325.566 198.76 326.157 198.76C326.6 198.76 326.964 198.737 327.248 198.692C327.532 198.635 327.759 198.59 327.929 198.555L328.748 202.169C328.475 202.271 328.094 202.374 327.606 202.476C327.117 202.59 326.498 202.646 325.748 202.646C324.611 202.646 323.498 202.402 322.407 201.913C321.327 201.425 320.429 200.68 319.714 199.68C319.009 198.68 318.657 197.419 318.657 195.896V169.851ZM342.026 202.919C340.367 202.919 338.861 202.607 337.509 201.982C336.157 201.345 335.083 200.43 334.287 199.237C333.492 198.033 333.094 196.578 333.094 194.874C333.094 193.374 333.39 192.158 333.981 191.226C334.571 190.283 335.361 189.544 336.35 189.01C337.339 188.476 338.429 188.078 339.623 187.817C340.827 187.544 342.037 187.328 343.253 187.169C344.844 186.965 346.134 186.811 347.123 186.709C348.123 186.595 348.85 186.408 349.304 186.146C349.77 185.885 350.003 185.43 350.003 184.783V184.646C350.003 182.965 349.543 181.658 348.623 180.726C347.714 179.794 346.333 179.328 344.481 179.328C342.56 179.328 341.054 179.749 339.964 180.59C338.873 181.43 338.106 182.328 337.662 183.283L333.844 181.919C334.526 180.328 335.435 179.09 336.571 178.203C337.719 177.305 338.969 176.68 340.321 176.328C341.685 175.965 343.026 175.783 344.344 175.783C345.185 175.783 346.151 175.885 347.242 176.09C348.344 176.283 349.407 176.686 350.429 177.3C351.464 177.913 352.321 178.84 353.003 180.078C353.685 181.317 354.026 182.976 354.026 185.055V202.305H350.003V198.76H349.799C349.526 199.328 349.071 199.936 348.435 200.584C347.799 201.232 346.952 201.783 345.895 202.237C344.839 202.692 343.549 202.919 342.026 202.919ZM342.64 199.305C344.231 199.305 345.571 198.993 346.662 198.368C347.765 197.743 348.594 196.936 349.151 195.947C349.719 194.959 350.003 193.919 350.003 192.828V189.146C349.833 189.351 349.458 189.538 348.878 189.709C348.31 189.868 347.651 190.01 346.901 190.135C346.162 190.249 345.441 190.351 344.736 190.442C344.043 190.521 343.481 190.59 343.049 190.646C342.003 190.783 341.026 191.004 340.117 191.311C339.219 191.607 338.492 192.055 337.935 192.658C337.39 193.249 337.117 194.055 337.117 195.078C337.117 196.476 337.634 197.533 338.668 198.249C339.714 198.953 341.037 199.305 342.64 199.305ZM369.959 187.578C369.959 191.874 369.397 195.828 368.272 199.442C367.158 203.044 365.562 206.362 363.482 209.396H359.937C360.755 208.271 361.516 206.885 362.221 205.237C362.937 203.601 363.562 201.805 364.096 199.851C364.63 197.885 365.044 195.857 365.34 193.766C365.647 191.663 365.8 189.601 365.8 187.578C365.8 184.874 365.539 182.129 365.016 179.345C364.493 176.561 363.789 173.976 362.902 171.59C362.016 169.203 361.027 167.26 359.937 165.76H363.482C365.562 168.794 367.158 172.118 368.272 175.732C369.397 179.334 369.959 183.283 369.959 187.578Z" fill="#FCFCFC"/>
</svg>
