<svg width="487" height="238" viewBox="0 0 487 238" fill="none" xmlns="http://www.w3.org/2000/svg">
<path d="M125.456 2.88037C125.033 3.06032 122.794 4.95382 121.011 6.69734C119.489 8.18509 116.673 11.7711 114.496 14.297C112.246 16.9094 111.124 18.3176 106.018 23.095C102.85 26.0596 100.816 28.6689 99.0638 30.6048C96.6853 33.2321 92.9888 37.2087 87.464 43.6932C84.126 47.6109 79.8735 52.9456 77.5134 55.8568C74.196 59.8926 73.0923 61.0882 72.4118 61.8568C72.1091 62.2179 71.8928 62.5203 71.573 62.899" stroke="black" stroke-width="3" stroke-linecap="round"/>
<path d="M71.5729 62.8992C71.3393 63.2543 70.2723 64.514 68.5675 66.2112C67.0136 67.7582 65.5047 69.3215 63.6352 71.4429C62.0995 73.1857 60.6785 75.3684 54.1042 83.3799C49.0627 89.5235 45.799 94.0461 44.3918 95.5938C41.8844 98.3517 38.6077 102.369 33.4998 108.056C31.063 110.769 27.3478 115.014 23.1745 120.26C19.0012 125.507 14.5044 131.646 12.0564 135.017C8.68434 139.66 6.82176 142.374 5.472 144.417C4.52526 145.85 3.70216 147.142 2.87528 148.637C2.68089 149.025 2.50518 149.398 2.32681 149.781C2.14844 150.165 1.97273 150.546 1.50049 151.479" stroke="black" stroke-width="3" stroke-linecap="round"/>
<path d="M1.50049 151.479C1.65735 151.863 2.47518 153.612 3.63662 155.659C4.79751 157.705 5.85799 159.373 6.48311 160.014C6.81194 160.349 7.1643 160.703 8.16257 161.563" stroke="black" stroke-width="3" stroke-linecap="round"/>
<path d="M8.1626 161.563C8.87056 161.24 10.8598 160.176 12.3199 158.919C13.6011 157.816 15.2892 156.139 16.9682 154.313C18.2379 152.933 20.1207 150.369 21.6502 148.248C23.0757 146.271 24.6144 144.89 27.9432 141.364C30.376 138.787 34.2941 133.982 37.601 129.55C38.8211 127.915 40.6155 125.507 43.1002 122.558C48.5659 116.071 52.7334 111.969 54.4954 110.425C57.9953 107.357 59.2659 105.924 61.2195 104.175C63.1297 102.464 65.8937 99.7764 68.3912 97.1121C71.914 93.354 77.2474 87.0846 79.3558 84.8865C79.7448 84.4838 79.9827 84.1893 80.4416 83.6198C80.9005 83.0503 81.5732 82.2146 82.2663 81.3536" stroke="black" stroke-width="3" stroke-linecap="round"/>
<path d="M82.459 81.1595C82.524 80.5566 83.4248 78.2195 88.8085 71.246C94.073 64.4269 95.723 63.6185 98.1916 61.2794C101.573 58.0757 104.025 55.7637 106.316 52.8353C108.37 50.2091 112.176 45.2217 114.297 42.4989C116.722 39.4572 119.217 36.5896 122.77 32.5354C124.143 31.0204 124.643 30.6063 125.956 29.7843" stroke="black" stroke-width="3" stroke-linecap="round"/>
<path d="M126.618 1.5C127.857 2.58576 130.944 5.28084 132.292 6.52578C134.353 8.43001 135.533 9.54271 136.864 10.6401C138.319 11.8391 139.801 13.3097 141.485 15.2085C142.616 16.483 144.972 19.5439 147.132 22.1626C148.684 24.0431 151.842 27.9785 153.622 30.244C154.541 31.4147 155.68 32.3862 156.82 33.4564C158.238 34.7868 159.324 36.327 161.816 39.3887C163.417 40.9519 165.195 42.8956 166.381 44.361C166.682 44.7424 167.049 45.2102 168.033 46.3373" stroke="black" stroke-width="3" stroke-linecap="round"/>
<path d="M168.032 46.3374C168.496 46.7147 169.923 47.9293 171.202 48.725C172.517 49.543 173.519 50.9464 174.499 52.2076C175.418 53.3904 176.219 54.6461 177.042 55.9715C177.912 57.3711 178.991 58.7346 180.388 60.2573C182.558 62.6221 184.613 64.3547 186.294 66.4832C189.167 70.1185 189.139 72.7033 190.996 75.3992C192.8 78.018 194.042 79.1159 195.644 81.008C198.881 84.8312 200.61 87.5952 202.171 89.9779C204.509 93.5496 206.725 96.8185 211.343 102.372C216.229 108.248 218.642 111.777 220.656 114.672C222.884 117.873 223.758 119.274 228.036 125.026C230.101 127.803 232.068 130.393 233.938 132.668C235.047 134.017 236.558 135.482 238.569 137.896C239.002 138.457 239.277 138.854 239.496 139.228C239.715 139.601 239.87 139.938 240.497 141.104" stroke="black" stroke-width="3" stroke-linecap="round"/>
<path d="M240.497 141.104C240.063 141.297 237.372 143.48 235.391 145.143C233.84 146.445 231.756 148.502 229.601 150.242C229.14 150.563 228.701 150.851 228.321 151.147C227.942 151.442 227.635 151.737 226.594 152.471" stroke="black" stroke-width="3" stroke-linecap="round"/>
<path d="M226.594 152.471C226.455 152.024 225.646 150.441 223.611 147.82C221.949 145.681 219.37 143.5 217.682 141.954C216.111 140.515 215.037 139.316 212.181 136.729C208.668 133.545 204.783 128.594 201.622 124.148C199.278 120.853 198.081 119.206 192.474 111.1C188.257 105.002 185.881 100.789 184.952 99.5691C183.31 97.18 180.82 93.5968 178.032 89.5127C176.862 87.8 176.189 86.8179 175.198 85.3677" stroke="black" stroke-width="3" stroke-linecap="round"/>
<path d="M175.199 85.3677C175.109 84.7327 174.676 82.774 174.011 81.0867C173.068 78.696 171.624 77.3068 168.687 74.0364C163.473 68.2292 159.299 63.6389 158.01 62.3143C155.999 60.2482 152.733 56.8889 148.782 52.2058C145.039 47.7684 142.399 44.0282 139.816 41.4645C137.95 39.6116 136.501 38.1124 134.944 36.8512C133.378 35.5822 131.687 34.5625 130.014 33.0907C128.23 31.283 127.208 29.9335 126.708 29.3123C126.458 29.0058 126.216 28.7171 125.816 28.2754" stroke="black" stroke-width="3" stroke-linecap="round"/>
<path d="M39.2976 37.8796C39.2976 37.9343 39.2976 42.6962 39.2778 52.0638C39.268 56.6976 39.2184 61.088 39.2628 65.0154C39.3072 68.9428 39.4368 72.2742 39.5141 75.8511C39.6126 83.1495 39.6721 87.3507 39.7292 89.2509C39.7487 90.7841 39.7487 93.4725 39.8928 97.1374" stroke="black" stroke-width="3" stroke-linecap="round"/>
<path d="M65.6118 36.0667C65.6118 39.7438 65.755 48.0402 66.0442 52.4911C66.1786 55.1055 66.4057 59.631 66.5405 62.4467C66.6754 65.2623 66.7112 66.2308 66.7481 67.2287" stroke="black" stroke-width="3" stroke-linecap="round"/>
<path d="M39.8513 36.4921C39.8791 36.4921 39.9069 36.4921 43.8648 36.4921C47.8227 36.4921 55.7098 36.4921 60.031 36.5086C64.3522 36.525 64.8685 36.558 65.3625 36.592C65.8565 36.6259 66.3125 36.6598 66.8408 36.7319" stroke="black" stroke-width="3" stroke-linecap="round"/>
<path d="M41.9354 125.205C41.9354 125.765 42.0596 127.31 42.2115 128.28C42.3501 129.165 42.6556 130.338 42.8513 132.149C42.949 133.054 42.9765 134.057 43.0404 136.704C43.0723 138.795 43.1034 142.405 42.7499 147.523C42.3965 152.641 41.6576 159.159 41.0586 166.205" stroke="black" stroke-width="3" stroke-linecap="round"/>
<path d="M40.5823 166.327C40.5823 166.369 40.5823 166.41 40.5823 170.668C40.5823 174.926 40.5823 183.4 40.6228 188.073C40.6686 193.362 41.1755 198.643 41.7192 206.001C42.017 211.165 42.1518 214.826 42.2867 219.242C42.3206 221.511 42.3545 225.282 42.3895 229.167" stroke="black" stroke-width="3" stroke-linecap="round"/>
<path d="M42.3894 229.167C43.3197 229.167 45.9083 229.275 48.4344 229.758C50.226 230.101 52.0067 230.149 54.1197 230.334C56.4805 230.54 58.3785 230.4 62.8681 230.462C66.9664 230.518 74.761 230.483 79.6252 230.501C88.3869 230.534 90.2741 230.905 93.4103 231.437C98.0563 232.226 100.486 232.422 104.954 232.555C108.09 232.648 113.906 232.664 117.44 232.777C122.059 232.924 125.186 233.241 128.69 233.326C135.487 233.492 143.466 233.44 145.155 233.236C146.966 233.016 148.687 232.883 150.289 232.693C155.976 232.019 165.434 232.524 167.808 232.737C171.464 233.065 174.043 232.997 175.607 233.245C176.371 233.336 180.987 233.375 187.579 233.345C189.942 233.315 190.309 233.256 191.449 233.133" stroke="black" stroke-width="3" stroke-linecap="round"/>
<path d="M191.449 233.134C191.504 233.134 191.924 233.147 193.032 233.299C194.778 233.698 196.62 234 198.001 234.065C198.6 234.096 198.992 234.126 199.396 234.156" stroke="black" stroke-width="3" stroke-linecap="round"/>
<path d="M199.396 234.156C199.396 234.099 199.396 227.935 199.456 217.104C199.499 209.336 199.682 204.843 199.541 202.636C199.462 201.387 199.319 198.861 199.175 193.493C199.088 190.267 199.074 186.02 198.979 182.385C198.885 178.751 198.737 175.858 198.505 171.087C198.272 166.316 197.958 159.754 197.636 152.993" stroke="black" stroke-width="3" stroke-linecap="round"/>
<path d="M198.059 153.205C198.059 153.186 198.059 153.167 198.065 150.228C198.072 147.289 198.085 141.43 198.132 138.066C198.18 134.701 198.261 134.009 198.42 131.987C198.58 129.966 198.816 126.636 199.059 123.205" stroke="black" stroke-width="3" stroke-linecap="round"/>
<path d="M97.1751 146.084C97.1751 146.098 97.1751 146.111 96.9928 157.47C96.8105 168.83 96.4459 191.534 96.1968 204.233C95.9477 216.932 95.8253 218.939 95.7233 220.249C95.4277 223.224 95.2797 224.919 95.1636 226.84C95.1229 228.167 95.1191 230.209 95.1152 232.313" stroke="black" stroke-width="3" stroke-linecap="round"/>
<path d="M96.3555 147.213C96.3691 147.213 96.3828 147.213 101.283 147.145C106.184 147.077 115.971 146.94 121.269 146.899C128.799 146.842 132.767 147.739 135.514 148.141C136.412 148.271 137.672 148.45 139.982 148.542C142.291 148.635 145.612 148.637 149.034 148.639" stroke="black" stroke-width="3" stroke-linecap="round"/>
<path d="M149.034 148.639C149.034 148.653 149.034 148.666 148.975 153.503C148.916 158.339 148.798 167.997 148.55 177.682C148.303 187.367 147.93 196.785 147.624 202.457C147.229 209.777 146.64 213.356 146.298 217.262C146.129 221.324 146.177 223.805 146.352 226.283C146.438 228.398 146.52 232.254 146.604 236.227" stroke="black" stroke-width="3" stroke-linecap="round"/>
<path d="M108.364 195.05C107.998 194.659 106.708 192.355 106.014 189.583C105.533 187.656 106.145 186.122 106.728 185.559C107.937 184.392 111.305 184.526 113.408 185.265C115.403 185.966 115.037 188.779 114.95 192.042C114.9 193.949 112.081 194.671 110.398 195.486C109.99 195.643 109.514 195.765 109.032 195.844C108.55 195.924 108.076 195.957 107.587 195.992" stroke="black" stroke-width="3" stroke-linecap="round"/>
<path d="M208.098 97.0491C208.932 96.3131 213.148 92.3127 216.607 88.929C222.882 82.7913 234.438 77.0344 240.419 74.3595C243.675 72.9034 249.752 70.7491 257.235 68.4429C261.818 67.0307 268.068 64.9449 279.796 62.3513C286.713 60.8215 295.82 59.9979 301.682 59.4213C307.544 58.8446 309.943 58.8314 313.195 58.7908C316.446 58.7502 320.477 58.6825 324.712 58.5403" stroke="black" stroke-width="3" stroke-linecap="round"/>
<path d="M322.35 60.0726C322.391 60.0726 322.973 60.0726 324.248 59.7413C329.337 58.4187 332.383 51.7998 337.692 46.4187C340.173 43.905 343.273 41.5512 346.4 39.2573C350.761 36.6498 356.235 33.0544 357.422 32.3986C358.118 32.0165 359.003 31.5339 360.475 30.8671" stroke="black" stroke-width="3" stroke-linecap="round"/>
<path d="M323.392 61.1592C323.675 61.7446 326.413 66.0003 328.679 69.0075C330.544 71.4823 332.226 74.8331 334.654 80.028C341.137 93.8988 342.184 96.448 343.654 98.862C344.083 99.5387 344.562 100.242 344.962 100.837C345.361 101.432 345.667 101.898 347.038 103.592" stroke="black" stroke-width="3" stroke-linecap="round"/>
<path d="M348.663 66.0137C348.682 66.0137 348.68 66.2538 348.521 66.7416C348.024 68.2713 344.766 68.8747 342.813 69.2351C341.375 69.5005 340.2 69.1743 339.703 68.9693C339.19 68.7572 338.807 68.2865 338.467 67.808C338.108 67.3032 338.07 65.9887 338.104 64.3979C338.146 62.4095 340.616 60.4674 341.918 59.4675C342.488 59.0295 343.737 59.0224 345.062 59.0118C345.848 59.0055 346.31 59.4225 346.716 59.8136C347.86 60.9159 348.596 63.3788 348.975 64.863C349.024 65.9046 348.93 66.7308 348.685 67.1486C348.537 67.3486 348.338 67.5241 347.884 67.8135" stroke="black" stroke-width="3" stroke-linecap="round"/>
<path d="M367.233 88.509C367.233 88.4905 367.248 85.521 368.059 77.4561C368.576 72.3154 370.435 65.1913 371.257 61.3595C372.139 57.25 372.127 56.5922 372.254 56.0024C372.309 55.7458 372.584 55.6578 372.995 55.9196C374.134 56.6459 376.128 59.6917 378.513 63.2194C379.613 64.8471 380.678 66.637 382.459 69.5509C384.27 72.5125 385.791 74.6426 386.59 75.9732C387.279 77.1211 387.909 78.5741 388.882 80.5123C390.087 82.9138 391.234 86.1923 392.173 88.8855C392.406 89.5533 393.304 85.4767 394.192 79.7399C394.802 75.7953 395.459 72.993 395.797 69.3532C396.161 65.435 396.4 62.6724 396.487 61.1366C396.753 59.1706 396.843 58.4423 396.936 57.677C396.987 57.1533 397.048 56.3549 397.136 55.4985" stroke="black" stroke-width="3" stroke-linecap="round"/>
<path d="M426.753 68.7146C426.753 68.6961 426.753 68.3531 426.681 67.7015C426.482 65.8891 423.841 64.1526 422.398 63.1048C421.442 62.4104 418.542 62.5027 415.749 62.9788C414.118 63.2567 412.256 65.2368 409.368 68.8887C407.98 70.6434 407.439 72.6309 406.96 74.6082C405.721 79.7281 406.48 83.5182 407.085 85.8523C407.673 88.1226 409.008 89.937 410.397 91.2605C412.176 92.9563 415.243 93.2056 418.22 93.2992C419.62 93.3432 420.737 92.1396 421.724 91.1453C422.889 89.9717 424.279 87.4692 425.267 85.5084C425.888 84.2759 426.148 82.6278 426.37 81.8292C426.501 84.6821 426.45 90.3997 426.332 92.0356C426.306 92.3839 426.287 92.6949 426.045 93.5192" stroke="black" stroke-width="3" stroke-linecap="round"/>
<path d="M418.305 79.9712C419.65 79.9712 424.54 80.1983 429.679 81.6464C430.93 82.1196 431.467 82.3371 431.933 82.4785C432.171 82.5502 432.413 82.6218 432.858 82.761" stroke="black" stroke-width="3" stroke-linecap="round"/>
<path d="M459.47 70.8753C459.257 70.7275 457.93 70.1766 453.762 69.5441C449.64 68.9187 448.275 70.005 446.561 71.2774C444.164 73.0563 443.755 74.5579 442.741 77.0075C441.643 79.6614 441.35 83.0672 441.09 86.1528C440.711 90.665 441.772 92.6221 442.995 94.7311C443.647 95.856 445.544 97.0322 447.792 97.976C451.136 99.3799 453.56 98.4836 455.049 97.94C456.403 97.4452 457.569 96.2737 459.129 94.5858C460.708 92.8777 461.664 90.2527 462.446 88.0633C463.117 86.1818 463.188 82.066 463.21 77.6085C463.225 74.5305 462.274 72.2815 461.523 71.2869C460.558 70.5821 459.813 70.2319 459.137 70.1056C458.711 70.0571 458.118 70.0401 457.507 70.0226" stroke="black" stroke-width="3" stroke-linecap="round"/>
<path d="M361.317 29.8311C361.372 29.8311 364.206 29.8311 369.268 29.914C373.148 29.9777 375.18 30.417 375.876 30.5571C376.454 30.6736 380.411 31.4318 387.27 32.763C390.439 33.378 393.007 33.6965 395.596 34.1503C398.185 34.6041 400.725 35.1391 405.414 35.5614C410.102 35.9837 416.862 36.2771 423.373 36.86C429.884 37.4429 435.941 38.3065 439.6 38.8088C445.811 39.6613 447.494 39.7444 448.755 39.8199C449.783 39.8814 450.937 39.9794 455.7 41.1517C457.938 41.7025 459.473 41.7029 461.957 42.0639C463.555 42.2778 464.964 42.5443 465.414 42.7628C465.627 42.8952 465.806 43.0714 466.201 43.5268" stroke="black" stroke-width="3" stroke-linecap="round"/>
<path d="M466.201 43.5267C466.688 43.5357 468.257 43.6766 471.795 44.5456C474.936 45.3171 477.896 46.3003 479.935 46.6548C482.075 46.9966 483.442 47.1906 484.587 47.3679C484.859 47.3984 485.158 47.42 485.467 47.4422" stroke="black" stroke-width="3" stroke-linecap="round"/>
<path d="M485.466 47.4421C485.466 47.4594 485.453 50.6273 485.327 56.5225C485.222 61.4858 484.703 64.1852 484.139 66.8672C483.664 69.1259 482.794 73.2046 481.637 77.2003C480.481 81.1959 479.063 84.9843 478.085 88.5506C476.614 95.3462 476.103 98.9341 476.065 99.4592C476.028 99.7235 475.957 99.9836 475.811 100.431" stroke="black" stroke-width="3" stroke-linecap="round"/>
<path d="M475.811 100.431C475.811 100.449 475.811 102.842 475.724 106.994C475.625 111.781 474.577 113.785 474.307 114.856C473.888 116.659 473.488 118.296 473.339 119.265C473.259 119.945 473.169 121.004 473.048 122.126" stroke="black" stroke-width="3" stroke-linecap="round"/>
<path d="M473.048 122.126C473.016 122.126 472.985 122.126 468.257 122.044C463.53 121.961 454.108 121.796 444.794 121.237C435.48 120.677 426.559 119.728 419.609 118.94C412.658 118.152 407.949 117.553 403.677 116.756C399.404 115.958 395.71 114.98 393.236 114.383C390.762 113.786 389.619 113.601 388.01 113.294" stroke="black" stroke-width="3" stroke-linecap="round"/>
<path d="M388.01 113.294C386.389 113.283 380.264 112.817 376.624 112.272C372.193 111.609 369.039 110.777 366.685 110.392C360.712 109.415 356.388 108.923 355.641 108.799C352.969 108.353 350.117 107.647 348.433 107.243C347.806 107.093 347.295 106.913 346.855 106.676C346.234 105.824 345.99 104.964 345.772 104.298C345.678 103.981 345.62 103.71 345.353 103.136" stroke="black" stroke-width="3" stroke-linecap="round"/>
<path d="M116.061 123.786C115.939 123.786 115.583 123.831 115.265 124.044C114.924 124.273 114.714 124.62 114.536 124.895C114.391 125.118 114.172 125.567 114.038 125.924C113.94 126.188 113.848 126.613 113.766 127.067C113.627 127.837 113.725 128.62 113.855 129.141C114.002 129.734 114.169 129.992 114.442 130.453C115.059 131.498 115.411 131.657 115.683 131.821C115.884 131.942 116.248 131.97 116.884 131.998C117.409 132.022 117.781 131.986 117.975 131.888C118.598 131.574 118.889 131.223 119.111 130.984C119.249 130.836 119.389 130.659 119.505 130.484C119.722 130.159 119.878 129.628 119.937 129.392C120.031 129.014 120.059 128.441 120.16 127.712C120.24 127.128 120.181 126.653 120.108 126.353C119.939 125.652 119.581 124.978 119.301 124.523C119.14 124.261 118.937 124.183 118.727 124.067C118.542 123.964 118.348 123.936 118.138 123.892C117.87 123.837 117.597 123.768 117.354 123.738C117.04 123.7 116.42 123.674 116.029 123.69C115.991 123.698 115.954 123.71 115.918 123.726C115.882 123.743 115.849 123.764 115.814 123.809" stroke="black" stroke-width="3" stroke-linecap="round"/>
<path d="M119.679 118.485C119.684 118.485 119.786 118.33 120.212 117.676C121.086 116.333 121.888 115.179 122.334 114.575C122.557 114.273 122.751 113.952 123.594 112.516C124.436 111.079 125.914 108.531 126.694 107.177C127.518 105.747 127.777 105.218 128.233 104.361C129.152 102.634 129.768 101.434 130.08 100.864C130.449 100.188 130.869 99.3787 131.19 98.7595C131.367 98.4168 131.96 97.4657 132.818 96.0574C133.459 95.0043 133.891 94.4442 134.828 92.8895C135.92 91.0776 136.231 90.209 136.568 89.9474C136.839 89.7375 137.076 89.4775 137.201 89.1138C137.398 88.5377 137.794 87.8574 138.012 87.501C138.263 87.091 138.602 86.733 138.911 86.4043C139.038 86.2534 139.148 86.1048 139.26 85.9505C139.317 85.8739 139.377 85.8007 139.439 85.7253" stroke="black" stroke-width="3" stroke-linecap="round"/>
<path d="M139.824 85.4652C139.934 85.5036 140.283 85.7362 140.563 86.0012C140.805 86.2295 140.988 86.7139 141.283 87.4522C141.737 88.5886 141.84 89.2016 141.926 89.7535C142.016 90.3285 142.025 91.0436 142.038 92.2768C142.047 93.0529 141.753 93.7077 141.661 94.2096C141.547 94.8235 141.337 95.5824 141.124 96.1509C140.943 96.6315 140.608 97.179 140.344 97.6597C140.091 98.1216 139.658 98.841 139.303 99.4143C138.772 100.271 138.504 100.787 137.897 101.687C137.483 102.302 137.252 102.629 136.902 103.176C135.929 104.696 135.623 104.984 135.346 105.341C135.108 105.648 134.84 105.961 134.619 106.32C134.562 106.421 134.501 106.534 134.44 106.653C134.379 106.772 134.319 106.894 134.239 107.045" stroke="black" stroke-width="3" stroke-linecap="round"/>
<path d="M134.238 107.045C134.189 107.132 133.987 107.431 133.654 107.917C133.11 108.712 132.742 109.372 132.477 109.835C132.279 110.18 132.045 110.699 131.782 111.298C131.609 111.692 131.42 112.11 131.251 112.517C131.108 112.861 130.858 113.302 129.96 114.878C129.266 116.094 129.153 116.473 128.827 117.124C128.505 117.769 128.278 118.297 127.762 119.234C127.151 120.344 126.819 120.821 126.593 121.18C126.324 121.606 126.015 122.054 125.752 122.418C125.405 122.898 125.173 123.26 124.919 123.598C124.798 123.786 124.679 123.964 124.567 124.118C124.514 124.197 124.466 124.277 124.358 124.465" stroke="black" stroke-width="3" stroke-linecap="round"/>
<path d="M124.099 124.654C124.087 125.288 124.006 127.094 123.905 127.915C123.769 129.014 123.334 130.65 123.184 131.139C122.968 131.844 122.431 132.902 121.984 133.693C121.623 134.333 121.204 134.768 120.73 135.262C120.428 135.577 120.033 135.788 119.4 136.193C118.685 136.649 118.228 136.747 117.793 136.907C117.259 137.105 116.471 137.203 115.262 137.205C114.687 137.207 114.258 136.908 113.66 136.58C113.221 136.339 112.958 136.027 112.683 135.767C112.377 135.479 112.096 135.104 111.707 134.635C111.396 134.261 111.064 133.755 110.866 133.372C110.624 132.906 110.35 132.169 110.111 131.556C109.945 131.129 109.803 130.512 109.688 129.878C109.599 129.384 109.599 128.859 109.566 128.072C109.468 125.752 109.652 125.099 109.855 124.185C110.128 122.951 110.407 122.638 110.636 122.16C110.946 121.511 111.572 120.913 112.545 119.815C112.98 119.325 113.439 118.988 113.738 118.828C114.05 118.662 114.391 118.459 114.699 118.294C115.009 118.128 115.365 118.034 116.282 117.857C118.147 117.497 118.68 117.867 119.113 118.061C119.222 118.114 119.314 118.156 119.399 118.19C119.485 118.223 119.562 118.245 119.641 118.268" stroke="black" stroke-width="3" stroke-linecap="round"/>
<path d="M121.239 116.499C121.35 116.499 121.81 116.403 122.165 116.28C122.472 116.174 123.295 116.122 123.871 116.155C124.207 116.175 124.505 116.315 124.858 116.419C125.447 116.592 125.735 116.795 126.073 117.067C126.47 117.386 126.818 117.765 127.129 118.018C127.259 118.126 127.401 118.269 127.543 118.446C127.609 118.535 127.663 118.621 127.739 118.745" stroke="black" stroke-width="3" stroke-linecap="round"/>
<path d="M141.841 123.686C142.063 123.679 142.645 123.71 142.859 123.792C143.012 123.85 143.144 123.955 143.556 124.189C143.768 124.309 143.91 124.463 144.028 124.616C144.24 124.889 144.436 125.101 144.631 125.414C144.947 125.923 144.949 126.323 144.995 126.536C145.039 126.736 145.096 126.911 145.134 127.164C145.209 127.667 145.104 128.489 144.952 129.041C144.829 129.488 144.688 129.787 144.59 130.014C144.43 130.384 144.075 130.869 143.75 131.359C143.531 131.69 143.189 131.922 142.864 132.11C142.637 132.241 142.168 132.256 141.653 132.265C140.978 132.278 140.304 131.796 140.112 131.666C139.937 131.548 139.75 131.376 139.487 131.161C139.272 130.986 139.105 130.781 138.977 130.622C138.77 130.366 138.555 129.879 138.431 129.388C138.388 129.216 138.398 128.694 138.405 127.957C138.411 127.302 138.546 126.864 138.8 126.256C138.954 125.885 139.255 125.449 139.708 124.865C140.086 124.378 140.448 124.159 140.642 124.061C140.974 123.892 141.284 123.879 141.51 123.851C141.567 123.844 141.633 123.839 141.687 123.833C141.74 123.828 141.781 123.823 141.865 123.81" stroke="black" stroke-width="3" stroke-linecap="round"/>
<path d="M129.559 116.405C129.632 116.484 129.902 116.812 130.118 117.094C130.348 117.394 130.49 117.716 130.676 118.089C130.928 118.595 131.08 118.866 131.248 119.12C131.419 119.377 131.667 119.65 131.894 119.927C132.116 120.198 132.398 120.743 132.609 121.134C132.846 121.573 132.989 121.911 133.125 122.261C133.262 122.615 133.352 122.984 133.497 123.269C133.63 123.566 133.762 123.867 133.877 124.182C133.905 124.265 133.936 124.346 133.979 124.465" stroke="black" stroke-width="3" stroke-linecap="round"/>
<path d="M133.979 124.465C133.999 124.564 134.057 124.904 134.094 125.272C134.125 125.582 134.111 126.469 134.128 127.575C134.142 128.562 134.387 129.528 134.477 129.987C134.583 130.531 134.678 130.83 134.779 131.182C134.889 131.562 135.027 131.876 135.209 132.269C135.409 132.701 135.607 133.078 135.816 133.428C136.08 133.872 136.432 134.35 136.67 134.627C137.096 135.125 137.33 135.267 137.73 135.547C138.291 135.939 138.906 136.191 139.221 136.326C139.712 136.534 140.496 136.7 141.143 136.881C141.842 137.077 142.714 136.782 143.298 136.567C143.647 136.437 143.93 136.296 144.288 136.141C144.802 135.918 145.395 135.33 145.687 135.036C145.963 134.76 146.199 134.422 146.618 133.795C146.943 133.31 147.212 132.931 147.586 132.29C147.794 131.934 147.959 131.603 148.163 131.313C148.474 130.868 148.791 130.197 148.926 129.823C149.198 129.073 148.973 127.732 148.936 127.289C148.904 126.901 148.815 126.541 148.771 126.225C148.73 125.918 148.68 125.606 148.602 125.244C148.58 125.158 148.561 125.087 148.48 124.85" stroke="black" stroke-width="3" stroke-linecap="round"/>
<path d="M148.538 124.985C148.538 124.877 148.502 124.553 148.233 123.915C148.011 123.391 147.857 123.091 147.6 122.604C147.322 122.075 147.036 121.886 146.748 121.579C146.516 121.332 146.239 120.977 145.949 120.641C145.706 120.359 145.354 120.096 145.07 119.892C144.778 119.681 144.451 119.434 144.138 119.293C143.83 119.156 143.517 119.135 142.827 119.034C142.449 118.979 142.072 118.898 141.711 118.855C141.415 118.82 141.087 118.768 140.822 118.726C140.519 118.662 140.229 118.572 139.957 118.51C139.88 118.5 139.791 118.493 139.698 118.485" stroke="black" stroke-width="3" stroke-linecap="round"/>
<path d="M139.698 118.485C139.625 118.455 139.385 118.274 139.165 118.076C138.933 117.868 138.589 117.475 138.284 117.093C137.884 116.593 137.591 116.225 137.415 115.916C137.249 115.622 137.116 115.369 136.949 115.065C136.777 114.75 136.619 114.477 136.371 113.928C136.046 113.209 135.401 112.445 135.114 112.043C134.931 111.786 134.808 111.503 134.425 110.75C134.221 110.348 134.022 110.002 133.866 109.751C133.781 109.63 133.688 109.506 133.598 109.375C133.556 109.306 133.522 109.235 133.458 109.125" stroke="black" stroke-width="3" stroke-linecap="round"/>
<path d="M129.039 101.585C128.996 101.491 128.788 101.147 128.375 100.47C128.098 100.013 127.822 99.4529 127.598 99.086C127.301 98.5995 127.014 98.0278 126.278 96.9496C126.018 96.5692 125.474 95.5976 124.691 94.2262C124.235 93.4276 123.948 92.8326 123.581 92.1949C122.947 91.0918 122.586 90.4668 122.245 89.9159C121.925 89.398 121.754 89.0628 121.504 88.6509C121.305 88.3248 121.111 88.0157 120.693 87.2197C120.47 86.7942 120.219 86.4066 119.964 86.0144C119.795 85.7491 119.671 85.553 119.585 85.4226C119.545 85.3569 119.51 85.2921 119.419 85.2053" stroke="black" stroke-width="3" stroke-linecap="round"/>
<path d="M119.243 85.2053C119.179 85.2407 118.971 85.4044 118.737 85.6122C118.466 85.8522 118.135 86.138 117.936 86.3967C117.746 86.6444 117.631 87.069 117.412 87.6819C117.235 88.1806 116.916 89.16 116.776 89.6896C116.664 90.1161 116.614 90.4327 116.577 90.9605C116.517 91.8173 116.62 92.1913 116.66 92.8283C116.711 93.6533 116.824 94.0058 116.895 94.3427C116.96 94.6503 117.12 94.9175 117.271 95.1839C117.433 95.4713 117.546 95.7856 117.723 96.1321C117.874 96.4292 118.09 96.8724 118.51 97.7567C118.724 98.2081 119.191 99.2564 119.502 99.9268C119.719 100.21 119.957 100.575 119.957 100.575C119.957 100.575 120.116 101.032 120.199 101.065" stroke="black" stroke-width="3" stroke-linecap="round"/>
<path d="M119.938 100.285C119.946 100.39 120.234 100.675 120.392 101.083C120.645 101.737 120.921 102.232 121.111 102.594C121.408 103.159 121.585 103.446 122.08 104.243C122.402 104.762 122.756 105.346 122.992 105.685C123.214 106.003 123.474 106.202 123.927 106.619C124.408 107.062 124.675 107.353 124.968 107.699C125.049 107.802 125.133 107.916 125.196 108.007C125.259 108.098 125.299 108.163 125.398 108.345" stroke="black" stroke-width="3" stroke-linecap="round"/>
<path d="M130.858 118.225C131.035 118.081 131.465 117.745 131.705 117.564C132.108 117.262 132.453 117.017 133.098 116.7C134.137 116.188 134.906 115.951 135.017 115.923C135.37 115.804 135.987 115.636 136.972 115.625C137.171 115.631 137.214 115.645 137.358 115.697" stroke="black" stroke-width="3" stroke-linecap="round"/>
<path d="M107.198 85.4652V136.165" stroke="black" stroke-width="3" stroke-linecap="round"/>
<path d="M97.3186 136.945H107.199" stroke="black" stroke-width="3" stroke-linecap="round"/>
<path d="M97.3186 85.2053V136.165" stroke="black" stroke-width="3" stroke-linecap="round"/>
<path d="M97.0586 85.2053H107.199" stroke="black" stroke-width="3" stroke-linecap="round"/>
<path d="M103.299 89.6252H107.199" stroke="black" stroke-width="3" stroke-linecap="round"/>
<path d="M103.819 95.0853H107.199" stroke="black" stroke-width="3" stroke-linecap="round"/>
<path d="M103.559 101.585C103.561 101.585 103.564 101.585 104.156 101.603C104.748 101.621 105.93 101.656 107.199 102.105" stroke="black" stroke-width="3" stroke-linecap="round"/>
<path d="M103.819 107.825C103.829 107.825 103.84 107.825 104.383 107.825C104.926 107.825 106.002 107.825 107.199 107.825" stroke="black" stroke-width="3" stroke-linecap="round"/>
<path d="M103.299 114.325C103.307 114.325 103.315 114.325 103.868 114.325C104.422 114.325 105.52 114.325 106.124 114.325C106.728 114.325 106.803 114.325 106.939 114.325" stroke="black" stroke-width="3" stroke-linecap="round"/>
<path d="M103.299 120.045C103.305 120.045 103.311 120.045 103.913 120.045C104.514 120.045 105.71 120.045 106.939 120.045" stroke="black" stroke-width="3" stroke-linecap="round"/>
<path d="M103.559 126.545C103.564 126.545 103.569 126.545 104.108 126.545C104.646 126.545 105.719 126.545 106.939 126.545" stroke="black" stroke-width="3" stroke-linecap="round"/>
<path d="M103.559 132.785C103.561 132.785 103.564 132.785 104.056 132.785C104.548 132.785 105.53 132.785 106.077 132.785C106.624 132.785 106.706 132.785 106.939 132.785" stroke="black" stroke-width="3" stroke-linecap="round"/>
</svg>
